G04*
G04 #@! TF.GenerationSoftware,Altium Limited,Altium Designer,20.1.14 (287)*
G04*
G04 Layer_Color=32896*
%FSLAX44Y44*%
%MOMM*%
G71*
G04*
G04 #@! TF.SameCoordinates,555A517A-9F76-4A69-B8FD-E90865B7C856*
G04*
G04*
G04 #@! TF.FilePolarity,Positive*
G04*
G01*
G75*
%ADD37C,0.1270*%
G36*
X283155Y-125702D02*
X283317D01*
X283503Y-125725D01*
X283896Y-125794D01*
X283919D01*
X283988Y-125817D01*
X284081Y-125841D01*
X284220Y-125864D01*
X284521Y-125956D01*
X284868Y-126072D01*
X284891D01*
X284937Y-126095D01*
X285030Y-126142D01*
X285145Y-126188D01*
X285400Y-126304D01*
X285678Y-126442D01*
X285701D01*
X285724Y-126465D01*
X285863Y-126558D01*
X286025Y-126674D01*
X286164Y-126789D01*
X286187Y-126812D01*
X286233Y-126859D01*
X286302Y-126928D01*
X286326Y-126998D01*
X286349Y-127044D01*
X286395Y-127160D01*
Y-127183D01*
X286418Y-127229D01*
Y-127298D01*
X286441Y-127391D01*
Y-127414D01*
X286464Y-127460D01*
Y-127576D01*
Y-127692D01*
Y-127715D01*
Y-127808D01*
Y-127900D01*
X286441Y-128016D01*
Y-128039D01*
X286418Y-128108D01*
X286372Y-128270D01*
Y-128293D01*
X286349Y-128317D01*
X286279Y-128409D01*
X286256D01*
X286140Y-128432D01*
X286117D01*
X286048Y-128409D01*
X285909Y-128363D01*
X285747Y-128247D01*
X285701Y-128224D01*
X285562Y-128132D01*
X285377Y-127993D01*
X285099Y-127831D01*
X285076Y-127808D01*
X285030Y-127784D01*
X284937Y-127738D01*
X284821Y-127669D01*
X284683Y-127599D01*
X284521Y-127530D01*
X284127Y-127391D01*
X284104D01*
X284035Y-127368D01*
X283919Y-127322D01*
X283757Y-127275D01*
X283549Y-127252D01*
X283317Y-127206D01*
X283063Y-127183D01*
X282623D01*
X282461Y-127206D01*
X282253Y-127229D01*
X281999Y-127275D01*
X281744Y-127322D01*
X281466Y-127414D01*
X281189Y-127530D01*
X281166Y-127553D01*
X281073Y-127599D01*
X280934Y-127669D01*
X280772Y-127784D01*
X280587Y-127923D01*
X280379Y-128108D01*
X280194Y-128317D01*
X279985Y-128548D01*
X279962Y-128571D01*
X279893Y-128664D01*
X279800Y-128802D01*
X279708Y-129011D01*
X279569Y-129242D01*
X279430Y-129520D01*
X279314Y-129844D01*
X279199Y-130191D01*
Y-130237D01*
X279152Y-130353D01*
X279129Y-130561D01*
X279083Y-130816D01*
X279037Y-131140D01*
X278990Y-131510D01*
X278967Y-131926D01*
X278944Y-132389D01*
Y-132412D01*
Y-132435D01*
Y-132505D01*
Y-132597D01*
X278967Y-132829D01*
Y-133130D01*
X279014Y-133454D01*
X279060Y-133824D01*
X279106Y-134194D01*
X279199Y-134564D01*
X279222Y-134611D01*
X279245Y-134726D01*
X279314Y-134888D01*
X279407Y-135120D01*
X279499Y-135374D01*
X279638Y-135629D01*
X279800Y-135883D01*
X279962Y-136138D01*
X279985Y-136161D01*
X280055Y-136230D01*
X280170Y-136346D01*
X280309Y-136485D01*
X280494Y-136647D01*
X280703Y-136809D01*
X280934Y-136948D01*
X281189Y-137086D01*
X281212Y-137110D01*
X281327Y-137133D01*
X281466Y-137179D01*
X281674Y-137248D01*
X281906Y-137318D01*
X282184Y-137364D01*
X282484Y-137387D01*
X282831Y-137410D01*
X283109D01*
X283294Y-137387D01*
X283503Y-137364D01*
X283711Y-137341D01*
X284174Y-137225D01*
X284197D01*
X284266Y-137202D01*
X284382Y-137156D01*
X284521Y-137110D01*
X284821Y-136971D01*
X285145Y-136809D01*
X285169D01*
X285215Y-136763D01*
X285284Y-136716D01*
X285377Y-136670D01*
X285608Y-136531D01*
X285816Y-136392D01*
X285840D01*
X285863Y-136369D01*
X285979Y-136277D01*
X286117Y-136207D01*
X286233Y-136184D01*
X286279D01*
X286349Y-136230D01*
X286372D01*
X286395Y-136253D01*
X286418Y-136277D01*
X286441Y-136346D01*
Y-136369D01*
X286464Y-136392D01*
Y-136462D01*
X286488Y-136577D01*
Y-136601D01*
X286511Y-136670D01*
Y-136786D01*
Y-136948D01*
Y-136971D01*
Y-137040D01*
Y-137133D01*
X286488Y-137248D01*
Y-137271D01*
Y-137318D01*
X286441Y-137457D01*
X286418Y-137503D01*
X286372Y-137596D01*
Y-137619D01*
X286349Y-137642D01*
X286302Y-137711D01*
X286233Y-137781D01*
X286210Y-137804D01*
X286140Y-137850D01*
X286025Y-137943D01*
X285816Y-138081D01*
X285793D01*
X285770Y-138128D01*
X285701Y-138151D01*
X285608Y-138220D01*
X285354Y-138336D01*
X285030Y-138498D01*
X285007D01*
X284937Y-138521D01*
X284845Y-138567D01*
X284729Y-138614D01*
X284567Y-138660D01*
X284382Y-138706D01*
X283942Y-138799D01*
X283919D01*
X283827Y-138822D01*
X283711Y-138845D01*
X283549Y-138868D01*
X283341Y-138891D01*
X283109Y-138914D01*
X282600Y-138938D01*
X282392D01*
X282137Y-138914D01*
X281836Y-138891D01*
X281489Y-138845D01*
X281096Y-138752D01*
X280703Y-138660D01*
X280309Y-138521D01*
X280263Y-138498D01*
X280147Y-138452D01*
X279962Y-138336D01*
X279731Y-138220D01*
X279453Y-138035D01*
X279175Y-137827D01*
X278875Y-137572D01*
X278597Y-137295D01*
X278574Y-137248D01*
X278481Y-137156D01*
X278342Y-136971D01*
X278181Y-136716D01*
X278018Y-136439D01*
X277833Y-136091D01*
X277648Y-135698D01*
X277486Y-135258D01*
Y-135235D01*
X277463Y-135212D01*
Y-135143D01*
X277440Y-135050D01*
X277394Y-134935D01*
X277371Y-134796D01*
X277301Y-134448D01*
X277232Y-134055D01*
X277185Y-133569D01*
X277139Y-133060D01*
X277116Y-132482D01*
Y-132458D01*
Y-132412D01*
Y-132320D01*
Y-132204D01*
X277139Y-132065D01*
Y-131903D01*
X277162Y-131533D01*
X277209Y-131093D01*
X277278Y-130607D01*
X277371Y-130121D01*
X277509Y-129635D01*
Y-129612D01*
X277533Y-129589D01*
X277556Y-129520D01*
X277579Y-129427D01*
X277671Y-129196D01*
X277810Y-128895D01*
X277972Y-128548D01*
X278181Y-128201D01*
X278412Y-127831D01*
X278666Y-127484D01*
X278713Y-127437D01*
X278805Y-127345D01*
X278967Y-127183D01*
X279175Y-126974D01*
X279453Y-126766D01*
X279754Y-126535D01*
X280101Y-126327D01*
X280471Y-126142D01*
X280494D01*
X280518Y-126118D01*
X280656Y-126072D01*
X280865Y-126003D01*
X281166Y-125910D01*
X281513Y-125817D01*
X281906Y-125748D01*
X282346Y-125702D01*
X282808Y-125679D01*
X283017D01*
X283155Y-125702D01*
D02*
G37*
G36*
X357525Y-124915D02*
X357664Y-124938D01*
X357687D01*
X357757Y-124961D01*
X357849Y-124985D01*
X357919Y-125008D01*
X357942D01*
X357965Y-125031D01*
X358058Y-125100D01*
X358081Y-125123D01*
X358104Y-125216D01*
Y-138544D01*
Y-138567D01*
Y-138590D01*
X358058Y-138706D01*
X358035Y-138729D01*
X357919Y-138776D01*
X357896D01*
X357873Y-138799D01*
X357803D01*
X357711Y-138822D01*
X357618D01*
X357502Y-138845D01*
X357132D01*
X357016Y-138822D01*
X356993D01*
X356947Y-138799D01*
X356785Y-138776D01*
X356762D01*
X356739Y-138752D01*
X356646Y-138683D01*
Y-138660D01*
Y-138637D01*
X356623Y-138544D01*
Y-137341D01*
X356600Y-137364D01*
X356507Y-137457D01*
X356345Y-137596D01*
X356160Y-137781D01*
X355952Y-137966D01*
X355698Y-138174D01*
X355420Y-138359D01*
X355142Y-138544D01*
X355119Y-138567D01*
X355003Y-138614D01*
X354865Y-138683D01*
X354656Y-138752D01*
X354402Y-138822D01*
X354124Y-138891D01*
X353800Y-138938D01*
X353476Y-138961D01*
X353314D01*
X353129Y-138938D01*
X352898Y-138914D01*
X352620Y-138868D01*
X352342Y-138799D01*
X352042Y-138706D01*
X351764Y-138590D01*
X351741Y-138567D01*
X351648Y-138521D01*
X351532Y-138428D01*
X351370Y-138313D01*
X351185Y-138174D01*
X351000Y-137989D01*
X350815Y-137781D01*
X350630Y-137549D01*
X350607Y-137526D01*
X350560Y-137434D01*
X350491Y-137295D01*
X350399Y-137109D01*
X350306Y-136901D01*
X350190Y-136624D01*
X350098Y-136346D01*
X350005Y-136022D01*
Y-135976D01*
X349982Y-135860D01*
X349959Y-135675D01*
X349913Y-135443D01*
X349889Y-135166D01*
X349843Y-134842D01*
X349820Y-134518D01*
Y-134148D01*
Y-134124D01*
Y-134101D01*
Y-133963D01*
X349843Y-133731D01*
Y-133454D01*
X349866Y-133130D01*
X349913Y-132782D01*
X350051Y-132065D01*
X350075Y-132019D01*
X350098Y-131903D01*
X350167Y-131741D01*
X350237Y-131510D01*
X350352Y-131255D01*
X350468Y-131001D01*
X350630Y-130723D01*
X350792Y-130469D01*
X350815Y-130445D01*
X350885Y-130353D01*
X350977Y-130237D01*
X351116Y-130098D01*
X351301Y-129913D01*
X351509Y-129751D01*
X351741Y-129589D01*
X351995Y-129450D01*
X352018Y-129427D01*
X352134Y-129381D01*
X352273Y-129335D01*
X352481Y-129265D01*
X352736Y-129196D01*
X353013Y-129126D01*
X353337Y-129103D01*
X353684Y-129080D01*
X353823D01*
X353962Y-129103D01*
X354170Y-129126D01*
X354379Y-129173D01*
X354633Y-129219D01*
X354865Y-129312D01*
X355119Y-129427D01*
X355142Y-129450D01*
X355235Y-129497D01*
X355373Y-129566D01*
X355536Y-129682D01*
X355744Y-129821D01*
X355952Y-130006D01*
X356207Y-130214D01*
X356438Y-130445D01*
Y-125216D01*
Y-125193D01*
Y-125170D01*
X356461Y-125100D01*
Y-125077D01*
X356507Y-125054D01*
X356600Y-125008D01*
X356623D01*
X356669Y-124985D01*
X356739Y-124961D01*
X356855Y-124938D01*
X356878D01*
X356970Y-124915D01*
X357086Y-124892D01*
X357387D01*
X357525Y-124915D01*
D02*
G37*
G36*
X391633Y-129103D02*
X391841Y-129126D01*
X392073Y-129150D01*
X392327Y-129219D01*
X392582Y-129288D01*
X392813Y-129404D01*
X392836Y-129427D01*
X392929Y-129450D01*
X393021Y-129520D01*
X393183Y-129612D01*
X393322Y-129728D01*
X393507Y-129867D01*
X393669Y-130029D01*
X393808Y-130214D01*
X393831Y-130237D01*
X393877Y-130307D01*
X393947Y-130422D01*
X394016Y-130561D01*
X394109Y-130723D01*
X394201Y-130931D01*
X394294Y-131163D01*
X394363Y-131417D01*
Y-131440D01*
X394387Y-131533D01*
X394433Y-131672D01*
X394456Y-131880D01*
X394502Y-132111D01*
X394525Y-132389D01*
X394548Y-132713D01*
Y-133060D01*
Y-138544D01*
Y-138567D01*
Y-138590D01*
X394502Y-138683D01*
X394479Y-138706D01*
X394363Y-138776D01*
X394340D01*
X394294Y-138799D01*
X394225D01*
X394109Y-138822D01*
X394016D01*
X393877Y-138845D01*
X393438D01*
X393299Y-138822D01*
X393276D01*
X393230Y-138799D01*
X393068Y-138776D01*
X393045D01*
X393021Y-138752D01*
X392929Y-138683D01*
Y-138637D01*
X392906Y-138544D01*
Y-133268D01*
Y-133245D01*
Y-133130D01*
Y-132991D01*
X392882Y-132829D01*
X392859Y-132435D01*
X392813Y-132227D01*
X392767Y-132042D01*
Y-132019D01*
X392744Y-131949D01*
X392720Y-131880D01*
X392674Y-131764D01*
X392582Y-131487D01*
X392420Y-131232D01*
Y-131209D01*
X392373Y-131163D01*
X392258Y-131024D01*
X392073Y-130862D01*
X391818Y-130700D01*
X391795D01*
X391749Y-130677D01*
X391679Y-130631D01*
X391587Y-130607D01*
X391309Y-130538D01*
X390985Y-130515D01*
X390869D01*
X390754Y-130538D01*
X390592Y-130561D01*
X390407Y-130631D01*
X390198Y-130700D01*
X389967Y-130816D01*
X389735Y-130978D01*
X389712Y-131001D01*
X389620Y-131047D01*
X389504Y-131163D01*
X389342Y-131301D01*
X389134Y-131487D01*
X388926Y-131695D01*
X388694Y-131949D01*
X388440Y-132250D01*
Y-138544D01*
Y-138567D01*
Y-138590D01*
X388394Y-138683D01*
X388370Y-138706D01*
X388255Y-138776D01*
X388232D01*
X388185Y-138799D01*
X388116D01*
X388000Y-138822D01*
X387907D01*
X387769Y-138845D01*
X387329D01*
X387190Y-138822D01*
X387167D01*
X387121Y-138799D01*
X386959Y-138776D01*
X386936D01*
X386912Y-138752D01*
X386820Y-138683D01*
Y-138637D01*
X386797Y-138544D01*
Y-129543D01*
Y-129520D01*
Y-129497D01*
X386820Y-129404D01*
X386843Y-129381D01*
X386889Y-129335D01*
X386936Y-129312D01*
X386959D01*
X387005Y-129288D01*
X387075Y-129265D01*
X387167Y-129242D01*
X387190D01*
X387260Y-129219D01*
X387769D01*
X387884Y-129242D01*
X387907D01*
X387977Y-129265D01*
X388046Y-129288D01*
X388116Y-129312D01*
X388139D01*
X388162Y-129335D01*
X388208Y-129358D01*
X388232Y-129404D01*
X388255Y-129427D01*
X388278Y-129543D01*
Y-130723D01*
X388324Y-130677D01*
X388417Y-130584D01*
X388555Y-130445D01*
X388764Y-130260D01*
X388972Y-130052D01*
X389226Y-129844D01*
X389504Y-129659D01*
X389782Y-129497D01*
X389828Y-129473D01*
X389921Y-129427D01*
X390060Y-129358D01*
X390268Y-129288D01*
X390499Y-129219D01*
X390754Y-129150D01*
X391031Y-129103D01*
X391309Y-129080D01*
X391471D01*
X391633Y-129103D01*
D02*
G37*
G36*
X267259Y-129103D02*
X267490Y-129127D01*
X267768Y-129173D01*
X268045Y-129242D01*
X268323Y-129335D01*
X268601Y-129474D01*
X268624Y-129497D01*
X268717Y-129543D01*
X268832Y-129635D01*
X268994Y-129751D01*
X269179Y-129890D01*
X269364Y-130075D01*
X269550Y-130283D01*
X269711Y-130515D01*
X269735Y-130538D01*
X269781Y-130631D01*
X269874Y-130769D01*
X269966Y-130955D01*
X270059Y-131163D01*
X270174Y-131440D01*
X270267Y-131718D01*
X270359Y-132042D01*
Y-132088D01*
X270382Y-132204D01*
X270429Y-132366D01*
X270475Y-132597D01*
X270498Y-132875D01*
X270544Y-133199D01*
X270568Y-133523D01*
Y-133893D01*
Y-133916D01*
Y-133940D01*
Y-134009D01*
Y-134101D01*
X270544Y-134310D01*
Y-134611D01*
X270498Y-134935D01*
X270452Y-135281D01*
X270382Y-135652D01*
X270290Y-136022D01*
Y-136068D01*
X270244Y-136184D01*
X270174Y-136346D01*
X270105Y-136577D01*
X269989Y-136809D01*
X269874Y-137086D01*
X269711Y-137364D01*
X269550Y-137619D01*
X269526Y-137642D01*
X269457Y-137734D01*
X269364Y-137850D01*
X269226Y-137989D01*
X269040Y-138151D01*
X268832Y-138313D01*
X268578Y-138475D01*
X268323Y-138614D01*
X268300Y-138637D01*
X268184Y-138660D01*
X268045Y-138729D01*
X267837Y-138776D01*
X267583Y-138845D01*
X267305Y-138914D01*
X267004Y-138938D01*
X266657Y-138961D01*
X266518D01*
X266402Y-138938D01*
X266171Y-138914D01*
X265893Y-138868D01*
X265870D01*
X265847Y-138845D01*
X265685Y-138822D01*
X265477Y-138729D01*
X265246Y-138637D01*
X265222D01*
X265199Y-138614D01*
X265037Y-138521D01*
X264829Y-138382D01*
X264598Y-138220D01*
X264575Y-138197D01*
X264551Y-138174D01*
X264482Y-138104D01*
X264389Y-138035D01*
X264181Y-137850D01*
X263927Y-137596D01*
Y-142085D01*
Y-142131D01*
X263880Y-142200D01*
X263857Y-142247D01*
X263741Y-142316D01*
X263718D01*
X263672Y-142339D01*
X263603Y-142362D01*
X263487Y-142385D01*
X263394D01*
X263256Y-142409D01*
X262816D01*
X262677Y-142385D01*
X262654D01*
X262608Y-142362D01*
X262446Y-142316D01*
X262423D01*
X262399Y-142293D01*
X262307Y-142200D01*
Y-142177D01*
X262284Y-142085D01*
Y-129543D01*
Y-129520D01*
Y-129497D01*
X262307Y-129404D01*
Y-129381D01*
X262330Y-129358D01*
X262376Y-129335D01*
X262423Y-129312D01*
X262446D01*
X262492Y-129288D01*
X262561Y-129265D01*
X262654Y-129242D01*
X262677D01*
X262747Y-129219D01*
X263232D01*
X263325Y-129242D01*
X263348D01*
X263418Y-129265D01*
X263556Y-129312D01*
X263580D01*
X263603Y-129335D01*
X263649Y-129358D01*
X263672Y-129404D01*
X263695Y-129427D01*
X263718Y-129543D01*
Y-130746D01*
X263741Y-130723D01*
X263788Y-130677D01*
X263880Y-130607D01*
X263973Y-130492D01*
X264227Y-130260D01*
X264505Y-130029D01*
X264528Y-130006D01*
X264575Y-129983D01*
X264644Y-129913D01*
X264760Y-129844D01*
X264991Y-129682D01*
X265269Y-129520D01*
X265292D01*
X265338Y-129474D01*
X265408Y-129450D01*
X265523Y-129404D01*
X265778Y-129288D01*
X266055Y-129196D01*
X266079D01*
X266125Y-129173D01*
X266217Y-129150D01*
X266310Y-129127D01*
X266588Y-129103D01*
X266912Y-129080D01*
X267074D01*
X267259Y-129103D01*
D02*
G37*
G36*
X412597Y-129103D02*
X412620D01*
X412690Y-129126D01*
X412805Y-129150D01*
X412921Y-129173D01*
X412944D01*
X413037Y-129196D01*
X413130Y-129219D01*
X413245Y-129265D01*
X413268D01*
X413338Y-129288D01*
X413407Y-129312D01*
X413453Y-129358D01*
X413477D01*
X413500Y-129381D01*
X413546Y-129450D01*
X413569Y-129473D01*
Y-129566D01*
Y-129589D01*
X413592Y-129612D01*
Y-129682D01*
Y-129774D01*
Y-129797D01*
X413615Y-129867D01*
Y-129959D01*
Y-130121D01*
Y-130168D01*
Y-130260D01*
Y-130376D01*
X413592Y-130492D01*
Y-130515D01*
Y-130561D01*
X413546Y-130723D01*
Y-130746D01*
X413523Y-130769D01*
X413477Y-130862D01*
X413453Y-130885D01*
X413361Y-130908D01*
X413292D01*
X413153Y-130862D01*
X413130D01*
X413083Y-130839D01*
X412991Y-130793D01*
X412898Y-130769D01*
X412875D01*
X412805Y-130746D01*
X412713Y-130700D01*
X412574Y-130677D01*
X412551D01*
X412458Y-130654D01*
X412320Y-130631D01*
X412135D01*
X412019Y-130654D01*
X411880Y-130677D01*
X411695Y-130746D01*
X411649Y-130769D01*
X411556Y-130816D01*
X411394Y-130931D01*
X411186Y-131070D01*
X411139Y-131116D01*
X411024Y-131232D01*
X410839Y-131440D01*
X410630Y-131695D01*
X410607Y-131718D01*
X410584Y-131764D01*
X410515Y-131834D01*
X410445Y-131949D01*
X410353Y-132088D01*
X410260Y-132250D01*
X410006Y-132620D01*
Y-138544D01*
Y-138567D01*
Y-138590D01*
X409959Y-138683D01*
X409936Y-138706D01*
X409821Y-138776D01*
X409797D01*
X409751Y-138799D01*
X409682D01*
X409566Y-138822D01*
X409473D01*
X409335Y-138845D01*
X408895D01*
X408756Y-138822D01*
X408733D01*
X408687Y-138799D01*
X408525Y-138776D01*
X408502D01*
X408479Y-138752D01*
X408386Y-138683D01*
Y-138637D01*
X408363Y-138544D01*
Y-129543D01*
Y-129520D01*
Y-129497D01*
X408386Y-129404D01*
X408409Y-129381D01*
X408455Y-129335D01*
X408502Y-129312D01*
X408525D01*
X408571Y-129288D01*
X408640Y-129265D01*
X408733Y-129242D01*
X408756D01*
X408825Y-129219D01*
X409335D01*
X409450Y-129242D01*
X409473D01*
X409543Y-129265D01*
X409612Y-129288D01*
X409682Y-129312D01*
X409705D01*
X409728Y-129335D01*
X409774Y-129358D01*
X409797Y-129404D01*
X409821Y-129427D01*
X409844Y-129543D01*
Y-130862D01*
X409867Y-130839D01*
X409913Y-130769D01*
X409982Y-130677D01*
X410075Y-130538D01*
X410283Y-130260D01*
X410538Y-129983D01*
X410561Y-129959D01*
X410584Y-129913D01*
X410746Y-129774D01*
X410931Y-129612D01*
X411139Y-129450D01*
X411163D01*
X411186Y-129427D01*
X411325Y-129335D01*
X411510Y-129242D01*
X411718Y-129173D01*
X411741D01*
X411764Y-129150D01*
X411903Y-129126D01*
X412088Y-129103D01*
X412296Y-129080D01*
X412482D01*
X412597Y-129103D01*
D02*
G37*
G36*
X347483D02*
X347506D01*
X347576Y-129126D01*
X347691Y-129150D01*
X347807Y-129173D01*
X347830D01*
X347923Y-129196D01*
X348015Y-129219D01*
X348131Y-129265D01*
X348154D01*
X348223Y-129288D01*
X348293Y-129312D01*
X348339Y-129358D01*
X348362D01*
X348385Y-129381D01*
X348432Y-129450D01*
X348455Y-129473D01*
Y-129566D01*
Y-129589D01*
X348478Y-129612D01*
Y-129682D01*
Y-129774D01*
Y-129797D01*
X348501Y-129867D01*
Y-129959D01*
Y-130121D01*
Y-130168D01*
Y-130260D01*
Y-130376D01*
X348478Y-130492D01*
Y-130515D01*
Y-130561D01*
X348432Y-130723D01*
Y-130746D01*
X348409Y-130769D01*
X348362Y-130862D01*
X348339Y-130885D01*
X348247Y-130908D01*
X348177D01*
X348038Y-130862D01*
X348015D01*
X347969Y-130839D01*
X347876Y-130793D01*
X347784Y-130769D01*
X347761D01*
X347691Y-130746D01*
X347599Y-130700D01*
X347460Y-130677D01*
X347437D01*
X347344Y-130654D01*
X347205Y-130631D01*
X347020D01*
X346904Y-130654D01*
X346766Y-130677D01*
X346581Y-130746D01*
X346534Y-130769D01*
X346442Y-130816D01*
X346280Y-130931D01*
X346072Y-131070D01*
X346025Y-131116D01*
X345910Y-131232D01*
X345724Y-131440D01*
X345516Y-131695D01*
X345493Y-131718D01*
X345470Y-131764D01*
X345401Y-131834D01*
X345331Y-131949D01*
X345238Y-132088D01*
X345146Y-132250D01*
X344891Y-132620D01*
Y-138544D01*
Y-138567D01*
Y-138590D01*
X344845Y-138683D01*
X344822Y-138706D01*
X344706Y-138776D01*
X344683D01*
X344637Y-138799D01*
X344567D01*
X344452Y-138822D01*
X344359D01*
X344220Y-138845D01*
X343781D01*
X343642Y-138822D01*
X343619D01*
X343572Y-138799D01*
X343410Y-138776D01*
X343387D01*
X343364Y-138752D01*
X343272Y-138683D01*
Y-138637D01*
X343248Y-138544D01*
Y-129543D01*
Y-129520D01*
Y-129497D01*
X343272Y-129404D01*
X343295Y-129381D01*
X343341Y-129335D01*
X343387Y-129312D01*
X343410D01*
X343457Y-129288D01*
X343526Y-129265D01*
X343619Y-129242D01*
X343642D01*
X343711Y-129219D01*
X344220D01*
X344336Y-129242D01*
X344359D01*
X344429Y-129265D01*
X344498Y-129288D01*
X344567Y-129312D01*
X344591D01*
X344614Y-129335D01*
X344660Y-129358D01*
X344683Y-129404D01*
X344706Y-129427D01*
X344729Y-129543D01*
Y-130862D01*
X344753Y-130839D01*
X344799Y-130769D01*
X344868Y-130677D01*
X344961Y-130538D01*
X345169Y-130260D01*
X345424Y-129983D01*
X345447Y-129959D01*
X345470Y-129913D01*
X345632Y-129774D01*
X345817Y-129612D01*
X346025Y-129450D01*
X346048D01*
X346072Y-129427D01*
X346210Y-129335D01*
X346395Y-129242D01*
X346604Y-129173D01*
X346627D01*
X346650Y-129150D01*
X346789Y-129126D01*
X346974Y-129103D01*
X347182Y-129080D01*
X347367D01*
X347483Y-129103D01*
D02*
G37*
G36*
X314394D02*
X314417D01*
X314486Y-129126D01*
X314602Y-129150D01*
X314718Y-129173D01*
X314741D01*
X314833Y-129196D01*
X314926Y-129219D01*
X315042Y-129265D01*
X315065D01*
X315134Y-129288D01*
X315203Y-129312D01*
X315250Y-129358D01*
X315273D01*
X315296Y-129381D01*
X315342Y-129450D01*
X315366Y-129473D01*
Y-129566D01*
Y-129589D01*
X315389Y-129612D01*
Y-129682D01*
Y-129774D01*
Y-129797D01*
X315412Y-129867D01*
Y-129959D01*
Y-130121D01*
Y-130168D01*
Y-130260D01*
Y-130376D01*
X315389Y-130492D01*
Y-130515D01*
Y-130561D01*
X315342Y-130723D01*
Y-130746D01*
X315319Y-130769D01*
X315273Y-130862D01*
X315250Y-130885D01*
X315157Y-130908D01*
X315088D01*
X314949Y-130862D01*
X314926D01*
X314880Y-130839D01*
X314787Y-130793D01*
X314694Y-130769D01*
X314671D01*
X314602Y-130746D01*
X314509Y-130700D01*
X314370Y-130677D01*
X314347D01*
X314255Y-130654D01*
X314116Y-130631D01*
X313931D01*
X313815Y-130654D01*
X313676Y-130677D01*
X313491Y-130746D01*
X313445Y-130769D01*
X313352Y-130816D01*
X313190Y-130931D01*
X312982Y-131070D01*
X312936Y-131116D01*
X312820Y-131232D01*
X312635Y-131440D01*
X312427Y-131695D01*
X312404Y-131718D01*
X312381Y-131764D01*
X312311Y-131834D01*
X312242Y-131950D01*
X312149Y-132088D01*
X312057Y-132250D01*
X311802Y-132620D01*
Y-138544D01*
Y-138567D01*
Y-138590D01*
X311756Y-138683D01*
X311733Y-138706D01*
X311617Y-138776D01*
X311594D01*
X311548Y-138799D01*
X311478D01*
X311362Y-138822D01*
X311270D01*
X311131Y-138845D01*
X310691D01*
X310553Y-138822D01*
X310529D01*
X310483Y-138799D01*
X310321Y-138776D01*
X310298D01*
X310275Y-138752D01*
X310182Y-138683D01*
Y-138637D01*
X310159Y-138544D01*
Y-129543D01*
Y-129520D01*
Y-129497D01*
X310182Y-129404D01*
X310205Y-129381D01*
X310252Y-129335D01*
X310298Y-129312D01*
X310321D01*
X310367Y-129288D01*
X310437Y-129265D01*
X310529Y-129242D01*
X310553D01*
X310622Y-129219D01*
X311131D01*
X311247Y-129242D01*
X311270D01*
X311339Y-129265D01*
X311409Y-129288D01*
X311478Y-129312D01*
X311501D01*
X311524Y-129335D01*
X311571Y-129358D01*
X311594Y-129404D01*
X311617Y-129427D01*
X311640Y-129543D01*
Y-130862D01*
X311663Y-130839D01*
X311709Y-130769D01*
X311779Y-130677D01*
X311871Y-130538D01*
X312080Y-130260D01*
X312334Y-129983D01*
X312357Y-129959D01*
X312381Y-129913D01*
X312542Y-129774D01*
X312728Y-129612D01*
X312936Y-129450D01*
X312959D01*
X312982Y-129427D01*
X313121Y-129335D01*
X313306Y-129242D01*
X313514Y-129173D01*
X313538D01*
X313561Y-129150D01*
X313699Y-129126D01*
X313885Y-129103D01*
X314093Y-129080D01*
X314278D01*
X314394Y-129103D01*
D02*
G37*
G36*
X380665Y-129126D02*
X380919Y-129150D01*
X380989D01*
X381058Y-129173D01*
X381151D01*
X381359Y-129219D01*
X381590Y-129265D01*
X384344D01*
X384413Y-129288D01*
X384506Y-129335D01*
X384576Y-129450D01*
X384599Y-129473D01*
X384622Y-129566D01*
X384645Y-129728D01*
X384668Y-129936D01*
Y-129959D01*
Y-129983D01*
X384645Y-130121D01*
X384622Y-130307D01*
X384552Y-130445D01*
X384529Y-130469D01*
X384483Y-130515D01*
X384413Y-130561D01*
X384321Y-130584D01*
X383025D01*
X383048Y-130607D01*
X383071Y-130654D01*
X383141Y-130723D01*
X383210Y-130816D01*
X383372Y-131070D01*
X383511Y-131394D01*
Y-131417D01*
X383534Y-131463D01*
X383557Y-131556D01*
X383604Y-131672D01*
X383650Y-131973D01*
X383673Y-132320D01*
Y-132343D01*
Y-132458D01*
X383650Y-132597D01*
Y-132782D01*
X383604Y-133014D01*
X383557Y-133245D01*
X383511Y-133477D01*
X383419Y-133708D01*
Y-133731D01*
X383372Y-133801D01*
X383303Y-133916D01*
X383233Y-134055D01*
X383002Y-134379D01*
X382701Y-134726D01*
X382678Y-134749D01*
X382609Y-134796D01*
X382516Y-134865D01*
X382400Y-134958D01*
X382238Y-135050D01*
X382030Y-135166D01*
X381822Y-135258D01*
X381590Y-135351D01*
X381567D01*
X381475Y-135374D01*
X381336Y-135420D01*
X381174Y-135443D01*
X380966Y-135490D01*
X380711Y-135536D01*
X380457Y-135559D01*
X379971D01*
X379832Y-135536D01*
X379670D01*
X379508Y-135490D01*
X379115Y-135420D01*
X379091D01*
X379045Y-135397D01*
X378953Y-135374D01*
X378837Y-135328D01*
X378582Y-135212D01*
X378351Y-135050D01*
X378328Y-135073D01*
X378258Y-135166D01*
X378166Y-135305D01*
X378073Y-135467D01*
X378050Y-135513D01*
X378027Y-135629D01*
X378004Y-135791D01*
X377981Y-135999D01*
Y-136022D01*
Y-136045D01*
X378027Y-136207D01*
X378120Y-136392D01*
X378189Y-136485D01*
X378305Y-136577D01*
X378328D01*
X378374Y-136624D01*
X378443Y-136647D01*
X378536Y-136693D01*
X378652Y-136739D01*
X378814Y-136762D01*
X379161Y-136809D01*
X381498Y-136924D01*
X381614D01*
X381729Y-136948D01*
X381914D01*
X382099Y-136971D01*
X382308Y-137017D01*
X382724Y-137109D01*
X382747D01*
X382817Y-137133D01*
X382933Y-137179D01*
X383048Y-137225D01*
X383372Y-137364D01*
X383696Y-137572D01*
X383719Y-137596D01*
X383766Y-137619D01*
X383835Y-137688D01*
X383928Y-137781D01*
X384136Y-138012D01*
X384344Y-138336D01*
Y-138359D01*
X384390Y-138405D01*
X384413Y-138498D01*
X384460Y-138614D01*
X384506Y-138776D01*
X384529Y-138938D01*
X384576Y-139331D01*
Y-139354D01*
Y-139447D01*
X384552Y-139562D01*
Y-139701D01*
X384506Y-139886D01*
X384460Y-140094D01*
X384390Y-140303D01*
X384298Y-140511D01*
Y-140534D01*
X384252Y-140604D01*
X384182Y-140719D01*
X384113Y-140858D01*
X383997Y-140997D01*
X383858Y-141182D01*
X383696Y-141344D01*
X383511Y-141506D01*
X383488Y-141529D01*
X383419Y-141575D01*
X383303Y-141645D01*
X383141Y-141737D01*
X382956Y-141853D01*
X382701Y-141969D01*
X382447Y-142085D01*
X382146Y-142177D01*
X382099D01*
X382007Y-142223D01*
X381822Y-142247D01*
X381590Y-142293D01*
X381290Y-142339D01*
X380966Y-142385D01*
X380596Y-142409D01*
X380179Y-142432D01*
X379786D01*
X379531Y-142409D01*
X379253Y-142385D01*
X378929Y-142362D01*
X378629Y-142316D01*
X378328Y-142247D01*
X378305D01*
X378212Y-142200D01*
X378050Y-142177D01*
X377888Y-142108D01*
X377472Y-141946D01*
X377263Y-141853D01*
X377078Y-141737D01*
X377055Y-141714D01*
X377009Y-141668D01*
X376916Y-141599D01*
X376801Y-141506D01*
X376569Y-141275D01*
X376454Y-141113D01*
X376361Y-140951D01*
Y-140927D01*
X376338Y-140881D01*
X376292Y-140789D01*
X376268Y-140673D01*
X376222Y-140534D01*
X376176Y-140372D01*
X376153Y-140002D01*
Y-139979D01*
Y-139956D01*
Y-139794D01*
X376176Y-139585D01*
X376222Y-139354D01*
Y-139331D01*
X376245Y-139308D01*
X376268Y-139169D01*
X376361Y-138984D01*
X376454Y-138776D01*
Y-138752D01*
X376477Y-138729D01*
X376569Y-138614D01*
X376708Y-138452D01*
X376870Y-138266D01*
X376893Y-138243D01*
X376916Y-138220D01*
X377032Y-138104D01*
X377217Y-137942D01*
X377449Y-137757D01*
X377425Y-137734D01*
X377379Y-137711D01*
X377286Y-137665D01*
X377171Y-137572D01*
X376940Y-137387D01*
X376824Y-137271D01*
X376731Y-137133D01*
Y-137109D01*
X376685Y-137063D01*
X376662Y-136994D01*
X376615Y-136878D01*
X376546Y-136624D01*
X376500Y-136300D01*
Y-136277D01*
Y-136207D01*
X376523Y-136091D01*
Y-135929D01*
X376592Y-135605D01*
X376731Y-135235D01*
X376754Y-135212D01*
X376777Y-135143D01*
X376824Y-135050D01*
X376893Y-134934D01*
X377101Y-134657D01*
X377333Y-134356D01*
X377310Y-134333D01*
X377286Y-134286D01*
X377217Y-134217D01*
X377171Y-134101D01*
X377009Y-133847D01*
X376847Y-133523D01*
Y-133500D01*
X376824Y-133430D01*
X376801Y-133338D01*
X376777Y-133199D01*
X376731Y-133037D01*
X376708Y-132852D01*
X376685Y-132620D01*
Y-132389D01*
Y-132343D01*
Y-132250D01*
X376708Y-132111D01*
Y-131926D01*
X376754Y-131718D01*
X376801Y-131487D01*
X376847Y-131255D01*
X376940Y-131024D01*
X376963Y-131001D01*
X376986Y-130908D01*
X377055Y-130793D01*
X377125Y-130654D01*
X377356Y-130330D01*
X377657Y-129983D01*
X377680Y-129959D01*
X377749Y-129913D01*
X377842Y-129844D01*
X377981Y-129751D01*
X378143Y-129635D01*
X378328Y-129543D01*
X378536Y-129427D01*
X378768Y-129335D01*
X378791D01*
X378883Y-129288D01*
X379022Y-129265D01*
X379184Y-129219D01*
X379392Y-129173D01*
X379624Y-129150D01*
X380156Y-129103D01*
X380410D01*
X380665Y-129126D01*
D02*
G37*
G36*
X331054Y-129242D02*
X331193Y-129265D01*
X331216D01*
X331285Y-129288D01*
X331378Y-129312D01*
X331447Y-129358D01*
X331470Y-129381D01*
X331494Y-129404D01*
X331517Y-129473D01*
X331540Y-129543D01*
Y-129566D01*
Y-129612D01*
X331517Y-129728D01*
X331470Y-129844D01*
X328254Y-138776D01*
X327051Y-142061D01*
X327028Y-142085D01*
X326982Y-142154D01*
X326889Y-142247D01*
X326727Y-142316D01*
X326681Y-142339D01*
X326542Y-142362D01*
X326449Y-142385D01*
X326334D01*
X326172Y-142409D01*
X325848D01*
X325709Y-142385D01*
X325570Y-142362D01*
X325547D01*
X325501Y-142339D01*
X325339Y-142270D01*
X325316D01*
X325292Y-142223D01*
X325246Y-142200D01*
X325223Y-142131D01*
Y-142108D01*
Y-142061D01*
X325246Y-141992D01*
X325292Y-141899D01*
X326519Y-138776D01*
X326472Y-138752D01*
X326426Y-138706D01*
X326357Y-138660D01*
Y-138637D01*
X326310Y-138590D01*
X326241Y-138475D01*
X323048Y-129867D01*
X323025Y-129821D01*
X323002Y-129751D01*
X322978Y-129635D01*
X322955Y-129543D01*
Y-129520D01*
Y-129473D01*
X322978Y-129404D01*
X323025Y-129358D01*
X323048Y-129335D01*
X323094Y-129312D01*
X323187Y-129288D01*
X323302Y-129265D01*
X323326D01*
X323441Y-129242D01*
X323580Y-129219D01*
X324112D01*
X324251Y-129242D01*
X324274D01*
X324344Y-129265D01*
X324436Y-129288D01*
X324506Y-129312D01*
X324529D01*
X324575Y-129335D01*
X324621Y-129358D01*
X324668Y-129427D01*
Y-129450D01*
X324691Y-129473D01*
X324760Y-129612D01*
X327329Y-136832D01*
X327352D01*
X329851Y-129589D01*
Y-129566D01*
X329874Y-129473D01*
X329920Y-129404D01*
X329967Y-129335D01*
X329990D01*
X330036Y-129312D01*
X330105Y-129288D01*
X330221Y-129265D01*
X330267D01*
X330360Y-129242D01*
X330522Y-129219D01*
X330892D01*
X331054Y-129242D01*
D02*
G37*
G36*
X306665Y-129242D02*
X306688D01*
X306758Y-129265D01*
X306850Y-129288D01*
X306920Y-129312D01*
X306943D01*
X306966Y-129335D01*
X307059Y-129404D01*
X307082Y-129427D01*
X307105Y-129543D01*
Y-138544D01*
Y-138567D01*
Y-138590D01*
X307059Y-138683D01*
X307035Y-138706D01*
X306920Y-138776D01*
X306896D01*
X306873Y-138799D01*
X306804D01*
X306688Y-138822D01*
X306596D01*
X306480Y-138845D01*
X306087D01*
X305948Y-138822D01*
X305925D01*
X305878Y-138799D01*
X305716Y-138776D01*
X305670Y-138752D01*
X305601Y-138683D01*
Y-138637D01*
X305578Y-138544D01*
Y-137364D01*
X305554Y-137410D01*
X305439Y-137503D01*
X305300Y-137642D01*
X305115Y-137827D01*
X304883Y-138035D01*
X304629Y-138243D01*
X304351Y-138428D01*
X304074Y-138590D01*
X304050Y-138614D01*
X303958Y-138637D01*
X303796Y-138706D01*
X303611Y-138776D01*
X303379Y-138845D01*
X303125Y-138891D01*
X302847Y-138938D01*
X302546Y-138961D01*
X302407D01*
X302246Y-138938D01*
X302037Y-138914D01*
X301783Y-138891D01*
X301551Y-138845D01*
X301297Y-138776D01*
X301042Y-138683D01*
X301019Y-138660D01*
X300950Y-138637D01*
X300834Y-138567D01*
X300695Y-138475D01*
X300533Y-138359D01*
X300371Y-138220D01*
X300047Y-137873D01*
X300024Y-137850D01*
X299978Y-137781D01*
X299932Y-137665D01*
X299839Y-137526D01*
X299746Y-137341D01*
X299677Y-137133D01*
X299515Y-136670D01*
Y-136647D01*
X299492Y-136554D01*
X299469Y-136392D01*
X299446Y-136207D01*
X299399Y-135953D01*
X299376Y-135675D01*
X299353Y-135351D01*
Y-135004D01*
Y-129543D01*
Y-129520D01*
Y-129497D01*
X299376Y-129404D01*
X299422Y-129381D01*
X299515Y-129312D01*
X299538D01*
X299584Y-129288D01*
X299654Y-129265D01*
X299770Y-129242D01*
X299793D01*
X299885Y-129219D01*
X300441D01*
X300579Y-129242D01*
X300603D01*
X300672Y-129265D01*
X300765Y-129288D01*
X300834Y-129312D01*
X300857D01*
X300880Y-129335D01*
X300973Y-129404D01*
X300996Y-129427D01*
X301019Y-129543D01*
Y-134773D01*
Y-134796D01*
Y-134911D01*
Y-135050D01*
X301042Y-135235D01*
X301065Y-135652D01*
X301089Y-135860D01*
X301112Y-136045D01*
Y-136068D01*
X301135Y-136115D01*
X301158Y-136207D01*
X301204Y-136323D01*
X301297Y-136601D01*
X301459Y-136878D01*
X301482Y-136901D01*
X301505Y-136924D01*
X301621Y-137063D01*
X301829Y-137225D01*
X302060Y-137387D01*
X302083D01*
X302130Y-137410D01*
X302199Y-137434D01*
X302315Y-137457D01*
X302569Y-137526D01*
X302893Y-137549D01*
X303009D01*
X303125Y-137526D01*
X303287Y-137503D01*
X303472Y-137457D01*
X303680Y-137364D01*
X303888Y-137271D01*
X304120Y-137133D01*
X304143Y-137110D01*
X304235Y-137040D01*
X304351Y-136948D01*
X304513Y-136809D01*
X304721Y-136624D01*
X304930Y-136392D01*
X305184Y-136138D01*
X305439Y-135837D01*
Y-129543D01*
Y-129520D01*
Y-129497D01*
X305462Y-129404D01*
X305508Y-129381D01*
X305601Y-129312D01*
X305624D01*
X305670Y-129288D01*
X305739Y-129265D01*
X305855Y-129242D01*
X305878D01*
X305971Y-129219D01*
X306526D01*
X306665Y-129242D01*
D02*
G37*
G36*
X373283Y-125794D02*
X373422Y-125817D01*
X373445D01*
X373515Y-125841D01*
X373607Y-125864D01*
X373677Y-125887D01*
X373700D01*
X373746Y-125910D01*
X373792Y-125933D01*
X373839Y-125979D01*
X373862Y-126003D01*
X373885Y-126095D01*
Y-138544D01*
Y-138590D01*
X373839Y-138683D01*
X373792Y-138706D01*
X373746Y-138729D01*
X373677Y-138752D01*
X373654D01*
X373607Y-138776D01*
X373538D01*
X373422Y-138799D01*
X373399D01*
X373307Y-138822D01*
X373191Y-138845D01*
X372890D01*
X372751Y-138822D01*
X372612Y-138799D01*
X372589D01*
X372520Y-138776D01*
X372335Y-138752D01*
X372312D01*
X372288Y-138729D01*
X372196Y-138683D01*
Y-138660D01*
Y-138637D01*
X372173Y-138544D01*
Y-126095D01*
Y-126072D01*
Y-126049D01*
X372196Y-125979D01*
Y-125956D01*
X372242Y-125933D01*
X372335Y-125887D01*
X372358D01*
X372404Y-125864D01*
X372497Y-125841D01*
X372612Y-125817D01*
X372635D01*
X372728Y-125794D01*
X372867Y-125771D01*
X373168D01*
X373283Y-125794D01*
D02*
G37*
G36*
X337232Y-129103D02*
X337487Y-129126D01*
X337765Y-129173D01*
X338042Y-129242D01*
X338297Y-129312D01*
X338320D01*
X338412Y-129358D01*
X338528Y-129404D01*
X338690Y-129473D01*
X339060Y-129682D01*
X339245Y-129821D01*
X339407Y-129959D01*
X339431Y-129983D01*
X339477Y-130029D01*
X339546Y-130121D01*
X339639Y-130237D01*
X339731Y-130399D01*
X339847Y-130584D01*
X339940Y-130793D01*
X340009Y-131024D01*
Y-131047D01*
X340032Y-131140D01*
X340078Y-131255D01*
X340125Y-131440D01*
X340148Y-131649D01*
X340194Y-131903D01*
X340217Y-132181D01*
Y-132482D01*
Y-138567D01*
Y-138590D01*
Y-138637D01*
X340171Y-138683D01*
X340125Y-138729D01*
X340102D01*
X340078Y-138752D01*
X340009Y-138776D01*
X339893Y-138799D01*
X339870D01*
X339801Y-138822D01*
X339662Y-138845D01*
X339361D01*
X339222Y-138822D01*
X339083Y-138799D01*
X339060D01*
X338991Y-138776D01*
X338921Y-138752D01*
X338852Y-138729D01*
X338829Y-138683D01*
X338806Y-138637D01*
X338783Y-138567D01*
Y-137665D01*
X338759Y-137688D01*
X338690Y-137757D01*
X338551Y-137873D01*
X338412Y-138012D01*
X338204Y-138174D01*
X337973Y-138336D01*
X337741Y-138498D01*
X337464Y-138637D01*
X337440Y-138660D01*
X337348Y-138683D01*
X337186Y-138729D01*
X337001Y-138799D01*
X336769Y-138868D01*
X336515Y-138914D01*
X336237Y-138938D01*
X335936Y-138961D01*
X335682D01*
X335497Y-138938D01*
X335312Y-138914D01*
X335080Y-138891D01*
X334641Y-138776D01*
X334618D01*
X334548Y-138752D01*
X334432Y-138706D01*
X334317Y-138660D01*
X333993Y-138498D01*
X333669Y-138266D01*
X333646Y-138243D01*
X333599Y-138197D01*
X333530Y-138128D01*
X333437Y-138012D01*
X333345Y-137896D01*
X333229Y-137734D01*
X333044Y-137387D01*
Y-137364D01*
X333021Y-137295D01*
X332975Y-137202D01*
X332952Y-137040D01*
X332905Y-136878D01*
X332859Y-136693D01*
X332836Y-136230D01*
Y-136207D01*
Y-136115D01*
X332859Y-135976D01*
X332882Y-135791D01*
X332905Y-135582D01*
X332975Y-135374D01*
X333044Y-135143D01*
X333137Y-134934D01*
X333160Y-134911D01*
X333183Y-134842D01*
X333252Y-134726D01*
X333368Y-134587D01*
X333484Y-134448D01*
X333646Y-134286D01*
X333808Y-134124D01*
X334016Y-133986D01*
X334039Y-133963D01*
X334132Y-133916D01*
X334247Y-133847D01*
X334409Y-133778D01*
X334618Y-133685D01*
X334849Y-133592D01*
X335127Y-133500D01*
X335427Y-133430D01*
X335474D01*
X335589Y-133407D01*
X335751Y-133361D01*
X335983Y-133338D01*
X336260Y-133292D01*
X336584Y-133268D01*
X336955Y-133245D01*
X338574D01*
Y-132551D01*
Y-132528D01*
Y-132458D01*
Y-132366D01*
X338551Y-132250D01*
X338528Y-131949D01*
X338459Y-131649D01*
Y-131625D01*
X338436Y-131579D01*
X338412Y-131510D01*
X338366Y-131417D01*
X338250Y-131186D01*
X338088Y-130978D01*
Y-130954D01*
X338042Y-130931D01*
X337926Y-130816D01*
X337718Y-130677D01*
X337464Y-130561D01*
X337440D01*
X337394Y-130538D01*
X337302Y-130515D01*
X337209Y-130492D01*
X337070Y-130469D01*
X336908Y-130445D01*
X336515Y-130422D01*
X336283D01*
X336145Y-130445D01*
X335774Y-130492D01*
X335404Y-130584D01*
X335381D01*
X335335Y-130607D01*
X335242Y-130631D01*
X335127Y-130677D01*
X334849Y-130769D01*
X334571Y-130908D01*
X334548D01*
X334502Y-130931D01*
X334432Y-130954D01*
X334363Y-131001D01*
X334155Y-131093D01*
X333946Y-131209D01*
X333900Y-131232D01*
X333808Y-131278D01*
X333692Y-131325D01*
X333599Y-131348D01*
X333553D01*
X333437Y-131325D01*
X333414Y-131301D01*
X333345Y-131209D01*
Y-131186D01*
X333322Y-131140D01*
X333275Y-131001D01*
Y-130978D01*
Y-130908D01*
Y-130816D01*
Y-130723D01*
Y-130700D01*
Y-130677D01*
Y-130584D01*
Y-130445D01*
X333298Y-130330D01*
Y-130307D01*
X333345Y-130237D01*
X333391Y-130145D01*
X333461Y-130052D01*
X333484Y-130029D01*
X333576Y-129959D01*
X333715Y-129867D01*
X333923Y-129751D01*
X333946D01*
X333993Y-129728D01*
X334062Y-129682D01*
X334155Y-129635D01*
X334386Y-129543D01*
X334687Y-129427D01*
X334710D01*
X334756Y-129404D01*
X334849Y-129381D01*
X334965Y-129335D01*
X335103Y-129312D01*
X335265Y-129265D01*
X335636Y-129196D01*
X335659D01*
X335728Y-129173D01*
X335821Y-129150D01*
X335960Y-129126D01*
X336098D01*
X336283Y-129103D01*
X336654Y-129080D01*
X337001D01*
X337232Y-129103D01*
D02*
G37*
G36*
X249580Y-125887D02*
X249603D01*
X249627Y-125910D01*
X249696Y-126026D01*
Y-126049D01*
X249719Y-126095D01*
X249742Y-126165D01*
X249765Y-126257D01*
Y-126280D01*
X249788Y-126350D01*
Y-126442D01*
Y-126581D01*
Y-126604D01*
Y-126697D01*
Y-126812D01*
X249765Y-126928D01*
Y-126951D01*
X249742Y-126998D01*
X249696Y-127160D01*
X249673Y-127206D01*
X249580Y-127275D01*
X249534D01*
X249441Y-127298D01*
X245809D01*
Y-138544D01*
Y-138590D01*
X245762Y-138683D01*
X245716Y-138706D01*
X245670Y-138729D01*
X245600Y-138752D01*
X245577D01*
X245531Y-138776D01*
X245461D01*
X245346Y-138799D01*
X245322D01*
X245230Y-138822D01*
X245114Y-138845D01*
X244813D01*
X244675Y-138822D01*
X244536Y-138799D01*
X244513D01*
X244443Y-138776D01*
X244258Y-138752D01*
X244235D01*
X244212Y-138729D01*
X244119Y-138683D01*
Y-138660D01*
Y-138637D01*
X244096Y-138544D01*
Y-127298D01*
X240394D01*
X240301Y-127275D01*
X240255Y-127252D01*
X240186Y-127160D01*
Y-127136D01*
X240163Y-127090D01*
Y-127021D01*
X240139Y-126928D01*
Y-126905D01*
Y-126836D01*
X240116Y-126720D01*
Y-126581D01*
Y-126558D01*
Y-126465D01*
Y-126373D01*
X240139Y-126257D01*
Y-126234D01*
X240163Y-126165D01*
X240186Y-126026D01*
Y-126003D01*
X240209Y-125979D01*
X240301Y-125887D01*
X240324D01*
X240348Y-125864D01*
X240440Y-125841D01*
X249488D01*
X249580Y-125887D01*
D02*
G37*
G36*
X318906Y-126836D02*
X318929D01*
X318998Y-126859D01*
X319091Y-126882D01*
X319160Y-126905D01*
X319184D01*
X319207Y-126928D01*
X319299Y-127021D01*
X319322Y-127044D01*
X319345Y-127136D01*
Y-129265D01*
X321683D01*
X321775Y-129312D01*
X321798D01*
X321821Y-129335D01*
X321891Y-129450D01*
Y-129473D01*
X321914Y-129497D01*
X321937Y-129566D01*
X321960Y-129659D01*
Y-129682D01*
X321983Y-129728D01*
Y-129844D01*
Y-129959D01*
Y-129983D01*
Y-130029D01*
Y-130168D01*
X321937Y-130330D01*
X321891Y-130492D01*
X321868Y-130515D01*
X321821Y-130561D01*
X321752Y-130607D01*
X321636Y-130631D01*
X319345D01*
Y-135652D01*
Y-135698D01*
Y-135814D01*
X319369Y-135976D01*
Y-136184D01*
X319461Y-136647D01*
X319508Y-136855D01*
X319600Y-137063D01*
X319623Y-137086D01*
X319646Y-137133D01*
X319716Y-137202D01*
X319831Y-137295D01*
X319970Y-137387D01*
X320132Y-137457D01*
X320340Y-137503D01*
X320595Y-137526D01*
X320849D01*
X320988Y-137503D01*
X321012D01*
X321104Y-137480D01*
X321197Y-137434D01*
X321312Y-137410D01*
X321335Y-137387D01*
X321405Y-137364D01*
X321544Y-137295D01*
X321567D01*
X321613Y-137271D01*
X321752Y-137248D01*
X321775D01*
X321844Y-137295D01*
X321868Y-137318D01*
X321914Y-137387D01*
Y-137410D01*
X321937Y-137434D01*
X321960Y-137572D01*
Y-137596D01*
X321983Y-137642D01*
Y-137757D01*
Y-137873D01*
Y-137919D01*
Y-138035D01*
X321960Y-138174D01*
X321937Y-138336D01*
Y-138359D01*
X321914Y-138428D01*
X321868Y-138521D01*
X321798Y-138590D01*
X321775D01*
X321752Y-138637D01*
X321683Y-138683D01*
X321567Y-138729D01*
X321544D01*
X321451Y-138752D01*
X321335Y-138776D01*
X321197Y-138822D01*
X321174D01*
X321081Y-138845D01*
X320942Y-138868D01*
X320780Y-138891D01*
X320734D01*
X320641Y-138914D01*
X320479Y-138938D01*
X320063D01*
X319901Y-138914D01*
X319716Y-138891D01*
X319508Y-138868D01*
X319114Y-138776D01*
X319091D01*
X319045Y-138729D01*
X318952Y-138706D01*
X318836Y-138637D01*
X318559Y-138452D01*
X318304Y-138220D01*
X318281Y-138197D01*
X318258Y-138151D01*
X318188Y-138058D01*
X318119Y-137942D01*
X318050Y-137804D01*
X317980Y-137642D01*
X317841Y-137248D01*
Y-137225D01*
X317818Y-137156D01*
X317795Y-137017D01*
X317772Y-136855D01*
X317749Y-136670D01*
X317726Y-136439D01*
X317703Y-136184D01*
Y-135906D01*
Y-130631D01*
X316407D01*
X316337Y-130607D01*
X316245Y-130561D01*
X316175Y-130492D01*
Y-130469D01*
X316152Y-130353D01*
X316129Y-130191D01*
X316106Y-129959D01*
Y-129936D01*
Y-129844D01*
Y-129751D01*
X316129Y-129659D01*
Y-129635D01*
X316152Y-129589D01*
Y-129520D01*
X316175Y-129450D01*
Y-129427D01*
X316199Y-129404D01*
X316291Y-129312D01*
X316314D01*
X316337Y-129288D01*
X316430Y-129265D01*
X317703D01*
Y-127136D01*
Y-127113D01*
Y-127090D01*
X317726Y-127021D01*
Y-126998D01*
X317772Y-126974D01*
X317865Y-126905D01*
X317888D01*
X317934Y-126882D01*
X318003Y-126859D01*
X318096Y-126836D01*
X318119D01*
X318212Y-126812D01*
X318790D01*
X318906Y-126836D01*
D02*
G37*
G36*
X419585Y-129103D02*
X419840Y-129126D01*
X420118Y-129173D01*
X420418Y-129219D01*
X420719Y-129312D01*
X421020Y-129427D01*
X421043Y-129450D01*
X421159Y-129497D01*
X421298Y-129566D01*
X421460Y-129682D01*
X421645Y-129797D01*
X421853Y-129959D01*
X422061Y-130145D01*
X422246Y-130353D01*
X422270Y-130376D01*
X422316Y-130445D01*
X422408Y-130584D01*
X422524Y-130746D01*
X422640Y-130931D01*
X422756Y-131163D01*
X422871Y-131417D01*
X422964Y-131695D01*
Y-131718D01*
X423010Y-131834D01*
X423033Y-131973D01*
X423079Y-132181D01*
X423126Y-132435D01*
X423149Y-132713D01*
X423195Y-133014D01*
Y-133338D01*
Y-133639D01*
Y-133662D01*
Y-133708D01*
X423172Y-133847D01*
X423103Y-134032D01*
X422987Y-134194D01*
X422964Y-134217D01*
X422871Y-134263D01*
X422732Y-134333D01*
X422547Y-134356D01*
X416623D01*
Y-134379D01*
Y-134495D01*
Y-134634D01*
X416647Y-134819D01*
Y-135027D01*
X416693Y-135258D01*
X416762Y-135721D01*
Y-135744D01*
X416786Y-135814D01*
X416832Y-135929D01*
X416878Y-136068D01*
X417040Y-136415D01*
X417271Y-136762D01*
X417295Y-136786D01*
X417341Y-136832D01*
X417410Y-136901D01*
X417526Y-136994D01*
X417642Y-137109D01*
X417804Y-137202D01*
X418174Y-137410D01*
X418197D01*
X418266Y-137434D01*
X418405Y-137480D01*
X418567Y-137503D01*
X418775Y-137549D01*
X419007Y-137596D01*
X419261Y-137619D01*
X419794D01*
X419956Y-137596D01*
X420326Y-137572D01*
X420696Y-137526D01*
X420719D01*
X420789Y-137503D01*
X420881Y-137480D01*
X420997Y-137457D01*
X421274Y-137387D01*
X421575Y-137295D01*
X421599D01*
X421645Y-137271D01*
X421784Y-137202D01*
X421992Y-137133D01*
X422177Y-137063D01*
X422200D01*
X422223Y-137040D01*
X422316Y-136994D01*
X422431Y-136971D01*
X422547Y-136948D01*
X422593D01*
X422663Y-136994D01*
X422686D01*
X422709Y-137017D01*
X422756Y-137109D01*
Y-137133D01*
X422779Y-137156D01*
X422802Y-137295D01*
Y-137318D01*
X422825Y-137364D01*
Y-137480D01*
Y-137596D01*
Y-137619D01*
Y-137665D01*
X422802Y-137827D01*
Y-137850D01*
Y-137873D01*
X422779Y-138012D01*
X422756Y-138058D01*
X422709Y-138151D01*
X422686Y-138174D01*
X422640Y-138243D01*
X422593Y-138290D01*
X422478Y-138336D01*
X422316Y-138428D01*
X422293D01*
X422270Y-138452D01*
X422200Y-138475D01*
X422131Y-138498D01*
X421899Y-138567D01*
X421599Y-138660D01*
X421575D01*
X421529Y-138683D01*
X421437Y-138706D01*
X421321Y-138729D01*
X421182Y-138752D01*
X420997Y-138799D01*
X420603Y-138868D01*
X420580D01*
X420511Y-138891D01*
X420395D01*
X420256Y-138914D01*
X420071Y-138938D01*
X419863D01*
X419400Y-138961D01*
X419215D01*
X419007Y-138938D01*
X418752Y-138914D01*
X418428Y-138891D01*
X418104Y-138822D01*
X417780Y-138752D01*
X417457Y-138660D01*
X417410Y-138637D01*
X417318Y-138614D01*
X417156Y-138521D01*
X416971Y-138428D01*
X416739Y-138313D01*
X416508Y-138151D01*
X416276Y-137966D01*
X416045Y-137757D01*
X416022Y-137734D01*
X415952Y-137642D01*
X415860Y-137503D01*
X415721Y-137341D01*
X415582Y-137109D01*
X415443Y-136855D01*
X415305Y-136554D01*
X415189Y-136230D01*
Y-136184D01*
X415143Y-136068D01*
X415096Y-135883D01*
X415050Y-135605D01*
X415004Y-135305D01*
X414958Y-134934D01*
X414934Y-134518D01*
X414911Y-134078D01*
Y-134055D01*
Y-134032D01*
Y-133893D01*
X414934Y-133662D01*
X414958Y-133384D01*
X414981Y-133060D01*
X415027Y-132713D01*
X415096Y-132343D01*
X415189Y-131996D01*
X415212Y-131949D01*
X415235Y-131834D01*
X415305Y-131672D01*
X415420Y-131440D01*
X415536Y-131209D01*
X415675Y-130931D01*
X415860Y-130677D01*
X416045Y-130422D01*
X416068Y-130399D01*
X416138Y-130307D01*
X416276Y-130191D01*
X416438Y-130052D01*
X416623Y-129890D01*
X416855Y-129728D01*
X417133Y-129566D01*
X417410Y-129427D01*
X417457Y-129404D01*
X417549Y-129381D01*
X417711Y-129312D01*
X417943Y-129242D01*
X418197Y-129196D01*
X418521Y-129126D01*
X418845Y-129103D01*
X419215Y-129080D01*
X419400D01*
X419585Y-129103D01*
D02*
G37*
G36*
X401907D02*
X402161Y-129126D01*
X402462Y-129173D01*
X402786Y-129219D01*
X403110Y-129312D01*
X403434Y-129427D01*
X403480Y-129450D01*
X403573Y-129497D01*
X403735Y-129566D01*
X403920Y-129659D01*
X404151Y-129797D01*
X404383Y-129959D01*
X404614Y-130145D01*
X404822Y-130376D01*
X404846Y-130399D01*
X404915Y-130492D01*
X405008Y-130631D01*
X405146Y-130793D01*
X405262Y-131024D01*
X405401Y-131278D01*
X405540Y-131579D01*
X405655Y-131903D01*
X405679Y-131949D01*
X405702Y-132065D01*
X405748Y-132250D01*
X405794Y-132505D01*
X405841Y-132806D01*
X405887Y-133153D01*
X405933Y-133523D01*
Y-133939D01*
Y-133963D01*
Y-133986D01*
Y-134124D01*
X405910Y-134333D01*
X405887Y-134587D01*
X405864Y-134911D01*
X405817Y-135235D01*
X405725Y-135605D01*
X405632Y-135953D01*
X405609Y-135999D01*
X405586Y-136115D01*
X405517Y-136277D01*
X405401Y-136508D01*
X405285Y-136739D01*
X405146Y-137017D01*
X404961Y-137295D01*
X404753Y-137549D01*
X404730Y-137572D01*
X404660Y-137665D01*
X404522Y-137781D01*
X404360Y-137919D01*
X404151Y-138104D01*
X403920Y-138266D01*
X403642Y-138428D01*
X403318Y-138590D01*
X403272Y-138614D01*
X403156Y-138637D01*
X402994Y-138706D01*
X402740Y-138776D01*
X402462Y-138845D01*
X402115Y-138891D01*
X401745Y-138938D01*
X401328Y-138961D01*
X401143D01*
X400935Y-138938D01*
X400681Y-138914D01*
X400356Y-138891D01*
X400033Y-138822D01*
X399709Y-138752D01*
X399385Y-138637D01*
X399338Y-138614D01*
X399246Y-138567D01*
X399084Y-138498D01*
X398899Y-138405D01*
X398690Y-138266D01*
X398459Y-138104D01*
X398228Y-137896D01*
X397996Y-137688D01*
X397973Y-137665D01*
X397904Y-137572D01*
X397811Y-137434D01*
X397696Y-137271D01*
X397557Y-137040D01*
X397441Y-136786D01*
X397302Y-136485D01*
X397186Y-136161D01*
Y-136115D01*
X397140Y-135999D01*
X397117Y-135814D01*
X397071Y-135559D01*
X397024Y-135258D01*
X396978Y-134911D01*
X396955Y-134541D01*
X396932Y-134124D01*
Y-134101D01*
Y-134078D01*
Y-133939D01*
X396955Y-133731D01*
X396978Y-133454D01*
X397001Y-133130D01*
X397048Y-132806D01*
X397117Y-132435D01*
X397210Y-132088D01*
X397233Y-132042D01*
X397256Y-131926D01*
X397325Y-131764D01*
X397418Y-131533D01*
X397533Y-131301D01*
X397696Y-131024D01*
X397858Y-130746D01*
X398066Y-130492D01*
X398089Y-130469D01*
X398181Y-130376D01*
X398297Y-130260D01*
X398459Y-130098D01*
X398667Y-129936D01*
X398922Y-129774D01*
X399200Y-129589D01*
X399500Y-129450D01*
X399547Y-129427D01*
X399662Y-129381D01*
X399824Y-129335D01*
X400079Y-129265D01*
X400380Y-129196D01*
X400704Y-129126D01*
X401097Y-129103D01*
X401513Y-129080D01*
X401699D01*
X401907Y-129103D01*
D02*
G37*
G36*
X292943Y-129103D02*
X293198Y-129127D01*
X293499Y-129173D01*
X293823Y-129219D01*
X294147Y-129312D01*
X294471Y-129427D01*
X294517Y-129450D01*
X294610Y-129497D01*
X294771Y-129566D01*
X294957Y-129659D01*
X295188Y-129797D01*
X295419Y-129959D01*
X295651Y-130145D01*
X295859Y-130376D01*
X295882Y-130399D01*
X295952Y-130492D01*
X296044Y-130631D01*
X296183Y-130793D01*
X296299Y-131024D01*
X296437Y-131278D01*
X296576Y-131579D01*
X296692Y-131903D01*
X296715Y-131950D01*
X296738Y-132065D01*
X296785Y-132250D01*
X296831Y-132505D01*
X296877Y-132806D01*
X296923Y-133153D01*
X296970Y-133523D01*
Y-133940D01*
Y-133963D01*
Y-133986D01*
Y-134125D01*
X296947Y-134333D01*
X296923Y-134587D01*
X296900Y-134911D01*
X296854Y-135235D01*
X296761Y-135605D01*
X296669Y-135953D01*
X296646Y-135999D01*
X296623Y-136115D01*
X296553Y-136277D01*
X296437Y-136508D01*
X296322Y-136739D01*
X296183Y-137017D01*
X295998Y-137295D01*
X295790Y-137549D01*
X295766Y-137572D01*
X295697Y-137665D01*
X295558Y-137781D01*
X295396Y-137919D01*
X295188Y-138104D01*
X294957Y-138266D01*
X294679Y-138428D01*
X294355Y-138590D01*
X294309Y-138614D01*
X294193Y-138637D01*
X294031Y-138706D01*
X293776Y-138776D01*
X293499Y-138845D01*
X293152Y-138891D01*
X292782Y-138938D01*
X292365Y-138961D01*
X292180D01*
X291972Y-138938D01*
X291717Y-138914D01*
X291393Y-138891D01*
X291069Y-138822D01*
X290745Y-138752D01*
X290421Y-138637D01*
X290375Y-138614D01*
X290282Y-138567D01*
X290120Y-138498D01*
X289935Y-138405D01*
X289727Y-138266D01*
X289496Y-138104D01*
X289264Y-137896D01*
X289033Y-137688D01*
X289010Y-137665D01*
X288940Y-137572D01*
X288848Y-137434D01*
X288732Y-137271D01*
X288593Y-137040D01*
X288477Y-136786D01*
X288339Y-136485D01*
X288223Y-136161D01*
Y-136115D01*
X288177Y-135999D01*
X288154Y-135814D01*
X288107Y-135559D01*
X288061Y-135258D01*
X288015Y-134911D01*
X287992Y-134541D01*
X287969Y-134125D01*
Y-134101D01*
Y-134078D01*
Y-133940D01*
X287992Y-133731D01*
X288015Y-133454D01*
X288038Y-133130D01*
X288084Y-132806D01*
X288154Y-132435D01*
X288246Y-132088D01*
X288269Y-132042D01*
X288292Y-131926D01*
X288362Y-131764D01*
X288454Y-131533D01*
X288570Y-131302D01*
X288732Y-131024D01*
X288894Y-130746D01*
X289102Y-130492D01*
X289125Y-130469D01*
X289218Y-130376D01*
X289334Y-130260D01*
X289496Y-130098D01*
X289704Y-129936D01*
X289958Y-129774D01*
X290236Y-129589D01*
X290537Y-129450D01*
X290583Y-129427D01*
X290699Y-129381D01*
X290861Y-129335D01*
X291115Y-129265D01*
X291416Y-129196D01*
X291740Y-129127D01*
X292134Y-129103D01*
X292550Y-129080D01*
X292735D01*
X292943Y-129103D01*
D02*
G37*
G36*
X255828D02*
X256082Y-129127D01*
X256383Y-129173D01*
X256707Y-129219D01*
X257031Y-129312D01*
X257355Y-129427D01*
X257401Y-129450D01*
X257494Y-129497D01*
X257656Y-129566D01*
X257841Y-129659D01*
X258072Y-129797D01*
X258304Y-129959D01*
X258535Y-130145D01*
X258743Y-130376D01*
X258766Y-130399D01*
X258836Y-130492D01*
X258929Y-130631D01*
X259067Y-130793D01*
X259183Y-131024D01*
X259322Y-131278D01*
X259461Y-131579D01*
X259576Y-131903D01*
X259600Y-131950D01*
X259623Y-132065D01*
X259669Y-132250D01*
X259715Y-132505D01*
X259762Y-132806D01*
X259808Y-133153D01*
X259854Y-133523D01*
Y-133940D01*
Y-133963D01*
Y-133986D01*
Y-134125D01*
X259831Y-134333D01*
X259808Y-134587D01*
X259785Y-134911D01*
X259738Y-135235D01*
X259646Y-135605D01*
X259553Y-135953D01*
X259530Y-135999D01*
X259507Y-136115D01*
X259438Y-136277D01*
X259322Y-136508D01*
X259206Y-136739D01*
X259067Y-137017D01*
X258882Y-137295D01*
X258674Y-137549D01*
X258651Y-137572D01*
X258581Y-137665D01*
X258443Y-137781D01*
X258281Y-137919D01*
X258072Y-138104D01*
X257841Y-138266D01*
X257563Y-138428D01*
X257239Y-138590D01*
X257193Y-138614D01*
X257077Y-138637D01*
X256915Y-138706D01*
X256661Y-138776D01*
X256383Y-138845D01*
X256036Y-138891D01*
X255666Y-138938D01*
X255249Y-138961D01*
X255064D01*
X254856Y-138938D01*
X254601Y-138914D01*
X254277Y-138891D01*
X253953Y-138822D01*
X253630Y-138752D01*
X253306Y-138637D01*
X253259Y-138614D01*
X253167Y-138567D01*
X253005Y-138498D01*
X252820Y-138405D01*
X252612Y-138266D01*
X252380Y-138104D01*
X252149Y-137896D01*
X251917Y-137688D01*
X251894Y-137665D01*
X251825Y-137572D01*
X251732Y-137434D01*
X251616Y-137271D01*
X251478Y-137040D01*
X251362Y-136786D01*
X251223Y-136485D01*
X251107Y-136161D01*
Y-136115D01*
X251061Y-135999D01*
X251038Y-135814D01*
X250992Y-135559D01*
X250945Y-135258D01*
X250899Y-134911D01*
X250876Y-134541D01*
X250853Y-134125D01*
Y-134101D01*
Y-134078D01*
Y-133940D01*
X250876Y-133731D01*
X250899Y-133454D01*
X250922Y-133130D01*
X250969Y-132806D01*
X251038Y-132435D01*
X251131Y-132088D01*
X251154Y-132042D01*
X251177Y-131926D01*
X251246Y-131764D01*
X251339Y-131533D01*
X251455Y-131302D01*
X251616Y-131024D01*
X251778Y-130746D01*
X251987Y-130492D01*
X252010Y-130469D01*
X252102Y-130376D01*
X252218Y-130260D01*
X252380Y-130098D01*
X252588Y-129936D01*
X252843Y-129774D01*
X253120Y-129589D01*
X253421Y-129450D01*
X253468Y-129427D01*
X253583Y-129381D01*
X253745Y-129335D01*
X254000Y-129265D01*
X254301Y-129196D01*
X254625Y-129127D01*
X255018Y-129103D01*
X255434Y-129080D01*
X255620D01*
X255828Y-129103D01*
D02*
G37*
G36*
X426412Y-124614D02*
X426435D01*
X426481Y-124637D01*
X426550D01*
X426620Y-124661D01*
X426643D01*
X426666Y-124684D01*
X426759Y-124730D01*
X426782Y-124753D01*
X426805Y-124799D01*
X426828Y-124823D01*
X426851Y-124892D01*
X426897Y-125008D01*
X426967Y-125147D01*
X427059Y-125332D01*
X427175Y-125563D01*
X427268Y-125817D01*
X427407Y-126095D01*
X427522Y-126396D01*
X427661Y-126720D01*
X427939Y-127437D01*
X428193Y-128201D01*
X428425Y-129011D01*
Y-129034D01*
X428448Y-129103D01*
X428471Y-129219D01*
X428517Y-129381D01*
X428563Y-129566D01*
X428610Y-129821D01*
X428679Y-130075D01*
X428725Y-130376D01*
X428772Y-130677D01*
X428841Y-131024D01*
X428934Y-131764D01*
X429003Y-132574D01*
X429026Y-133407D01*
Y-133430D01*
Y-133454D01*
Y-133523D01*
Y-133592D01*
Y-133824D01*
X429003Y-134101D01*
X428980Y-134448D01*
X428957Y-134842D01*
X428910Y-135235D01*
X428864Y-135652D01*
Y-135675D01*
Y-135698D01*
X428841Y-135837D01*
X428818Y-136068D01*
X428772Y-136346D01*
X428702Y-136670D01*
X428633Y-137040D01*
X428448Y-137827D01*
X428425Y-137873D01*
X428401Y-138012D01*
X428332Y-138220D01*
X428263Y-138498D01*
X428147Y-138799D01*
X428031Y-139169D01*
X427892Y-139539D01*
X427754Y-139932D01*
X427730Y-139979D01*
X427684Y-140118D01*
X427592Y-140326D01*
X427499Y-140580D01*
X427360Y-140881D01*
X427198Y-141228D01*
X426828Y-141992D01*
X426805Y-142038D01*
X426735Y-142085D01*
X426689Y-142108D01*
X426573Y-142154D01*
X426550D01*
X426504Y-142177D01*
X426435Y-142200D01*
X426273D01*
X426157Y-142223D01*
X425902D01*
X425764Y-142200D01*
X425625Y-142177D01*
X425602D01*
X425555Y-142154D01*
X425486Y-142131D01*
X425416Y-142108D01*
X425393Y-142061D01*
X425370Y-141969D01*
Y-141946D01*
Y-141899D01*
X425416Y-141761D01*
Y-141737D01*
X425463Y-141668D01*
X425509Y-141552D01*
X425578Y-141413D01*
X425648Y-141228D01*
X425740Y-141020D01*
X425833Y-140766D01*
X425949Y-140488D01*
X426041Y-140187D01*
X426157Y-139863D01*
X426388Y-139169D01*
X426620Y-138428D01*
X426805Y-137642D01*
Y-137619D01*
X426828Y-137549D01*
X426851Y-137434D01*
X426874Y-137271D01*
X426921Y-137086D01*
X426967Y-136855D01*
X427013Y-136601D01*
X427059Y-136323D01*
X427082Y-135999D01*
X427129Y-135675D01*
X427221Y-134958D01*
X427268Y-134194D01*
X427291Y-133384D01*
Y-133361D01*
Y-133292D01*
Y-133176D01*
Y-133014D01*
X427268Y-132829D01*
Y-132597D01*
X427244Y-132343D01*
X427221Y-132065D01*
X427198Y-131741D01*
X427175Y-131417D01*
X427082Y-130700D01*
X426967Y-129936D01*
X426805Y-129150D01*
Y-129126D01*
X426782Y-129057D01*
X426759Y-128941D01*
X426712Y-128779D01*
X426666Y-128594D01*
X426620Y-128363D01*
X426550Y-128108D01*
X426458Y-127831D01*
X426365Y-127530D01*
X426273Y-127206D01*
X426018Y-126512D01*
X425740Y-125771D01*
X425416Y-125008D01*
Y-124985D01*
X425393Y-124961D01*
X425370Y-124846D01*
Y-124823D01*
X425393Y-124799D01*
X425463Y-124707D01*
X425486D01*
X425532Y-124684D01*
X425602Y-124661D01*
X425694Y-124637D01*
X425717D01*
X425787Y-124614D01*
X425902Y-124591D01*
X426296D01*
X426412Y-124614D01*
D02*
G37*
G36*
X368794D02*
X368910Y-124637D01*
X368933D01*
X368979Y-124661D01*
X369049Y-124684D01*
X369118Y-124707D01*
X369142D01*
X369165Y-124730D01*
X369188Y-124776D01*
X369211Y-124846D01*
Y-124892D01*
Y-124938D01*
X369188Y-125008D01*
Y-125031D01*
X369142Y-125100D01*
X369095Y-125216D01*
X369026Y-125355D01*
X368956Y-125540D01*
X368864Y-125748D01*
X368771Y-126003D01*
X368656Y-126280D01*
X368540Y-126581D01*
X368424Y-126905D01*
X368193Y-127599D01*
X367961Y-128363D01*
X367776Y-129150D01*
Y-129173D01*
X367753Y-129242D01*
X367730Y-129358D01*
X367707Y-129520D01*
X367661Y-129705D01*
X367637Y-129936D01*
X367591Y-130191D01*
X367545Y-130469D01*
X367499Y-130769D01*
X367452Y-131116D01*
X367383Y-131834D01*
X367337Y-132597D01*
X367313Y-133384D01*
Y-133407D01*
Y-133477D01*
Y-133592D01*
Y-133754D01*
X367337Y-133939D01*
Y-134171D01*
X367360Y-134425D01*
X367383Y-134726D01*
X367406Y-135027D01*
X367429Y-135374D01*
X367499Y-136091D01*
X367614Y-136855D01*
X367776Y-137642D01*
Y-137665D01*
X367799Y-137734D01*
X367822Y-137850D01*
X367869Y-137989D01*
X367915Y-138197D01*
X367985Y-138405D01*
X368054Y-138660D01*
X368123Y-138938D01*
X368216Y-139238D01*
X368332Y-139562D01*
X368563Y-140257D01*
X368841Y-140997D01*
X369165Y-141761D01*
Y-141784D01*
X369188Y-141830D01*
X369211Y-141969D01*
Y-141992D01*
Y-142015D01*
Y-142061D01*
X369165Y-142108D01*
X369142D01*
X369118Y-142131D01*
X369049Y-142154D01*
X368933Y-142177D01*
X368910D01*
X368841Y-142200D01*
X368702Y-142223D01*
X368355D01*
X368239Y-142200D01*
X368170D01*
X368008Y-142154D01*
X367985D01*
X367961Y-142131D01*
X367846Y-142085D01*
X367822Y-142061D01*
X367776Y-141992D01*
Y-141969D01*
X367753Y-141946D01*
X367684Y-141807D01*
X367568Y-141622D01*
X367452Y-141344D01*
X367290Y-141043D01*
X367128Y-140696D01*
X366966Y-140326D01*
X366804Y-139932D01*
Y-139909D01*
X366781Y-139886D01*
X366735Y-139747D01*
X366666Y-139539D01*
X366573Y-139285D01*
X366457Y-138961D01*
X366365Y-138614D01*
X366249Y-138220D01*
X366133Y-137827D01*
Y-137804D01*
Y-137781D01*
X366087Y-137642D01*
X366041Y-137434D01*
X365971Y-137156D01*
X365902Y-136832D01*
X365832Y-136462D01*
X365786Y-136068D01*
X365717Y-135652D01*
Y-135629D01*
Y-135605D01*
X365694Y-135467D01*
X365671Y-135235D01*
X365647Y-134958D01*
X365624Y-134611D01*
X365601Y-134240D01*
X365578Y-133824D01*
Y-133407D01*
Y-133384D01*
Y-133361D01*
Y-133222D01*
Y-132991D01*
X365601Y-132713D01*
Y-132389D01*
X365647Y-132019D01*
X365671Y-131625D01*
X365717Y-131209D01*
Y-131186D01*
Y-131163D01*
X365740Y-131024D01*
X365786Y-130793D01*
X365832Y-130515D01*
X365902Y-130191D01*
X365971Y-129821D01*
X366064Y-129427D01*
X366157Y-129011D01*
Y-128988D01*
X366180Y-128965D01*
X366203Y-128826D01*
X366272Y-128617D01*
X366365Y-128340D01*
X366457Y-128016D01*
X366573Y-127646D01*
X366851Y-126882D01*
Y-126859D01*
X366874Y-126836D01*
X366920Y-126697D01*
X367013Y-126489D01*
X367128Y-126211D01*
X367267Y-125910D01*
X367429Y-125563D01*
X367776Y-124799D01*
Y-124776D01*
X367822Y-124730D01*
X367846Y-124707D01*
X367938Y-124661D01*
X367961D01*
X368008Y-124637D01*
X368077D01*
X368170Y-124614D01*
X368193D01*
X368262Y-124591D01*
X368679D01*
X368794Y-124614D01*
D02*
G37*
%LPC*%
G36*
X353823Y-130492D02*
X353731D01*
X353592Y-130515D01*
X353453Y-130538D01*
X353106Y-130607D01*
X352921Y-130700D01*
X352759Y-130793D01*
X352736Y-130816D01*
X352689Y-130839D01*
X352597Y-130908D01*
X352504Y-131001D01*
X352389Y-131116D01*
X352273Y-131255D01*
X352042Y-131602D01*
Y-131625D01*
X351995Y-131695D01*
X351949Y-131788D01*
X351880Y-131926D01*
X351833Y-132088D01*
X351764Y-132273D01*
X351648Y-132713D01*
Y-132736D01*
X351625Y-132806D01*
X351602Y-132944D01*
Y-133083D01*
X351579Y-133292D01*
X351555Y-133500D01*
X351532Y-133963D01*
Y-133986D01*
Y-134078D01*
Y-134217D01*
X351555Y-134379D01*
Y-134587D01*
X351579Y-134819D01*
X351625Y-135305D01*
Y-135328D01*
X351648Y-135420D01*
X351671Y-135536D01*
X351717Y-135698D01*
X351764Y-135860D01*
X351833Y-136068D01*
X351995Y-136462D01*
X352018Y-136485D01*
X352042Y-136531D01*
X352088Y-136624D01*
X352180Y-136739D01*
X352389Y-136994D01*
X352666Y-137248D01*
X352689Y-137271D01*
X352736Y-137295D01*
X352851Y-137341D01*
X352967Y-137387D01*
X353129Y-137457D01*
X353314Y-137503D01*
X353522Y-137526D01*
X353754Y-137549D01*
X353962D01*
X354147Y-137526D01*
X354379Y-137480D01*
X354402D01*
X354425Y-137457D01*
X354587Y-137410D01*
X354772Y-137318D01*
X355003Y-137179D01*
X355026D01*
X355050Y-137133D01*
X355119Y-137086D01*
X355212Y-137040D01*
X355420Y-136855D01*
X355674Y-136647D01*
X355698Y-136624D01*
X355744Y-136577D01*
X355813Y-136508D01*
X355906Y-136415D01*
X356160Y-136138D01*
X356438Y-135814D01*
Y-132204D01*
X356415Y-132158D01*
X356322Y-132065D01*
X356183Y-131926D01*
X356021Y-131741D01*
X355836Y-131533D01*
X355605Y-131325D01*
X355373Y-131116D01*
X355142Y-130931D01*
X355119Y-130908D01*
X355026Y-130862D01*
X354911Y-130793D01*
X354749Y-130700D01*
X354540Y-130631D01*
X354332Y-130561D01*
X354078Y-130515D01*
X353823Y-130492D01*
D02*
G37*
G36*
X266611Y-130492D02*
X266565D01*
X266402Y-130515D01*
X266194Y-130538D01*
X265963Y-130607D01*
X265940D01*
X265917Y-130631D01*
X265778Y-130677D01*
X265569Y-130769D01*
X265338Y-130908D01*
X265315D01*
X265292Y-130955D01*
X265222Y-131001D01*
X265130Y-131047D01*
X264898Y-131232D01*
X264644Y-131463D01*
X264621Y-131487D01*
X264575Y-131510D01*
X264505Y-131602D01*
X264436Y-131695D01*
X264204Y-131950D01*
X263927Y-132273D01*
Y-135837D01*
X263950Y-135883D01*
X264042Y-135976D01*
X264181Y-136115D01*
X264343Y-136300D01*
X264528Y-136508D01*
X264736Y-136716D01*
X264968Y-136924D01*
X265199Y-137110D01*
X265222Y-137133D01*
X265315Y-137179D01*
X265431Y-137248D01*
X265593Y-137318D01*
X265801Y-137410D01*
X266009Y-137480D01*
X266241Y-137526D01*
X266495Y-137549D01*
X266611D01*
X266726Y-137526D01*
X266865Y-137503D01*
X267212Y-137434D01*
X267397Y-137364D01*
X267560Y-137271D01*
X267583Y-137248D01*
X267629Y-137225D01*
X267722Y-137156D01*
X267837Y-137063D01*
X267953Y-136948D01*
X268069Y-136809D01*
X268300Y-136462D01*
X268323Y-136439D01*
X268346Y-136369D01*
X268393Y-136277D01*
X268462Y-136138D01*
X268531Y-135976D01*
X268601Y-135767D01*
X268717Y-135351D01*
Y-135328D01*
X268740Y-135235D01*
X268763Y-135120D01*
X268786Y-134958D01*
X268809Y-134773D01*
X268832Y-134541D01*
X268855Y-134078D01*
Y-134055D01*
Y-133963D01*
Y-133824D01*
X268832Y-133662D01*
Y-133454D01*
X268809Y-133245D01*
X268740Y-132759D01*
Y-132736D01*
X268717Y-132644D01*
X268693Y-132528D01*
X268647Y-132366D01*
X268601Y-132181D01*
X268531Y-131996D01*
X268369Y-131602D01*
Y-131579D01*
X268323Y-131510D01*
X268277Y-131417D01*
X268184Y-131302D01*
X267976Y-131047D01*
X267675Y-130793D01*
X267652Y-130769D01*
X267606Y-130746D01*
X267513Y-130700D01*
X267397Y-130631D01*
X267236Y-130584D01*
X267050Y-130538D01*
X266842Y-130515D01*
X266611Y-130492D01*
D02*
G37*
G36*
X380133Y-130353D02*
X379971D01*
X379855Y-130376D01*
X379577Y-130422D01*
X379300Y-130515D01*
X379277D01*
X379253Y-130538D01*
X379091Y-130631D01*
X378906Y-130769D01*
X378698Y-130978D01*
Y-131001D01*
X378652Y-131024D01*
X378559Y-131163D01*
X378443Y-131371D01*
X378351Y-131625D01*
Y-131649D01*
X378328Y-131695D01*
Y-131764D01*
X378305Y-131857D01*
X378282Y-132088D01*
X378258Y-132389D01*
Y-132435D01*
Y-132528D01*
X378282Y-132690D01*
X378328Y-132898D01*
X378374Y-133106D01*
X378467Y-133338D01*
X378582Y-133569D01*
X378744Y-133778D01*
X378768Y-133801D01*
X378837Y-133847D01*
X378953Y-133939D01*
X379115Y-134032D01*
X379323Y-134124D01*
X379554Y-134217D01*
X379855Y-134263D01*
X380179Y-134286D01*
X380341D01*
X380457Y-134263D01*
X380734Y-134217D01*
X381012Y-134148D01*
X381035D01*
X381081Y-134124D01*
X381220Y-134032D01*
X381428Y-133893D01*
X381614Y-133708D01*
X381637Y-133685D01*
X381660Y-133662D01*
X381752Y-133523D01*
X381868Y-133338D01*
X381984Y-133083D01*
Y-133060D01*
X382007Y-133014D01*
X382030Y-132944D01*
X382053Y-132852D01*
X382076Y-132597D01*
X382099Y-132320D01*
Y-132273D01*
Y-132158D01*
X382076Y-131996D01*
X382030Y-131788D01*
X381984Y-131556D01*
X381891Y-131325D01*
X381752Y-131093D01*
X381590Y-130885D01*
X381567Y-130862D01*
X381498Y-130793D01*
X381382Y-130723D01*
X381220Y-130607D01*
X381012Y-130515D01*
X380757Y-130445D01*
X380480Y-130376D01*
X380133Y-130353D01*
D02*
G37*
G36*
X378814Y-138128D02*
X378791D01*
X378768Y-138174D01*
X378629Y-138290D01*
X378467Y-138428D01*
X378305Y-138614D01*
X378282Y-138660D01*
X378189Y-138752D01*
X378073Y-138868D01*
X377958Y-139030D01*
X377934Y-139053D01*
X377888Y-139146D01*
X377842Y-139285D01*
X377796Y-139424D01*
Y-139470D01*
Y-139562D01*
X377772Y-139678D01*
Y-139840D01*
Y-139863D01*
Y-139956D01*
X377819Y-140071D01*
X377865Y-140210D01*
X377934Y-140372D01*
X378050Y-140534D01*
X378212Y-140696D01*
X378420Y-140835D01*
X378443Y-140858D01*
X378536Y-140881D01*
X378698Y-140951D01*
X378906Y-140997D01*
X379161Y-141066D01*
X379485Y-141136D01*
X379855Y-141159D01*
X380271Y-141182D01*
X380526D01*
X380711Y-141159D01*
X380896Y-141136D01*
X381105Y-141113D01*
X381521Y-141020D01*
X381544D01*
X381614Y-140997D01*
X381706Y-140951D01*
X381822Y-140927D01*
X382076Y-140789D01*
X382331Y-140627D01*
X382354D01*
X382377Y-140580D01*
X382516Y-140465D01*
X382655Y-140303D01*
X382794Y-140071D01*
Y-140048D01*
X382817Y-140025D01*
X382863Y-139886D01*
X382909Y-139678D01*
X382933Y-139424D01*
Y-139400D01*
Y-139331D01*
X382909Y-139215D01*
X382863Y-139100D01*
X382817Y-138961D01*
X382724Y-138799D01*
X382609Y-138660D01*
X382447Y-138544D01*
X382424Y-138521D01*
X382354Y-138498D01*
X382262Y-138452D01*
X382099Y-138382D01*
X381914Y-138336D01*
X381706Y-138290D01*
X381428Y-138243D01*
X381151Y-138220D01*
X378814Y-138128D01*
D02*
G37*
G36*
X338574Y-134425D02*
X336908D01*
X336746Y-134448D01*
X336561D01*
X336353Y-134472D01*
X335960Y-134541D01*
X335936D01*
X335890Y-134564D01*
X335798Y-134587D01*
X335682Y-134634D01*
X335404Y-134726D01*
X335150Y-134888D01*
X335127D01*
X335103Y-134934D01*
X334965Y-135050D01*
X334803Y-135212D01*
X334664Y-135443D01*
Y-135467D01*
X334641Y-135490D01*
X334618Y-135559D01*
X334594Y-135652D01*
X334548Y-135883D01*
X334525Y-136161D01*
Y-136184D01*
Y-136277D01*
X334548Y-136392D01*
X334571Y-136554D01*
X334641Y-136739D01*
X334710Y-136924D01*
X334826Y-137109D01*
X334965Y-137271D01*
X334988Y-137295D01*
X335057Y-137341D01*
X335150Y-137387D01*
X335289Y-137457D01*
X335451Y-137549D01*
X335659Y-137596D01*
X335913Y-137642D01*
X336191Y-137665D01*
X336307D01*
X336422Y-137642D01*
X336584Y-137619D01*
X336769Y-137596D01*
X336978Y-137526D01*
X337186Y-137457D01*
X337394Y-137341D01*
X337417Y-137318D01*
X337487Y-137271D01*
X337603Y-137202D01*
X337741Y-137086D01*
X337926Y-136948D01*
X338135Y-136786D01*
X338343Y-136577D01*
X338574Y-136346D01*
Y-134425D01*
D02*
G37*
G36*
X419146Y-130376D02*
X418914D01*
X418775Y-130399D01*
X418428Y-130469D01*
X418058Y-130607D01*
X418035D01*
X417989Y-130654D01*
X417896Y-130700D01*
X417780Y-130769D01*
X417526Y-130978D01*
X417271Y-131232D01*
X417248Y-131255D01*
X417225Y-131301D01*
X417156Y-131371D01*
X417109Y-131487D01*
X417017Y-131602D01*
X416948Y-131764D01*
X416786Y-132111D01*
Y-132135D01*
X416762Y-132204D01*
X416739Y-132296D01*
X416716Y-132435D01*
X416670Y-132597D01*
X416647Y-132759D01*
X416623Y-133153D01*
X421529D01*
Y-133130D01*
Y-133083D01*
Y-133037D01*
Y-132944D01*
X421506Y-132713D01*
X421460Y-132412D01*
X421390Y-132088D01*
X421274Y-131741D01*
X421136Y-131417D01*
X420928Y-131116D01*
X420904Y-131093D01*
X420812Y-131001D01*
X420673Y-130885D01*
X420488Y-130746D01*
X420233Y-130607D01*
X419933Y-130492D01*
X419562Y-130399D01*
X419146Y-130376D01*
D02*
G37*
G36*
X401444Y-130469D02*
X401328D01*
X401189Y-130492D01*
X401004D01*
X400819Y-130538D01*
X400588Y-130584D01*
X400380Y-130654D01*
X400171Y-130746D01*
X400148D01*
X400079Y-130793D01*
X399986Y-130862D01*
X399871Y-130931D01*
X399593Y-131163D01*
X399315Y-131487D01*
X399292Y-131510D01*
X399269Y-131579D01*
X399200Y-131672D01*
X399130Y-131788D01*
X399038Y-131949D01*
X398945Y-132158D01*
X398876Y-132366D01*
X398806Y-132597D01*
Y-132620D01*
X398783Y-132713D01*
X398760Y-132852D01*
X398737Y-133014D01*
X398690Y-133222D01*
X398667Y-133477D01*
X398644Y-133731D01*
Y-134009D01*
Y-134032D01*
Y-134124D01*
Y-134286D01*
X398667Y-134448D01*
Y-134680D01*
X398690Y-134911D01*
X398760Y-135397D01*
Y-135420D01*
X398783Y-135513D01*
X398829Y-135629D01*
X398876Y-135791D01*
X399014Y-136138D01*
X399223Y-136531D01*
X399246Y-136554D01*
X399292Y-136601D01*
X399361Y-136693D01*
X399454Y-136809D01*
X399570Y-136924D01*
X399732Y-137063D01*
X400079Y-137295D01*
X400102D01*
X400171Y-137341D01*
X400287Y-137387D01*
X400449Y-137434D01*
X400634Y-137480D01*
X400866Y-137526D01*
X401120Y-137549D01*
X401398Y-137572D01*
X401513D01*
X401652Y-137549D01*
X401837D01*
X402046Y-137503D01*
X402254Y-137457D01*
X402462Y-137410D01*
X402671Y-137318D01*
X402694Y-137295D01*
X402763Y-137271D01*
X402856Y-137202D01*
X402971Y-137133D01*
X403272Y-136901D01*
X403550Y-136601D01*
X403573Y-136577D01*
X403596Y-136508D01*
X403666Y-136415D01*
X403735Y-136277D01*
X403827Y-136115D01*
X403920Y-135929D01*
X403989Y-135721D01*
X404059Y-135490D01*
Y-135467D01*
X404082Y-135374D01*
X404105Y-135235D01*
X404151Y-135050D01*
X404174Y-134842D01*
X404198Y-134611D01*
X404221Y-134055D01*
Y-134032D01*
Y-133939D01*
Y-133778D01*
X404198Y-133592D01*
Y-133384D01*
X404174Y-133153D01*
X404082Y-132667D01*
Y-132644D01*
X404059Y-132551D01*
X404013Y-132435D01*
X403966Y-132273D01*
X403827Y-131903D01*
X403619Y-131533D01*
X403596Y-131510D01*
X403573Y-131440D01*
X403503Y-131371D01*
X403411Y-131255D01*
X403295Y-131140D01*
X403133Y-131001D01*
X402971Y-130885D01*
X402786Y-130769D01*
X402763Y-130746D01*
X402694Y-130723D01*
X402578Y-130677D01*
X402416Y-130607D01*
X402231Y-130561D01*
X401999Y-130515D01*
X401745Y-130492D01*
X401444Y-130469D01*
D02*
G37*
G36*
X292481Y-130469D02*
X292365D01*
X292226Y-130492D01*
X292041D01*
X291856Y-130538D01*
X291625Y-130584D01*
X291416Y-130654D01*
X291208Y-130746D01*
X291185D01*
X291115Y-130793D01*
X291023Y-130862D01*
X290907Y-130931D01*
X290630Y-131163D01*
X290352Y-131487D01*
X290329Y-131510D01*
X290306Y-131579D01*
X290236Y-131672D01*
X290167Y-131788D01*
X290074Y-131950D01*
X289982Y-132158D01*
X289912Y-132366D01*
X289843Y-132597D01*
Y-132620D01*
X289820Y-132713D01*
X289797Y-132852D01*
X289773Y-133014D01*
X289727Y-133222D01*
X289704Y-133477D01*
X289681Y-133731D01*
Y-134009D01*
Y-134032D01*
Y-134125D01*
Y-134286D01*
X289704Y-134448D01*
Y-134680D01*
X289727Y-134911D01*
X289797Y-135397D01*
Y-135420D01*
X289820Y-135513D01*
X289866Y-135629D01*
X289912Y-135791D01*
X290051Y-136138D01*
X290259Y-136531D01*
X290282Y-136554D01*
X290329Y-136601D01*
X290398Y-136693D01*
X290491Y-136809D01*
X290606Y-136924D01*
X290768Y-137063D01*
X291115Y-137295D01*
X291139D01*
X291208Y-137341D01*
X291324Y-137387D01*
X291486Y-137434D01*
X291671Y-137480D01*
X291902Y-137526D01*
X292157Y-137549D01*
X292434Y-137572D01*
X292550D01*
X292689Y-137549D01*
X292874D01*
X293082Y-137503D01*
X293291Y-137457D01*
X293499Y-137410D01*
X293707Y-137318D01*
X293730Y-137295D01*
X293800Y-137271D01*
X293892Y-137202D01*
X294008Y-137133D01*
X294309Y-136901D01*
X294586Y-136601D01*
X294610Y-136577D01*
X294633Y-136508D01*
X294702Y-136415D01*
X294771Y-136277D01*
X294864Y-136115D01*
X294957Y-135929D01*
X295026Y-135721D01*
X295095Y-135490D01*
Y-135467D01*
X295119Y-135374D01*
X295142Y-135235D01*
X295188Y-135050D01*
X295211Y-134842D01*
X295234Y-134611D01*
X295257Y-134055D01*
Y-134032D01*
Y-133940D01*
Y-133778D01*
X295234Y-133592D01*
Y-133384D01*
X295211Y-133153D01*
X295119Y-132667D01*
Y-132644D01*
X295095Y-132551D01*
X295049Y-132435D01*
X295003Y-132273D01*
X294864Y-131903D01*
X294656Y-131533D01*
X294633Y-131510D01*
X294610Y-131440D01*
X294540Y-131371D01*
X294447Y-131255D01*
X294332Y-131140D01*
X294170Y-131001D01*
X294008Y-130885D01*
X293823Y-130769D01*
X293800Y-130746D01*
X293730Y-130723D01*
X293615Y-130677D01*
X293452Y-130607D01*
X293267Y-130561D01*
X293036Y-130515D01*
X292782Y-130492D01*
X292481Y-130469D01*
D02*
G37*
G36*
X255365D02*
X255249D01*
X255110Y-130492D01*
X254925D01*
X254740Y-130538D01*
X254509Y-130584D01*
X254301Y-130654D01*
X254092Y-130746D01*
X254069D01*
X254000Y-130793D01*
X253907Y-130862D01*
X253792Y-130931D01*
X253514Y-131163D01*
X253236Y-131487D01*
X253213Y-131510D01*
X253190Y-131579D01*
X253120Y-131672D01*
X253051Y-131788D01*
X252959Y-131950D01*
X252866Y-132158D01*
X252797Y-132366D01*
X252727Y-132597D01*
Y-132620D01*
X252704Y-132713D01*
X252681Y-132852D01*
X252658Y-133014D01*
X252612Y-133222D01*
X252588Y-133477D01*
X252565Y-133731D01*
Y-134009D01*
Y-134032D01*
Y-134125D01*
Y-134286D01*
X252588Y-134448D01*
Y-134680D01*
X252612Y-134911D01*
X252681Y-135397D01*
Y-135420D01*
X252704Y-135513D01*
X252750Y-135629D01*
X252797Y-135791D01*
X252935Y-136138D01*
X253144Y-136531D01*
X253167Y-136554D01*
X253213Y-136601D01*
X253283Y-136693D01*
X253375Y-136809D01*
X253491Y-136924D01*
X253653Y-137063D01*
X254000Y-137295D01*
X254023D01*
X254092Y-137341D01*
X254208Y-137387D01*
X254370Y-137434D01*
X254555Y-137480D01*
X254787Y-137526D01*
X255041Y-137549D01*
X255319Y-137572D01*
X255434D01*
X255573Y-137549D01*
X255758D01*
X255967Y-137503D01*
X256175Y-137457D01*
X256383Y-137410D01*
X256591Y-137318D01*
X256615Y-137295D01*
X256684Y-137271D01*
X256777Y-137202D01*
X256892Y-137133D01*
X257193Y-136901D01*
X257471Y-136601D01*
X257494Y-136577D01*
X257517Y-136508D01*
X257586Y-136415D01*
X257656Y-136277D01*
X257748Y-136115D01*
X257841Y-135929D01*
X257910Y-135721D01*
X257980Y-135490D01*
Y-135467D01*
X258003Y-135374D01*
X258026Y-135235D01*
X258072Y-135050D01*
X258095Y-134842D01*
X258119Y-134611D01*
X258142Y-134055D01*
Y-134032D01*
Y-133940D01*
Y-133778D01*
X258119Y-133592D01*
Y-133384D01*
X258095Y-133153D01*
X258003Y-132667D01*
Y-132644D01*
X257980Y-132551D01*
X257934Y-132435D01*
X257887Y-132273D01*
X257748Y-131903D01*
X257540Y-131533D01*
X257517Y-131510D01*
X257494Y-131440D01*
X257425Y-131371D01*
X257332Y-131255D01*
X257216Y-131140D01*
X257054Y-131001D01*
X256892Y-130885D01*
X256707Y-130769D01*
X256684Y-130746D01*
X256615Y-130723D01*
X256499Y-130677D01*
X256337Y-130607D01*
X256152Y-130561D01*
X255920Y-130515D01*
X255666Y-130492D01*
X255365Y-130469D01*
D02*
G37*
%LPD*%
D37*
X84500Y-14250D02*
Y14250D01*
X64500D02*
X84500D01*
X64500Y-14250D02*
X84500Y-14250D01*
X74750Y-1270D02*
Y1270D01*
X73480Y0D02*
X76020D01*
X64500Y-14250D02*
X64500Y14250D01*
X-14250Y-84750D02*
X14250D01*
Y-64750D01*
X-14250Y-64750D02*
X-14250Y-84750D01*
X-1270Y-75000D02*
X1270D01*
X0Y-76270D02*
Y-73730D01*
X-14250Y-64750D02*
X14250Y-64750D01*
X-84500Y-14250D02*
Y14250D01*
Y-14250D02*
X-64500D01*
X-84500Y14250D02*
X-64500D01*
X-74750Y-1270D02*
Y1270D01*
X-76020Y0D02*
X-73480D01*
X-64500Y-14250D02*
Y14250D01*
X-14250Y84500D02*
X14250Y84500D01*
X-14250Y84500D02*
X-14250Y64500D01*
X14250D02*
Y84500D01*
X-1270Y74750D02*
X1270D01*
X0Y76020D02*
X0Y73480D01*
X-14250Y64500D02*
X14250D01*
X128191Y90466D02*
X142441Y65784D01*
X110871Y80466D02*
X128191Y90466D01*
X125121Y55784D02*
X142441Y65784D01*
X126238Y74350D02*
X127508Y72150D01*
X125773Y72615D02*
X127973Y73885D01*
X110871Y80466D02*
X125121Y55784D01*
X128191Y-90466D02*
X142441Y-65784D01*
X125121Y-55784D02*
X142441Y-65784D01*
X110871Y-80466D02*
X128191Y-90466D01*
X126238Y-74350D02*
X127508Y-72150D01*
X125773Y-72615D02*
X127973Y-73885D01*
X110871Y-80466D02*
X125121Y-55784D01*
X-14777Y-156102D02*
X13723Y-156102D01*
X13723Y-136102D02*
X13723Y-156102D01*
X-14777Y-156102D02*
Y-136102D01*
X-1797Y-146352D02*
X743D01*
X-527Y-147622D02*
Y-145082D01*
X-14777Y-136102D02*
X13723D01*
X-142442Y-65784D02*
X-128191Y-90466D01*
X-110871Y-80466D01*
X-142442Y-65784D02*
X-125121Y-55784D01*
X-127508Y-72150D02*
X-126238Y-74350D01*
X-127973Y-73885D02*
X-125773Y-72615D01*
X-125121Y-55784D02*
X-110871Y-80466D01*
X-142442Y65784D02*
X-128191Y90466D01*
X-142442Y65784D02*
X-125121Y55784D01*
X-128191Y90466D02*
X-110871Y80466D01*
X-127508Y72150D02*
X-126238Y74350D01*
X-127973Y73885D02*
X-125773Y72615D01*
X-125121Y55784D02*
X-110871Y80466D01*
X-14250Y156000D02*
X14250D01*
X-14250Y136000D02*
Y156000D01*
X14250D02*
X14250Y136000D01*
X-1270Y146250D02*
X1270D01*
X0Y144980D02*
Y147520D01*
X-14250Y136000D02*
X14250Y136000D01*
M02*
