G04*
G04 #@! TF.GenerationSoftware,Altium Limited,Altium Designer,20.1.14 (287)*
G04*
G04 Layer_Color=8388736*
%FSLAX44Y44*%
%MOMM*%
G71*
G04*
G04 #@! TF.SameCoordinates,555A517A-9F76-4A69-B8FD-E90865B7C856*
G04*
G04*
G04 #@! TF.FilePolarity,Negative*
G04*
G01*
G75*
%ADD20O,0.8500X0.6000*%
%ADD21O,0.6000X0.8500*%
G04:AMPARAMS|DCode=22|XSize=0.6mm|YSize=0.85mm|CornerRadius=0mm|HoleSize=0mm|Usage=FLASHONLY|Rotation=120.000|XOffset=0mm|YOffset=0mm|HoleType=Round|Shape=Round|*
%AMOVALD22*
21,1,0.2500,0.6000,0.0000,0.0000,210.0*
1,1,0.6000,0.1082,0.0625*
1,1,0.6000,-0.1082,-0.0625*
%
%ADD22OVALD22*%

G04:AMPARAMS|DCode=23|XSize=0.6mm|YSize=0.85mm|CornerRadius=0mm|HoleSize=0mm|Usage=FLASHONLY|Rotation=60.000|XOffset=0mm|YOffset=0mm|HoleType=Round|Shape=Round|*
%AMOVALD23*
21,1,0.2500,0.6000,0.0000,0.0000,150.0*
1,1,0.6000,0.1082,-0.0625*
1,1,0.6000,-0.1082,0.0625*
%
%ADD23OVALD23*%

G36*
X281651Y-75702D02*
X281952Y-75748D01*
X281975D01*
X282022Y-75771D01*
X282114D01*
X282230Y-75794D01*
X282484Y-75864D01*
X282762Y-75956D01*
X282785D01*
X282831Y-75979D01*
X282901Y-76003D01*
X282994Y-76026D01*
X283225Y-76118D01*
X283456Y-76234D01*
X283479D01*
X283503Y-76257D01*
X283618Y-76304D01*
X283757Y-76396D01*
X283850Y-76465D01*
X283873Y-76489D01*
X283896Y-76512D01*
X283942Y-76581D01*
X283965Y-76627D01*
X283988Y-76651D01*
X284035Y-76766D01*
Y-76789D01*
X284058Y-76836D01*
Y-76975D01*
Y-76998D01*
X284081Y-77044D01*
Y-77160D01*
Y-77275D01*
Y-77298D01*
Y-77391D01*
Y-77484D01*
X284058Y-77599D01*
Y-77622D01*
X284035Y-77692D01*
X284012Y-77854D01*
Y-77877D01*
X283988Y-77900D01*
X283919Y-77993D01*
X283896D01*
X283803Y-78016D01*
X283780D01*
X283711Y-77993D01*
X283618Y-77946D01*
X283456Y-77877D01*
X283410Y-77854D01*
X283294Y-77784D01*
X283109Y-77692D01*
X282878Y-77576D01*
X282855D01*
X282831Y-77553D01*
X282762Y-77507D01*
X282670Y-77460D01*
X282415Y-77368D01*
X282091Y-77252D01*
X282068D01*
X282022Y-77229D01*
X281906Y-77206D01*
X281790Y-77160D01*
X281628Y-77137D01*
X281466Y-77113D01*
X281050Y-77090D01*
X280865D01*
X280726Y-77113D01*
X280425Y-77160D01*
X280101Y-77252D01*
X280078D01*
X280032Y-77275D01*
X279962Y-77298D01*
X279870Y-77345D01*
X279661Y-77484D01*
X279453Y-77646D01*
X279407Y-77692D01*
X279314Y-77807D01*
X279175Y-77969D01*
X279060Y-78201D01*
Y-78224D01*
X279037Y-78247D01*
X279014Y-78317D01*
Y-78409D01*
X278967Y-78640D01*
X278944Y-78895D01*
Y-78918D01*
Y-78988D01*
X278967Y-79080D01*
Y-79219D01*
X279037Y-79520D01*
X279175Y-79821D01*
X279199Y-79844D01*
X279222Y-79890D01*
X279268Y-79960D01*
X279361Y-80052D01*
X279569Y-80283D01*
X279846Y-80515D01*
X279870Y-80538D01*
X279916Y-80561D01*
X280009Y-80631D01*
X280124Y-80700D01*
X280263Y-80793D01*
X280425Y-80885D01*
X280795Y-81070D01*
X280818D01*
X280888Y-81116D01*
X281003Y-81163D01*
X281119Y-81209D01*
X281281Y-81278D01*
X281466Y-81371D01*
X281860Y-81556D01*
X281883D01*
X281952Y-81602D01*
X282068Y-81649D01*
X282207Y-81718D01*
X282369Y-81811D01*
X282554Y-81903D01*
X282947Y-82135D01*
X282970Y-82158D01*
X283040Y-82181D01*
X283132Y-82250D01*
X283271Y-82343D01*
X283572Y-82574D01*
X283896Y-82852D01*
X283919Y-82875D01*
X283965Y-82921D01*
X284035Y-83014D01*
X284127Y-83130D01*
X284243Y-83268D01*
X284359Y-83430D01*
X284567Y-83824D01*
X284590Y-83847D01*
X284613Y-83916D01*
X284660Y-84032D01*
X284706Y-84194D01*
X284752Y-84402D01*
X284775Y-84634D01*
X284821Y-84888D01*
Y-85166D01*
Y-85212D01*
Y-85328D01*
X284798Y-85490D01*
X284775Y-85698D01*
X284729Y-85953D01*
X284683Y-86230D01*
X284590Y-86508D01*
X284474Y-86786D01*
X284451Y-86809D01*
X284405Y-86901D01*
X284336Y-87040D01*
X284243Y-87202D01*
X284104Y-87387D01*
X283942Y-87596D01*
X283757Y-87781D01*
X283549Y-87989D01*
X283526Y-88012D01*
X283433Y-88058D01*
X283317Y-88151D01*
X283155Y-88266D01*
X282947Y-88382D01*
X282693Y-88498D01*
X282438Y-88614D01*
X282137Y-88729D01*
X282091D01*
X281999Y-88776D01*
X281836Y-88799D01*
X281628Y-88845D01*
X281374Y-88891D01*
X281073Y-88914D01*
X280749Y-88961D01*
X280170D01*
X280009Y-88938D01*
X279823D01*
X279615Y-88914D01*
X279199Y-88845D01*
X279175D01*
X279106Y-88822D01*
X278990Y-88799D01*
X278875Y-88776D01*
X278551Y-88706D01*
X278204Y-88590D01*
X278181D01*
X278134Y-88567D01*
X278065Y-88521D01*
X277949Y-88498D01*
X277718Y-88382D01*
X277486Y-88266D01*
X277463D01*
X277440Y-88243D01*
X277324Y-88151D01*
X277185Y-88058D01*
X277070Y-87966D01*
X277047Y-87943D01*
X277000Y-87873D01*
X276954Y-87781D01*
X276908Y-87665D01*
Y-87619D01*
X276885Y-87526D01*
X276861Y-87364D01*
Y-87156D01*
Y-87110D01*
Y-87040D01*
Y-86924D01*
Y-86809D01*
Y-86786D01*
X276885Y-86716D01*
X276908Y-86647D01*
X276931Y-86577D01*
Y-86554D01*
X276954Y-86531D01*
X277024Y-86439D01*
X277047D01*
X277070Y-86415D01*
X277162Y-86392D01*
X277185D01*
X277255Y-86415D01*
X277394Y-86462D01*
X277556Y-86577D01*
X277579D01*
X277602Y-86601D01*
X277741Y-86693D01*
X277926Y-86809D01*
X278204Y-86948D01*
X278227D01*
X278273Y-86971D01*
X278366Y-87017D01*
X278481Y-87063D01*
X278620Y-87110D01*
X278782Y-87179D01*
X279175Y-87318D01*
X279199D01*
X279268Y-87341D01*
X279407Y-87364D01*
X279569Y-87387D01*
X279754Y-87434D01*
X279985Y-87457D01*
X280217Y-87480D01*
X280703D01*
X280842Y-87457D01*
X281166Y-87410D01*
X281513Y-87341D01*
X281536D01*
X281582Y-87318D01*
X281674Y-87271D01*
X281790Y-87225D01*
X282045Y-87110D01*
X282299Y-86924D01*
X282322Y-86901D01*
X282369Y-86878D01*
X282508Y-86739D01*
X282670Y-86531D01*
X282831Y-86253D01*
Y-86230D01*
X282855Y-86184D01*
X282901Y-86091D01*
X282924Y-85999D01*
X282970Y-85860D01*
X282994Y-85698D01*
X283017Y-85351D01*
Y-85328D01*
Y-85258D01*
X282994Y-85143D01*
Y-85027D01*
X282901Y-84726D01*
X282855Y-84564D01*
X282762Y-84402D01*
Y-84379D01*
X282716Y-84333D01*
X282670Y-84263D01*
X282577Y-84171D01*
X282369Y-83963D01*
X282091Y-83731D01*
X282068Y-83708D01*
X282022Y-83685D01*
X281929Y-83616D01*
X281836Y-83546D01*
X281698Y-83477D01*
X281536Y-83384D01*
X281166Y-83199D01*
X281142Y-83176D01*
X281073Y-83153D01*
X280957Y-83106D01*
X280842Y-83037D01*
X280656Y-82968D01*
X280494Y-82875D01*
X280078Y-82690D01*
X280055Y-82667D01*
X279985Y-82644D01*
X279893Y-82597D01*
X279754Y-82528D01*
X279592Y-82435D01*
X279407Y-82343D01*
X279014Y-82135D01*
X278990Y-82111D01*
X278921Y-82065D01*
X278828Y-82019D01*
X278713Y-81926D01*
X278412Y-81695D01*
X278088Y-81394D01*
X278065Y-81371D01*
X278018Y-81325D01*
X277949Y-81232D01*
X277857Y-81116D01*
X277764Y-80978D01*
X277648Y-80816D01*
X277440Y-80422D01*
Y-80399D01*
X277394Y-80330D01*
X277371Y-80191D01*
X277324Y-80029D01*
X277278Y-79844D01*
X277232Y-79612D01*
X277209Y-79335D01*
X277185Y-79057D01*
Y-79011D01*
Y-78918D01*
X277209Y-78756D01*
X277232Y-78571D01*
X277255Y-78340D01*
X277301Y-78108D01*
X277371Y-77854D01*
X277463Y-77622D01*
X277486Y-77599D01*
X277509Y-77507D01*
X277579Y-77391D01*
X277671Y-77252D01*
X277787Y-77067D01*
X277926Y-76905D01*
X278273Y-76558D01*
X278296Y-76535D01*
X278366Y-76489D01*
X278481Y-76396D01*
X278620Y-76304D01*
X278805Y-76211D01*
X279037Y-76095D01*
X279268Y-75979D01*
X279523Y-75887D01*
X279546D01*
X279661Y-75841D01*
X279800Y-75817D01*
X280009Y-75771D01*
X280240Y-75725D01*
X280494Y-75702D01*
X280795Y-75656D01*
X281374D01*
X281651Y-75702D01*
D02*
G37*
G36*
X309720Y-74915D02*
X309858Y-74938D01*
X309881D01*
X309951Y-74961D01*
X310043Y-74984D01*
X310113Y-75008D01*
X310136D01*
X310159Y-75031D01*
X310252Y-75100D01*
X310275Y-75123D01*
X310298Y-75216D01*
Y-88544D01*
Y-88567D01*
Y-88590D01*
X310252Y-88706D01*
X310229Y-88729D01*
X310113Y-88776D01*
X310090D01*
X310067Y-88799D01*
X309997D01*
X309905Y-88822D01*
X309812D01*
X309696Y-88845D01*
X309326D01*
X309210Y-88822D01*
X309187D01*
X309141Y-88799D01*
X308979Y-88776D01*
X308956D01*
X308933Y-88752D01*
X308840Y-88683D01*
Y-88660D01*
Y-88637D01*
X308817Y-88544D01*
Y-87341D01*
X308794Y-87364D01*
X308701Y-87457D01*
X308539Y-87596D01*
X308354Y-87781D01*
X308146Y-87966D01*
X307892Y-88174D01*
X307614Y-88359D01*
X307336Y-88544D01*
X307313Y-88567D01*
X307197Y-88614D01*
X307059Y-88683D01*
X306850Y-88752D01*
X306596Y-88822D01*
X306318Y-88891D01*
X305994Y-88938D01*
X305670Y-88961D01*
X305508D01*
X305323Y-88938D01*
X305092Y-88914D01*
X304814Y-88868D01*
X304536Y-88799D01*
X304235Y-88706D01*
X303958Y-88590D01*
X303935Y-88567D01*
X303842Y-88521D01*
X303726Y-88428D01*
X303564Y-88313D01*
X303379Y-88174D01*
X303194Y-87989D01*
X303009Y-87781D01*
X302824Y-87549D01*
X302801Y-87526D01*
X302754Y-87434D01*
X302685Y-87295D01*
X302593Y-87110D01*
X302500Y-86901D01*
X302384Y-86624D01*
X302292Y-86346D01*
X302199Y-86022D01*
Y-85976D01*
X302176Y-85860D01*
X302153Y-85675D01*
X302107Y-85443D01*
X302083Y-85166D01*
X302037Y-84842D01*
X302014Y-84518D01*
Y-84148D01*
Y-84125D01*
Y-84101D01*
Y-83963D01*
X302037Y-83731D01*
Y-83454D01*
X302060Y-83130D01*
X302107Y-82782D01*
X302246Y-82065D01*
X302269Y-82019D01*
X302292Y-81903D01*
X302361Y-81741D01*
X302431Y-81510D01*
X302546Y-81255D01*
X302662Y-81001D01*
X302824Y-80723D01*
X302986Y-80469D01*
X303009Y-80445D01*
X303078Y-80353D01*
X303171Y-80237D01*
X303310Y-80098D01*
X303495Y-79913D01*
X303703Y-79751D01*
X303935Y-79589D01*
X304189Y-79450D01*
X304212Y-79427D01*
X304328Y-79381D01*
X304467Y-79335D01*
X304675Y-79265D01*
X304930Y-79196D01*
X305207Y-79127D01*
X305531Y-79103D01*
X305878Y-79080D01*
X306017D01*
X306156Y-79103D01*
X306364Y-79127D01*
X306572Y-79173D01*
X306827Y-79219D01*
X307059Y-79312D01*
X307313Y-79427D01*
X307336Y-79450D01*
X307429Y-79497D01*
X307568Y-79566D01*
X307729Y-79682D01*
X307938Y-79821D01*
X308146Y-80006D01*
X308401Y-80214D01*
X308632Y-80445D01*
Y-75216D01*
Y-75193D01*
Y-75170D01*
X308655Y-75100D01*
Y-75077D01*
X308701Y-75054D01*
X308794Y-75008D01*
X308817D01*
X308863Y-74984D01*
X308933Y-74961D01*
X309049Y-74938D01*
X309072D01*
X309164Y-74915D01*
X309280Y-74892D01*
X309581D01*
X309720Y-74915D01*
D02*
G37*
G36*
X267259Y-79103D02*
X267490Y-79127D01*
X267768Y-79173D01*
X268045Y-79242D01*
X268323Y-79335D01*
X268601Y-79474D01*
X268624Y-79497D01*
X268717Y-79543D01*
X268832Y-79636D01*
X268994Y-79751D01*
X269179Y-79890D01*
X269364Y-80075D01*
X269550Y-80283D01*
X269711Y-80515D01*
X269735Y-80538D01*
X269781Y-80631D01*
X269874Y-80769D01*
X269966Y-80955D01*
X270059Y-81163D01*
X270174Y-81440D01*
X270267Y-81718D01*
X270359Y-82042D01*
Y-82088D01*
X270382Y-82204D01*
X270429Y-82366D01*
X270475Y-82597D01*
X270498Y-82875D01*
X270544Y-83199D01*
X270568Y-83523D01*
Y-83893D01*
Y-83916D01*
Y-83940D01*
Y-84009D01*
Y-84101D01*
X270544Y-84310D01*
Y-84611D01*
X270498Y-84935D01*
X270452Y-85281D01*
X270382Y-85652D01*
X270290Y-86022D01*
Y-86068D01*
X270244Y-86184D01*
X270174Y-86346D01*
X270105Y-86577D01*
X269989Y-86809D01*
X269874Y-87086D01*
X269711Y-87364D01*
X269550Y-87619D01*
X269526Y-87642D01*
X269457Y-87734D01*
X269364Y-87850D01*
X269226Y-87989D01*
X269040Y-88151D01*
X268832Y-88313D01*
X268578Y-88475D01*
X268323Y-88614D01*
X268300Y-88637D01*
X268184Y-88660D01*
X268045Y-88729D01*
X267837Y-88776D01*
X267583Y-88845D01*
X267305Y-88914D01*
X267004Y-88938D01*
X266657Y-88961D01*
X266518D01*
X266402Y-88938D01*
X266171Y-88914D01*
X265893Y-88868D01*
X265870D01*
X265847Y-88845D01*
X265685Y-88822D01*
X265477Y-88729D01*
X265246Y-88637D01*
X265222D01*
X265199Y-88614D01*
X265037Y-88521D01*
X264829Y-88382D01*
X264598Y-88220D01*
X264575Y-88197D01*
X264551Y-88174D01*
X264482Y-88104D01*
X264389Y-88035D01*
X264181Y-87850D01*
X263927Y-87596D01*
Y-92085D01*
Y-92131D01*
X263880Y-92200D01*
X263857Y-92247D01*
X263741Y-92316D01*
X263718D01*
X263672Y-92339D01*
X263603Y-92362D01*
X263487Y-92385D01*
X263394D01*
X263256Y-92409D01*
X262816D01*
X262677Y-92385D01*
X262654D01*
X262608Y-92362D01*
X262446Y-92316D01*
X262423D01*
X262399Y-92293D01*
X262307Y-92200D01*
Y-92177D01*
X262284Y-92085D01*
Y-79543D01*
Y-79520D01*
Y-79497D01*
X262307Y-79404D01*
Y-79381D01*
X262330Y-79358D01*
X262376Y-79335D01*
X262423Y-79312D01*
X262446D01*
X262492Y-79288D01*
X262561Y-79265D01*
X262654Y-79242D01*
X262677D01*
X262747Y-79219D01*
X263232D01*
X263325Y-79242D01*
X263348D01*
X263418Y-79265D01*
X263556Y-79312D01*
X263580D01*
X263603Y-79335D01*
X263649Y-79358D01*
X263672Y-79404D01*
X263695Y-79427D01*
X263718Y-79543D01*
Y-80746D01*
X263741Y-80723D01*
X263788Y-80677D01*
X263880Y-80607D01*
X263973Y-80492D01*
X264227Y-80260D01*
X264505Y-80029D01*
X264528Y-80006D01*
X264575Y-79983D01*
X264644Y-79913D01*
X264760Y-79844D01*
X264991Y-79682D01*
X265269Y-79520D01*
X265292D01*
X265338Y-79474D01*
X265408Y-79450D01*
X265523Y-79404D01*
X265778Y-79288D01*
X266055Y-79196D01*
X266079D01*
X266125Y-79173D01*
X266217Y-79150D01*
X266310Y-79127D01*
X266588Y-79103D01*
X266912Y-79080D01*
X267074D01*
X267259Y-79103D01*
D02*
G37*
G36*
X327768Y-79103D02*
X327791D01*
X327861Y-79126D01*
X327976Y-79150D01*
X328092Y-79173D01*
X328115D01*
X328208Y-79196D01*
X328300Y-79219D01*
X328416Y-79265D01*
X328439D01*
X328509Y-79288D01*
X328578Y-79312D01*
X328624Y-79358D01*
X328647D01*
X328671Y-79381D01*
X328717Y-79450D01*
X328740Y-79474D01*
Y-79566D01*
Y-79589D01*
X328763Y-79612D01*
Y-79682D01*
Y-79774D01*
Y-79798D01*
X328786Y-79867D01*
Y-79960D01*
Y-80121D01*
Y-80168D01*
Y-80260D01*
Y-80376D01*
X328763Y-80492D01*
Y-80515D01*
Y-80561D01*
X328717Y-80723D01*
Y-80746D01*
X328694Y-80769D01*
X328647Y-80862D01*
X328624Y-80885D01*
X328532Y-80908D01*
X328462D01*
X328324Y-80862D01*
X328300D01*
X328254Y-80839D01*
X328162Y-80793D01*
X328069Y-80769D01*
X328046D01*
X327976Y-80746D01*
X327884Y-80700D01*
X327745Y-80677D01*
X327722D01*
X327629Y-80654D01*
X327491Y-80631D01*
X327305D01*
X327190Y-80654D01*
X327051Y-80677D01*
X326866Y-80746D01*
X326819Y-80769D01*
X326727Y-80816D01*
X326565Y-80931D01*
X326357Y-81070D01*
X326310Y-81116D01*
X326195Y-81232D01*
X326010Y-81440D01*
X325801Y-81695D01*
X325778Y-81718D01*
X325755Y-81764D01*
X325686Y-81834D01*
X325616Y-81949D01*
X325524Y-82088D01*
X325431Y-82250D01*
X325177Y-82620D01*
Y-88544D01*
Y-88567D01*
Y-88590D01*
X325130Y-88683D01*
X325107Y-88706D01*
X324991Y-88776D01*
X324968D01*
X324922Y-88799D01*
X324853D01*
X324737Y-88822D01*
X324644D01*
X324506Y-88845D01*
X324066D01*
X323927Y-88822D01*
X323904D01*
X323858Y-88799D01*
X323696Y-88776D01*
X323673D01*
X323649Y-88752D01*
X323557Y-88683D01*
Y-88637D01*
X323534Y-88544D01*
Y-79543D01*
Y-79520D01*
Y-79497D01*
X323557Y-79404D01*
X323580Y-79381D01*
X323626Y-79335D01*
X323673Y-79312D01*
X323696D01*
X323742Y-79288D01*
X323811Y-79265D01*
X323904Y-79242D01*
X323927D01*
X323997Y-79219D01*
X324506D01*
X324621Y-79242D01*
X324644D01*
X324714Y-79265D01*
X324783Y-79288D01*
X324853Y-79312D01*
X324876D01*
X324899Y-79335D01*
X324945Y-79358D01*
X324968Y-79404D01*
X324991Y-79427D01*
X325015Y-79543D01*
Y-80862D01*
X325038Y-80839D01*
X325084Y-80769D01*
X325154Y-80677D01*
X325246Y-80538D01*
X325454Y-80260D01*
X325709Y-79983D01*
X325732Y-79960D01*
X325755Y-79913D01*
X325917Y-79774D01*
X326102Y-79612D01*
X326310Y-79450D01*
X326334D01*
X326357Y-79427D01*
X326496Y-79335D01*
X326681Y-79242D01*
X326889Y-79173D01*
X326912D01*
X326935Y-79150D01*
X327074Y-79126D01*
X327259Y-79103D01*
X327467Y-79080D01*
X327653D01*
X327768Y-79103D01*
D02*
G37*
G36*
X299098Y-74869D02*
X299122D01*
X299191Y-74892D01*
X299284Y-74915D01*
X299353Y-74938D01*
X299376D01*
X299399Y-74961D01*
X299492Y-75054D01*
X299515Y-75077D01*
X299538Y-75170D01*
Y-88544D01*
Y-88567D01*
Y-88590D01*
X299492Y-88683D01*
X299469Y-88706D01*
X299353Y-88776D01*
X299330D01*
X299284Y-88799D01*
X299214D01*
X299098Y-88822D01*
X299006D01*
X298867Y-88845D01*
X298428D01*
X298289Y-88822D01*
X298265D01*
X298219Y-88799D01*
X298057Y-88776D01*
X298034D01*
X298011Y-88752D01*
X297918Y-88683D01*
Y-88637D01*
X297895Y-88544D01*
Y-75170D01*
Y-75146D01*
Y-75123D01*
X297918Y-75054D01*
Y-75031D01*
X297965Y-75008D01*
X298057Y-74938D01*
X298080D01*
X298127Y-74915D01*
X298196Y-74892D01*
X298289Y-74869D01*
X298312D01*
X298404Y-74846D01*
X298983D01*
X299098Y-74869D01*
D02*
G37*
G36*
X249580Y-75887D02*
X249603D01*
X249627Y-75910D01*
X249696Y-76026D01*
Y-76049D01*
X249719Y-76095D01*
X249742Y-76165D01*
X249765Y-76257D01*
Y-76280D01*
X249788Y-76350D01*
Y-76442D01*
Y-76581D01*
Y-76604D01*
Y-76697D01*
Y-76813D01*
X249765Y-76928D01*
Y-76951D01*
X249742Y-76998D01*
X249696Y-77160D01*
X249673Y-77206D01*
X249580Y-77275D01*
X249534D01*
X249441Y-77298D01*
X245809D01*
Y-88544D01*
Y-88590D01*
X245762Y-88683D01*
X245716Y-88706D01*
X245670Y-88729D01*
X245600Y-88752D01*
X245577D01*
X245531Y-88776D01*
X245461D01*
X245346Y-88799D01*
X245322D01*
X245230Y-88822D01*
X245114Y-88845D01*
X244813D01*
X244675Y-88822D01*
X244536Y-88799D01*
X244513D01*
X244443Y-88776D01*
X244258Y-88752D01*
X244235D01*
X244212Y-88729D01*
X244119Y-88683D01*
Y-88660D01*
Y-88637D01*
X244096Y-88544D01*
Y-77298D01*
X240394D01*
X240301Y-77275D01*
X240255Y-77252D01*
X240186Y-77160D01*
Y-77137D01*
X240163Y-77090D01*
Y-77021D01*
X240139Y-76928D01*
Y-76905D01*
Y-76836D01*
X240116Y-76720D01*
Y-76581D01*
Y-76558D01*
Y-76465D01*
Y-76373D01*
X240139Y-76257D01*
Y-76234D01*
X240163Y-76165D01*
X240186Y-76026D01*
Y-76003D01*
X240209Y-75979D01*
X240301Y-75887D01*
X240324D01*
X240348Y-75864D01*
X240440Y-75841D01*
X249488D01*
X249580Y-75887D01*
D02*
G37*
G36*
X317425Y-79103D02*
X317680Y-79126D01*
X317957Y-79173D01*
X318258Y-79219D01*
X318559Y-79312D01*
X318860Y-79427D01*
X318883Y-79450D01*
X318998Y-79497D01*
X319137Y-79566D01*
X319299Y-79682D01*
X319484Y-79798D01*
X319693Y-79960D01*
X319901Y-80145D01*
X320086Y-80353D01*
X320109Y-80376D01*
X320155Y-80445D01*
X320248Y-80584D01*
X320364Y-80746D01*
X320479Y-80931D01*
X320595Y-81163D01*
X320711Y-81417D01*
X320803Y-81695D01*
Y-81718D01*
X320849Y-81834D01*
X320873Y-81973D01*
X320919Y-82181D01*
X320965Y-82435D01*
X320988Y-82713D01*
X321035Y-83014D01*
Y-83338D01*
Y-83639D01*
Y-83662D01*
Y-83708D01*
X321012Y-83847D01*
X320942Y-84032D01*
X320826Y-84194D01*
X320803Y-84217D01*
X320711Y-84263D01*
X320572Y-84333D01*
X320387Y-84356D01*
X314463D01*
Y-84379D01*
Y-84495D01*
Y-84634D01*
X314486Y-84819D01*
Y-85027D01*
X314533Y-85258D01*
X314602Y-85721D01*
Y-85744D01*
X314625Y-85814D01*
X314671Y-85929D01*
X314718Y-86068D01*
X314880Y-86415D01*
X315111Y-86762D01*
X315134Y-86786D01*
X315180Y-86832D01*
X315250Y-86901D01*
X315366Y-86994D01*
X315481Y-87109D01*
X315643Y-87202D01*
X316013Y-87410D01*
X316037D01*
X316106Y-87434D01*
X316245Y-87480D01*
X316407Y-87503D01*
X316615Y-87549D01*
X316846Y-87596D01*
X317101Y-87619D01*
X317633D01*
X317795Y-87596D01*
X318165Y-87572D01*
X318536Y-87526D01*
X318559D01*
X318628Y-87503D01*
X318721Y-87480D01*
X318836Y-87457D01*
X319114Y-87387D01*
X319415Y-87295D01*
X319438D01*
X319484Y-87271D01*
X319623Y-87202D01*
X319831Y-87133D01*
X320017Y-87063D01*
X320040D01*
X320063Y-87040D01*
X320155Y-86994D01*
X320271Y-86971D01*
X320387Y-86948D01*
X320433D01*
X320503Y-86994D01*
X320526D01*
X320549Y-87017D01*
X320595Y-87109D01*
Y-87133D01*
X320618Y-87156D01*
X320641Y-87295D01*
Y-87318D01*
X320664Y-87364D01*
Y-87480D01*
Y-87596D01*
Y-87619D01*
Y-87665D01*
X320641Y-87827D01*
Y-87850D01*
Y-87873D01*
X320618Y-88012D01*
X320595Y-88058D01*
X320549Y-88151D01*
X320526Y-88174D01*
X320479Y-88243D01*
X320433Y-88290D01*
X320317Y-88336D01*
X320155Y-88428D01*
X320132D01*
X320109Y-88452D01*
X320040Y-88475D01*
X319970Y-88498D01*
X319739Y-88567D01*
X319438Y-88660D01*
X319415D01*
X319369Y-88683D01*
X319276Y-88706D01*
X319160Y-88729D01*
X319021Y-88752D01*
X318836Y-88799D01*
X318443Y-88868D01*
X318420D01*
X318351Y-88891D01*
X318235D01*
X318096Y-88914D01*
X317911Y-88938D01*
X317703D01*
X317240Y-88961D01*
X317055D01*
X316846Y-88938D01*
X316592Y-88914D01*
X316268Y-88891D01*
X315944Y-88822D01*
X315620Y-88752D01*
X315296Y-88660D01*
X315250Y-88637D01*
X315157Y-88614D01*
X314995Y-88521D01*
X314810Y-88428D01*
X314579Y-88313D01*
X314347Y-88151D01*
X314116Y-87966D01*
X313885Y-87757D01*
X313862Y-87734D01*
X313792Y-87642D01*
X313699Y-87503D01*
X313561Y-87341D01*
X313422Y-87109D01*
X313283Y-86855D01*
X313144Y-86554D01*
X313028Y-86230D01*
Y-86184D01*
X312982Y-86068D01*
X312936Y-85883D01*
X312890Y-85605D01*
X312843Y-85305D01*
X312797Y-84934D01*
X312774Y-84518D01*
X312751Y-84078D01*
Y-84055D01*
Y-84032D01*
Y-83893D01*
X312774Y-83662D01*
X312797Y-83384D01*
X312820Y-83060D01*
X312866Y-82713D01*
X312936Y-82343D01*
X313028Y-81996D01*
X313052Y-81949D01*
X313075Y-81834D01*
X313144Y-81672D01*
X313260Y-81440D01*
X313375Y-81209D01*
X313514Y-80931D01*
X313699Y-80677D01*
X313885Y-80422D01*
X313908Y-80399D01*
X313977Y-80307D01*
X314116Y-80191D01*
X314278Y-80052D01*
X314463Y-79890D01*
X314694Y-79728D01*
X314972Y-79566D01*
X315250Y-79427D01*
X315296Y-79404D01*
X315389Y-79381D01*
X315551Y-79312D01*
X315782Y-79242D01*
X316037Y-79196D01*
X316360Y-79126D01*
X316684Y-79103D01*
X317055Y-79080D01*
X317240D01*
X317425Y-79103D01*
D02*
G37*
G36*
X291439Y-79103D02*
X291694Y-79127D01*
X291995Y-79173D01*
X292319Y-79219D01*
X292643Y-79312D01*
X292967Y-79427D01*
X293013Y-79450D01*
X293105Y-79497D01*
X293267Y-79566D01*
X293452Y-79659D01*
X293684Y-79798D01*
X293915Y-79960D01*
X294147Y-80145D01*
X294355Y-80376D01*
X294378Y-80399D01*
X294447Y-80492D01*
X294540Y-80631D01*
X294679Y-80793D01*
X294795Y-81024D01*
X294933Y-81278D01*
X295072Y-81579D01*
X295188Y-81903D01*
X295211Y-81950D01*
X295234Y-82065D01*
X295280Y-82250D01*
X295327Y-82505D01*
X295373Y-82806D01*
X295419Y-83153D01*
X295466Y-83523D01*
Y-83940D01*
Y-83963D01*
Y-83986D01*
Y-84125D01*
X295443Y-84333D01*
X295419Y-84587D01*
X295396Y-84911D01*
X295350Y-85235D01*
X295257Y-85605D01*
X295165Y-85953D01*
X295142Y-85999D01*
X295119Y-86115D01*
X295049Y-86277D01*
X294933Y-86508D01*
X294818Y-86739D01*
X294679Y-87017D01*
X294494Y-87295D01*
X294286Y-87549D01*
X294262Y-87572D01*
X294193Y-87665D01*
X294054Y-87781D01*
X293892Y-87919D01*
X293684Y-88104D01*
X293452Y-88266D01*
X293175Y-88428D01*
X292851Y-88590D01*
X292805Y-88614D01*
X292689Y-88637D01*
X292527Y-88706D01*
X292272Y-88776D01*
X291995Y-88845D01*
X291648Y-88891D01*
X291277Y-88938D01*
X290861Y-88961D01*
X290676D01*
X290467Y-88938D01*
X290213Y-88914D01*
X289889Y-88891D01*
X289565Y-88822D01*
X289241Y-88752D01*
X288917Y-88637D01*
X288871Y-88614D01*
X288778Y-88567D01*
X288616Y-88498D01*
X288431Y-88405D01*
X288223Y-88266D01*
X287992Y-88104D01*
X287760Y-87896D01*
X287529Y-87688D01*
X287506Y-87665D01*
X287436Y-87572D01*
X287344Y-87434D01*
X287228Y-87271D01*
X287089Y-87040D01*
X286973Y-86786D01*
X286835Y-86485D01*
X286719Y-86161D01*
Y-86115D01*
X286673Y-85999D01*
X286649Y-85814D01*
X286603Y-85559D01*
X286557Y-85258D01*
X286511Y-84911D01*
X286488Y-84541D01*
X286464Y-84125D01*
Y-84101D01*
Y-84078D01*
Y-83940D01*
X286488Y-83731D01*
X286511Y-83454D01*
X286534Y-83130D01*
X286580Y-82806D01*
X286649Y-82435D01*
X286742Y-82088D01*
X286765Y-82042D01*
X286788Y-81926D01*
X286858Y-81764D01*
X286950Y-81533D01*
X287066Y-81302D01*
X287228Y-81024D01*
X287390Y-80746D01*
X287598Y-80492D01*
X287621Y-80469D01*
X287714Y-80376D01*
X287830Y-80260D01*
X287992Y-80098D01*
X288200Y-79936D01*
X288454Y-79774D01*
X288732Y-79589D01*
X289033Y-79450D01*
X289079Y-79427D01*
X289195Y-79381D01*
X289357Y-79335D01*
X289611Y-79265D01*
X289912Y-79196D01*
X290236Y-79127D01*
X290630Y-79103D01*
X291046Y-79080D01*
X291231D01*
X291439Y-79103D01*
D02*
G37*
G36*
X255828D02*
X256082Y-79127D01*
X256383Y-79173D01*
X256707Y-79219D01*
X257031Y-79312D01*
X257355Y-79427D01*
X257401Y-79450D01*
X257494Y-79497D01*
X257656Y-79566D01*
X257841Y-79659D01*
X258072Y-79798D01*
X258304Y-79960D01*
X258535Y-80145D01*
X258743Y-80376D01*
X258766Y-80399D01*
X258836Y-80492D01*
X258929Y-80631D01*
X259067Y-80793D01*
X259183Y-81024D01*
X259322Y-81278D01*
X259461Y-81579D01*
X259576Y-81903D01*
X259600Y-81950D01*
X259623Y-82065D01*
X259669Y-82250D01*
X259715Y-82505D01*
X259762Y-82806D01*
X259808Y-83153D01*
X259854Y-83523D01*
Y-83940D01*
Y-83963D01*
Y-83986D01*
Y-84125D01*
X259831Y-84333D01*
X259808Y-84587D01*
X259785Y-84911D01*
X259738Y-85235D01*
X259646Y-85605D01*
X259553Y-85953D01*
X259530Y-85999D01*
X259507Y-86115D01*
X259438Y-86277D01*
X259322Y-86508D01*
X259206Y-86739D01*
X259067Y-87017D01*
X258882Y-87295D01*
X258674Y-87549D01*
X258651Y-87572D01*
X258581Y-87665D01*
X258443Y-87781D01*
X258281Y-87919D01*
X258072Y-88104D01*
X257841Y-88266D01*
X257563Y-88428D01*
X257239Y-88590D01*
X257193Y-88614D01*
X257077Y-88637D01*
X256915Y-88706D01*
X256661Y-88776D01*
X256383Y-88845D01*
X256036Y-88891D01*
X255666Y-88938D01*
X255249Y-88961D01*
X255064D01*
X254856Y-88938D01*
X254601Y-88914D01*
X254277Y-88891D01*
X253953Y-88822D01*
X253630Y-88752D01*
X253306Y-88637D01*
X253259Y-88614D01*
X253167Y-88567D01*
X253005Y-88498D01*
X252820Y-88405D01*
X252612Y-88266D01*
X252380Y-88104D01*
X252149Y-87896D01*
X251917Y-87688D01*
X251894Y-87665D01*
X251825Y-87572D01*
X251732Y-87434D01*
X251616Y-87271D01*
X251478Y-87040D01*
X251362Y-86786D01*
X251223Y-86485D01*
X251107Y-86161D01*
Y-86115D01*
X251061Y-85999D01*
X251038Y-85814D01*
X250992Y-85559D01*
X250945Y-85258D01*
X250899Y-84911D01*
X250876Y-84541D01*
X250853Y-84125D01*
Y-84101D01*
Y-84078D01*
Y-83940D01*
X250876Y-83731D01*
X250899Y-83454D01*
X250922Y-83130D01*
X250969Y-82806D01*
X251038Y-82435D01*
X251131Y-82088D01*
X251154Y-82042D01*
X251177Y-81926D01*
X251246Y-81764D01*
X251339Y-81533D01*
X251455Y-81302D01*
X251616Y-81024D01*
X251778Y-80746D01*
X251987Y-80492D01*
X252010Y-80469D01*
X252102Y-80376D01*
X252218Y-80260D01*
X252380Y-80098D01*
X252588Y-79936D01*
X252843Y-79774D01*
X253120Y-79589D01*
X253421Y-79450D01*
X253468Y-79427D01*
X253583Y-79381D01*
X253745Y-79335D01*
X254000Y-79265D01*
X254301Y-79196D01*
X254625Y-79127D01*
X255018Y-79103D01*
X255434Y-79080D01*
X255620D01*
X255828Y-79103D01*
D02*
G37*
%LPC*%
G36*
X306017Y-80492D02*
X305925D01*
X305786Y-80515D01*
X305647Y-80538D01*
X305300Y-80607D01*
X305115Y-80700D01*
X304953Y-80793D01*
X304930Y-80816D01*
X304883Y-80839D01*
X304791Y-80908D01*
X304698Y-81001D01*
X304583Y-81116D01*
X304467Y-81255D01*
X304235Y-81602D01*
Y-81625D01*
X304189Y-81695D01*
X304143Y-81788D01*
X304074Y-81926D01*
X304027Y-82088D01*
X303958Y-82273D01*
X303842Y-82713D01*
Y-82736D01*
X303819Y-82806D01*
X303796Y-82944D01*
Y-83083D01*
X303773Y-83292D01*
X303750Y-83500D01*
X303726Y-83963D01*
Y-83986D01*
Y-84078D01*
Y-84217D01*
X303750Y-84379D01*
Y-84587D01*
X303773Y-84819D01*
X303819Y-85305D01*
Y-85328D01*
X303842Y-85420D01*
X303865Y-85536D01*
X303911Y-85698D01*
X303958Y-85860D01*
X304027Y-86068D01*
X304189Y-86462D01*
X304212Y-86485D01*
X304235Y-86531D01*
X304282Y-86624D01*
X304374Y-86739D01*
X304583Y-86994D01*
X304860Y-87248D01*
X304883Y-87271D01*
X304930Y-87295D01*
X305045Y-87341D01*
X305161Y-87387D01*
X305323Y-87457D01*
X305508Y-87503D01*
X305716Y-87526D01*
X305948Y-87549D01*
X306156D01*
X306341Y-87526D01*
X306572Y-87480D01*
X306596D01*
X306619Y-87457D01*
X306781Y-87410D01*
X306966Y-87318D01*
X307197Y-87179D01*
X307220D01*
X307244Y-87133D01*
X307313Y-87086D01*
X307406Y-87040D01*
X307614Y-86855D01*
X307868Y-86647D01*
X307892Y-86624D01*
X307938Y-86577D01*
X308007Y-86508D01*
X308100Y-86415D01*
X308354Y-86138D01*
X308632Y-85814D01*
Y-82204D01*
X308609Y-82158D01*
X308516Y-82065D01*
X308377Y-81926D01*
X308215Y-81741D01*
X308030Y-81533D01*
X307799Y-81325D01*
X307568Y-81116D01*
X307336Y-80931D01*
X307313Y-80908D01*
X307220Y-80862D01*
X307105Y-80793D01*
X306943Y-80700D01*
X306735Y-80631D01*
X306526Y-80561D01*
X306272Y-80515D01*
X306017Y-80492D01*
D02*
G37*
G36*
X266611D02*
X266565D01*
X266402Y-80515D01*
X266194Y-80538D01*
X265963Y-80607D01*
X265940D01*
X265917Y-80631D01*
X265778Y-80677D01*
X265569Y-80769D01*
X265338Y-80908D01*
X265315D01*
X265292Y-80955D01*
X265222Y-81001D01*
X265130Y-81047D01*
X264898Y-81232D01*
X264644Y-81463D01*
X264621Y-81487D01*
X264575Y-81510D01*
X264505Y-81602D01*
X264436Y-81695D01*
X264204Y-81950D01*
X263927Y-82273D01*
Y-85837D01*
X263950Y-85883D01*
X264042Y-85976D01*
X264181Y-86115D01*
X264343Y-86300D01*
X264528Y-86508D01*
X264736Y-86716D01*
X264968Y-86924D01*
X265199Y-87110D01*
X265222Y-87133D01*
X265315Y-87179D01*
X265431Y-87248D01*
X265593Y-87318D01*
X265801Y-87410D01*
X266009Y-87480D01*
X266241Y-87526D01*
X266495Y-87549D01*
X266611D01*
X266726Y-87526D01*
X266865Y-87503D01*
X267212Y-87434D01*
X267397Y-87364D01*
X267560Y-87271D01*
X267583Y-87248D01*
X267629Y-87225D01*
X267722Y-87156D01*
X267837Y-87063D01*
X267953Y-86948D01*
X268069Y-86809D01*
X268300Y-86462D01*
X268323Y-86439D01*
X268346Y-86369D01*
X268393Y-86277D01*
X268462Y-86138D01*
X268531Y-85976D01*
X268601Y-85767D01*
X268717Y-85351D01*
Y-85328D01*
X268740Y-85235D01*
X268763Y-85120D01*
X268786Y-84958D01*
X268809Y-84773D01*
X268832Y-84541D01*
X268855Y-84078D01*
Y-84055D01*
Y-83963D01*
Y-83824D01*
X268832Y-83662D01*
Y-83454D01*
X268809Y-83245D01*
X268740Y-82759D01*
Y-82736D01*
X268717Y-82644D01*
X268693Y-82528D01*
X268647Y-82366D01*
X268601Y-82181D01*
X268531Y-81996D01*
X268369Y-81602D01*
Y-81579D01*
X268323Y-81510D01*
X268277Y-81417D01*
X268184Y-81302D01*
X267976Y-81047D01*
X267675Y-80793D01*
X267652Y-80769D01*
X267606Y-80746D01*
X267513Y-80700D01*
X267397Y-80631D01*
X267236Y-80584D01*
X267050Y-80538D01*
X266842Y-80515D01*
X266611Y-80492D01*
D02*
G37*
G36*
X316985Y-80376D02*
X316754D01*
X316615Y-80399D01*
X316268Y-80469D01*
X315898Y-80607D01*
X315875D01*
X315828Y-80654D01*
X315736Y-80700D01*
X315620Y-80769D01*
X315366Y-80978D01*
X315111Y-81232D01*
X315088Y-81255D01*
X315065Y-81301D01*
X314995Y-81371D01*
X314949Y-81487D01*
X314856Y-81602D01*
X314787Y-81764D01*
X314625Y-82111D01*
Y-82135D01*
X314602Y-82204D01*
X314579Y-82296D01*
X314556Y-82435D01*
X314509Y-82597D01*
X314486Y-82759D01*
X314463Y-83153D01*
X319369D01*
Y-83130D01*
Y-83083D01*
Y-83037D01*
Y-82944D01*
X319345Y-82713D01*
X319299Y-82412D01*
X319230Y-82088D01*
X319114Y-81741D01*
X318975Y-81417D01*
X318767Y-81116D01*
X318744Y-81093D01*
X318651Y-81001D01*
X318512Y-80885D01*
X318327Y-80746D01*
X318073Y-80607D01*
X317772Y-80492D01*
X317402Y-80399D01*
X316985Y-80376D01*
D02*
G37*
G36*
X290977Y-80469D02*
X290861D01*
X290722Y-80492D01*
X290537D01*
X290352Y-80538D01*
X290120Y-80584D01*
X289912Y-80654D01*
X289704Y-80746D01*
X289681D01*
X289611Y-80793D01*
X289519Y-80862D01*
X289403Y-80931D01*
X289125Y-81163D01*
X288848Y-81487D01*
X288825Y-81510D01*
X288801Y-81579D01*
X288732Y-81672D01*
X288663Y-81788D01*
X288570Y-81950D01*
X288477Y-82158D01*
X288408Y-82366D01*
X288339Y-82597D01*
Y-82620D01*
X288316Y-82713D01*
X288292Y-82852D01*
X288269Y-83014D01*
X288223Y-83222D01*
X288200Y-83477D01*
X288177Y-83731D01*
Y-84009D01*
Y-84032D01*
Y-84125D01*
Y-84286D01*
X288200Y-84448D01*
Y-84680D01*
X288223Y-84911D01*
X288292Y-85397D01*
Y-85420D01*
X288316Y-85513D01*
X288362Y-85629D01*
X288408Y-85791D01*
X288547Y-86138D01*
X288755Y-86531D01*
X288778Y-86554D01*
X288825Y-86601D01*
X288894Y-86693D01*
X288987Y-86809D01*
X289102Y-86924D01*
X289264Y-87063D01*
X289611Y-87295D01*
X289634D01*
X289704Y-87341D01*
X289820Y-87387D01*
X289982Y-87434D01*
X290167Y-87480D01*
X290398Y-87526D01*
X290653Y-87549D01*
X290930Y-87572D01*
X291046D01*
X291185Y-87549D01*
X291370D01*
X291578Y-87503D01*
X291786Y-87457D01*
X291995Y-87410D01*
X292203Y-87318D01*
X292226Y-87295D01*
X292295Y-87271D01*
X292388Y-87202D01*
X292504Y-87133D01*
X292805Y-86901D01*
X293082Y-86601D01*
X293105Y-86577D01*
X293129Y-86508D01*
X293198Y-86415D01*
X293267Y-86277D01*
X293360Y-86115D01*
X293452Y-85929D01*
X293522Y-85721D01*
X293591Y-85490D01*
Y-85467D01*
X293615Y-85374D01*
X293638Y-85235D01*
X293684Y-85050D01*
X293707Y-84842D01*
X293730Y-84611D01*
X293753Y-84055D01*
Y-84032D01*
Y-83940D01*
Y-83778D01*
X293730Y-83592D01*
Y-83384D01*
X293707Y-83153D01*
X293615Y-82667D01*
Y-82644D01*
X293591Y-82551D01*
X293545Y-82435D01*
X293499Y-82273D01*
X293360Y-81903D01*
X293152Y-81533D01*
X293129Y-81510D01*
X293105Y-81440D01*
X293036Y-81371D01*
X292943Y-81255D01*
X292828Y-81140D01*
X292666Y-81001D01*
X292504Y-80885D01*
X292319Y-80769D01*
X292295Y-80746D01*
X292226Y-80723D01*
X292110Y-80677D01*
X291948Y-80607D01*
X291763Y-80561D01*
X291532Y-80515D01*
X291277Y-80492D01*
X290977Y-80469D01*
D02*
G37*
G36*
X255365D02*
X255249D01*
X255110Y-80492D01*
X254925D01*
X254740Y-80538D01*
X254509Y-80584D01*
X254301Y-80654D01*
X254092Y-80746D01*
X254069D01*
X254000Y-80793D01*
X253907Y-80862D01*
X253792Y-80931D01*
X253514Y-81163D01*
X253236Y-81487D01*
X253213Y-81510D01*
X253190Y-81579D01*
X253120Y-81672D01*
X253051Y-81788D01*
X252959Y-81950D01*
X252866Y-82158D01*
X252797Y-82366D01*
X252727Y-82597D01*
Y-82620D01*
X252704Y-82713D01*
X252681Y-82852D01*
X252658Y-83014D01*
X252612Y-83222D01*
X252588Y-83477D01*
X252565Y-83731D01*
Y-84009D01*
Y-84032D01*
Y-84125D01*
Y-84286D01*
X252588Y-84448D01*
Y-84680D01*
X252612Y-84911D01*
X252681Y-85397D01*
Y-85420D01*
X252704Y-85513D01*
X252750Y-85629D01*
X252797Y-85791D01*
X252935Y-86138D01*
X253144Y-86531D01*
X253167Y-86554D01*
X253213Y-86601D01*
X253283Y-86693D01*
X253375Y-86809D01*
X253491Y-86924D01*
X253653Y-87063D01*
X254000Y-87295D01*
X254023D01*
X254092Y-87341D01*
X254208Y-87387D01*
X254370Y-87434D01*
X254555Y-87480D01*
X254787Y-87526D01*
X255041Y-87549D01*
X255319Y-87572D01*
X255434D01*
X255573Y-87549D01*
X255758D01*
X255967Y-87503D01*
X256175Y-87457D01*
X256383Y-87410D01*
X256591Y-87318D01*
X256615Y-87295D01*
X256684Y-87271D01*
X256777Y-87202D01*
X256892Y-87133D01*
X257193Y-86901D01*
X257471Y-86601D01*
X257494Y-86577D01*
X257517Y-86508D01*
X257586Y-86415D01*
X257656Y-86277D01*
X257748Y-86115D01*
X257841Y-85929D01*
X257910Y-85721D01*
X257980Y-85490D01*
Y-85467D01*
X258003Y-85374D01*
X258026Y-85235D01*
X258072Y-85050D01*
X258095Y-84842D01*
X258119Y-84611D01*
X258142Y-84055D01*
Y-84032D01*
Y-83940D01*
Y-83778D01*
X258119Y-83592D01*
Y-83384D01*
X258095Y-83153D01*
X258003Y-82667D01*
Y-82644D01*
X257980Y-82551D01*
X257934Y-82435D01*
X257887Y-82273D01*
X257748Y-81903D01*
X257540Y-81533D01*
X257517Y-81510D01*
X257494Y-81440D01*
X257425Y-81371D01*
X257332Y-81255D01*
X257216Y-81140D01*
X257054Y-81001D01*
X256892Y-80885D01*
X256707Y-80769D01*
X256684Y-80746D01*
X256615Y-80723D01*
X256499Y-80677D01*
X256337Y-80607D01*
X256152Y-80561D01*
X255920Y-80515D01*
X255666Y-80492D01*
X255365Y-80469D01*
D02*
G37*
%LPD*%
D20*
X79000Y10160D02*
D03*
Y-10160D02*
D03*
X70000Y10160D02*
D03*
Y-10160D02*
D03*
X-79000D02*
D03*
Y10160D02*
D03*
X-70000Y-10160D02*
D03*
Y10160D02*
D03*
D21*
X10160Y-79250D02*
D03*
X-10160D02*
D03*
X10160Y-70250D02*
D03*
X-10160D02*
D03*
X-10160Y79000D02*
D03*
X10160D02*
D03*
X-10160Y70000D02*
D03*
X10160D02*
D03*
X9633Y-150602D02*
D03*
X-10687D02*
D03*
X9633Y-141602D02*
D03*
X-10687D02*
D03*
X-10160Y150500D02*
D03*
X10160D02*
D03*
X-10160Y141500D02*
D03*
X10160D02*
D03*
D22*
X125473Y84174D02*
D03*
X135633Y66576D02*
D03*
X117679Y79674D02*
D03*
X127839Y62076D02*
D03*
X-125473Y-84174D02*
D03*
X-135633Y-66576D02*
D03*
X-117679Y-79674D02*
D03*
X-127839Y-62076D02*
D03*
D23*
X135633Y-66576D02*
D03*
X125473Y-84174D02*
D03*
X127839Y-62076D02*
D03*
X117679Y-79674D02*
D03*
X-135633Y66576D02*
D03*
X-125473Y84174D02*
D03*
X-127839Y62076D02*
D03*
X-117679Y79674D02*
D03*
M02*
