G04*
G04 #@! TF.GenerationSoftware,Altium Limited,Altium Designer,20.1.14 (287)*
G04*
G04 Layer_Color=8388736*
%FSLAX44Y44*%
%MOMM*%
G71*
G04*
G04 #@! TF.SameCoordinates,555A517A-9F76-4A69-B8FD-E90865B7C856*
G04*
G04*
G04 #@! TF.FilePolarity,Positive*
G04*
G01*
G75*
%ADD37C,0.1270*%
G36*
X387283Y-104103D02*
X387491Y-104126D01*
X387722Y-104150D01*
X387977Y-104219D01*
X388232Y-104288D01*
X388463Y-104404D01*
X388486Y-104427D01*
X388579Y-104450D01*
X388671Y-104520D01*
X388833Y-104612D01*
X388972Y-104728D01*
X389157Y-104867D01*
X389319Y-105029D01*
X389458Y-105214D01*
X389481Y-105237D01*
X389527Y-105307D01*
X389597Y-105422D01*
X389666Y-105561D01*
X389759Y-105723D01*
X389851Y-105931D01*
X389944Y-106163D01*
X390013Y-106417D01*
Y-106440D01*
X390036Y-106533D01*
X390083Y-106672D01*
X390106Y-106880D01*
X390152Y-107111D01*
X390175Y-107389D01*
X390198Y-107713D01*
Y-108060D01*
Y-113544D01*
Y-113567D01*
Y-113590D01*
X390152Y-113683D01*
X390129Y-113706D01*
X390013Y-113776D01*
X389990D01*
X389944Y-113799D01*
X389874D01*
X389759Y-113822D01*
X389666D01*
X389527Y-113845D01*
X389088D01*
X388949Y-113822D01*
X388926D01*
X388879Y-113799D01*
X388717Y-113776D01*
X388694D01*
X388671Y-113752D01*
X388579Y-113683D01*
Y-113637D01*
X388555Y-113544D01*
Y-108268D01*
Y-108245D01*
Y-108130D01*
Y-107991D01*
X388532Y-107829D01*
X388509Y-107435D01*
X388463Y-107227D01*
X388417Y-107042D01*
Y-107019D01*
X388394Y-106949D01*
X388370Y-106880D01*
X388324Y-106764D01*
X388232Y-106487D01*
X388069Y-106232D01*
Y-106209D01*
X388023Y-106163D01*
X387907Y-106024D01*
X387722Y-105862D01*
X387468Y-105700D01*
X387445D01*
X387398Y-105677D01*
X387329Y-105631D01*
X387237Y-105607D01*
X386959Y-105538D01*
X386635Y-105515D01*
X386519D01*
X386404Y-105538D01*
X386241Y-105561D01*
X386056Y-105631D01*
X385848Y-105700D01*
X385617Y-105816D01*
X385385Y-105978D01*
X385362Y-106001D01*
X385270Y-106047D01*
X385154Y-106163D01*
X384992Y-106301D01*
X384784Y-106487D01*
X384576Y-106695D01*
X384344Y-106949D01*
X384090Y-107250D01*
Y-113544D01*
Y-113567D01*
Y-113590D01*
X384043Y-113683D01*
X384020Y-113706D01*
X383904Y-113776D01*
X383881D01*
X383835Y-113799D01*
X383766D01*
X383650Y-113822D01*
X383557D01*
X383419Y-113845D01*
X382979D01*
X382840Y-113822D01*
X382817D01*
X382771Y-113799D01*
X382609Y-113776D01*
X382585D01*
X382562Y-113752D01*
X382470Y-113683D01*
Y-113637D01*
X382447Y-113544D01*
Y-104543D01*
Y-104520D01*
Y-104497D01*
X382470Y-104404D01*
X382493Y-104381D01*
X382539Y-104335D01*
X382585Y-104312D01*
X382609D01*
X382655Y-104288D01*
X382724Y-104265D01*
X382817Y-104242D01*
X382840D01*
X382909Y-104219D01*
X383419D01*
X383534Y-104242D01*
X383557D01*
X383627Y-104265D01*
X383696Y-104288D01*
X383766Y-104312D01*
X383789D01*
X383812Y-104335D01*
X383858Y-104358D01*
X383881Y-104404D01*
X383904Y-104427D01*
X383928Y-104543D01*
Y-105723D01*
X383974Y-105677D01*
X384066Y-105584D01*
X384205Y-105445D01*
X384413Y-105260D01*
X384622Y-105052D01*
X384876Y-104844D01*
X385154Y-104659D01*
X385432Y-104497D01*
X385478Y-104473D01*
X385570Y-104427D01*
X385709Y-104358D01*
X385918Y-104288D01*
X386149Y-104219D01*
X386404Y-104150D01*
X386681Y-104103D01*
X386959Y-104080D01*
X387121D01*
X387283Y-104103D01*
D02*
G37*
G36*
X267259Y-104103D02*
X267490Y-104127D01*
X267768Y-104173D01*
X268045Y-104242D01*
X268323Y-104335D01*
X268601Y-104474D01*
X268624Y-104497D01*
X268717Y-104543D01*
X268832Y-104635D01*
X268994Y-104751D01*
X269179Y-104890D01*
X269364Y-105075D01*
X269550Y-105283D01*
X269711Y-105515D01*
X269735Y-105538D01*
X269781Y-105631D01*
X269874Y-105769D01*
X269966Y-105955D01*
X270059Y-106163D01*
X270174Y-106440D01*
X270267Y-106718D01*
X270359Y-107042D01*
Y-107088D01*
X270382Y-107204D01*
X270429Y-107366D01*
X270475Y-107597D01*
X270498Y-107875D01*
X270544Y-108199D01*
X270568Y-108523D01*
Y-108893D01*
Y-108916D01*
Y-108940D01*
Y-109009D01*
Y-109101D01*
X270544Y-109310D01*
Y-109611D01*
X270498Y-109935D01*
X270452Y-110281D01*
X270382Y-110652D01*
X270290Y-111022D01*
Y-111068D01*
X270244Y-111184D01*
X270174Y-111346D01*
X270105Y-111577D01*
X269989Y-111809D01*
X269874Y-112086D01*
X269711Y-112364D01*
X269550Y-112619D01*
X269526Y-112642D01*
X269457Y-112734D01*
X269364Y-112850D01*
X269226Y-112989D01*
X269040Y-113151D01*
X268832Y-113313D01*
X268578Y-113475D01*
X268323Y-113614D01*
X268300Y-113637D01*
X268184Y-113660D01*
X268045Y-113729D01*
X267837Y-113776D01*
X267583Y-113845D01*
X267305Y-113914D01*
X267004Y-113938D01*
X266657Y-113961D01*
X266518D01*
X266402Y-113938D01*
X266171Y-113914D01*
X265893Y-113868D01*
X265870D01*
X265847Y-113845D01*
X265685Y-113822D01*
X265477Y-113729D01*
X265246Y-113637D01*
X265222D01*
X265199Y-113614D01*
X265037Y-113521D01*
X264829Y-113382D01*
X264598Y-113220D01*
X264575Y-113197D01*
X264551Y-113174D01*
X264482Y-113104D01*
X264389Y-113035D01*
X264181Y-112850D01*
X263927Y-112596D01*
Y-117085D01*
Y-117131D01*
X263880Y-117200D01*
X263857Y-117247D01*
X263741Y-117316D01*
X263718D01*
X263672Y-117339D01*
X263603Y-117362D01*
X263487Y-117385D01*
X263394D01*
X263256Y-117409D01*
X262816D01*
X262677Y-117385D01*
X262654D01*
X262608Y-117362D01*
X262446Y-117316D01*
X262423D01*
X262399Y-117293D01*
X262307Y-117200D01*
Y-117177D01*
X262284Y-117085D01*
Y-104543D01*
Y-104520D01*
Y-104497D01*
X262307Y-104404D01*
Y-104381D01*
X262330Y-104358D01*
X262376Y-104335D01*
X262423Y-104312D01*
X262446D01*
X262492Y-104288D01*
X262561Y-104265D01*
X262654Y-104242D01*
X262677D01*
X262747Y-104219D01*
X263232D01*
X263325Y-104242D01*
X263348D01*
X263418Y-104265D01*
X263556Y-104312D01*
X263580D01*
X263603Y-104335D01*
X263649Y-104358D01*
X263672Y-104404D01*
X263695Y-104427D01*
X263718Y-104543D01*
Y-105746D01*
X263741Y-105723D01*
X263788Y-105677D01*
X263880Y-105607D01*
X263973Y-105492D01*
X264227Y-105260D01*
X264505Y-105029D01*
X264528Y-105006D01*
X264575Y-104983D01*
X264644Y-104913D01*
X264760Y-104844D01*
X264991Y-104682D01*
X265269Y-104520D01*
X265292D01*
X265338Y-104474D01*
X265408Y-104450D01*
X265523Y-104404D01*
X265778Y-104288D01*
X266055Y-104196D01*
X266079D01*
X266125Y-104173D01*
X266217Y-104150D01*
X266310Y-104127D01*
X266588Y-104103D01*
X266912Y-104080D01*
X267074D01*
X267259Y-104103D01*
D02*
G37*
G36*
X408247Y-104103D02*
X408270D01*
X408340Y-104126D01*
X408455Y-104150D01*
X408571Y-104173D01*
X408594D01*
X408687Y-104196D01*
X408779Y-104219D01*
X408895Y-104265D01*
X408918D01*
X408988Y-104288D01*
X409057Y-104312D01*
X409103Y-104358D01*
X409126D01*
X409150Y-104381D01*
X409196Y-104450D01*
X409219Y-104473D01*
Y-104566D01*
Y-104589D01*
X409242Y-104612D01*
Y-104682D01*
Y-104774D01*
Y-104797D01*
X409265Y-104867D01*
Y-104959D01*
Y-105121D01*
Y-105168D01*
Y-105260D01*
Y-105376D01*
X409242Y-105492D01*
Y-105515D01*
Y-105561D01*
X409196Y-105723D01*
Y-105746D01*
X409173Y-105769D01*
X409126Y-105862D01*
X409103Y-105885D01*
X409011Y-105908D01*
X408941D01*
X408802Y-105862D01*
X408779D01*
X408733Y-105839D01*
X408640Y-105793D01*
X408548Y-105769D01*
X408525D01*
X408455Y-105746D01*
X408363Y-105700D01*
X408224Y-105677D01*
X408201D01*
X408108Y-105654D01*
X407969Y-105631D01*
X407784D01*
X407669Y-105654D01*
X407530Y-105677D01*
X407345Y-105746D01*
X407298Y-105769D01*
X407206Y-105816D01*
X407044Y-105931D01*
X406836Y-106070D01*
X406789Y-106116D01*
X406674Y-106232D01*
X406488Y-106440D01*
X406280Y-106695D01*
X406257Y-106718D01*
X406234Y-106764D01*
X406165Y-106834D01*
X406095Y-106949D01*
X406003Y-107088D01*
X405910Y-107250D01*
X405655Y-107620D01*
Y-113544D01*
Y-113567D01*
Y-113590D01*
X405609Y-113683D01*
X405586Y-113706D01*
X405470Y-113776D01*
X405447D01*
X405401Y-113799D01*
X405331D01*
X405216Y-113822D01*
X405123D01*
X404984Y-113845D01*
X404545D01*
X404406Y-113822D01*
X404383D01*
X404337Y-113799D01*
X404174Y-113776D01*
X404151D01*
X404128Y-113752D01*
X404036Y-113683D01*
Y-113637D01*
X404013Y-113544D01*
Y-104543D01*
Y-104520D01*
Y-104497D01*
X404036Y-104404D01*
X404059Y-104381D01*
X404105Y-104335D01*
X404151Y-104312D01*
X404174D01*
X404221Y-104288D01*
X404290Y-104265D01*
X404383Y-104242D01*
X404406D01*
X404475Y-104219D01*
X404984D01*
X405100Y-104242D01*
X405123D01*
X405193Y-104265D01*
X405262Y-104288D01*
X405331Y-104312D01*
X405355D01*
X405378Y-104335D01*
X405424Y-104358D01*
X405447Y-104404D01*
X405470Y-104427D01*
X405494Y-104543D01*
Y-105862D01*
X405517Y-105839D01*
X405563Y-105769D01*
X405632Y-105677D01*
X405725Y-105538D01*
X405933Y-105260D01*
X406188Y-104983D01*
X406211Y-104959D01*
X406234Y-104913D01*
X406396Y-104774D01*
X406581Y-104612D01*
X406789Y-104450D01*
X406812D01*
X406836Y-104427D01*
X406974Y-104335D01*
X407160Y-104242D01*
X407368Y-104173D01*
X407391D01*
X407414Y-104150D01*
X407553Y-104126D01*
X407738Y-104103D01*
X407946Y-104080D01*
X408131D01*
X408247Y-104103D01*
D02*
G37*
G36*
X326264D02*
X326472Y-104126D01*
X326704Y-104150D01*
X326958Y-104219D01*
X327190Y-104288D01*
X327421Y-104404D01*
X327444Y-104427D01*
X327514Y-104450D01*
X327629Y-104520D01*
X327768Y-104612D01*
X327907Y-104728D01*
X328069Y-104867D01*
X328231Y-105029D01*
X328370Y-105214D01*
X328393Y-105237D01*
X328439Y-105307D01*
X328486Y-105422D01*
X328578Y-105561D01*
X328671Y-105723D01*
X328740Y-105931D01*
X328833Y-106163D01*
X328902Y-106417D01*
Y-106440D01*
X328925Y-106533D01*
X328948Y-106672D01*
X328995Y-106857D01*
X329018Y-107065D01*
X329041Y-107296D01*
X329064Y-107852D01*
Y-113544D01*
Y-113567D01*
Y-113590D01*
X329018Y-113683D01*
X328995Y-113706D01*
X328879Y-113776D01*
X328856D01*
X328810Y-113799D01*
X328740D01*
X328624Y-113822D01*
X328509D01*
X328393Y-113845D01*
X327953D01*
X327814Y-113822D01*
X327791D01*
X327722Y-113799D01*
X327629D01*
X327560Y-113776D01*
X327537D01*
X327514Y-113752D01*
X327421Y-113683D01*
Y-113637D01*
X327398Y-113544D01*
Y-108083D01*
Y-108060D01*
Y-107991D01*
Y-107875D01*
X327375Y-107736D01*
X327352Y-107389D01*
X327282Y-107042D01*
Y-107019D01*
X327259Y-106949D01*
X327236Y-106880D01*
X327213Y-106764D01*
X327097Y-106487D01*
X326958Y-106232D01*
Y-106209D01*
X326912Y-106163D01*
X326819Y-106024D01*
X326634Y-105862D01*
X326403Y-105700D01*
X326380D01*
X326334Y-105677D01*
X326264Y-105631D01*
X326172Y-105607D01*
X325917Y-105538D01*
X325616Y-105515D01*
X325524D01*
X325408Y-105538D01*
X325246Y-105561D01*
X325084Y-105631D01*
X324876Y-105700D01*
X324668Y-105816D01*
X324459Y-105978D01*
X324436Y-106001D01*
X324367Y-106047D01*
X324251Y-106163D01*
X324089Y-106301D01*
X323904Y-106487D01*
X323696Y-106695D01*
X323464Y-106949D01*
X323210Y-107250D01*
Y-113544D01*
Y-113567D01*
Y-113590D01*
X323163Y-113683D01*
X323140Y-113706D01*
X323025Y-113776D01*
X323002D01*
X322955Y-113799D01*
X322886D01*
X322770Y-113822D01*
X322654D01*
X322539Y-113845D01*
X322122D01*
X321983Y-113822D01*
X321960D01*
X321891Y-113799D01*
X321798D01*
X321729Y-113776D01*
X321706D01*
X321683Y-113752D01*
X321590Y-113683D01*
Y-113637D01*
X321567Y-113544D01*
Y-108083D01*
Y-108060D01*
Y-107991D01*
Y-107875D01*
X321544Y-107736D01*
X321521Y-107389D01*
X321451Y-107042D01*
Y-107019D01*
X321428Y-106949D01*
X321405Y-106880D01*
X321359Y-106764D01*
X321266Y-106487D01*
X321104Y-106232D01*
Y-106209D01*
X321058Y-106163D01*
X320965Y-106024D01*
X320780Y-105862D01*
X320549Y-105700D01*
X320526D01*
X320503Y-105677D01*
X320433Y-105631D01*
X320340Y-105607D01*
X320086Y-105538D01*
X319762Y-105515D01*
X319669D01*
X319554Y-105538D01*
X319392Y-105561D01*
X319230Y-105631D01*
X319021Y-105700D01*
X318813Y-105816D01*
X318605Y-105978D01*
X318582Y-106001D01*
X318512Y-106047D01*
X318397Y-106163D01*
X318235Y-106301D01*
X318050Y-106487D01*
X317841Y-106695D01*
X317610Y-106949D01*
X317355Y-107250D01*
Y-113544D01*
Y-113567D01*
Y-113590D01*
X317309Y-113683D01*
X317286Y-113706D01*
X317170Y-113776D01*
X317147D01*
X317101Y-113799D01*
X317031D01*
X316916Y-113822D01*
X316823D01*
X316684Y-113845D01*
X316245D01*
X316106Y-113822D01*
X316083D01*
X316037Y-113799D01*
X315875Y-113776D01*
X315851D01*
X315828Y-113752D01*
X315736Y-113683D01*
Y-113637D01*
X315713Y-113544D01*
Y-104543D01*
Y-104520D01*
Y-104497D01*
X315736Y-104404D01*
X315759Y-104381D01*
X315805Y-104335D01*
X315851Y-104312D01*
X315875D01*
X315921Y-104288D01*
X315990Y-104265D01*
X316083Y-104242D01*
X316106D01*
X316175Y-104219D01*
X316684D01*
X316800Y-104242D01*
X316823D01*
X316893Y-104265D01*
X316962Y-104288D01*
X317031Y-104312D01*
X317055D01*
X317078Y-104335D01*
X317124Y-104358D01*
X317147Y-104404D01*
X317170Y-104427D01*
X317194Y-104543D01*
Y-105723D01*
X317217Y-105677D01*
X317332Y-105584D01*
X317471Y-105445D01*
X317656Y-105260D01*
X317865Y-105052D01*
X318119Y-104844D01*
X318374Y-104659D01*
X318651Y-104497D01*
X318674Y-104473D01*
X318767Y-104427D01*
X318929Y-104358D01*
X319114Y-104288D01*
X319322Y-104219D01*
X319577Y-104150D01*
X319831Y-104103D01*
X320109Y-104080D01*
X320317D01*
X320433Y-104103D01*
X320757Y-104126D01*
X321104Y-104219D01*
X321127D01*
X321174Y-104242D01*
X321266Y-104265D01*
X321382Y-104312D01*
X321636Y-104427D01*
X321891Y-104589D01*
X321914D01*
X321960Y-104635D01*
X322099Y-104751D01*
X322284Y-104913D01*
X322469Y-105145D01*
X322492Y-105168D01*
X322516Y-105191D01*
X322562Y-105260D01*
X322608Y-105353D01*
X322747Y-105584D01*
X322886Y-105862D01*
X322909Y-105839D01*
X322955Y-105769D01*
X323048Y-105700D01*
X323163Y-105584D01*
X323418Y-105307D01*
X323719Y-105052D01*
X323742Y-105029D01*
X323788Y-104983D01*
X323881Y-104936D01*
X323973Y-104844D01*
X324228Y-104682D01*
X324506Y-104497D01*
X324529D01*
X324575Y-104450D01*
X324644Y-104427D01*
X324737Y-104381D01*
X324991Y-104288D01*
X325246Y-104196D01*
X325269D01*
X325316Y-104173D01*
X325385Y-104150D01*
X325477Y-104126D01*
X325686Y-104103D01*
X325963Y-104080D01*
X326102D01*
X326264Y-104103D01*
D02*
G37*
G36*
X300741Y-104103D02*
X300996Y-104150D01*
X301065D01*
X301135Y-104173D01*
X301227Y-104196D01*
X301436Y-104242D01*
X301644Y-104312D01*
X301667D01*
X301690Y-104335D01*
X301829Y-104358D01*
X301991Y-104427D01*
X302153Y-104497D01*
X302199Y-104520D01*
X302269Y-104566D01*
X302361Y-104612D01*
X302454Y-104682D01*
X302477D01*
X302523Y-104728D01*
X302569Y-104774D01*
X302593Y-104821D01*
X302616Y-104867D01*
X302639Y-104959D01*
Y-104983D01*
X302662Y-105006D01*
X302685Y-105145D01*
Y-105168D01*
X302708Y-105214D01*
Y-105307D01*
Y-105399D01*
Y-105422D01*
Y-105515D01*
Y-105607D01*
X302685Y-105723D01*
Y-105746D01*
X302662Y-105793D01*
X302616Y-105908D01*
X302593Y-105955D01*
X302546Y-106024D01*
X302523D01*
X302431Y-106047D01*
X302407D01*
X302361Y-106024D01*
X302292Y-106001D01*
X302176Y-105955D01*
X302153Y-105931D01*
X302060Y-105885D01*
X301922Y-105816D01*
X301736Y-105723D01*
X301690Y-105700D01*
X301574Y-105631D01*
X301366Y-105561D01*
X301112Y-105469D01*
X301089D01*
X301042Y-105445D01*
X300973Y-105422D01*
X300880Y-105399D01*
X300603Y-105376D01*
X300279Y-105353D01*
X300140D01*
X300024Y-105376D01*
X299793Y-105399D01*
X299538Y-105469D01*
X299515D01*
X299492Y-105492D01*
X299353Y-105538D01*
X299168Y-105631D01*
X299006Y-105746D01*
X298983Y-105769D01*
X298890Y-105862D01*
X298798Y-106001D01*
X298705Y-106163D01*
X298682Y-106209D01*
X298659Y-106302D01*
X298636Y-106463D01*
X298613Y-106672D01*
Y-106695D01*
Y-106741D01*
Y-106811D01*
X298636Y-106903D01*
X298682Y-107111D01*
X298798Y-107343D01*
X298844Y-107389D01*
X298937Y-107505D01*
X299098Y-107644D01*
X299307Y-107806D01*
X299330D01*
X299376Y-107829D01*
X299422Y-107875D01*
X299515Y-107921D01*
X299746Y-108037D01*
X300047Y-108153D01*
X300070D01*
X300117Y-108176D01*
X300209Y-108222D01*
X300302Y-108245D01*
X300579Y-108361D01*
X300880Y-108477D01*
X300903D01*
X300950Y-108500D01*
X301042Y-108546D01*
X301135Y-108592D01*
X301413Y-108708D01*
X301713Y-108870D01*
X301736D01*
X301783Y-108916D01*
X301852Y-108963D01*
X301968Y-109009D01*
X302199Y-109171D01*
X302454Y-109379D01*
X302477Y-109402D01*
X302500Y-109425D01*
X302569Y-109495D01*
X302639Y-109564D01*
X302801Y-109796D01*
X302963Y-110096D01*
Y-110120D01*
X302986Y-110166D01*
X303032Y-110258D01*
X303078Y-110374D01*
X303102Y-110513D01*
X303148Y-110698D01*
X303171Y-111091D01*
Y-111115D01*
Y-111207D01*
X303148Y-111346D01*
Y-111508D01*
X303102Y-111693D01*
X303055Y-111901D01*
X302986Y-112110D01*
X302893Y-112318D01*
Y-112341D01*
X302847Y-112410D01*
X302778Y-112503D01*
X302708Y-112619D01*
X302477Y-112919D01*
X302176Y-113220D01*
X302153Y-113243D01*
X302083Y-113290D01*
X301991Y-113336D01*
X301875Y-113428D01*
X301713Y-113521D01*
X301505Y-113614D01*
X301297Y-113706D01*
X301065Y-113776D01*
X301042D01*
X300950Y-113799D01*
X300811Y-113822D01*
X300649Y-113868D01*
X300441Y-113891D01*
X300186Y-113938D01*
X299908Y-113961D01*
X299446D01*
X299330Y-113938D01*
X299029Y-113914D01*
X298705Y-113868D01*
X298682D01*
X298636Y-113845D01*
X298566D01*
X298451Y-113822D01*
X298219Y-113776D01*
X297941Y-113706D01*
X297918D01*
X297895Y-113683D01*
X297733Y-113637D01*
X297548Y-113567D01*
X297340Y-113475D01*
X297294Y-113452D01*
X297201Y-113382D01*
X297085Y-113313D01*
X296993Y-113243D01*
X296970Y-113220D01*
X296947Y-113174D01*
X296900Y-113081D01*
X296854Y-112966D01*
Y-112943D01*
X296831Y-112827D01*
X296808Y-112688D01*
Y-112480D01*
Y-112457D01*
Y-112364D01*
Y-112271D01*
Y-112156D01*
Y-112133D01*
X296831Y-112086D01*
Y-112017D01*
X296854Y-111948D01*
Y-111924D01*
X296877Y-111901D01*
X296923Y-111855D01*
X296947Y-111832D01*
X296970D01*
X296993Y-111809D01*
X297085Y-111786D01*
X297108D01*
X297155Y-111809D01*
X297247Y-111832D01*
X297386Y-111924D01*
X297432Y-111948D01*
X297548Y-112017D01*
X297710Y-112110D01*
X297918Y-112225D01*
X297941D01*
X297988Y-112248D01*
X298034Y-112271D01*
X298127Y-112318D01*
X298358Y-112410D01*
X298659Y-112526D01*
X298682D01*
X298728Y-112549D01*
X298821Y-112572D01*
X298960D01*
X299098Y-112596D01*
X299284Y-112619D01*
X299677Y-112642D01*
X299932D01*
X300163Y-112619D01*
X300417Y-112572D01*
X300441D01*
X300487Y-112549D01*
X300626Y-112503D01*
X300811Y-112434D01*
X301019Y-112318D01*
X301042D01*
X301065Y-112295D01*
X301158Y-112179D01*
X301297Y-112040D01*
X301413Y-111855D01*
Y-111832D01*
X301436Y-111809D01*
X301482Y-111670D01*
X301528Y-111462D01*
X301551Y-111207D01*
Y-111184D01*
Y-111138D01*
Y-111068D01*
X301528Y-110999D01*
X301459Y-110791D01*
X301343Y-110582D01*
Y-110559D01*
X301320Y-110536D01*
X301204Y-110420D01*
X301042Y-110258D01*
X300834Y-110120D01*
X300811D01*
X300788Y-110073D01*
X300718Y-110050D01*
X300626Y-110004D01*
X300394Y-109888D01*
X300117Y-109773D01*
X300093D01*
X300047Y-109749D01*
X299978Y-109703D01*
X299862Y-109680D01*
X299608Y-109564D01*
X299284Y-109448D01*
X299261D01*
X299214Y-109425D01*
X299122Y-109379D01*
X299029Y-109333D01*
X298751Y-109194D01*
X298451Y-109055D01*
X298428D01*
X298381Y-109009D01*
X298312Y-108963D01*
X298219Y-108916D01*
X297988Y-108754D01*
X297733Y-108546D01*
X297710Y-108523D01*
X297687Y-108477D01*
X297618Y-108430D01*
X297548Y-108338D01*
X297386Y-108106D01*
X297224Y-107806D01*
Y-107782D01*
X297201Y-107736D01*
X297178Y-107644D01*
X297132Y-107505D01*
X297108Y-107366D01*
X297062Y-107181D01*
X297039Y-106764D01*
Y-106741D01*
Y-106672D01*
Y-106579D01*
X297062Y-106440D01*
X297108Y-106117D01*
X297224Y-105746D01*
Y-105723D01*
X297271Y-105654D01*
X297317Y-105561D01*
X297386Y-105445D01*
X297571Y-105168D01*
X297826Y-104890D01*
X297849Y-104867D01*
X297895Y-104821D01*
X297988Y-104751D01*
X298104Y-104682D01*
X298265Y-104589D01*
X298428Y-104497D01*
X298844Y-104312D01*
X298867D01*
X298960Y-104265D01*
X299075Y-104242D01*
X299261Y-104196D01*
X299469Y-104150D01*
X299723Y-104127D01*
X300001Y-104080D01*
X300510D01*
X300741Y-104103D01*
D02*
G37*
G36*
X292735D02*
X292990Y-104150D01*
X293059D01*
X293129Y-104173D01*
X293221Y-104196D01*
X293429Y-104242D01*
X293638Y-104312D01*
X293661D01*
X293684Y-104335D01*
X293823Y-104358D01*
X293985Y-104427D01*
X294147Y-104497D01*
X294193Y-104520D01*
X294262Y-104566D01*
X294355Y-104612D01*
X294447Y-104682D01*
X294471D01*
X294517Y-104728D01*
X294563Y-104774D01*
X294586Y-104821D01*
X294610Y-104867D01*
X294633Y-104959D01*
Y-104983D01*
X294656Y-105006D01*
X294679Y-105145D01*
Y-105168D01*
X294702Y-105214D01*
Y-105307D01*
Y-105399D01*
Y-105422D01*
Y-105515D01*
Y-105607D01*
X294679Y-105723D01*
Y-105746D01*
X294656Y-105793D01*
X294610Y-105908D01*
X294586Y-105955D01*
X294540Y-106024D01*
X294517D01*
X294424Y-106047D01*
X294401D01*
X294355Y-106024D01*
X294286Y-106001D01*
X294170Y-105955D01*
X294147Y-105931D01*
X294054Y-105885D01*
X293915Y-105816D01*
X293730Y-105723D01*
X293684Y-105700D01*
X293568Y-105631D01*
X293360Y-105561D01*
X293105Y-105469D01*
X293082D01*
X293036Y-105445D01*
X292967Y-105422D01*
X292874Y-105399D01*
X292596Y-105376D01*
X292272Y-105353D01*
X292134D01*
X292018Y-105376D01*
X291786Y-105399D01*
X291532Y-105469D01*
X291509D01*
X291486Y-105492D01*
X291347Y-105538D01*
X291162Y-105631D01*
X291000Y-105746D01*
X290977Y-105769D01*
X290884Y-105862D01*
X290791Y-106001D01*
X290699Y-106163D01*
X290676Y-106209D01*
X290653Y-106302D01*
X290630Y-106463D01*
X290606Y-106672D01*
Y-106695D01*
Y-106741D01*
Y-106811D01*
X290630Y-106903D01*
X290676Y-107111D01*
X290791Y-107343D01*
X290838Y-107389D01*
X290930Y-107505D01*
X291092Y-107644D01*
X291301Y-107806D01*
X291324D01*
X291370Y-107829D01*
X291416Y-107875D01*
X291509Y-107921D01*
X291740Y-108037D01*
X292041Y-108153D01*
X292064D01*
X292110Y-108176D01*
X292203Y-108222D01*
X292295Y-108245D01*
X292573Y-108361D01*
X292874Y-108477D01*
X292897D01*
X292943Y-108500D01*
X293036Y-108546D01*
X293129Y-108592D01*
X293406Y-108708D01*
X293707Y-108870D01*
X293730D01*
X293776Y-108916D01*
X293846Y-108963D01*
X293962Y-109009D01*
X294193Y-109171D01*
X294447Y-109379D01*
X294471Y-109402D01*
X294494Y-109425D01*
X294563Y-109495D01*
X294633Y-109564D01*
X294795Y-109796D01*
X294957Y-110096D01*
Y-110120D01*
X294980Y-110166D01*
X295026Y-110258D01*
X295072Y-110374D01*
X295095Y-110513D01*
X295142Y-110698D01*
X295165Y-111091D01*
Y-111115D01*
Y-111207D01*
X295142Y-111346D01*
Y-111508D01*
X295095Y-111693D01*
X295049Y-111901D01*
X294980Y-112110D01*
X294887Y-112318D01*
Y-112341D01*
X294841Y-112410D01*
X294771Y-112503D01*
X294702Y-112619D01*
X294471Y-112919D01*
X294170Y-113220D01*
X294147Y-113243D01*
X294077Y-113290D01*
X293985Y-113336D01*
X293869Y-113428D01*
X293707Y-113521D01*
X293499Y-113614D01*
X293291Y-113706D01*
X293059Y-113776D01*
X293036D01*
X292943Y-113799D01*
X292805Y-113822D01*
X292643Y-113868D01*
X292434Y-113891D01*
X292180Y-113938D01*
X291902Y-113961D01*
X291439D01*
X291324Y-113938D01*
X291023Y-113914D01*
X290699Y-113868D01*
X290676D01*
X290630Y-113845D01*
X290560D01*
X290444Y-113822D01*
X290213Y-113776D01*
X289935Y-113706D01*
X289912D01*
X289889Y-113683D01*
X289727Y-113637D01*
X289542Y-113567D01*
X289334Y-113475D01*
X289287Y-113452D01*
X289195Y-113382D01*
X289079Y-113313D01*
X288987Y-113243D01*
X288964Y-113220D01*
X288940Y-113174D01*
X288894Y-113081D01*
X288848Y-112966D01*
Y-112943D01*
X288825Y-112827D01*
X288801Y-112688D01*
Y-112480D01*
Y-112457D01*
Y-112364D01*
Y-112271D01*
Y-112156D01*
Y-112133D01*
X288825Y-112086D01*
Y-112017D01*
X288848Y-111948D01*
Y-111924D01*
X288871Y-111901D01*
X288917Y-111855D01*
X288940Y-111832D01*
X288964D01*
X288987Y-111809D01*
X289079Y-111786D01*
X289102D01*
X289149Y-111809D01*
X289241Y-111832D01*
X289380Y-111924D01*
X289426Y-111948D01*
X289542Y-112017D01*
X289704Y-112110D01*
X289912Y-112225D01*
X289935D01*
X289982Y-112248D01*
X290028Y-112271D01*
X290120Y-112318D01*
X290352Y-112410D01*
X290653Y-112526D01*
X290676D01*
X290722Y-112549D01*
X290815Y-112572D01*
X290953D01*
X291092Y-112596D01*
X291277Y-112619D01*
X291671Y-112642D01*
X291925D01*
X292157Y-112619D01*
X292411Y-112572D01*
X292434D01*
X292481Y-112549D01*
X292619Y-112503D01*
X292805Y-112434D01*
X293013Y-112318D01*
X293036D01*
X293059Y-112295D01*
X293152Y-112179D01*
X293291Y-112040D01*
X293406Y-111855D01*
Y-111832D01*
X293429Y-111809D01*
X293476Y-111670D01*
X293522Y-111462D01*
X293545Y-111207D01*
Y-111184D01*
Y-111138D01*
Y-111068D01*
X293522Y-110999D01*
X293452Y-110791D01*
X293337Y-110582D01*
Y-110559D01*
X293314Y-110536D01*
X293198Y-110420D01*
X293036Y-110258D01*
X292828Y-110120D01*
X292805D01*
X292782Y-110073D01*
X292712Y-110050D01*
X292619Y-110004D01*
X292388Y-109888D01*
X292110Y-109773D01*
X292087D01*
X292041Y-109749D01*
X291972Y-109703D01*
X291856Y-109680D01*
X291601Y-109564D01*
X291277Y-109448D01*
X291254D01*
X291208Y-109425D01*
X291115Y-109379D01*
X291023Y-109333D01*
X290745Y-109194D01*
X290444Y-109055D01*
X290421D01*
X290375Y-109009D01*
X290306Y-108963D01*
X290213Y-108916D01*
X289982Y-108754D01*
X289727Y-108546D01*
X289704Y-108523D01*
X289681Y-108477D01*
X289611Y-108430D01*
X289542Y-108338D01*
X289380Y-108106D01*
X289218Y-107806D01*
Y-107782D01*
X289195Y-107736D01*
X289172Y-107644D01*
X289125Y-107505D01*
X289102Y-107366D01*
X289056Y-107181D01*
X289033Y-106764D01*
Y-106741D01*
Y-106672D01*
Y-106579D01*
X289056Y-106440D01*
X289102Y-106117D01*
X289218Y-105746D01*
Y-105723D01*
X289264Y-105654D01*
X289310Y-105561D01*
X289380Y-105445D01*
X289565Y-105168D01*
X289820Y-104890D01*
X289843Y-104867D01*
X289889Y-104821D01*
X289982Y-104751D01*
X290097Y-104682D01*
X290259Y-104589D01*
X290421Y-104497D01*
X290838Y-104312D01*
X290861D01*
X290953Y-104265D01*
X291069Y-104242D01*
X291254Y-104196D01*
X291462Y-104150D01*
X291717Y-104127D01*
X291995Y-104080D01*
X292504D01*
X292735Y-104103D01*
D02*
G37*
G36*
X376315Y-104126D02*
X376569Y-104150D01*
X376639D01*
X376708Y-104173D01*
X376801D01*
X377009Y-104219D01*
X377240Y-104265D01*
X379994D01*
X380063Y-104288D01*
X380156Y-104335D01*
X380225Y-104450D01*
X380248Y-104473D01*
X380271Y-104566D01*
X380295Y-104728D01*
X380318Y-104936D01*
Y-104959D01*
Y-104983D01*
X380295Y-105121D01*
X380271Y-105307D01*
X380202Y-105445D01*
X380179Y-105469D01*
X380133Y-105515D01*
X380063Y-105561D01*
X379971Y-105584D01*
X378675D01*
X378698Y-105607D01*
X378721Y-105654D01*
X378791Y-105723D01*
X378860Y-105816D01*
X379022Y-106070D01*
X379161Y-106394D01*
Y-106417D01*
X379184Y-106463D01*
X379207Y-106556D01*
X379253Y-106672D01*
X379300Y-106973D01*
X379323Y-107320D01*
Y-107343D01*
Y-107458D01*
X379300Y-107597D01*
Y-107782D01*
X379253Y-108014D01*
X379207Y-108245D01*
X379161Y-108477D01*
X379068Y-108708D01*
Y-108731D01*
X379022Y-108801D01*
X378953Y-108916D01*
X378883Y-109055D01*
X378652Y-109379D01*
X378351Y-109726D01*
X378328Y-109749D01*
X378258Y-109796D01*
X378166Y-109865D01*
X378050Y-109958D01*
X377888Y-110050D01*
X377680Y-110166D01*
X377472Y-110258D01*
X377240Y-110351D01*
X377217D01*
X377125Y-110374D01*
X376986Y-110420D01*
X376824Y-110443D01*
X376615Y-110490D01*
X376361Y-110536D01*
X376106Y-110559D01*
X375620D01*
X375482Y-110536D01*
X375320D01*
X375158Y-110490D01*
X374764Y-110420D01*
X374741D01*
X374695Y-110397D01*
X374602Y-110374D01*
X374487Y-110328D01*
X374232Y-110212D01*
X374001Y-110050D01*
X373978Y-110073D01*
X373908Y-110166D01*
X373816Y-110305D01*
X373723Y-110467D01*
X373700Y-110513D01*
X373677Y-110629D01*
X373654Y-110791D01*
X373630Y-110999D01*
Y-111022D01*
Y-111045D01*
X373677Y-111207D01*
X373769Y-111392D01*
X373839Y-111485D01*
X373955Y-111577D01*
X373978D01*
X374024Y-111624D01*
X374093Y-111647D01*
X374186Y-111693D01*
X374302Y-111739D01*
X374464Y-111762D01*
X374811Y-111809D01*
X377148Y-111924D01*
X377263D01*
X377379Y-111948D01*
X377564D01*
X377749Y-111971D01*
X377958Y-112017D01*
X378374Y-112109D01*
X378397D01*
X378467Y-112133D01*
X378582Y-112179D01*
X378698Y-112225D01*
X379022Y-112364D01*
X379346Y-112572D01*
X379369Y-112596D01*
X379415Y-112619D01*
X379485Y-112688D01*
X379577Y-112781D01*
X379786Y-113012D01*
X379994Y-113336D01*
Y-113359D01*
X380040Y-113405D01*
X380063Y-113498D01*
X380110Y-113614D01*
X380156Y-113776D01*
X380179Y-113938D01*
X380225Y-114331D01*
Y-114354D01*
Y-114447D01*
X380202Y-114562D01*
Y-114701D01*
X380156Y-114886D01*
X380110Y-115094D01*
X380040Y-115303D01*
X379948Y-115511D01*
Y-115534D01*
X379901Y-115604D01*
X379832Y-115719D01*
X379762Y-115858D01*
X379647Y-115997D01*
X379508Y-116182D01*
X379346Y-116344D01*
X379161Y-116506D01*
X379138Y-116529D01*
X379068Y-116575D01*
X378953Y-116645D01*
X378791Y-116737D01*
X378605Y-116853D01*
X378351Y-116969D01*
X378096Y-117085D01*
X377796Y-117177D01*
X377749D01*
X377657Y-117223D01*
X377472Y-117247D01*
X377240Y-117293D01*
X376940Y-117339D01*
X376615Y-117385D01*
X376245Y-117409D01*
X375829Y-117432D01*
X375435D01*
X375181Y-117409D01*
X374903Y-117385D01*
X374579Y-117362D01*
X374278Y-117316D01*
X373978Y-117247D01*
X373955D01*
X373862Y-117200D01*
X373700Y-117177D01*
X373538Y-117108D01*
X373121Y-116946D01*
X372913Y-116853D01*
X372728Y-116737D01*
X372705Y-116714D01*
X372659Y-116668D01*
X372566Y-116599D01*
X372450Y-116506D01*
X372219Y-116275D01*
X372103Y-116113D01*
X372011Y-115951D01*
Y-115927D01*
X371988Y-115881D01*
X371941Y-115789D01*
X371918Y-115673D01*
X371872Y-115534D01*
X371826Y-115372D01*
X371802Y-115002D01*
Y-114979D01*
Y-114956D01*
Y-114794D01*
X371826Y-114585D01*
X371872Y-114354D01*
Y-114331D01*
X371895Y-114308D01*
X371918Y-114169D01*
X372011Y-113984D01*
X372103Y-113776D01*
Y-113752D01*
X372127Y-113729D01*
X372219Y-113614D01*
X372358Y-113452D01*
X372520Y-113266D01*
X372543Y-113243D01*
X372566Y-113220D01*
X372682Y-113104D01*
X372867Y-112942D01*
X373098Y-112757D01*
X373075Y-112734D01*
X373029Y-112711D01*
X372936Y-112665D01*
X372821Y-112572D01*
X372589Y-112387D01*
X372474Y-112271D01*
X372381Y-112133D01*
Y-112109D01*
X372335Y-112063D01*
X372312Y-111994D01*
X372265Y-111878D01*
X372196Y-111624D01*
X372150Y-111300D01*
Y-111277D01*
Y-111207D01*
X372173Y-111091D01*
Y-110929D01*
X372242Y-110605D01*
X372381Y-110235D01*
X372404Y-110212D01*
X372427Y-110143D01*
X372474Y-110050D01*
X372543Y-109934D01*
X372751Y-109657D01*
X372983Y-109356D01*
X372960Y-109333D01*
X372936Y-109286D01*
X372867Y-109217D01*
X372821Y-109101D01*
X372659Y-108847D01*
X372497Y-108523D01*
Y-108500D01*
X372474Y-108430D01*
X372450Y-108338D01*
X372427Y-108199D01*
X372381Y-108037D01*
X372358Y-107852D01*
X372335Y-107620D01*
Y-107389D01*
Y-107343D01*
Y-107250D01*
X372358Y-107111D01*
Y-106926D01*
X372404Y-106718D01*
X372450Y-106487D01*
X372497Y-106255D01*
X372589Y-106024D01*
X372612Y-106001D01*
X372635Y-105908D01*
X372705Y-105793D01*
X372774Y-105654D01*
X373006Y-105330D01*
X373307Y-104983D01*
X373330Y-104959D01*
X373399Y-104913D01*
X373492Y-104844D01*
X373630Y-104751D01*
X373792Y-104635D01*
X373978Y-104543D01*
X374186Y-104427D01*
X374417Y-104335D01*
X374440D01*
X374533Y-104288D01*
X374672Y-104265D01*
X374834Y-104219D01*
X375042Y-104173D01*
X375273Y-104150D01*
X375806Y-104103D01*
X376060D01*
X376315Y-104126D01*
D02*
G37*
G36*
X354425Y-104242D02*
X354564Y-104265D01*
X354587D01*
X354656Y-104288D01*
X354749Y-104312D01*
X354818Y-104358D01*
X354841Y-104381D01*
X354865Y-104404D01*
X354888Y-104473D01*
X354911Y-104543D01*
Y-104566D01*
Y-104612D01*
X354888Y-104728D01*
X354841Y-104844D01*
X351625Y-113776D01*
X350422Y-117061D01*
X350399Y-117085D01*
X350352Y-117154D01*
X350260Y-117247D01*
X350098Y-117316D01*
X350051Y-117339D01*
X349913Y-117362D01*
X349820Y-117385D01*
X349704D01*
X349542Y-117409D01*
X349218D01*
X349080Y-117385D01*
X348941Y-117362D01*
X348918D01*
X348871Y-117339D01*
X348709Y-117270D01*
X348686D01*
X348663Y-117223D01*
X348617Y-117200D01*
X348594Y-117131D01*
Y-117108D01*
Y-117061D01*
X348617Y-116992D01*
X348663Y-116899D01*
X349889Y-113776D01*
X349843Y-113752D01*
X349797Y-113706D01*
X349728Y-113660D01*
Y-113637D01*
X349681Y-113590D01*
X349612Y-113475D01*
X346419Y-104867D01*
X346395Y-104821D01*
X346372Y-104751D01*
X346349Y-104635D01*
X346326Y-104543D01*
Y-104520D01*
Y-104473D01*
X346349Y-104404D01*
X346395Y-104358D01*
X346419Y-104335D01*
X346465Y-104312D01*
X346557Y-104288D01*
X346673Y-104265D01*
X346696D01*
X346812Y-104242D01*
X346951Y-104219D01*
X347483D01*
X347622Y-104242D01*
X347645D01*
X347714Y-104265D01*
X347807Y-104288D01*
X347876Y-104312D01*
X347900D01*
X347946Y-104335D01*
X347992Y-104358D01*
X348038Y-104427D01*
Y-104450D01*
X348061Y-104473D01*
X348131Y-104612D01*
X350699Y-111832D01*
X350723D01*
X353222Y-104589D01*
Y-104566D01*
X353245Y-104473D01*
X353291Y-104404D01*
X353337Y-104335D01*
X353360D01*
X353407Y-104312D01*
X353476Y-104288D01*
X353592Y-104265D01*
X353638D01*
X353731Y-104242D01*
X353893Y-104219D01*
X354263D01*
X354425Y-104242D01*
D02*
G37*
G36*
X368933Y-100794D02*
X369072Y-100817D01*
X369095D01*
X369165Y-100841D01*
X369257Y-100864D01*
X369327Y-100887D01*
X369350D01*
X369396Y-100910D01*
X369442Y-100933D01*
X369489Y-100979D01*
X369512Y-101003D01*
X369535Y-101095D01*
Y-113544D01*
Y-113590D01*
X369489Y-113683D01*
X369442Y-113706D01*
X369396Y-113729D01*
X369327Y-113752D01*
X369304D01*
X369257Y-113776D01*
X369188D01*
X369072Y-113799D01*
X369049D01*
X368956Y-113822D01*
X368841Y-113845D01*
X368540D01*
X368401Y-113822D01*
X368262Y-113799D01*
X368239D01*
X368170Y-113776D01*
X367985Y-113752D01*
X367961D01*
X367938Y-113729D01*
X367846Y-113683D01*
Y-113660D01*
Y-113637D01*
X367822Y-113544D01*
Y-101095D01*
Y-101072D01*
Y-101049D01*
X367846Y-100979D01*
Y-100956D01*
X367892Y-100933D01*
X367985Y-100887D01*
X368008D01*
X368054Y-100864D01*
X368147Y-100841D01*
X368262Y-100817D01*
X368285D01*
X368378Y-100794D01*
X368517Y-100771D01*
X368817D01*
X368933Y-100794D01*
D02*
G37*
G36*
X344035Y-99869D02*
X344058D01*
X344128Y-99892D01*
X344220Y-99915D01*
X344290Y-99938D01*
X344313D01*
X344336Y-99961D01*
X344429Y-100054D01*
X344452Y-100077D01*
X344475Y-100170D01*
Y-113544D01*
Y-113567D01*
Y-113590D01*
X344429Y-113683D01*
X344406Y-113706D01*
X344290Y-113776D01*
X344267D01*
X344220Y-113799D01*
X344151D01*
X344035Y-113822D01*
X343943D01*
X343804Y-113845D01*
X343364D01*
X343225Y-113822D01*
X343202D01*
X343156Y-113799D01*
X342994Y-113776D01*
X342971D01*
X342948Y-113752D01*
X342855Y-113683D01*
Y-113637D01*
X342832Y-113544D01*
Y-100170D01*
Y-100147D01*
Y-100123D01*
X342855Y-100054D01*
Y-100031D01*
X342901Y-100008D01*
X342994Y-99938D01*
X343017D01*
X343063Y-99915D01*
X343133Y-99892D01*
X343225Y-99869D01*
X343248D01*
X343341Y-99846D01*
X343919D01*
X344035Y-99869D01*
D02*
G37*
G36*
X282554Y-100794D02*
X282600D01*
X282670Y-100817D01*
X282785Y-100841D01*
X282878Y-100864D01*
X282901D01*
X282947Y-100887D01*
X283017Y-100910D01*
X283086Y-100979D01*
X283109D01*
X283132Y-101026D01*
X283202Y-101142D01*
X287552Y-113174D01*
X287575Y-113220D01*
X287598Y-113313D01*
X287621Y-113428D01*
Y-113544D01*
Y-113567D01*
Y-113614D01*
X287598Y-113683D01*
X287552Y-113752D01*
X287529D01*
X287506Y-113776D01*
X287413Y-113799D01*
X287297Y-113822D01*
X287159D01*
X286997Y-113845D01*
X286464D01*
X286302Y-113822D01*
X286279D01*
X286210Y-113799D01*
X286117D01*
X286025Y-113776D01*
X286002D01*
X285979Y-113752D01*
X285886Y-113706D01*
Y-113683D01*
X285863Y-113660D01*
X285793Y-113544D01*
X284683Y-110374D01*
X279291D01*
X278250Y-113498D01*
Y-113521D01*
X278227Y-113544D01*
X278157Y-113660D01*
X278134Y-113706D01*
X278018Y-113776D01*
X277995D01*
X277949Y-113799D01*
X277857D01*
X277741Y-113822D01*
X277625D01*
X277486Y-113845D01*
X277139D01*
X276977Y-113822D01*
X276815Y-113799D01*
X276792D01*
X276723Y-113776D01*
X276630Y-113752D01*
X276561Y-113729D01*
Y-113706D01*
X276538Y-113683D01*
X276514Y-113614D01*
X276491Y-113544D01*
Y-113521D01*
X276514Y-113452D01*
X276538Y-113336D01*
X276584Y-113174D01*
X280911Y-101142D01*
Y-101118D01*
X280934Y-101072D01*
X281003Y-100956D01*
X281027Y-100933D01*
X281050Y-100910D01*
X281189Y-100864D01*
X281212D01*
X281281Y-100841D01*
X281374Y-100817D01*
X281513Y-100794D01*
X281559D01*
X281651Y-100771D01*
X282392D01*
X282554Y-100794D01*
D02*
G37*
G36*
X249580Y-100887D02*
X249603D01*
X249627Y-100910D01*
X249696Y-101026D01*
Y-101049D01*
X249719Y-101095D01*
X249742Y-101165D01*
X249765Y-101257D01*
Y-101280D01*
X249788Y-101350D01*
Y-101442D01*
Y-101581D01*
Y-101604D01*
Y-101697D01*
Y-101812D01*
X249765Y-101928D01*
Y-101951D01*
X249742Y-101998D01*
X249696Y-102160D01*
X249673Y-102206D01*
X249580Y-102275D01*
X249534D01*
X249441Y-102298D01*
X245809D01*
Y-113544D01*
Y-113590D01*
X245762Y-113683D01*
X245716Y-113706D01*
X245670Y-113729D01*
X245600Y-113752D01*
X245577D01*
X245531Y-113776D01*
X245461D01*
X245346Y-113799D01*
X245322D01*
X245230Y-113822D01*
X245114Y-113845D01*
X244813D01*
X244675Y-113822D01*
X244536Y-113799D01*
X244513D01*
X244443Y-113776D01*
X244258Y-113752D01*
X244235D01*
X244212Y-113729D01*
X244119Y-113683D01*
Y-113660D01*
Y-113637D01*
X244096Y-113544D01*
Y-102298D01*
X240394D01*
X240301Y-102275D01*
X240255Y-102252D01*
X240186Y-102160D01*
Y-102136D01*
X240163Y-102090D01*
Y-102021D01*
X240139Y-101928D01*
Y-101905D01*
Y-101836D01*
X240116Y-101720D01*
Y-101581D01*
Y-101558D01*
Y-101465D01*
Y-101373D01*
X240139Y-101257D01*
Y-101234D01*
X240163Y-101165D01*
X240186Y-101026D01*
Y-101003D01*
X240209Y-100979D01*
X240301Y-100887D01*
X240324D01*
X240348Y-100864D01*
X240440Y-100841D01*
X249488D01*
X249580Y-100887D01*
D02*
G37*
G36*
X415235Y-104103D02*
X415490Y-104126D01*
X415767Y-104173D01*
X416068Y-104219D01*
X416369Y-104312D01*
X416670Y-104427D01*
X416693Y-104450D01*
X416809Y-104497D01*
X416948Y-104566D01*
X417109Y-104682D01*
X417295Y-104797D01*
X417503Y-104959D01*
X417711Y-105145D01*
X417896Y-105353D01*
X417919Y-105376D01*
X417966Y-105445D01*
X418058Y-105584D01*
X418174Y-105746D01*
X418290Y-105931D01*
X418405Y-106163D01*
X418521Y-106417D01*
X418614Y-106695D01*
Y-106718D01*
X418660Y-106834D01*
X418683Y-106973D01*
X418729Y-107181D01*
X418775Y-107435D01*
X418799Y-107713D01*
X418845Y-108014D01*
Y-108338D01*
Y-108639D01*
Y-108662D01*
Y-108708D01*
X418822Y-108847D01*
X418752Y-109032D01*
X418637Y-109194D01*
X418614Y-109217D01*
X418521Y-109263D01*
X418382Y-109333D01*
X418197Y-109356D01*
X412273D01*
Y-109379D01*
Y-109495D01*
Y-109634D01*
X412296Y-109819D01*
Y-110027D01*
X412343Y-110258D01*
X412412Y-110721D01*
Y-110744D01*
X412435Y-110814D01*
X412482Y-110929D01*
X412528Y-111068D01*
X412690Y-111415D01*
X412921Y-111762D01*
X412944Y-111786D01*
X412991Y-111832D01*
X413060Y-111901D01*
X413176Y-111994D01*
X413292Y-112109D01*
X413453Y-112202D01*
X413824Y-112410D01*
X413847D01*
X413916Y-112434D01*
X414055Y-112480D01*
X414217Y-112503D01*
X414425Y-112549D01*
X414657Y-112596D01*
X414911Y-112619D01*
X415443D01*
X415605Y-112596D01*
X415976Y-112572D01*
X416346Y-112526D01*
X416369D01*
X416438Y-112503D01*
X416531Y-112480D01*
X416647Y-112457D01*
X416924Y-112387D01*
X417225Y-112295D01*
X417248D01*
X417295Y-112271D01*
X417433Y-112202D01*
X417642Y-112133D01*
X417827Y-112063D01*
X417850D01*
X417873Y-112040D01*
X417966Y-111994D01*
X418081Y-111971D01*
X418197Y-111948D01*
X418243D01*
X418313Y-111994D01*
X418336D01*
X418359Y-112017D01*
X418405Y-112109D01*
Y-112133D01*
X418428Y-112156D01*
X418451Y-112295D01*
Y-112318D01*
X418475Y-112364D01*
Y-112480D01*
Y-112596D01*
Y-112619D01*
Y-112665D01*
X418451Y-112827D01*
Y-112850D01*
Y-112873D01*
X418428Y-113012D01*
X418405Y-113058D01*
X418359Y-113151D01*
X418336Y-113174D01*
X418290Y-113243D01*
X418243Y-113290D01*
X418128Y-113336D01*
X417966Y-113428D01*
X417943D01*
X417919Y-113452D01*
X417850Y-113475D01*
X417780Y-113498D01*
X417549Y-113567D01*
X417248Y-113660D01*
X417225D01*
X417179Y-113683D01*
X417086Y-113706D01*
X416971Y-113729D01*
X416832Y-113752D01*
X416647Y-113799D01*
X416253Y-113868D01*
X416230D01*
X416161Y-113891D01*
X416045D01*
X415906Y-113914D01*
X415721Y-113938D01*
X415513D01*
X415050Y-113961D01*
X414865D01*
X414657Y-113938D01*
X414402Y-113914D01*
X414078Y-113891D01*
X413754Y-113822D01*
X413430Y-113752D01*
X413106Y-113660D01*
X413060Y-113637D01*
X412967Y-113614D01*
X412805Y-113521D01*
X412620Y-113428D01*
X412389Y-113313D01*
X412158Y-113151D01*
X411926Y-112966D01*
X411695Y-112757D01*
X411672Y-112734D01*
X411602Y-112642D01*
X411510Y-112503D01*
X411371Y-112341D01*
X411232Y-112109D01*
X411093Y-111855D01*
X410954Y-111554D01*
X410839Y-111230D01*
Y-111184D01*
X410792Y-111068D01*
X410746Y-110883D01*
X410700Y-110605D01*
X410654Y-110305D01*
X410607Y-109934D01*
X410584Y-109518D01*
X410561Y-109078D01*
Y-109055D01*
Y-109032D01*
Y-108893D01*
X410584Y-108662D01*
X410607Y-108384D01*
X410630Y-108060D01*
X410677Y-107713D01*
X410746Y-107343D01*
X410839Y-106996D01*
X410862Y-106949D01*
X410885Y-106834D01*
X410954Y-106672D01*
X411070Y-106440D01*
X411186Y-106209D01*
X411325Y-105931D01*
X411510Y-105677D01*
X411695Y-105422D01*
X411718Y-105399D01*
X411787Y-105307D01*
X411926Y-105191D01*
X412088Y-105052D01*
X412273Y-104890D01*
X412505Y-104728D01*
X412782Y-104566D01*
X413060Y-104427D01*
X413106Y-104404D01*
X413199Y-104381D01*
X413361Y-104312D01*
X413592Y-104242D01*
X413847Y-104196D01*
X414171Y-104126D01*
X414495Y-104103D01*
X414865Y-104080D01*
X415050D01*
X415235Y-104103D01*
D02*
G37*
G36*
X397557D02*
X397811Y-104126D01*
X398112Y-104173D01*
X398436Y-104219D01*
X398760Y-104312D01*
X399084Y-104427D01*
X399130Y-104450D01*
X399223Y-104497D01*
X399385Y-104566D01*
X399570Y-104659D01*
X399801Y-104797D01*
X400033Y-104959D01*
X400264Y-105145D01*
X400472Y-105376D01*
X400495Y-105399D01*
X400565Y-105492D01*
X400657Y-105631D01*
X400796Y-105793D01*
X400912Y-106024D01*
X401051Y-106278D01*
X401189Y-106579D01*
X401305Y-106903D01*
X401328Y-106949D01*
X401352Y-107065D01*
X401398Y-107250D01*
X401444Y-107505D01*
X401490Y-107806D01*
X401537Y-108153D01*
X401583Y-108523D01*
Y-108939D01*
Y-108963D01*
Y-108986D01*
Y-109124D01*
X401560Y-109333D01*
X401537Y-109587D01*
X401513Y-109911D01*
X401467Y-110235D01*
X401375Y-110605D01*
X401282Y-110953D01*
X401259Y-110999D01*
X401236Y-111115D01*
X401166Y-111277D01*
X401051Y-111508D01*
X400935Y-111739D01*
X400796Y-112017D01*
X400611Y-112295D01*
X400403Y-112549D01*
X400380Y-112572D01*
X400310Y-112665D01*
X400171Y-112781D01*
X400009Y-112919D01*
X399801Y-113104D01*
X399570Y-113266D01*
X399292Y-113428D01*
X398968Y-113590D01*
X398922Y-113614D01*
X398806Y-113637D01*
X398644Y-113706D01*
X398390Y-113776D01*
X398112Y-113845D01*
X397765Y-113891D01*
X397395Y-113938D01*
X396978Y-113961D01*
X396793D01*
X396585Y-113938D01*
X396330Y-113914D01*
X396006Y-113891D01*
X395682Y-113822D01*
X395358Y-113752D01*
X395034Y-113637D01*
X394988Y-113614D01*
X394896Y-113567D01*
X394734Y-113498D01*
X394548Y-113405D01*
X394340Y-113266D01*
X394109Y-113104D01*
X393877Y-112896D01*
X393646Y-112688D01*
X393623Y-112665D01*
X393554Y-112572D01*
X393461Y-112434D01*
X393345Y-112271D01*
X393206Y-112040D01*
X393091Y-111786D01*
X392952Y-111485D01*
X392836Y-111161D01*
Y-111115D01*
X392790Y-110999D01*
X392767Y-110814D01*
X392720Y-110559D01*
X392674Y-110258D01*
X392628Y-109911D01*
X392605Y-109541D01*
X392582Y-109124D01*
Y-109101D01*
Y-109078D01*
Y-108939D01*
X392605Y-108731D01*
X392628Y-108454D01*
X392651Y-108130D01*
X392697Y-107806D01*
X392767Y-107435D01*
X392859Y-107088D01*
X392882Y-107042D01*
X392906Y-106926D01*
X392975Y-106764D01*
X393068Y-106533D01*
X393183Y-106301D01*
X393345Y-106024D01*
X393507Y-105746D01*
X393716Y-105492D01*
X393739Y-105469D01*
X393831Y-105376D01*
X393947Y-105260D01*
X394109Y-105098D01*
X394317Y-104936D01*
X394572Y-104774D01*
X394849Y-104589D01*
X395150Y-104450D01*
X395196Y-104427D01*
X395312Y-104381D01*
X395474Y-104335D01*
X395729Y-104265D01*
X396030Y-104196D01*
X396353Y-104126D01*
X396747Y-104103D01*
X397163Y-104080D01*
X397348D01*
X397557Y-104103D01*
D02*
G37*
G36*
X333275Y-99869D02*
X333298D01*
X333368Y-99892D01*
X333461Y-99915D01*
X333530Y-99938D01*
X333553D01*
X333576Y-99961D01*
X333669Y-100054D01*
X333692Y-100077D01*
X333715Y-100170D01*
Y-105561D01*
X333738Y-105538D01*
X333784Y-105492D01*
X333854Y-105422D01*
X333970Y-105330D01*
X334201Y-105121D01*
X334479Y-104890D01*
X334502Y-104867D01*
X334548Y-104844D01*
X334618Y-104797D01*
X334710Y-104728D01*
X334941Y-104566D01*
X335196Y-104427D01*
X335219D01*
X335265Y-104404D01*
X335335Y-104358D01*
X335427Y-104335D01*
X335659Y-104242D01*
X335936Y-104173D01*
X335960D01*
X336006Y-104150D01*
X336075D01*
X336168Y-104126D01*
X336422Y-104103D01*
X336700Y-104080D01*
X336862D01*
X337047Y-104103D01*
X337279Y-104126D01*
X337533Y-104173D01*
X337811Y-104242D01*
X338088Y-104335D01*
X338366Y-104473D01*
X338389Y-104497D01*
X338482Y-104543D01*
X338621Y-104635D01*
X338783Y-104751D01*
X338968Y-104913D01*
X339153Y-105098D01*
X339338Y-105307D01*
X339500Y-105538D01*
X339523Y-105561D01*
X339569Y-105654D01*
X339662Y-105793D01*
X339754Y-105978D01*
X339847Y-106186D01*
X339963Y-106463D01*
X340055Y-106741D01*
X340148Y-107065D01*
Y-107111D01*
X340171Y-107227D01*
X340217Y-107389D01*
X340263Y-107620D01*
X340287Y-107898D01*
X340333Y-108222D01*
X340356Y-108546D01*
Y-108916D01*
Y-108939D01*
Y-108963D01*
Y-109032D01*
Y-109124D01*
X340333Y-109333D01*
Y-109611D01*
X340287Y-109958D01*
X340240Y-110305D01*
X340171Y-110675D01*
X340078Y-111022D01*
Y-111068D01*
X340032Y-111184D01*
X339963Y-111346D01*
X339893Y-111577D01*
X339778Y-111809D01*
X339662Y-112086D01*
X339500Y-112364D01*
X339338Y-112619D01*
X339315Y-112642D01*
X339245Y-112734D01*
X339153Y-112850D01*
X339014Y-112989D01*
X338829Y-113151D01*
X338621Y-113313D01*
X338366Y-113475D01*
X338111Y-113614D01*
X338088Y-113637D01*
X337996Y-113660D01*
X337834Y-113729D01*
X337649Y-113776D01*
X337394Y-113845D01*
X337117Y-113914D01*
X336816Y-113938D01*
X336469Y-113961D01*
X336307D01*
X336214Y-113938D01*
X335936Y-113914D01*
X335659Y-113868D01*
X335636D01*
X335589Y-113845D01*
X335520Y-113822D01*
X335451Y-113799D01*
X335219Y-113729D01*
X334965Y-113614D01*
X334941D01*
X334895Y-113590D01*
X334826Y-113544D01*
X334756Y-113475D01*
X334525Y-113336D01*
X334247Y-113151D01*
X334224Y-113128D01*
X334178Y-113104D01*
X334108Y-113035D01*
X334016Y-112942D01*
X333784Y-112711D01*
X333507Y-112434D01*
Y-113544D01*
Y-113590D01*
X333461Y-113683D01*
X333437Y-113729D01*
X333414Y-113752D01*
X333345Y-113776D01*
X333322D01*
X333275Y-113799D01*
X333206D01*
X333113Y-113822D01*
X333021D01*
X332928Y-113845D01*
X332558D01*
X332442Y-113822D01*
X332419D01*
X332373Y-113799D01*
X332211Y-113776D01*
X332188D01*
X332165Y-113752D01*
X332118Y-113729D01*
X332095Y-113706D01*
Y-113683D01*
Y-113660D01*
X332072Y-113544D01*
Y-100170D01*
Y-100147D01*
Y-100123D01*
X332095Y-100054D01*
Y-100031D01*
X332142Y-100008D01*
X332234Y-99938D01*
X332257D01*
X332304Y-99915D01*
X332373Y-99892D01*
X332466Y-99869D01*
X332489D01*
X332581Y-99846D01*
X333160D01*
X333275Y-99869D01*
D02*
G37*
G36*
X309604Y-104103D02*
X309858Y-104127D01*
X310136Y-104173D01*
X310437Y-104219D01*
X310738Y-104312D01*
X311038Y-104427D01*
X311062Y-104450D01*
X311177Y-104497D01*
X311316Y-104566D01*
X311478Y-104682D01*
X311663Y-104797D01*
X311871Y-104959D01*
X312080Y-105145D01*
X312265Y-105353D01*
X312288Y-105376D01*
X312334Y-105445D01*
X312427Y-105584D01*
X312542Y-105746D01*
X312658Y-105931D01*
X312774Y-106163D01*
X312890Y-106417D01*
X312982Y-106695D01*
Y-106718D01*
X313028Y-106834D01*
X313052Y-106973D01*
X313098Y-107181D01*
X313144Y-107435D01*
X313167Y-107713D01*
X313214Y-108014D01*
Y-108338D01*
Y-108639D01*
Y-108662D01*
Y-108708D01*
X313190Y-108847D01*
X313121Y-109032D01*
X313005Y-109194D01*
X312982Y-109217D01*
X312890Y-109263D01*
X312751Y-109333D01*
X312566Y-109356D01*
X306642D01*
Y-109379D01*
Y-109495D01*
Y-109634D01*
X306665Y-109819D01*
Y-110027D01*
X306711Y-110258D01*
X306781Y-110721D01*
Y-110744D01*
X306804Y-110814D01*
X306850Y-110929D01*
X306896Y-111068D01*
X307059Y-111415D01*
X307290Y-111763D01*
X307313Y-111786D01*
X307359Y-111832D01*
X307429Y-111901D01*
X307544Y-111994D01*
X307660Y-112110D01*
X307822Y-112202D01*
X308192Y-112410D01*
X308215D01*
X308285Y-112434D01*
X308424Y-112480D01*
X308586Y-112503D01*
X308794Y-112549D01*
X309025Y-112596D01*
X309280Y-112619D01*
X309812D01*
X309974Y-112596D01*
X310344Y-112572D01*
X310714Y-112526D01*
X310738D01*
X310807Y-112503D01*
X310900Y-112480D01*
X311015Y-112457D01*
X311293Y-112387D01*
X311594Y-112295D01*
X311617D01*
X311663Y-112271D01*
X311802Y-112202D01*
X312010Y-112133D01*
X312195Y-112063D01*
X312219D01*
X312242Y-112040D01*
X312334Y-111994D01*
X312450Y-111971D01*
X312566Y-111948D01*
X312612D01*
X312681Y-111994D01*
X312705D01*
X312728Y-112017D01*
X312774Y-112109D01*
Y-112133D01*
X312797Y-112156D01*
X312820Y-112295D01*
Y-112318D01*
X312843Y-112364D01*
Y-112480D01*
Y-112596D01*
Y-112619D01*
Y-112665D01*
X312820Y-112827D01*
Y-112850D01*
Y-112873D01*
X312797Y-113012D01*
X312774Y-113058D01*
X312728Y-113151D01*
X312705Y-113174D01*
X312658Y-113243D01*
X312612Y-113290D01*
X312496Y-113336D01*
X312334Y-113428D01*
X312311D01*
X312288Y-113452D01*
X312219Y-113475D01*
X312149Y-113498D01*
X311918Y-113567D01*
X311617Y-113660D01*
X311594D01*
X311548Y-113683D01*
X311455Y-113706D01*
X311339Y-113729D01*
X311200Y-113752D01*
X311015Y-113799D01*
X310622Y-113868D01*
X310599D01*
X310529Y-113891D01*
X310414D01*
X310275Y-113914D01*
X310090Y-113938D01*
X309881D01*
X309419Y-113961D01*
X309234D01*
X309025Y-113938D01*
X308771Y-113914D01*
X308447Y-113891D01*
X308123Y-113822D01*
X307799Y-113752D01*
X307475Y-113660D01*
X307429Y-113637D01*
X307336Y-113614D01*
X307174Y-113521D01*
X306989Y-113428D01*
X306758Y-113313D01*
X306526Y-113151D01*
X306295Y-112966D01*
X306063Y-112758D01*
X306040Y-112734D01*
X305971Y-112642D01*
X305878Y-112503D01*
X305739Y-112341D01*
X305601Y-112110D01*
X305462Y-111855D01*
X305323Y-111554D01*
X305207Y-111230D01*
Y-111184D01*
X305161Y-111068D01*
X305115Y-110883D01*
X305068Y-110605D01*
X305022Y-110305D01*
X304976Y-109935D01*
X304953Y-109518D01*
X304930Y-109078D01*
Y-109055D01*
Y-109032D01*
Y-108893D01*
X304953Y-108662D01*
X304976Y-108384D01*
X304999Y-108060D01*
X305045Y-107713D01*
X305115Y-107343D01*
X305207Y-106996D01*
X305231Y-106950D01*
X305254Y-106834D01*
X305323Y-106672D01*
X305439Y-106440D01*
X305554Y-106209D01*
X305693Y-105931D01*
X305878Y-105677D01*
X306063Y-105422D01*
X306087Y-105399D01*
X306156Y-105307D01*
X306295Y-105191D01*
X306457Y-105052D01*
X306642Y-104890D01*
X306873Y-104728D01*
X307151Y-104566D01*
X307429Y-104427D01*
X307475Y-104404D01*
X307568Y-104381D01*
X307729Y-104312D01*
X307961Y-104242D01*
X308215Y-104196D01*
X308539Y-104127D01*
X308863Y-104103D01*
X309234Y-104080D01*
X309419D01*
X309604Y-104103D01*
D02*
G37*
G36*
X255828D02*
X256082Y-104127D01*
X256383Y-104173D01*
X256707Y-104219D01*
X257031Y-104312D01*
X257355Y-104427D01*
X257401Y-104450D01*
X257494Y-104497D01*
X257656Y-104566D01*
X257841Y-104659D01*
X258072Y-104797D01*
X258304Y-104959D01*
X258535Y-105145D01*
X258743Y-105376D01*
X258766Y-105399D01*
X258836Y-105492D01*
X258929Y-105631D01*
X259067Y-105793D01*
X259183Y-106024D01*
X259322Y-106278D01*
X259461Y-106579D01*
X259576Y-106903D01*
X259600Y-106950D01*
X259623Y-107065D01*
X259669Y-107250D01*
X259715Y-107505D01*
X259762Y-107806D01*
X259808Y-108153D01*
X259854Y-108523D01*
Y-108940D01*
Y-108963D01*
Y-108986D01*
Y-109125D01*
X259831Y-109333D01*
X259808Y-109587D01*
X259785Y-109911D01*
X259738Y-110235D01*
X259646Y-110605D01*
X259553Y-110953D01*
X259530Y-110999D01*
X259507Y-111115D01*
X259438Y-111277D01*
X259322Y-111508D01*
X259206Y-111739D01*
X259067Y-112017D01*
X258882Y-112295D01*
X258674Y-112549D01*
X258651Y-112572D01*
X258581Y-112665D01*
X258443Y-112781D01*
X258281Y-112919D01*
X258072Y-113104D01*
X257841Y-113266D01*
X257563Y-113428D01*
X257239Y-113590D01*
X257193Y-113614D01*
X257077Y-113637D01*
X256915Y-113706D01*
X256661Y-113776D01*
X256383Y-113845D01*
X256036Y-113891D01*
X255666Y-113938D01*
X255249Y-113961D01*
X255064D01*
X254856Y-113938D01*
X254601Y-113914D01*
X254277Y-113891D01*
X253953Y-113822D01*
X253630Y-113752D01*
X253306Y-113637D01*
X253259Y-113614D01*
X253167Y-113567D01*
X253005Y-113498D01*
X252820Y-113405D01*
X252612Y-113266D01*
X252380Y-113104D01*
X252149Y-112896D01*
X251917Y-112688D01*
X251894Y-112665D01*
X251825Y-112572D01*
X251732Y-112434D01*
X251616Y-112271D01*
X251478Y-112040D01*
X251362Y-111786D01*
X251223Y-111485D01*
X251107Y-111161D01*
Y-111115D01*
X251061Y-110999D01*
X251038Y-110814D01*
X250992Y-110559D01*
X250945Y-110258D01*
X250899Y-109911D01*
X250876Y-109541D01*
X250853Y-109125D01*
Y-109101D01*
Y-109078D01*
Y-108940D01*
X250876Y-108731D01*
X250899Y-108454D01*
X250922Y-108130D01*
X250969Y-107806D01*
X251038Y-107435D01*
X251131Y-107088D01*
X251154Y-107042D01*
X251177Y-106926D01*
X251246Y-106764D01*
X251339Y-106533D01*
X251455Y-106302D01*
X251616Y-106024D01*
X251778Y-105746D01*
X251987Y-105492D01*
X252010Y-105469D01*
X252102Y-105376D01*
X252218Y-105260D01*
X252380Y-105098D01*
X252588Y-104936D01*
X252843Y-104774D01*
X253120Y-104589D01*
X253421Y-104450D01*
X253468Y-104427D01*
X253583Y-104381D01*
X253745Y-104335D01*
X254000Y-104265D01*
X254301Y-104196D01*
X254625Y-104127D01*
X255018Y-104103D01*
X255434Y-104080D01*
X255620D01*
X255828Y-104103D01*
D02*
G37*
G36*
X422061Y-99614D02*
X422084D01*
X422131Y-99637D01*
X422200D01*
X422270Y-99661D01*
X422293D01*
X422316Y-99684D01*
X422408Y-99730D01*
X422431Y-99753D01*
X422455Y-99799D01*
X422478Y-99823D01*
X422501Y-99892D01*
X422547Y-100008D01*
X422617Y-100147D01*
X422709Y-100332D01*
X422825Y-100563D01*
X422917Y-100817D01*
X423056Y-101095D01*
X423172Y-101396D01*
X423311Y-101720D01*
X423588Y-102437D01*
X423843Y-103201D01*
X424074Y-104011D01*
Y-104034D01*
X424098Y-104103D01*
X424121Y-104219D01*
X424167Y-104381D01*
X424213Y-104566D01*
X424259Y-104821D01*
X424329Y-105075D01*
X424375Y-105376D01*
X424422Y-105677D01*
X424491Y-106024D01*
X424584Y-106764D01*
X424653Y-107574D01*
X424676Y-108407D01*
Y-108430D01*
Y-108454D01*
Y-108523D01*
Y-108592D01*
Y-108824D01*
X424653Y-109101D01*
X424630Y-109448D01*
X424607Y-109842D01*
X424560Y-110235D01*
X424514Y-110652D01*
Y-110675D01*
Y-110698D01*
X424491Y-110837D01*
X424468Y-111068D01*
X424422Y-111346D01*
X424352Y-111670D01*
X424283Y-112040D01*
X424098Y-112827D01*
X424074Y-112873D01*
X424051Y-113012D01*
X423982Y-113220D01*
X423912Y-113498D01*
X423797Y-113799D01*
X423681Y-114169D01*
X423542Y-114539D01*
X423403Y-114932D01*
X423380Y-114979D01*
X423334Y-115118D01*
X423241Y-115326D01*
X423149Y-115580D01*
X423010Y-115881D01*
X422848Y-116228D01*
X422478Y-116992D01*
X422455Y-117038D01*
X422385Y-117085D01*
X422339Y-117108D01*
X422223Y-117154D01*
X422200D01*
X422154Y-117177D01*
X422084Y-117200D01*
X421922D01*
X421807Y-117223D01*
X421552D01*
X421413Y-117200D01*
X421274Y-117177D01*
X421251D01*
X421205Y-117154D01*
X421136Y-117131D01*
X421066Y-117108D01*
X421043Y-117061D01*
X421020Y-116969D01*
Y-116946D01*
Y-116899D01*
X421066Y-116761D01*
Y-116737D01*
X421113Y-116668D01*
X421159Y-116552D01*
X421228Y-116413D01*
X421298Y-116228D01*
X421390Y-116020D01*
X421483Y-115766D01*
X421599Y-115488D01*
X421691Y-115187D01*
X421807Y-114863D01*
X422038Y-114169D01*
X422270Y-113428D01*
X422455Y-112642D01*
Y-112619D01*
X422478Y-112549D01*
X422501Y-112434D01*
X422524Y-112271D01*
X422570Y-112086D01*
X422617Y-111855D01*
X422663Y-111601D01*
X422709Y-111323D01*
X422732Y-110999D01*
X422779Y-110675D01*
X422871Y-109958D01*
X422917Y-109194D01*
X422941Y-108384D01*
Y-108361D01*
Y-108292D01*
Y-108176D01*
Y-108014D01*
X422917Y-107829D01*
Y-107597D01*
X422894Y-107343D01*
X422871Y-107065D01*
X422848Y-106741D01*
X422825Y-106417D01*
X422732Y-105700D01*
X422617Y-104936D01*
X422455Y-104150D01*
Y-104126D01*
X422431Y-104057D01*
X422408Y-103941D01*
X422362Y-103779D01*
X422316Y-103594D01*
X422270Y-103363D01*
X422200Y-103108D01*
X422108Y-102831D01*
X422015Y-102530D01*
X421922Y-102206D01*
X421668Y-101512D01*
X421390Y-100771D01*
X421066Y-100008D01*
Y-99985D01*
X421043Y-99961D01*
X421020Y-99846D01*
Y-99823D01*
X421043Y-99799D01*
X421113Y-99707D01*
X421136D01*
X421182Y-99684D01*
X421251Y-99661D01*
X421344Y-99637D01*
X421367D01*
X421437Y-99614D01*
X421552Y-99591D01*
X421946D01*
X422061Y-99614D01*
D02*
G37*
G36*
X364444D02*
X364560Y-99637D01*
X364583D01*
X364629Y-99661D01*
X364699Y-99684D01*
X364768Y-99707D01*
X364791D01*
X364814Y-99730D01*
X364837Y-99776D01*
X364861Y-99846D01*
Y-99892D01*
Y-99938D01*
X364837Y-100008D01*
Y-100031D01*
X364791Y-100100D01*
X364745Y-100216D01*
X364676Y-100355D01*
X364606Y-100540D01*
X364514Y-100748D01*
X364421Y-101003D01*
X364305Y-101280D01*
X364190Y-101581D01*
X364074Y-101905D01*
X363843Y-102599D01*
X363611Y-103363D01*
X363426Y-104150D01*
Y-104173D01*
X363403Y-104242D01*
X363380Y-104358D01*
X363357Y-104520D01*
X363310Y-104705D01*
X363287Y-104936D01*
X363241Y-105191D01*
X363195Y-105469D01*
X363148Y-105769D01*
X363102Y-106116D01*
X363033Y-106834D01*
X362986Y-107597D01*
X362963Y-108384D01*
Y-108407D01*
Y-108477D01*
Y-108592D01*
Y-108754D01*
X362986Y-108939D01*
Y-109171D01*
X363009Y-109425D01*
X363033Y-109726D01*
X363056Y-110027D01*
X363079Y-110374D01*
X363148Y-111091D01*
X363264Y-111855D01*
X363426Y-112642D01*
Y-112665D01*
X363449Y-112734D01*
X363472Y-112850D01*
X363519Y-112989D01*
X363565Y-113197D01*
X363634Y-113405D01*
X363704Y-113660D01*
X363773Y-113938D01*
X363866Y-114238D01*
X363981Y-114562D01*
X364213Y-115257D01*
X364491Y-115997D01*
X364814Y-116761D01*
Y-116784D01*
X364837Y-116830D01*
X364861Y-116969D01*
Y-116992D01*
Y-117015D01*
Y-117061D01*
X364814Y-117108D01*
X364791D01*
X364768Y-117131D01*
X364699Y-117154D01*
X364583Y-117177D01*
X364560D01*
X364491Y-117200D01*
X364352Y-117223D01*
X364005D01*
X363889Y-117200D01*
X363819D01*
X363657Y-117154D01*
X363634D01*
X363611Y-117131D01*
X363495Y-117085D01*
X363472Y-117061D01*
X363426Y-116992D01*
Y-116969D01*
X363403Y-116946D01*
X363334Y-116807D01*
X363218Y-116622D01*
X363102Y-116344D01*
X362940Y-116043D01*
X362778Y-115696D01*
X362616Y-115326D01*
X362454Y-114932D01*
Y-114909D01*
X362431Y-114886D01*
X362385Y-114747D01*
X362315Y-114539D01*
X362223Y-114285D01*
X362107Y-113961D01*
X362015Y-113614D01*
X361899Y-113220D01*
X361783Y-112827D01*
Y-112804D01*
Y-112781D01*
X361737Y-112642D01*
X361691Y-112434D01*
X361621Y-112156D01*
X361552Y-111832D01*
X361482Y-111462D01*
X361436Y-111068D01*
X361367Y-110652D01*
Y-110629D01*
Y-110605D01*
X361343Y-110467D01*
X361320Y-110235D01*
X361297Y-109958D01*
X361274Y-109611D01*
X361251Y-109240D01*
X361228Y-108824D01*
Y-108407D01*
Y-108384D01*
Y-108361D01*
Y-108222D01*
Y-107991D01*
X361251Y-107713D01*
Y-107389D01*
X361297Y-107019D01*
X361320Y-106625D01*
X361367Y-106209D01*
Y-106186D01*
Y-106163D01*
X361390Y-106024D01*
X361436Y-105793D01*
X361482Y-105515D01*
X361552Y-105191D01*
X361621Y-104821D01*
X361714Y-104427D01*
X361806Y-104011D01*
Y-103988D01*
X361829Y-103965D01*
X361853Y-103826D01*
X361922Y-103617D01*
X362015Y-103340D01*
X362107Y-103016D01*
X362223Y-102646D01*
X362500Y-101882D01*
Y-101859D01*
X362524Y-101836D01*
X362570Y-101697D01*
X362662Y-101489D01*
X362778Y-101211D01*
X362917Y-100910D01*
X363079Y-100563D01*
X363426Y-99799D01*
Y-99776D01*
X363472Y-99730D01*
X363495Y-99707D01*
X363588Y-99661D01*
X363611D01*
X363657Y-99637D01*
X363727D01*
X363819Y-99614D01*
X363843D01*
X363912Y-99591D01*
X364328D01*
X364444Y-99614D01*
D02*
G37*
%LPC*%
G36*
X266611Y-105492D02*
X266565D01*
X266402Y-105515D01*
X266194Y-105538D01*
X265963Y-105607D01*
X265940D01*
X265917Y-105631D01*
X265778Y-105677D01*
X265569Y-105769D01*
X265338Y-105908D01*
X265315D01*
X265292Y-105955D01*
X265222Y-106001D01*
X265130Y-106047D01*
X264898Y-106232D01*
X264644Y-106463D01*
X264621Y-106487D01*
X264575Y-106510D01*
X264505Y-106602D01*
X264436Y-106695D01*
X264204Y-106950D01*
X263927Y-107273D01*
Y-110837D01*
X263950Y-110883D01*
X264042Y-110976D01*
X264181Y-111115D01*
X264343Y-111300D01*
X264528Y-111508D01*
X264736Y-111716D01*
X264968Y-111924D01*
X265199Y-112110D01*
X265222Y-112133D01*
X265315Y-112179D01*
X265431Y-112248D01*
X265593Y-112318D01*
X265801Y-112410D01*
X266009Y-112480D01*
X266241Y-112526D01*
X266495Y-112549D01*
X266611D01*
X266726Y-112526D01*
X266865Y-112503D01*
X267212Y-112434D01*
X267397Y-112364D01*
X267560Y-112271D01*
X267583Y-112248D01*
X267629Y-112225D01*
X267722Y-112156D01*
X267837Y-112063D01*
X267953Y-111948D01*
X268069Y-111809D01*
X268300Y-111462D01*
X268323Y-111439D01*
X268346Y-111369D01*
X268393Y-111277D01*
X268462Y-111138D01*
X268531Y-110976D01*
X268601Y-110767D01*
X268717Y-110351D01*
Y-110328D01*
X268740Y-110235D01*
X268763Y-110120D01*
X268786Y-109958D01*
X268809Y-109773D01*
X268832Y-109541D01*
X268855Y-109078D01*
Y-109055D01*
Y-108963D01*
Y-108824D01*
X268832Y-108662D01*
Y-108454D01*
X268809Y-108245D01*
X268740Y-107759D01*
Y-107736D01*
X268717Y-107644D01*
X268693Y-107528D01*
X268647Y-107366D01*
X268601Y-107181D01*
X268531Y-106996D01*
X268369Y-106602D01*
Y-106579D01*
X268323Y-106510D01*
X268277Y-106417D01*
X268184Y-106302D01*
X267976Y-106047D01*
X267675Y-105793D01*
X267652Y-105769D01*
X267606Y-105746D01*
X267513Y-105700D01*
X267397Y-105631D01*
X267236Y-105584D01*
X267050Y-105538D01*
X266842Y-105515D01*
X266611Y-105492D01*
D02*
G37*
G36*
X375783Y-105353D02*
X375620D01*
X375505Y-105376D01*
X375227Y-105422D01*
X374949Y-105515D01*
X374926D01*
X374903Y-105538D01*
X374741Y-105631D01*
X374556Y-105769D01*
X374348Y-105978D01*
Y-106001D01*
X374302Y-106024D01*
X374209Y-106163D01*
X374093Y-106371D01*
X374001Y-106625D01*
Y-106649D01*
X373978Y-106695D01*
Y-106764D01*
X373955Y-106857D01*
X373931Y-107088D01*
X373908Y-107389D01*
Y-107435D01*
Y-107528D01*
X373931Y-107690D01*
X373978Y-107898D01*
X374024Y-108106D01*
X374116Y-108338D01*
X374232Y-108569D01*
X374394Y-108778D01*
X374417Y-108801D01*
X374487Y-108847D01*
X374602Y-108939D01*
X374764Y-109032D01*
X374973Y-109124D01*
X375204Y-109217D01*
X375505Y-109263D01*
X375829Y-109286D01*
X375991D01*
X376106Y-109263D01*
X376384Y-109217D01*
X376662Y-109148D01*
X376685D01*
X376731Y-109124D01*
X376870Y-109032D01*
X377078Y-108893D01*
X377263Y-108708D01*
X377286Y-108685D01*
X377310Y-108662D01*
X377402Y-108523D01*
X377518Y-108338D01*
X377634Y-108083D01*
Y-108060D01*
X377657Y-108014D01*
X377680Y-107944D01*
X377703Y-107852D01*
X377726Y-107597D01*
X377749Y-107320D01*
Y-107273D01*
Y-107158D01*
X377726Y-106996D01*
X377680Y-106788D01*
X377634Y-106556D01*
X377541Y-106325D01*
X377402Y-106093D01*
X377240Y-105885D01*
X377217Y-105862D01*
X377148Y-105793D01*
X377032Y-105723D01*
X376870Y-105607D01*
X376662Y-105515D01*
X376407Y-105445D01*
X376130Y-105376D01*
X375783Y-105353D01*
D02*
G37*
G36*
X374464Y-113128D02*
X374440D01*
X374417Y-113174D01*
X374278Y-113290D01*
X374116Y-113428D01*
X373955Y-113614D01*
X373931Y-113660D01*
X373839Y-113752D01*
X373723Y-113868D01*
X373607Y-114030D01*
X373584Y-114053D01*
X373538Y-114146D01*
X373492Y-114285D01*
X373445Y-114424D01*
Y-114470D01*
Y-114562D01*
X373422Y-114678D01*
Y-114840D01*
Y-114863D01*
Y-114956D01*
X373469Y-115071D01*
X373515Y-115210D01*
X373584Y-115372D01*
X373700Y-115534D01*
X373862Y-115696D01*
X374070Y-115835D01*
X374093Y-115858D01*
X374186Y-115881D01*
X374348Y-115951D01*
X374556Y-115997D01*
X374811Y-116066D01*
X375135Y-116136D01*
X375505Y-116159D01*
X375921Y-116182D01*
X376176D01*
X376361Y-116159D01*
X376546Y-116136D01*
X376754Y-116113D01*
X377171Y-116020D01*
X377194D01*
X377263Y-115997D01*
X377356Y-115951D01*
X377472Y-115927D01*
X377726Y-115789D01*
X377981Y-115627D01*
X378004D01*
X378027Y-115580D01*
X378166Y-115465D01*
X378305Y-115303D01*
X378443Y-115071D01*
Y-115048D01*
X378467Y-115025D01*
X378513Y-114886D01*
X378559Y-114678D01*
X378582Y-114424D01*
Y-114400D01*
Y-114331D01*
X378559Y-114215D01*
X378513Y-114100D01*
X378467Y-113961D01*
X378374Y-113799D01*
X378258Y-113660D01*
X378096Y-113544D01*
X378073Y-113521D01*
X378004Y-113498D01*
X377911Y-113452D01*
X377749Y-113382D01*
X377564Y-113336D01*
X377356Y-113290D01*
X377078Y-113243D01*
X376801Y-113220D01*
X374464Y-113128D01*
D02*
G37*
G36*
X281975Y-102553D02*
X281952D01*
X279731Y-109009D01*
X284243D01*
X281975Y-102553D01*
D02*
G37*
G36*
X414795Y-105376D02*
X414564D01*
X414425Y-105399D01*
X414078Y-105469D01*
X413708Y-105607D01*
X413685D01*
X413638Y-105654D01*
X413546Y-105700D01*
X413430Y-105769D01*
X413176Y-105978D01*
X412921Y-106232D01*
X412898Y-106255D01*
X412875Y-106301D01*
X412805Y-106371D01*
X412759Y-106487D01*
X412667Y-106602D01*
X412597Y-106764D01*
X412435Y-107111D01*
Y-107135D01*
X412412Y-107204D01*
X412389Y-107296D01*
X412366Y-107435D01*
X412320Y-107597D01*
X412296Y-107759D01*
X412273Y-108153D01*
X417179D01*
Y-108130D01*
Y-108083D01*
Y-108037D01*
Y-107944D01*
X417156Y-107713D01*
X417109Y-107412D01*
X417040Y-107088D01*
X416924Y-106741D01*
X416786Y-106417D01*
X416577Y-106116D01*
X416554Y-106093D01*
X416461Y-106001D01*
X416323Y-105885D01*
X416138Y-105746D01*
X415883Y-105607D01*
X415582Y-105492D01*
X415212Y-105399D01*
X414795Y-105376D01*
D02*
G37*
G36*
X397094Y-105469D02*
X396978D01*
X396839Y-105492D01*
X396654D01*
X396469Y-105538D01*
X396238Y-105584D01*
X396030Y-105654D01*
X395821Y-105746D01*
X395798D01*
X395729Y-105793D01*
X395636Y-105862D01*
X395520Y-105931D01*
X395243Y-106163D01*
X394965Y-106487D01*
X394942Y-106510D01*
X394919Y-106579D01*
X394849Y-106672D01*
X394780Y-106788D01*
X394687Y-106949D01*
X394595Y-107158D01*
X394525Y-107366D01*
X394456Y-107597D01*
Y-107620D01*
X394433Y-107713D01*
X394410Y-107852D01*
X394387Y-108014D01*
X394340Y-108222D01*
X394317Y-108477D01*
X394294Y-108731D01*
Y-109009D01*
Y-109032D01*
Y-109124D01*
Y-109286D01*
X394317Y-109448D01*
Y-109680D01*
X394340Y-109911D01*
X394410Y-110397D01*
Y-110420D01*
X394433Y-110513D01*
X394479Y-110629D01*
X394525Y-110791D01*
X394664Y-111138D01*
X394873Y-111531D01*
X394896Y-111554D01*
X394942Y-111601D01*
X395011Y-111693D01*
X395104Y-111809D01*
X395220Y-111924D01*
X395382Y-112063D01*
X395729Y-112295D01*
X395752D01*
X395821Y-112341D01*
X395937Y-112387D01*
X396099Y-112434D01*
X396284Y-112480D01*
X396515Y-112526D01*
X396770Y-112549D01*
X397048Y-112572D01*
X397163D01*
X397302Y-112549D01*
X397487D01*
X397696Y-112503D01*
X397904Y-112457D01*
X398112Y-112410D01*
X398320Y-112318D01*
X398343Y-112295D01*
X398413Y-112271D01*
X398505Y-112202D01*
X398621Y-112133D01*
X398922Y-111901D01*
X399200Y-111601D01*
X399223Y-111577D01*
X399246Y-111508D01*
X399315Y-111415D01*
X399385Y-111277D01*
X399477Y-111115D01*
X399570Y-110929D01*
X399639Y-110721D01*
X399709Y-110490D01*
Y-110467D01*
X399732Y-110374D01*
X399755Y-110235D01*
X399801Y-110050D01*
X399824Y-109842D01*
X399847Y-109611D01*
X399871Y-109055D01*
Y-109032D01*
Y-108939D01*
Y-108778D01*
X399847Y-108592D01*
Y-108384D01*
X399824Y-108153D01*
X399732Y-107667D01*
Y-107644D01*
X399709Y-107551D01*
X399662Y-107435D01*
X399616Y-107273D01*
X399477Y-106903D01*
X399269Y-106533D01*
X399246Y-106510D01*
X399223Y-106440D01*
X399153Y-106371D01*
X399061Y-106255D01*
X398945Y-106140D01*
X398783Y-106001D01*
X398621Y-105885D01*
X398436Y-105769D01*
X398413Y-105746D01*
X398343Y-105723D01*
X398228Y-105677D01*
X398066Y-105607D01*
X397881Y-105561D01*
X397649Y-105515D01*
X397395Y-105492D01*
X397094Y-105469D01*
D02*
G37*
G36*
X336376Y-105492D02*
X336168D01*
X335960Y-105538D01*
X335728Y-105584D01*
X335705D01*
X335682Y-105607D01*
X335543Y-105654D01*
X335335Y-105769D01*
X335103Y-105908D01*
X335080D01*
X335057Y-105954D01*
X334918Y-106047D01*
X334687Y-106209D01*
X334432Y-106440D01*
X334409Y-106463D01*
X334363Y-106487D01*
X334294Y-106579D01*
X334224Y-106672D01*
X334108Y-106788D01*
X333993Y-106926D01*
X333715Y-107273D01*
Y-110860D01*
X333738Y-110906D01*
X333831Y-110999D01*
X333970Y-111138D01*
X334132Y-111323D01*
X334317Y-111531D01*
X334548Y-111739D01*
X334780Y-111948D01*
X335011Y-112133D01*
X335034Y-112156D01*
X335127Y-112202D01*
X335242Y-112271D01*
X335404Y-112341D01*
X335612Y-112410D01*
X335821Y-112480D01*
X336052Y-112526D01*
X336307Y-112549D01*
X336422D01*
X336538Y-112526D01*
X336677Y-112503D01*
X337024Y-112434D01*
X337209Y-112364D01*
X337371Y-112271D01*
X337394Y-112248D01*
X337440Y-112225D01*
X337533Y-112156D01*
X337649Y-112063D01*
X337880Y-111809D01*
X338111Y-111485D01*
X338135Y-111462D01*
X338158Y-111392D01*
X338204Y-111300D01*
X338274Y-111161D01*
X338320Y-110976D01*
X338389Y-110791D01*
X338505Y-110351D01*
Y-110328D01*
X338528Y-110235D01*
X338551Y-110119D01*
X338574Y-109958D01*
X338597Y-109772D01*
X338621Y-109564D01*
X338644Y-109101D01*
Y-109078D01*
Y-108986D01*
Y-108847D01*
X338621Y-108662D01*
Y-108477D01*
X338597Y-108245D01*
X338528Y-107759D01*
Y-107736D01*
X338505Y-107644D01*
X338482Y-107528D01*
X338436Y-107366D01*
X338320Y-106996D01*
X338158Y-106625D01*
Y-106602D01*
X338111Y-106533D01*
X338065Y-106440D01*
X337973Y-106325D01*
X337765Y-106070D01*
X337464Y-105816D01*
X337440Y-105793D01*
X337394Y-105769D01*
X337302Y-105723D01*
X337163Y-105654D01*
X337001Y-105584D01*
X336816Y-105538D01*
X336608Y-105515D01*
X336376Y-105492D01*
D02*
G37*
G36*
X309164Y-105376D02*
X308933D01*
X308794Y-105399D01*
X308447Y-105469D01*
X308077Y-105607D01*
X308053D01*
X308007Y-105654D01*
X307915Y-105700D01*
X307799Y-105769D01*
X307544Y-105978D01*
X307290Y-106232D01*
X307267Y-106255D01*
X307244Y-106302D01*
X307174Y-106371D01*
X307128Y-106487D01*
X307035Y-106602D01*
X306966Y-106764D01*
X306804Y-107111D01*
Y-107135D01*
X306781Y-107204D01*
X306758Y-107297D01*
X306735Y-107435D01*
X306688Y-107597D01*
X306665Y-107759D01*
X306642Y-108153D01*
X311548D01*
Y-108130D01*
Y-108083D01*
Y-108037D01*
Y-107944D01*
X311524Y-107713D01*
X311478Y-107412D01*
X311409Y-107088D01*
X311293Y-106741D01*
X311154Y-106417D01*
X310946Y-106117D01*
X310923Y-106093D01*
X310830Y-106001D01*
X310691Y-105885D01*
X310506Y-105746D01*
X310252Y-105607D01*
X309951Y-105492D01*
X309581Y-105399D01*
X309164Y-105376D01*
D02*
G37*
G36*
X255365Y-105469D02*
X255249D01*
X255110Y-105492D01*
X254925D01*
X254740Y-105538D01*
X254509Y-105584D01*
X254301Y-105654D01*
X254092Y-105746D01*
X254069D01*
X254000Y-105793D01*
X253907Y-105862D01*
X253792Y-105931D01*
X253514Y-106163D01*
X253236Y-106487D01*
X253213Y-106510D01*
X253190Y-106579D01*
X253120Y-106672D01*
X253051Y-106788D01*
X252959Y-106950D01*
X252866Y-107158D01*
X252797Y-107366D01*
X252727Y-107597D01*
Y-107620D01*
X252704Y-107713D01*
X252681Y-107852D01*
X252658Y-108014D01*
X252612Y-108222D01*
X252588Y-108477D01*
X252565Y-108731D01*
Y-109009D01*
Y-109032D01*
Y-109125D01*
Y-109286D01*
X252588Y-109448D01*
Y-109680D01*
X252612Y-109911D01*
X252681Y-110397D01*
Y-110420D01*
X252704Y-110513D01*
X252750Y-110629D01*
X252797Y-110791D01*
X252935Y-111138D01*
X253144Y-111531D01*
X253167Y-111554D01*
X253213Y-111601D01*
X253283Y-111693D01*
X253375Y-111809D01*
X253491Y-111924D01*
X253653Y-112063D01*
X254000Y-112295D01*
X254023D01*
X254092Y-112341D01*
X254208Y-112387D01*
X254370Y-112434D01*
X254555Y-112480D01*
X254787Y-112526D01*
X255041Y-112549D01*
X255319Y-112572D01*
X255434D01*
X255573Y-112549D01*
X255758D01*
X255967Y-112503D01*
X256175Y-112457D01*
X256383Y-112410D01*
X256591Y-112318D01*
X256615Y-112295D01*
X256684Y-112271D01*
X256777Y-112202D01*
X256892Y-112133D01*
X257193Y-111901D01*
X257471Y-111601D01*
X257494Y-111577D01*
X257517Y-111508D01*
X257586Y-111415D01*
X257656Y-111277D01*
X257748Y-111115D01*
X257841Y-110929D01*
X257910Y-110721D01*
X257980Y-110490D01*
Y-110467D01*
X258003Y-110374D01*
X258026Y-110235D01*
X258072Y-110050D01*
X258095Y-109842D01*
X258119Y-109611D01*
X258142Y-109055D01*
Y-109032D01*
Y-108940D01*
Y-108778D01*
X258119Y-108592D01*
Y-108384D01*
X258095Y-108153D01*
X258003Y-107667D01*
Y-107644D01*
X257980Y-107551D01*
X257934Y-107435D01*
X257887Y-107273D01*
X257748Y-106903D01*
X257540Y-106533D01*
X257517Y-106510D01*
X257494Y-106440D01*
X257425Y-106371D01*
X257332Y-106255D01*
X257216Y-106140D01*
X257054Y-106001D01*
X256892Y-105885D01*
X256707Y-105769D01*
X256684Y-105746D01*
X256615Y-105723D01*
X256499Y-105677D01*
X256337Y-105607D01*
X256152Y-105561D01*
X255920Y-105515D01*
X255666Y-105492D01*
X255365Y-105469D01*
D02*
G37*
%LPD*%
D37*
X75255Y7620D02*
X82875D01*
X72816Y14500D02*
X84500Y14500D01*
X72816Y-14500D02*
X84500Y-14500D01*
Y14500D01*
X66255Y7620D02*
X73875D01*
X64500Y14500D02*
X76316D01*
X64500Y-14500D02*
X76316D01*
X64500D02*
Y14500D01*
X7620Y-83125D02*
Y-75505D01*
X14500Y-84750D02*
X14500Y-73066D01*
X-14500D02*
X-14500Y-84750D01*
X14500D01*
X7620Y-74125D02*
Y-66505D01*
X14500Y-76566D02*
Y-64750D01*
X-14500Y-76566D02*
Y-64750D01*
X14500D01*
X-82875Y-7620D02*
X-75255D01*
X-84500Y-14500D02*
X-72816D01*
X-84500Y14500D02*
X-72816D01*
X-84500Y-14500D02*
Y14500D01*
X-73875Y-7620D02*
X-66255D01*
X-76316Y-14500D02*
X-64500D01*
X-76316Y14500D02*
X-64500D01*
Y-14500D02*
Y14500D01*
X-7620Y75255D02*
X-7620Y82875D01*
X-14500Y72816D02*
Y84500D01*
X14500Y72816D02*
Y84500D01*
X-14500D02*
X14500D01*
X-7620Y73875D02*
X-7620Y66255D01*
X-14500Y64500D02*
Y76316D01*
X14500D02*
X14500Y64500D01*
X-14500D02*
X14500D01*
X123500Y80102D02*
X130099Y83912D01*
X117948Y84840D02*
X128066Y90682D01*
X132448Y59726D02*
X142566Y65568D01*
X128066Y90682D02*
X142566Y65568D01*
X115706Y75602D02*
X122305Y79412D01*
X110746Y80682D02*
X120979Y86590D01*
X125246Y55568D02*
X135479Y61476D01*
X110746Y80682D02*
X125246Y55568D01*
X131120Y-66903D02*
X137719Y-70713D01*
X132448Y-59726D02*
X142566Y-65568D01*
X117948Y-84840D02*
X128066Y-90682D01*
X142566Y-65568D01*
X123326Y-62403D02*
X129925Y-66213D01*
X125246Y-55568D02*
X135479Y-61476D01*
X110746Y-80682D02*
X120979Y-86590D01*
X110746Y-80682D02*
X125246Y-55568D01*
X7093Y-154477D02*
X7093Y-146857D01*
X13973Y-156102D02*
Y-144418D01*
X-15027Y-156102D02*
Y-144418D01*
Y-156102D02*
X13973D01*
X7093Y-137857D02*
X7093Y-145477D01*
X13973Y-147918D02*
Y-136102D01*
X-15027D02*
X-15027Y-147918D01*
X-15027Y-136102D02*
X13973D01*
X-130099Y-83912D02*
X-123500Y-80102D01*
X-128067Y-90682D02*
X-117948Y-84840D01*
X-142566Y-65568D02*
X-132448Y-59726D01*
X-142566Y-65568D02*
X-128067Y-90682D01*
X-122305Y-79412D02*
X-115706Y-75602D01*
X-120979Y-86590D02*
X-110746Y-80682D01*
X-135479Y-61476D02*
X-125246Y-55568D01*
X-110746Y-80682D01*
X-137719Y70713D02*
X-131120Y66903D01*
X-142566Y65568D02*
X-132448Y59726D01*
X-128067Y90682D02*
X-117948Y84840D01*
X-142566Y65568D02*
X-128067Y90682D01*
X-129925Y66213D02*
X-123326Y62403D01*
X-135479Y61476D02*
X-125246Y55568D01*
X-120979Y86590D02*
X-110746Y80682D01*
X-125246Y55568D02*
X-110746Y80682D01*
X-7620Y146755D02*
Y154375D01*
X-14500Y144316D02*
X-14500Y156000D01*
X14500D02*
X14500Y144316D01*
X-14500Y156000D02*
X14500D01*
X-7620Y137755D02*
Y145375D01*
X-14500Y136000D02*
Y147816D01*
X14500Y136000D02*
Y147816D01*
X-14500Y136000D02*
X14500D01*
M02*
