G04*
G04 #@! TF.GenerationSoftware,Altium Limited,Altium Designer,20.1.14 (287)*
G04*
G04 Layer_Color=2752767*
%FSLAX44Y44*%
%MOMM*%
G71*
G04*
G04 #@! TF.SameCoordinates,555A517A-9F76-4A69-B8FD-E90865B7C856*
G04*
G04*
G04 #@! TF.FilePolarity,Positive*
G04*
G01*
G75*
%ADD38C,0.2540*%
%ADD39C,0.0508*%
%ADD40C,0.3810*%
%ADD41C,0.4064*%
D38*
X302025Y133902D02*
G03*
X302025Y133902I-8467J0D01*
G01*
X285092Y163535D02*
X302025D01*
Y180468D01*
X285092D02*
X302025D01*
X285092Y163535D02*
Y180468D01*
X1870180Y173692D02*
X1875258Y163535D01*
X1880336Y173692D01*
X1885415Y166074D02*
X1887954Y163535D01*
X1893032D01*
X1895572Y166074D01*
Y176231D01*
X1893032Y178770D01*
X1887954D01*
X1885415Y176231D01*
Y173692D01*
X1887954Y171152D01*
X1895572D01*
X1900650Y176231D02*
X1903189Y178770D01*
X1908268D01*
X1910807Y176231D01*
Y166074D01*
X1908268Y163535D01*
X1903189D01*
X1900650Y166074D01*
Y176231D01*
X1915885Y178770D02*
Y163535D01*
Y171152D01*
X1918424Y173692D01*
X1923503D01*
X1926042Y171152D01*
Y163535D01*
X1931120Y166074D02*
X1933659Y163535D01*
X1938738D01*
X1941277Y166074D01*
Y176231D01*
X1938738Y178770D01*
X1933659D01*
X1931120Y176231D01*
Y173692D01*
X1933659Y171152D01*
X1941277D01*
X1946355Y176231D02*
X1948894Y178770D01*
X1953973D01*
X1956512Y176231D01*
Y166074D01*
X1953973Y163535D01*
X1948894D01*
X1946355Y166074D01*
Y176231D01*
X1961590Y163535D02*
Y173692D01*
X1964129D01*
X1966669Y171152D01*
Y163535D01*
Y171152D01*
X1969208Y173692D01*
X1971747Y171152D01*
Y163535D01*
X1976825Y176231D02*
X1979364Y178770D01*
X1984443D01*
X1986982Y176231D01*
Y166074D01*
X1984443Y163535D01*
X1979364D01*
X1976825Y166074D01*
Y176231D01*
X1992060Y163535D02*
Y173692D01*
X1994600D01*
X1997139Y171152D01*
Y163535D01*
Y171152D01*
X1999678Y173692D01*
X2002217Y171152D01*
Y163535D01*
X2007296Y173692D02*
X2017452Y163535D01*
X2012374Y168613D01*
X2017452Y173692D01*
X2007296Y163535D01*
X2022531Y176231D02*
X2025070Y178770D01*
X2030148D01*
X2032687Y176231D01*
Y166074D01*
X2030148Y163535D01*
X2025070D01*
X2022531Y166074D01*
Y176231D01*
X1870180Y135592D02*
X1875258Y125435D01*
X1880336Y135592D01*
X1895572Y140670D02*
X1890493Y138131D01*
X1885415Y133053D01*
Y127974D01*
X1887954Y125435D01*
X1893032D01*
X1895572Y127974D01*
Y130513D01*
X1893032Y133053D01*
X1885415D01*
X1900650Y138131D02*
X1903189Y140670D01*
X1908268D01*
X1910807Y138131D01*
Y127974D01*
X1908268Y125435D01*
X1903189D01*
X1900650Y127974D01*
Y138131D01*
X1915885Y140670D02*
Y125435D01*
Y133053D01*
X1918424Y135592D01*
X1923503D01*
X1926042Y133053D01*
Y125435D01*
X1931120Y138131D02*
X1933659Y140670D01*
X1938738D01*
X1941277Y138131D01*
Y135592D01*
X1938738Y133053D01*
X1936198D01*
X1938738D01*
X1941277Y130513D01*
Y127974D01*
X1938738Y125435D01*
X1933659D01*
X1931120Y127974D01*
X1946355Y138131D02*
X1948894Y140670D01*
X1953973D01*
X1956512Y138131D01*
Y127974D01*
X1953973Y125435D01*
X1948894D01*
X1946355Y127974D01*
Y138131D01*
X1961590Y125435D02*
Y135592D01*
X1964129D01*
X1966669Y133053D01*
Y125435D01*
Y133053D01*
X1969208Y135592D01*
X1971747Y133053D01*
Y125435D01*
X1976825Y138131D02*
X1979364Y140670D01*
X1984443D01*
X1986982Y138131D01*
Y127974D01*
X1984443Y125435D01*
X1979364D01*
X1976825Y127974D01*
Y138131D01*
X1992060Y125435D02*
Y135592D01*
X1994600D01*
X1997139Y133053D01*
Y125435D01*
Y133053D01*
X1999678Y135592D01*
X2002217Y133053D01*
Y125435D01*
X2007296Y135592D02*
X2017452Y125435D01*
X2012374Y130513D01*
X2017452Y135592D01*
X2007296Y125435D01*
X2022531Y138131D02*
X2025070Y140670D01*
X2030148D01*
X2032687Y138131D01*
Y127974D01*
X2030148Y125435D01*
X2025070D01*
X2022531Y127974D01*
Y138131D01*
X1680747Y163535D02*
Y178770D01*
X1688365D01*
X1690904Y176231D01*
Y171152D01*
X1688365Y168613D01*
X1680747D01*
X1685825D02*
X1690904Y163535D01*
X1698521D02*
X1703600D01*
X1706139Y166074D01*
Y171152D01*
X1703600Y173692D01*
X1698521D01*
X1695982Y171152D01*
Y166074D01*
X1698521Y163535D01*
X1711217Y173692D02*
Y166074D01*
X1713756Y163535D01*
X1721374D01*
Y173692D01*
X1726452Y163535D02*
Y173692D01*
X1734070D01*
X1736609Y171152D01*
Y163535D01*
X1751844Y178770D02*
Y163535D01*
X1744227D01*
X1741687Y166074D01*
Y171152D01*
X1744227Y173692D01*
X1751844D01*
X1764540Y163535D02*
X1759462D01*
X1756922Y166074D01*
Y171152D01*
X1759462Y173692D01*
X1764540D01*
X1767079Y171152D01*
Y168613D01*
X1756922D01*
X1782314Y178770D02*
Y163535D01*
X1774697D01*
X1772157Y166074D01*
Y171152D01*
X1774697Y173692D01*
X1782314D01*
X1680747Y125435D02*
Y140670D01*
X1688365D01*
X1690904Y138131D01*
Y133053D01*
X1688365Y130513D01*
X1680747D01*
X1685825D02*
X1690904Y125435D01*
X1698521D02*
X1703600D01*
X1706139Y127974D01*
Y133053D01*
X1703600Y135592D01*
X1698521D01*
X1695982Y133053D01*
Y127974D01*
X1698521Y125435D01*
X1711217Y135592D02*
Y127974D01*
X1713756Y125435D01*
X1721374D01*
Y135592D01*
X1726452Y125435D02*
Y135592D01*
X1734070D01*
X1736609Y133053D01*
Y125435D01*
X1751844Y140670D02*
Y125435D01*
X1744227D01*
X1741687Y127974D01*
Y133053D01*
X1744227Y135592D01*
X1751844D01*
X1764540Y125435D02*
X1759462D01*
X1756922Y127974D01*
Y133053D01*
X1759462Y135592D01*
X1764540D01*
X1767079Y133053D01*
Y130513D01*
X1756922D01*
X1782314Y140670D02*
Y125435D01*
X1774697D01*
X1772157Y127974D01*
Y133053D01*
X1774697Y135592D01*
X1782314D01*
X1530925Y178770D02*
Y168613D01*
X1536004Y163535D01*
X1541082Y168613D01*
Y178770D01*
X1546161Y163535D02*
X1551239D01*
X1548700D01*
Y173692D01*
X1546161D01*
X1561396D02*
X1566474D01*
X1569013Y171152D01*
Y163535D01*
X1561396D01*
X1558857Y166074D01*
X1561396Y168613D01*
X1569013D01*
X1530925Y140670D02*
Y130513D01*
X1536004Y125435D01*
X1541082Y130513D01*
Y140670D01*
X1546161Y125435D02*
X1551239D01*
X1548700D01*
Y135592D01*
X1546161D01*
X1561396D02*
X1566474D01*
X1569013Y133053D01*
Y125435D01*
X1561396D01*
X1558857Y127974D01*
X1561396Y130513D01*
X1569013D01*
X1150040Y178770D02*
X1160196D01*
X1155118D01*
Y163535D01*
X1167814D02*
X1172892D01*
X1175432Y166074D01*
Y171152D01*
X1172892Y173692D01*
X1167814D01*
X1165275Y171152D01*
Y166074D01*
X1167814Y163535D01*
X1180510Y158457D02*
Y173692D01*
X1188127D01*
X1190667Y171152D01*
Y166074D01*
X1188127Y163535D01*
X1180510D01*
X1210980Y178770D02*
Y163535D01*
X1221137D01*
X1228754Y173692D02*
X1233833D01*
X1236372Y171152D01*
Y163535D01*
X1228754D01*
X1226215Y166074D01*
X1228754Y168613D01*
X1236372D01*
X1241450Y173692D02*
Y166074D01*
X1243989Y163535D01*
X1251607D01*
Y160996D01*
X1249068Y158457D01*
X1246528D01*
X1251607Y163535D02*
Y173692D01*
X1264303Y163535D02*
X1259224D01*
X1256685Y166074D01*
Y171152D01*
X1259224Y173692D01*
X1264303D01*
X1266842Y171152D01*
Y168613D01*
X1256685D01*
X1271920Y173692D02*
Y163535D01*
Y168613D01*
X1274460Y171152D01*
X1276999Y173692D01*
X1279538D01*
X1302390Y171152D02*
X1312547D01*
X1332861Y178770D02*
Y163535D01*
X1340478D01*
X1343017Y166074D01*
Y168613D01*
X1340478Y171152D01*
X1332861D01*
X1340478D01*
X1343017Y173692D01*
Y176231D01*
X1340478Y178770D01*
X1332861D01*
X1350635Y163535D02*
X1355713D01*
X1358252Y166074D01*
Y171152D01*
X1355713Y173692D01*
X1350635D01*
X1348096Y171152D01*
Y166074D01*
X1350635Y163535D01*
X1365870Y176231D02*
Y173692D01*
X1363331D01*
X1368409D01*
X1365870D01*
Y166074D01*
X1368409Y163535D01*
X1378566Y176231D02*
Y173692D01*
X1376027D01*
X1381105D01*
X1378566D01*
Y166074D01*
X1381105Y163535D01*
X1391262D02*
X1396340D01*
X1398879Y166074D01*
Y171152D01*
X1396340Y173692D01*
X1391262D01*
X1388723Y171152D01*
Y166074D01*
X1391262Y163535D01*
X1403958D02*
Y173692D01*
X1406497D01*
X1409036Y171152D01*
Y163535D01*
Y171152D01*
X1411575Y173692D01*
X1414114Y171152D01*
Y163535D01*
X1434428Y178770D02*
Y163535D01*
X1444584D01*
X1452202Y173692D02*
X1457280D01*
X1459819Y171152D01*
Y163535D01*
X1452202D01*
X1449663Y166074D01*
X1452202Y168613D01*
X1459819D01*
X1464898Y173692D02*
Y166074D01*
X1467437Y163535D01*
X1475055D01*
Y160996D01*
X1472515Y158457D01*
X1469976D01*
X1475055Y163535D02*
Y173692D01*
X1487751Y163535D02*
X1482672D01*
X1480133Y166074D01*
Y171152D01*
X1482672Y173692D01*
X1487751D01*
X1490290Y171152D01*
Y168613D01*
X1480133D01*
X1495368Y173692D02*
Y163535D01*
Y168613D01*
X1497907Y171152D01*
X1500446Y173692D01*
X1502986D01*
X1150040Y140670D02*
X1160196D01*
X1155118D01*
Y125435D01*
X1167814D02*
X1172892D01*
X1175432Y127974D01*
Y133053D01*
X1172892Y135592D01*
X1167814D01*
X1165275Y133053D01*
Y127974D01*
X1167814Y125435D01*
X1180510Y120357D02*
Y135592D01*
X1188127D01*
X1190667Y133053D01*
Y127974D01*
X1188127Y125435D01*
X1180510D01*
X1210980Y140670D02*
Y125435D01*
X1221137D01*
X1228754Y135592D02*
X1233833D01*
X1236372Y133053D01*
Y125435D01*
X1228754D01*
X1226215Y127974D01*
X1228754Y130513D01*
X1236372D01*
X1241450Y135592D02*
Y127974D01*
X1243989Y125435D01*
X1251607D01*
Y122896D01*
X1249068Y120357D01*
X1246528D01*
X1251607Y125435D02*
Y135592D01*
X1264303Y125435D02*
X1259224D01*
X1256685Y127974D01*
Y133053D01*
X1259224Y135592D01*
X1264303D01*
X1266842Y133053D01*
Y130513D01*
X1256685D01*
X1271920Y135592D02*
Y125435D01*
Y130513D01*
X1274460Y133053D01*
X1276999Y135592D01*
X1279538D01*
X1302390Y133053D02*
X1312547D01*
X1332861Y140670D02*
Y125435D01*
X1340478D01*
X1343017Y127974D01*
Y130513D01*
X1340478Y133053D01*
X1332861D01*
X1340478D01*
X1343017Y135592D01*
Y138131D01*
X1340478Y140670D01*
X1332861D01*
X1350635Y125435D02*
X1355713D01*
X1358252Y127974D01*
Y133053D01*
X1355713Y135592D01*
X1350635D01*
X1348096Y133053D01*
Y127974D01*
X1350635Y125435D01*
X1365870Y138131D02*
Y135592D01*
X1363331D01*
X1368409D01*
X1365870D01*
Y127974D01*
X1368409Y125435D01*
X1378566Y138131D02*
Y135592D01*
X1376027D01*
X1381105D01*
X1378566D01*
Y127974D01*
X1381105Y125435D01*
X1391262D02*
X1396340D01*
X1398879Y127974D01*
Y133053D01*
X1396340Y135592D01*
X1391262D01*
X1388723Y133053D01*
Y127974D01*
X1391262Y125435D01*
X1403958D02*
Y135592D01*
X1406497D01*
X1409036Y133053D01*
Y125435D01*
Y133053D01*
X1411575Y135592D01*
X1414114Y133053D01*
Y125435D01*
X1434428Y140670D02*
Y125435D01*
X1444584D01*
X1452202Y135592D02*
X1457280D01*
X1459819Y133053D01*
Y125435D01*
X1452202D01*
X1449663Y127974D01*
X1452202Y130513D01*
X1459819D01*
X1464898Y135592D02*
Y127974D01*
X1467437Y125435D01*
X1475055D01*
Y122896D01*
X1472515Y120357D01*
X1469976D01*
X1475055Y125435D02*
Y135592D01*
X1487751Y125435D02*
X1482672D01*
X1480133Y127974D01*
Y133053D01*
X1482672Y135592D01*
X1487751D01*
X1490290Y133053D01*
Y130513D01*
X1480133D01*
X1495368Y135592D02*
Y125435D01*
Y130513D01*
X1497907Y133053D01*
X1500446Y135592D01*
X1502986D01*
X963654Y163535D02*
Y178770D01*
X971272D01*
X973811Y176231D01*
Y171152D01*
X971272Y168613D01*
X963654D01*
X968732D02*
X973811Y163535D01*
X981428D02*
X986507D01*
X989046Y166074D01*
Y171152D01*
X986507Y173692D01*
X981428D01*
X978889Y171152D01*
Y166074D01*
X981428Y163535D01*
X994124Y173692D02*
Y166074D01*
X996663Y163535D01*
X1004281D01*
Y173692D01*
X1009359Y163535D02*
Y173692D01*
X1016977D01*
X1019516Y171152D01*
Y163535D01*
X1034751Y178770D02*
Y163535D01*
X1027133D01*
X1024594Y166074D01*
Y171152D01*
X1027133Y173692D01*
X1034751D01*
X963654Y125435D02*
Y140670D01*
X971272D01*
X973811Y138131D01*
Y133053D01*
X971272Y130513D01*
X963654D01*
X968732D02*
X973811Y125435D01*
X981428D02*
X986507D01*
X989046Y127974D01*
Y133053D01*
X986507Y135592D01*
X981428D01*
X978889Y133053D01*
Y127974D01*
X981428Y125435D01*
X994124Y135592D02*
Y127974D01*
X996663Y125435D01*
X1004281D01*
Y135592D01*
X1009359Y125435D02*
Y135592D01*
X1016977D01*
X1019516Y133053D01*
Y125435D01*
X1034751Y140670D02*
Y125435D01*
X1027133D01*
X1024594Y127974D01*
Y133053D01*
X1027133Y135592D01*
X1034751D01*
X835162Y163535D02*
Y178770D01*
X842779D01*
X845318Y176231D01*
Y171152D01*
X842779Y168613D01*
X835162D01*
X850397Y178770D02*
X860553D01*
X855475D01*
Y163535D01*
X865632Y178770D02*
Y163535D01*
Y171152D01*
X875788D01*
Y178770D01*
Y163535D01*
X835162Y125435D02*
Y140670D01*
X842779D01*
X845318Y138131D01*
Y133053D01*
X842779Y130513D01*
X835162D01*
X850397Y140670D02*
X860553D01*
X855475D01*
Y125435D01*
X865632Y140670D02*
Y125435D01*
Y133053D01*
X875788D01*
Y140670D01*
Y125435D01*
X555843Y176231D02*
X558382Y178770D01*
X563460D01*
X566000Y176231D01*
Y166074D01*
X563460Y163535D01*
X558382D01*
X555843Y166074D01*
Y176231D01*
X571078Y163535D02*
Y166074D01*
X573617D01*
Y163535D01*
X571078D01*
X583774Y166074D02*
X586313Y163535D01*
X591391D01*
X593931Y166074D01*
Y176231D01*
X591391Y178770D01*
X586313D01*
X583774Y176231D01*
Y173692D01*
X586313Y171152D01*
X593931D01*
X599009Y176231D02*
X601548Y178770D01*
X606627D01*
X609166Y176231D01*
Y166074D01*
X606627Y163535D01*
X601548D01*
X599009Y166074D01*
Y176231D01*
X614244D02*
X616783Y178770D01*
X621861D01*
X624401Y176231D01*
Y166074D01*
X621861Y163535D01*
X616783D01*
X614244Y166074D01*
Y176231D01*
X629479Y163535D02*
Y173692D01*
X632018D01*
X634557Y171152D01*
Y163535D01*
Y171152D01*
X637097Y173692D01*
X639636Y171152D01*
Y163535D01*
X644714D02*
Y173692D01*
X647253D01*
X649792Y171152D01*
Y163535D01*
Y171152D01*
X652332Y173692D01*
X654871Y171152D01*
Y163535D01*
X680263D02*
X675184Y168613D01*
Y173692D01*
X680263Y178770D01*
X687880Y176231D02*
X690419Y178770D01*
X695498D01*
X698037Y176231D01*
Y173692D01*
X695498Y171152D01*
X692959D01*
X695498D01*
X698037Y168613D01*
Y166074D01*
X695498Y163535D01*
X690419D01*
X687880Y166074D01*
X713272Y178770D02*
X703115D01*
Y171152D01*
X708194Y173692D01*
X710733D01*
X713272Y171152D01*
Y166074D01*
X710733Y163535D01*
X705654D01*
X703115Y166074D01*
X718350Y163535D02*
Y166074D01*
X720890D01*
Y163535D01*
X718350D01*
X738664D02*
Y178770D01*
X731046Y171152D01*
X741203D01*
X746281Y176231D02*
X748820Y178770D01*
X753899D01*
X756438Y176231D01*
Y173692D01*
X753899Y171152D01*
X751360D01*
X753899D01*
X756438Y168613D01*
Y166074D01*
X753899Y163535D01*
X748820D01*
X746281Y166074D01*
X761516Y163535D02*
Y173692D01*
X764055D01*
X766595Y171152D01*
Y163535D01*
Y171152D01*
X769134Y173692D01*
X771673Y171152D01*
Y163535D01*
X776751D02*
X781830D01*
X779291D01*
Y173692D01*
X776751D01*
X789447Y163535D02*
X794526D01*
X791986D01*
Y178770D01*
X789447D01*
X802143Y163535D02*
X807222Y168613D01*
Y173692D01*
X802143Y178770D01*
X555843Y138131D02*
X558382Y140670D01*
X563460D01*
X566000Y138131D01*
Y127974D01*
X563460Y125435D01*
X558382D01*
X555843Y127974D01*
Y138131D01*
X571078Y125435D02*
Y127974D01*
X573617D01*
Y125435D01*
X571078D01*
X583774Y138131D02*
X586313Y140670D01*
X591391D01*
X593931Y138131D01*
Y135592D01*
X591391Y133053D01*
X588852D01*
X591391D01*
X593931Y130513D01*
Y127974D01*
X591391Y125435D01*
X586313D01*
X583774Y127974D01*
X599009Y138131D02*
X601548Y140670D01*
X606627D01*
X609166Y138131D01*
Y127974D01*
X606627Y125435D01*
X601548D01*
X599009Y127974D01*
Y138131D01*
X614244D02*
X616783Y140670D01*
X621861D01*
X624401Y138131D01*
Y127974D01*
X621861Y125435D01*
X616783D01*
X614244Y127974D01*
Y138131D01*
X629479Y125435D02*
Y135592D01*
X632018D01*
X634557Y133053D01*
Y125435D01*
Y133053D01*
X637097Y135592D01*
X639636Y133053D01*
Y125435D01*
X644714D02*
Y135592D01*
X647253D01*
X649792Y133053D01*
Y125435D01*
Y133053D01*
X652332Y135592D01*
X654871Y133053D01*
Y125435D01*
X680263D02*
X675184Y130513D01*
Y135592D01*
X680263Y140670D01*
X687880Y125435D02*
X692959D01*
X690419D01*
Y140670D01*
X687880Y138131D01*
X700576Y125435D02*
X705654D01*
X703115D01*
Y140670D01*
X700576Y138131D01*
X713272Y125435D02*
Y127974D01*
X715811D01*
Y125435D01*
X713272D01*
X725968Y138131D02*
X728507Y140670D01*
X733585D01*
X736125Y138131D01*
Y135592D01*
X733585Y133053D01*
X736125Y130513D01*
Y127974D01*
X733585Y125435D01*
X728507D01*
X725968Y127974D01*
Y130513D01*
X728507Y133053D01*
X725968Y135592D01*
Y138131D01*
X728507Y133053D02*
X733585D01*
X741203Y125435D02*
X746281D01*
X743742D01*
Y140670D01*
X741203Y138131D01*
X753899Y125435D02*
Y135592D01*
X756438D01*
X758977Y133053D01*
Y125435D01*
Y133053D01*
X761516Y135592D01*
X764055Y133053D01*
Y125435D01*
X769134D02*
X774212D01*
X771673D01*
Y135592D01*
X769134D01*
X781830Y125435D02*
X786908D01*
X784369D01*
Y140670D01*
X781830D01*
X794526Y125435D02*
X799604Y130513D01*
Y135592D01*
X794526Y140670D01*
X421257Y87335D02*
X426336D01*
X423797D01*
Y102570D01*
X421257Y100031D01*
X433953D02*
X436493Y102570D01*
X441571D01*
X444110Y100031D01*
Y97492D01*
X441571Y94952D01*
X439032D01*
X441571D01*
X444110Y92413D01*
Y89874D01*
X441571Y87335D01*
X436493D01*
X433953Y89874D01*
X464423Y102570D02*
X474580D01*
X469502D01*
Y87335D01*
X482198D02*
X487276D01*
X489815Y89874D01*
Y94952D01*
X487276Y97492D01*
X482198D01*
X479659Y94952D01*
Y89874D01*
X482198Y87335D01*
X497433Y100031D02*
Y97492D01*
X494894D01*
X499972D01*
X497433D01*
Y89874D01*
X499972Y87335D01*
X510129Y97492D02*
X515207D01*
X517746Y94952D01*
Y87335D01*
X510129D01*
X507589Y89874D01*
X510129Y92413D01*
X517746D01*
X522825Y87335D02*
X527903D01*
X525364D01*
Y102570D01*
X522825D01*
X431414Y163535D02*
X421257D01*
X431414Y173692D01*
Y176231D01*
X428875Y178770D01*
X423797D01*
X421257Y176231D01*
Y125435D02*
X426336D01*
X423797D01*
Y140670D01*
X421257Y138131D01*
X433953Y125435D02*
X439032D01*
X436493D01*
Y140670D01*
X433953Y138131D01*
D39*
X-127460Y68000D02*
G03*
X-127460Y68000I-2540J0D01*
G01*
X-121460Y-78000D02*
G03*
X-121460Y-78000I-2540J0D01*
G01*
X9540Y-74000D02*
G03*
X9540Y-74000I-2540J0D01*
G01*
X7540Y-146000D02*
G03*
X7540Y-146000I-2540J0D01*
G01*
X132540Y-68000D02*
G03*
X132540Y-68000I-2540J0D01*
G01*
X77540Y6000D02*
G03*
X77540Y6000I-2540J0D01*
G01*
X-3460Y75000D02*
G03*
X-3460Y75000I-2540J0D01*
G01*
X6540D02*
G03*
X6540Y75000I-2540J0D01*
G01*
X134540Y86000D02*
G03*
X134540Y86000I-2540J0D01*
G01*
X-72460Y-7000D02*
G03*
X-72460Y-7000I-2540J0D01*
G01*
X540Y149000D02*
G03*
X540Y149000I-2540J0D01*
G01*
X94715Y82214D02*
X99796D01*
Y87294D01*
X94715D02*
X99796D01*
X94715Y82214D02*
Y87294D01*
X68735Y97214D02*
X73815D01*
Y102294D01*
X68735D02*
X73815D01*
X68735Y97214D02*
Y102294D01*
D40*
X269905Y190205D02*
X2954956D01*
X269905Y114005D02*
X2954956D01*
X269905Y75905D02*
X2954956D01*
Y228305D01*
X269905D02*
X2954956D01*
X269905Y75905D02*
Y228305D01*
X2604789Y75905D02*
Y228305D01*
X2266053Y75905D02*
Y228305D01*
X2049197Y75905D02*
Y228305D01*
X1858750Y75905D02*
Y228305D01*
X1669317Y75905D02*
Y228305D01*
X1519496Y75905D02*
Y228305D01*
X1138610Y75905D02*
Y228305D01*
X952224Y75905D02*
Y228305D01*
X823732Y75905D02*
Y228305D01*
X544413Y75905D02*
Y228305D01*
X409827Y75905D02*
Y228305D01*
D41*
X2616219Y219917D02*
Y201635D01*
Y210776D01*
X2628408D01*
Y219917D01*
Y201635D01*
X2637549D02*
X2643643D01*
X2646689Y204682D01*
Y210776D01*
X2643643Y213823D01*
X2637549D01*
X2634502Y210776D01*
Y204682D01*
X2637549Y201635D01*
X2652784D02*
X2658878D01*
X2655831D01*
Y219917D01*
X2652784D01*
X2677160Y201635D02*
X2671066D01*
X2668019Y204682D01*
Y210776D01*
X2671066Y213823D01*
X2677160D01*
X2680207Y210776D01*
Y207729D01*
X2668019D01*
X2704583Y219917D02*
X2716771D01*
X2710677D01*
Y201635D01*
X2725912D02*
X2732006D01*
X2735053Y204682D01*
Y210776D01*
X2732006Y213823D01*
X2725912D01*
X2722865Y210776D01*
Y204682D01*
X2725912Y201635D01*
X2741147D02*
X2747241D01*
X2744194D01*
Y219917D01*
X2741147D01*
X2765523Y201635D02*
X2759429D01*
X2756382Y204682D01*
Y210776D01*
X2759429Y213823D01*
X2765523D01*
X2768570Y210776D01*
Y207729D01*
X2756382D01*
X2774664Y213823D02*
Y201635D01*
Y207729D01*
X2777711Y210776D01*
X2780758Y213823D01*
X2783805D01*
X2795993D02*
X2802087D01*
X2805134Y210776D01*
Y201635D01*
X2795993D01*
X2792946Y204682D01*
X2795993Y207729D01*
X2805134D01*
X2811228Y201635D02*
Y213823D01*
X2820369D01*
X2823416Y210776D01*
Y201635D01*
X2841699Y213823D02*
X2832557D01*
X2829510Y210776D01*
Y204682D01*
X2832557Y201635D01*
X2841699D01*
X2856934D02*
X2850840D01*
X2847792Y204682D01*
Y210776D01*
X2850840Y213823D01*
X2856934D01*
X2859980Y210776D01*
Y207729D01*
X2847792D01*
X2890451Y201635D02*
X2884357Y207729D01*
Y213823D01*
X2890451Y219917D01*
X2899592Y210776D02*
X2911780D01*
X2917874Y201635D02*
X2923968Y207729D01*
Y213823D01*
X2917874Y219917D01*
X2277483D02*
Y201635D01*
Y210776D01*
X2289671D01*
Y219917D01*
Y201635D01*
X2298812D02*
X2304906D01*
X2307953Y204682D01*
Y210776D01*
X2304906Y213823D01*
X2298812D01*
X2295765Y210776D01*
Y204682D01*
X2298812Y201635D01*
X2314047D02*
X2320141D01*
X2317094D01*
Y219917D01*
X2314047D01*
X2338423Y201635D02*
X2332329D01*
X2329282Y204682D01*
Y210776D01*
X2332329Y213823D01*
X2338423D01*
X2341470Y210776D01*
Y207729D01*
X2329282D01*
X2365847Y219917D02*
X2378035D01*
X2371940D01*
Y201635D01*
X2387176D02*
X2393270D01*
X2396317Y204682D01*
Y210776D01*
X2393270Y213823D01*
X2387176D01*
X2384129Y210776D01*
Y204682D01*
X2387176Y201635D01*
X2402411D02*
X2408505D01*
X2405458D01*
Y219917D01*
X2402411D01*
X2426787Y201635D02*
X2420693D01*
X2417646Y204682D01*
Y210776D01*
X2420693Y213823D01*
X2426787D01*
X2429834Y210776D01*
Y207729D01*
X2417646D01*
X2435928Y213823D02*
Y201635D01*
Y207729D01*
X2438975Y210776D01*
X2442022Y213823D01*
X2445069D01*
X2457257D02*
X2463351D01*
X2466398Y210776D01*
Y201635D01*
X2457257D01*
X2454210Y204682D01*
X2457257Y207729D01*
X2466398D01*
X2472492Y201635D02*
Y213823D01*
X2481633D01*
X2484680Y210776D01*
Y201635D01*
X2502962Y213823D02*
X2493821D01*
X2490774Y210776D01*
Y204682D01*
X2493821Y201635D01*
X2502962D01*
X2518197D02*
X2512103D01*
X2509056Y204682D01*
Y210776D01*
X2512103Y213823D01*
X2518197D01*
X2521244Y210776D01*
Y207729D01*
X2509056D01*
X2551714Y201635D02*
X2545620Y207729D01*
Y213823D01*
X2551714Y219917D01*
X2560855Y210776D02*
X2573044D01*
X2566949Y216870D02*
Y204682D01*
X2579138Y201635D02*
X2585232Y207729D01*
Y213823D01*
X2579138Y219917D01*
X2060627D02*
Y201635D01*
X2069768D01*
X2072815Y204682D01*
Y216870D01*
X2069768Y219917D01*
X2060627D01*
X2088050Y201635D02*
X2081956D01*
X2078909Y204682D01*
Y210776D01*
X2081956Y213823D01*
X2088050D01*
X2091097Y210776D01*
Y207729D01*
X2078909D01*
X2097191Y201635D02*
X2106333D01*
X2109379Y204682D01*
X2106333Y207729D01*
X2100238D01*
X2097191Y210776D01*
X2100238Y213823D01*
X2109379D01*
X2127662D02*
X2118521D01*
X2115473Y210776D01*
Y204682D01*
X2118521Y201635D01*
X2127662D01*
X2133756Y213823D02*
Y201635D01*
Y207729D01*
X2136803Y210776D01*
X2139850Y213823D01*
X2142897D01*
X2152038Y201635D02*
X2158132D01*
X2155085D01*
Y213823D01*
X2152038D01*
X2167273Y195541D02*
Y213823D01*
X2176414D01*
X2179461Y210776D01*
Y204682D01*
X2176414Y201635D01*
X2167273D01*
X2188602Y216870D02*
Y213823D01*
X2185555D01*
X2191649D01*
X2188602D01*
Y204682D01*
X2191649Y201635D01*
X2200790D02*
X2206884D01*
X2203837D01*
Y213823D01*
X2200790D01*
X2219072Y201635D02*
X2225166D01*
X2228213Y204682D01*
Y210776D01*
X2225166Y213823D01*
X2219072D01*
X2216025Y210776D01*
Y204682D01*
X2219072Y201635D01*
X2234307D02*
Y213823D01*
X2243448D01*
X2246495Y210776D01*
Y201635D01*
X1870180Y219917D02*
X1882368D01*
X1876274D01*
Y201635D01*
X1897603D02*
X1891509D01*
X1888462Y204682D01*
Y210776D01*
X1891509Y213823D01*
X1897603D01*
X1900650Y210776D01*
Y207729D01*
X1888462D01*
X1906744Y201635D02*
Y213823D01*
X1909791D01*
X1912838Y210776D01*
Y201635D01*
Y210776D01*
X1915885Y213823D01*
X1918932Y210776D01*
Y201635D01*
X1925026Y195541D02*
Y213823D01*
X1934167D01*
X1937214Y210776D01*
Y204682D01*
X1934167Y201635D01*
X1925026D01*
X1943308D02*
X1949402D01*
X1946355D01*
Y219917D01*
X1943308D01*
X1961590Y213823D02*
X1967684D01*
X1970731Y210776D01*
Y201635D01*
X1961590D01*
X1958543Y204682D01*
X1961590Y207729D01*
X1970731D01*
X1979872Y216870D02*
Y213823D01*
X1976825D01*
X1982919D01*
X1979872D01*
Y204682D01*
X1982919Y201635D01*
X2001201D02*
X1995107D01*
X1992060Y204682D01*
Y210776D01*
X1995107Y213823D01*
X2001201D01*
X2004248Y210776D01*
Y207729D01*
X1992060D01*
X1680747Y201635D02*
Y219917D01*
X1689888D01*
X1692935Y216870D01*
Y210776D01*
X1689888Y207729D01*
X1680747D01*
X1702076Y213823D02*
X1708170D01*
X1711217Y210776D01*
Y201635D01*
X1702076D01*
X1699029Y204682D01*
X1702076Y207729D01*
X1711217D01*
X1729499Y219917D02*
Y201635D01*
X1720358D01*
X1717311Y204682D01*
Y210776D01*
X1720358Y213823D01*
X1729499D01*
X1766064Y216870D02*
X1763017Y219917D01*
X1756922D01*
X1753875Y216870D01*
Y213823D01*
X1756922Y210776D01*
X1763017D01*
X1766064Y207729D01*
Y204682D01*
X1763017Y201635D01*
X1756922D01*
X1753875Y204682D01*
X1772157Y219917D02*
Y201635D01*
Y210776D01*
X1775204Y213823D01*
X1781299D01*
X1784346Y210776D01*
Y201635D01*
X1793487Y213823D02*
X1799581D01*
X1802628Y210776D01*
Y201635D01*
X1793487D01*
X1790440Y204682D01*
X1793487Y207729D01*
X1802628D01*
X1808722Y195541D02*
Y213823D01*
X1817863D01*
X1820910Y210776D01*
Y204682D01*
X1817863Y201635D01*
X1808722D01*
X1836145D02*
X1830051D01*
X1827004Y204682D01*
Y210776D01*
X1830051Y213823D01*
X1836145D01*
X1839192Y210776D01*
Y207729D01*
X1827004D01*
X1530925Y219917D02*
Y207729D01*
X1537020Y201635D01*
X1543114Y207729D01*
Y219917D01*
X1549208Y201635D02*
X1555302D01*
X1552255D01*
Y213823D01*
X1549208D01*
X1567490D02*
X1573584D01*
X1576631Y210776D01*
Y201635D01*
X1567490D01*
X1564443Y204682D01*
X1567490Y207729D01*
X1576631D01*
X1582725Y201635D02*
X1594913Y213823D01*
X1601007Y201635D02*
Y219917D01*
X1610148D01*
X1613195Y216870D01*
Y210776D01*
X1610148Y207729D01*
X1601007D01*
X1622336Y213823D02*
X1628430D01*
X1631477Y210776D01*
Y201635D01*
X1622336D01*
X1619289Y204682D01*
X1622336Y207729D01*
X1631477D01*
X1649759Y219917D02*
Y201635D01*
X1640618D01*
X1637571Y204682D01*
Y210776D01*
X1640618Y213823D01*
X1649759D01*
X1150040Y219917D02*
Y201635D01*
X1159181D01*
X1162228Y204682D01*
Y216870D01*
X1159181Y219917D01*
X1150040D01*
X1168322Y213823D02*
Y201635D01*
Y207729D01*
X1171369Y210776D01*
X1174416Y213823D01*
X1177463D01*
X1186604Y201635D02*
X1192698D01*
X1189651D01*
Y213823D01*
X1186604D01*
X1201839Y201635D02*
X1207933D01*
X1204886D01*
Y219917D01*
X1201839D01*
X1217074Y201635D02*
X1223168D01*
X1220121D01*
Y219917D01*
X1217074D01*
X1250591D02*
Y201635D01*
X1262779D01*
X1271920Y213823D02*
X1278014D01*
X1281061Y210776D01*
Y201635D01*
X1271920D01*
X1268873Y204682D01*
X1271920Y207729D01*
X1281061D01*
X1287155Y213823D02*
Y204682D01*
X1290202Y201635D01*
X1299343D01*
Y198588D01*
X1296296Y195541D01*
X1293249D01*
X1299343Y201635D02*
Y213823D01*
X1314579Y201635D02*
X1308484D01*
X1305437Y204682D01*
Y210776D01*
X1308484Y213823D01*
X1314579D01*
X1317625Y210776D01*
Y207729D01*
X1305437D01*
X1323719Y213823D02*
Y201635D01*
Y207729D01*
X1326767Y210776D01*
X1329814Y213823D01*
X1332861D01*
X1360284Y201635D02*
Y219917D01*
X1369425D01*
X1372472Y216870D01*
Y210776D01*
X1369425Y207729D01*
X1360284D01*
X1381613Y213823D02*
X1387707D01*
X1390754Y210776D01*
Y201635D01*
X1381613D01*
X1378566Y204682D01*
X1381613Y207729D01*
X1390754D01*
X1396848Y201635D02*
X1402942D01*
X1399895D01*
Y213823D01*
X1396848D01*
X1412083D02*
Y201635D01*
Y207729D01*
X1415130Y210776D01*
X1418177Y213823D01*
X1421224D01*
X963654Y219917D02*
Y201635D01*
Y210776D01*
X975842D01*
Y219917D01*
Y201635D01*
X984983D02*
X991077D01*
X994124Y204682D01*
Y210776D01*
X991077Y213823D01*
X984983D01*
X981936Y210776D01*
Y204682D01*
X984983Y201635D01*
X1000218D02*
X1006312D01*
X1003265D01*
Y219917D01*
X1000218D01*
X1024594Y201635D02*
X1018500D01*
X1015453Y204682D01*
Y210776D01*
X1018500Y213823D01*
X1024594D01*
X1027641Y210776D01*
Y207729D01*
X1015453D01*
X1052017Y219917D02*
X1064205D01*
X1058111D01*
Y201635D01*
X1070300Y213823D02*
Y204682D01*
X1073346Y201635D01*
X1082487D01*
Y198588D01*
X1079441Y195541D01*
X1076394D01*
X1082487Y201635D02*
Y213823D01*
X1088582Y195541D02*
Y213823D01*
X1097723D01*
X1100770Y210776D01*
Y204682D01*
X1097723Y201635D01*
X1088582D01*
X1116005D02*
X1109911D01*
X1106864Y204682D01*
Y210776D01*
X1109911Y213823D01*
X1116005D01*
X1119052Y210776D01*
Y207729D01*
X1106864D01*
X835162Y201635D02*
Y219917D01*
X844303D01*
X847350Y216870D01*
Y210776D01*
X844303Y207729D01*
X835162D01*
X853444Y201635D02*
X859538D01*
X856491D01*
Y219917D01*
X853444D01*
X871726Y213823D02*
X877820D01*
X880867Y210776D01*
Y201635D01*
X871726D01*
X868679Y204682D01*
X871726Y207729D01*
X880867D01*
X890008Y216870D02*
Y213823D01*
X886961D01*
X893055D01*
X890008D01*
Y204682D01*
X893055Y201635D01*
X911337D02*
X905243D01*
X902196Y204682D01*
Y210776D01*
X905243Y213823D01*
X911337D01*
X914384Y210776D01*
Y207729D01*
X902196D01*
X932666Y219917D02*
Y201635D01*
X923525D01*
X920478Y204682D01*
Y210776D01*
X923525Y213823D01*
X932666D01*
X555843Y219917D02*
Y201635D01*
Y210776D01*
X568031D01*
Y219917D01*
Y201635D01*
X577172D02*
X583266D01*
X586313Y204682D01*
Y210776D01*
X583266Y213823D01*
X577172D01*
X574125Y210776D01*
Y204682D01*
X577172Y201635D01*
X592407D02*
X598501D01*
X595454D01*
Y219917D01*
X592407D01*
X616783Y201635D02*
X610689D01*
X607642Y204682D01*
Y210776D01*
X610689Y213823D01*
X616783D01*
X619830Y210776D01*
Y207729D01*
X607642D01*
X656394Y216870D02*
X653347Y219917D01*
X647253D01*
X644206Y216870D01*
Y213823D01*
X647253Y210776D01*
X653347D01*
X656394Y207729D01*
Y204682D01*
X653347Y201635D01*
X647253D01*
X644206Y204682D01*
X662488Y201635D02*
X668582D01*
X665535D01*
Y213823D01*
X662488D01*
X677723D02*
X689911D01*
X677723Y201635D01*
X689911D01*
X705147D02*
X699053D01*
X696005Y204682D01*
Y210776D01*
X699053Y213823D01*
X705147D01*
X708194Y210776D01*
Y207729D01*
X696005D01*
X433446Y216870D02*
X430398Y219917D01*
X424304D01*
X421257Y216870D01*
Y204682D01*
X424304Y201635D01*
X430398D01*
X433446Y204682D01*
X442587Y201635D02*
X448681D01*
X451728Y204682D01*
Y210776D01*
X448681Y213823D01*
X442587D01*
X439539Y210776D01*
Y204682D01*
X442587Y201635D01*
X457822Y213823D02*
Y204682D01*
X460869Y201635D01*
X470010D01*
Y213823D01*
X476104Y201635D02*
Y213823D01*
X485245D01*
X488292Y210776D01*
Y201635D01*
X497433Y216870D02*
Y213823D01*
X494386D01*
X500480D01*
X497433D01*
Y204682D01*
X500480Y201635D01*
X304953Y216870D02*
X301906Y219917D01*
X295812D01*
X292765Y216870D01*
Y213823D01*
X295812Y210776D01*
X301906D01*
X304953Y207729D01*
Y204682D01*
X301906Y201635D01*
X295812D01*
X292765Y204682D01*
X311047Y213823D02*
Y204682D01*
X314094Y201635D01*
X323235D01*
Y198588D01*
X320188Y195541D01*
X317141D01*
X323235Y201635D02*
Y213823D01*
X329329Y201635D02*
Y213823D01*
X332376D01*
X335423Y210776D01*
Y201635D01*
Y210776D01*
X338470Y213823D01*
X341517Y210776D01*
Y201635D01*
X347611Y219917D02*
Y201635D01*
X356752D01*
X359799Y204682D01*
Y207729D01*
Y210776D01*
X356752Y213823D01*
X347611D01*
X368940Y201635D02*
X375034D01*
X378081Y204682D01*
Y210776D01*
X375034Y213823D01*
X368940D01*
X365893Y210776D01*
Y204682D01*
X368940Y201635D01*
X384175D02*
X390269D01*
X387222D01*
Y219917D01*
X384175D01*
M02*
