G04*
G04 #@! TF.GenerationSoftware,Altium Limited,Altium Designer,20.1.14 (287)*
G04*
G04 Layer_Color=65535*
%FSLAX44Y44*%
%MOMM*%
G71*
G04*
G04 #@! TF.SameCoordinates,555A517A-9F76-4A69-B8FD-E90865B7C856*
G04*
G04*
G04 #@! TF.FilePolarity,Positive*
G04*
G01*
G75*
%ADD10C,0.1500*%
%ADD11C,0.3000*%
%ADD12C,1.3000*%
%ADD13C,0.3500*%
%ADD14C,0.1000*%
%ADD15C,0.4500*%
G36*
X155885Y90000D02*
Y-90000D01*
X0Y-180000D01*
X-155885Y-90000D01*
Y90000D01*
X0Y180000D01*
X155885Y90000D01*
D02*
G37*
G36*
X267259Y-29103D02*
X267490Y-29127D01*
X267768Y-29173D01*
X268045Y-29242D01*
X268323Y-29335D01*
X268601Y-29474D01*
X268624Y-29497D01*
X268717Y-29543D01*
X268832Y-29636D01*
X268994Y-29751D01*
X269179Y-29890D01*
X269364Y-30075D01*
X269550Y-30283D01*
X269711Y-30515D01*
X269735Y-30538D01*
X269781Y-30631D01*
X269874Y-30769D01*
X269966Y-30954D01*
X270059Y-31163D01*
X270174Y-31440D01*
X270267Y-31718D01*
X270359Y-32042D01*
Y-32088D01*
X270382Y-32204D01*
X270429Y-32366D01*
X270475Y-32597D01*
X270498Y-32875D01*
X270544Y-33199D01*
X270568Y-33523D01*
Y-33893D01*
Y-33916D01*
Y-33939D01*
Y-34009D01*
Y-34101D01*
X270544Y-34310D01*
Y-34611D01*
X270498Y-34934D01*
X270452Y-35282D01*
X270382Y-35652D01*
X270290Y-36022D01*
Y-36068D01*
X270244Y-36184D01*
X270174Y-36346D01*
X270105Y-36577D01*
X269989Y-36809D01*
X269874Y-37086D01*
X269711Y-37364D01*
X269550Y-37619D01*
X269526Y-37642D01*
X269457Y-37734D01*
X269364Y-37850D01*
X269226Y-37989D01*
X269040Y-38151D01*
X268832Y-38313D01*
X268578Y-38475D01*
X268323Y-38614D01*
X268300Y-38637D01*
X268184Y-38660D01*
X268045Y-38729D01*
X267837Y-38776D01*
X267583Y-38845D01*
X267305Y-38914D01*
X267004Y-38938D01*
X266657Y-38961D01*
X266518D01*
X266402Y-38938D01*
X266171Y-38914D01*
X265893Y-38868D01*
X265870D01*
X265847Y-38845D01*
X265685Y-38822D01*
X265477Y-38729D01*
X265246Y-38637D01*
X265222D01*
X265199Y-38614D01*
X265037Y-38521D01*
X264829Y-38382D01*
X264598Y-38220D01*
X264575Y-38197D01*
X264551Y-38174D01*
X264482Y-38105D01*
X264389Y-38035D01*
X264181Y-37850D01*
X263927Y-37596D01*
Y-42084D01*
Y-42131D01*
X263880Y-42200D01*
X263857Y-42246D01*
X263741Y-42316D01*
X263718D01*
X263672Y-42339D01*
X263603Y-42362D01*
X263487Y-42385D01*
X263394D01*
X263256Y-42408D01*
X262816D01*
X262677Y-42385D01*
X262654D01*
X262608Y-42362D01*
X262446Y-42316D01*
X262423D01*
X262399Y-42293D01*
X262307Y-42200D01*
Y-42177D01*
X262284Y-42084D01*
Y-29543D01*
Y-29520D01*
Y-29497D01*
X262307Y-29404D01*
Y-29381D01*
X262330Y-29358D01*
X262376Y-29335D01*
X262423Y-29312D01*
X262446D01*
X262492Y-29288D01*
X262561Y-29265D01*
X262654Y-29242D01*
X262677D01*
X262747Y-29219D01*
X263232D01*
X263325Y-29242D01*
X263348D01*
X263418Y-29265D01*
X263556Y-29312D01*
X263580D01*
X263603Y-29335D01*
X263649Y-29358D01*
X263672Y-29404D01*
X263695Y-29427D01*
X263718Y-29543D01*
Y-30746D01*
X263741Y-30723D01*
X263788Y-30677D01*
X263880Y-30607D01*
X263973Y-30492D01*
X264227Y-30260D01*
X264505Y-30029D01*
X264528Y-30006D01*
X264575Y-29983D01*
X264644Y-29913D01*
X264760Y-29844D01*
X264991Y-29682D01*
X265269Y-29520D01*
X265292D01*
X265338Y-29474D01*
X265408Y-29450D01*
X265523Y-29404D01*
X265778Y-29288D01*
X266055Y-29196D01*
X266079D01*
X266125Y-29173D01*
X266217Y-29150D01*
X266310Y-29127D01*
X266588Y-29103D01*
X266912Y-29080D01*
X267074D01*
X267259Y-29103D01*
D02*
G37*
G36*
X314903Y-29103D02*
X314926D01*
X314995Y-29126D01*
X315111Y-29150D01*
X315227Y-29173D01*
X315250D01*
X315342Y-29196D01*
X315435Y-29219D01*
X315551Y-29265D01*
X315574D01*
X315643Y-29288D01*
X315713Y-29311D01*
X315759Y-29358D01*
X315782D01*
X315805Y-29381D01*
X315851Y-29450D01*
X315875Y-29474D01*
Y-29566D01*
Y-29589D01*
X315898Y-29612D01*
Y-29682D01*
Y-29774D01*
Y-29797D01*
X315921Y-29867D01*
Y-29959D01*
Y-30121D01*
Y-30168D01*
Y-30260D01*
Y-30376D01*
X315898Y-30492D01*
Y-30515D01*
Y-30561D01*
X315851Y-30723D01*
Y-30746D01*
X315828Y-30769D01*
X315782Y-30862D01*
X315759Y-30885D01*
X315666Y-30908D01*
X315597D01*
X315458Y-30862D01*
X315435D01*
X315389Y-30839D01*
X315296Y-30793D01*
X315203Y-30769D01*
X315180D01*
X315111Y-30746D01*
X315018Y-30700D01*
X314880Y-30677D01*
X314856D01*
X314764Y-30654D01*
X314625Y-30631D01*
X314440D01*
X314324Y-30654D01*
X314185Y-30677D01*
X314000Y-30746D01*
X313954Y-30769D01*
X313862Y-30816D01*
X313699Y-30931D01*
X313491Y-31070D01*
X313445Y-31116D01*
X313329Y-31232D01*
X313144Y-31440D01*
X312936Y-31695D01*
X312913Y-31718D01*
X312890Y-31764D01*
X312820Y-31834D01*
X312751Y-31950D01*
X312658Y-32088D01*
X312566Y-32250D01*
X312311Y-32620D01*
Y-38544D01*
Y-38567D01*
Y-38591D01*
X312265Y-38683D01*
X312242Y-38706D01*
X312126Y-38776D01*
X312103D01*
X312057Y-38799D01*
X311987D01*
X311871Y-38822D01*
X311779D01*
X311640Y-38845D01*
X311200D01*
X311062Y-38822D01*
X311038D01*
X310992Y-38799D01*
X310830Y-38776D01*
X310807D01*
X310784Y-38752D01*
X310691Y-38683D01*
Y-38637D01*
X310668Y-38544D01*
Y-29543D01*
Y-29520D01*
Y-29497D01*
X310691Y-29404D01*
X310714Y-29381D01*
X310761Y-29335D01*
X310807Y-29312D01*
X310830D01*
X310877Y-29288D01*
X310946Y-29265D01*
X311038Y-29242D01*
X311062D01*
X311131Y-29219D01*
X311640D01*
X311756Y-29242D01*
X311779D01*
X311848Y-29265D01*
X311918Y-29288D01*
X311987Y-29312D01*
X312010D01*
X312033Y-29335D01*
X312080Y-29358D01*
X312103Y-29404D01*
X312126Y-29427D01*
X312149Y-29543D01*
Y-30862D01*
X312172Y-30839D01*
X312219Y-30769D01*
X312288Y-30677D01*
X312381Y-30538D01*
X312589Y-30260D01*
X312843Y-29983D01*
X312866Y-29959D01*
X312890Y-29913D01*
X313052Y-29774D01*
X313237Y-29612D01*
X313445Y-29450D01*
X313468D01*
X313491Y-29427D01*
X313630Y-29335D01*
X313815Y-29242D01*
X314023Y-29173D01*
X314047D01*
X314070Y-29150D01*
X314209Y-29126D01*
X314394Y-29103D01*
X314602Y-29080D01*
X314787D01*
X314903Y-29103D01*
D02*
G37*
G36*
X339222Y-29242D02*
X339361Y-29265D01*
X339384D01*
X339454Y-29288D01*
X339546Y-29311D01*
X339616Y-29358D01*
X339639Y-29381D01*
X339662Y-29404D01*
X339685Y-29474D01*
X339708Y-29543D01*
Y-29566D01*
Y-29612D01*
X339685Y-29728D01*
X339639Y-29844D01*
X336422Y-38776D01*
X335219Y-42061D01*
X335196Y-42084D01*
X335150Y-42154D01*
X335057Y-42246D01*
X334895Y-42316D01*
X334849Y-42339D01*
X334710Y-42362D01*
X334618Y-42385D01*
X334502D01*
X334340Y-42408D01*
X334016D01*
X333877Y-42385D01*
X333738Y-42362D01*
X333715D01*
X333669Y-42339D01*
X333507Y-42270D01*
X333484D01*
X333461Y-42223D01*
X333414Y-42200D01*
X333391Y-42131D01*
Y-42108D01*
Y-42061D01*
X333414Y-41992D01*
X333461Y-41899D01*
X334687Y-38776D01*
X334641Y-38752D01*
X334594Y-38706D01*
X334525Y-38660D01*
Y-38637D01*
X334479Y-38590D01*
X334409Y-38475D01*
X331216Y-29867D01*
X331193Y-29821D01*
X331170Y-29751D01*
X331147Y-29636D01*
X331123Y-29543D01*
Y-29520D01*
Y-29474D01*
X331147Y-29404D01*
X331193Y-29358D01*
X331216Y-29335D01*
X331262Y-29311D01*
X331355Y-29288D01*
X331470Y-29265D01*
X331494D01*
X331609Y-29242D01*
X331748Y-29219D01*
X332280D01*
X332419Y-29242D01*
X332442D01*
X332512Y-29265D01*
X332604Y-29288D01*
X332674Y-29311D01*
X332697D01*
X332743Y-29335D01*
X332789Y-29358D01*
X332836Y-29427D01*
Y-29450D01*
X332859Y-29474D01*
X332928Y-29612D01*
X335497Y-36832D01*
X335520D01*
X338019Y-29589D01*
Y-29566D01*
X338042Y-29474D01*
X338088Y-29404D01*
X338135Y-29335D01*
X338158D01*
X338204Y-29311D01*
X338274Y-29288D01*
X338389Y-29265D01*
X338436D01*
X338528Y-29242D01*
X338690Y-29219D01*
X339060D01*
X339222Y-29242D01*
D02*
G37*
G36*
X298219Y-29242D02*
X298312D01*
X298451Y-29288D01*
X298474D01*
X298497Y-29312D01*
X298543Y-29358D01*
X298566Y-29404D01*
X298589Y-29427D01*
X298613Y-29520D01*
Y-29543D01*
X298589Y-29612D01*
Y-29636D01*
Y-29705D01*
Y-29728D01*
X298566Y-29821D01*
X298543Y-29844D01*
X298520Y-29936D01*
X295466Y-38498D01*
Y-38521D01*
X295443Y-38567D01*
X295350Y-38683D01*
X295327D01*
X295304Y-38729D01*
X295234Y-38752D01*
X295142Y-38776D01*
X295119D01*
X295049Y-38799D01*
X294957D01*
X294818Y-38822D01*
X294679D01*
X294540Y-38845D01*
X293985D01*
X293823Y-38822D01*
X293800D01*
X293707Y-38799D01*
X293615D01*
X293499Y-38776D01*
X293476D01*
X293429Y-38752D01*
X293314Y-38660D01*
Y-38637D01*
X293267Y-38614D01*
X293198Y-38498D01*
X290144Y-29936D01*
Y-29913D01*
X290120Y-29867D01*
X290074Y-29728D01*
Y-29705D01*
Y-29682D01*
X290051Y-29589D01*
Y-29566D01*
Y-29520D01*
Y-29497D01*
Y-29474D01*
X290074Y-29381D01*
Y-29358D01*
X290120Y-29335D01*
X290213Y-29288D01*
X290236D01*
X290282Y-29265D01*
X290352Y-29242D01*
X290491D01*
X290583Y-29219D01*
X291162D01*
X291301Y-29242D01*
X291324D01*
X291416Y-29265D01*
X291486Y-29288D01*
X291578Y-29312D01*
X291601D01*
X291625Y-29335D01*
X291717Y-29404D01*
X291740Y-29427D01*
X291810Y-29543D01*
X294355Y-36971D01*
X294401Y-37086D01*
X294424Y-36971D01*
X296923Y-29543D01*
Y-29520D01*
X296947Y-29497D01*
X296993Y-29404D01*
Y-29381D01*
X297039Y-29358D01*
X297132Y-29312D01*
X297155D01*
X297201Y-29288D01*
X297294Y-29265D01*
X297409Y-29242D01*
X297432D01*
X297525Y-29219D01*
X298104D01*
X298219Y-29242D01*
D02*
G37*
G36*
X326310Y-29103D02*
X326565Y-29126D01*
X326843Y-29173D01*
X327120Y-29242D01*
X327375Y-29311D01*
X327398D01*
X327491Y-29358D01*
X327606Y-29404D01*
X327768Y-29474D01*
X328139Y-29682D01*
X328324Y-29821D01*
X328486Y-29959D01*
X328509Y-29983D01*
X328555Y-30029D01*
X328624Y-30121D01*
X328717Y-30237D01*
X328810Y-30399D01*
X328925Y-30584D01*
X329018Y-30793D01*
X329087Y-31024D01*
Y-31047D01*
X329110Y-31140D01*
X329157Y-31255D01*
X329203Y-31440D01*
X329226Y-31649D01*
X329272Y-31903D01*
X329295Y-32181D01*
Y-32482D01*
Y-38567D01*
Y-38590D01*
Y-38637D01*
X329249Y-38683D01*
X329203Y-38729D01*
X329180D01*
X329157Y-38752D01*
X329087Y-38776D01*
X328971Y-38799D01*
X328948D01*
X328879Y-38822D01*
X328740Y-38845D01*
X328439D01*
X328300Y-38822D01*
X328162Y-38799D01*
X328139D01*
X328069Y-38776D01*
X328000Y-38752D01*
X327930Y-38729D01*
X327907Y-38683D01*
X327884Y-38637D01*
X327861Y-38567D01*
Y-37665D01*
X327838Y-37688D01*
X327768Y-37757D01*
X327629Y-37873D01*
X327491Y-38012D01*
X327282Y-38174D01*
X327051Y-38336D01*
X326819Y-38498D01*
X326542Y-38637D01*
X326519Y-38660D01*
X326426Y-38683D01*
X326264Y-38729D01*
X326079Y-38799D01*
X325848Y-38868D01*
X325593Y-38914D01*
X325316Y-38937D01*
X325015Y-38961D01*
X324760D01*
X324575Y-38937D01*
X324390Y-38914D01*
X324159Y-38891D01*
X323719Y-38776D01*
X323696D01*
X323626Y-38752D01*
X323511Y-38706D01*
X323395Y-38660D01*
X323071Y-38498D01*
X322747Y-38266D01*
X322724Y-38243D01*
X322678Y-38197D01*
X322608Y-38128D01*
X322516Y-38012D01*
X322423Y-37896D01*
X322307Y-37734D01*
X322122Y-37387D01*
Y-37364D01*
X322099Y-37295D01*
X322053Y-37202D01*
X322030Y-37040D01*
X321983Y-36878D01*
X321937Y-36693D01*
X321914Y-36230D01*
Y-36207D01*
Y-36114D01*
X321937Y-35976D01*
X321960Y-35791D01*
X321983Y-35582D01*
X322053Y-35374D01*
X322122Y-35143D01*
X322215Y-34934D01*
X322238Y-34911D01*
X322261Y-34842D01*
X322331Y-34726D01*
X322446Y-34587D01*
X322562Y-34448D01*
X322724Y-34286D01*
X322886Y-34125D01*
X323094Y-33986D01*
X323117Y-33963D01*
X323210Y-33916D01*
X323326Y-33847D01*
X323487Y-33777D01*
X323696Y-33685D01*
X323927Y-33592D01*
X324205Y-33500D01*
X324506Y-33430D01*
X324552D01*
X324668Y-33407D01*
X324829Y-33361D01*
X325061Y-33338D01*
X325339Y-33291D01*
X325662Y-33268D01*
X326033Y-33245D01*
X327653D01*
Y-32551D01*
Y-32528D01*
Y-32459D01*
Y-32366D01*
X327629Y-32250D01*
X327606Y-31949D01*
X327537Y-31649D01*
Y-31625D01*
X327514Y-31579D01*
X327491Y-31510D01*
X327444Y-31417D01*
X327329Y-31186D01*
X327167Y-30978D01*
Y-30954D01*
X327120Y-30931D01*
X327005Y-30816D01*
X326796Y-30677D01*
X326542Y-30561D01*
X326519D01*
X326472Y-30538D01*
X326380Y-30515D01*
X326287Y-30492D01*
X326148Y-30468D01*
X325987Y-30445D01*
X325593Y-30422D01*
X325362D01*
X325223Y-30445D01*
X324853Y-30492D01*
X324482Y-30584D01*
X324459D01*
X324413Y-30607D01*
X324320Y-30631D01*
X324205Y-30677D01*
X323927Y-30769D01*
X323649Y-30908D01*
X323626D01*
X323580Y-30931D01*
X323511Y-30954D01*
X323441Y-31001D01*
X323233Y-31093D01*
X323025Y-31209D01*
X322978Y-31232D01*
X322886Y-31278D01*
X322770Y-31325D01*
X322678Y-31348D01*
X322631D01*
X322516Y-31325D01*
X322492Y-31302D01*
X322423Y-31209D01*
Y-31186D01*
X322400Y-31140D01*
X322354Y-31001D01*
Y-30978D01*
Y-30908D01*
Y-30816D01*
Y-30723D01*
Y-30700D01*
Y-30677D01*
Y-30584D01*
Y-30445D01*
X322377Y-30330D01*
Y-30306D01*
X322423Y-30237D01*
X322469Y-30145D01*
X322539Y-30052D01*
X322562Y-30029D01*
X322654Y-29959D01*
X322793Y-29867D01*
X323002Y-29751D01*
X323025D01*
X323071Y-29728D01*
X323140Y-29682D01*
X323233Y-29636D01*
X323464Y-29543D01*
X323765Y-29427D01*
X323788D01*
X323834Y-29404D01*
X323927Y-29381D01*
X324043Y-29335D01*
X324182Y-29311D01*
X324344Y-29265D01*
X324714Y-29196D01*
X324737D01*
X324806Y-29173D01*
X324899Y-29150D01*
X325038Y-29126D01*
X325177D01*
X325362Y-29103D01*
X325732Y-29080D01*
X326079D01*
X326310Y-29103D01*
D02*
G37*
G36*
X319021Y-24869D02*
X319045D01*
X319114Y-24892D01*
X319207Y-24915D01*
X319276Y-24938D01*
X319299D01*
X319322Y-24961D01*
X319415Y-25054D01*
X319438Y-25077D01*
X319461Y-25170D01*
Y-38544D01*
Y-38567D01*
Y-38590D01*
X319415Y-38683D01*
X319392Y-38706D01*
X319276Y-38776D01*
X319253D01*
X319207Y-38799D01*
X319137D01*
X319021Y-38822D01*
X318929D01*
X318790Y-38845D01*
X318351D01*
X318212Y-38822D01*
X318188D01*
X318142Y-38799D01*
X317980Y-38776D01*
X317957D01*
X317934Y-38752D01*
X317841Y-38683D01*
Y-38637D01*
X317818Y-38544D01*
Y-25170D01*
Y-25147D01*
Y-25123D01*
X317841Y-25054D01*
Y-25031D01*
X317888Y-25008D01*
X317980Y-24938D01*
X318003D01*
X318050Y-24915D01*
X318119Y-24892D01*
X318212Y-24869D01*
X318235D01*
X318327Y-24846D01*
X318906D01*
X319021Y-24869D01*
D02*
G37*
G36*
X249580Y-25887D02*
X249603D01*
X249627Y-25910D01*
X249696Y-26026D01*
Y-26049D01*
X249719Y-26095D01*
X249742Y-26165D01*
X249765Y-26257D01*
Y-26280D01*
X249788Y-26350D01*
Y-26442D01*
Y-26581D01*
Y-26604D01*
Y-26697D01*
Y-26813D01*
X249765Y-26928D01*
Y-26951D01*
X249742Y-26998D01*
X249696Y-27160D01*
X249673Y-27206D01*
X249580Y-27275D01*
X249534D01*
X249441Y-27298D01*
X245809D01*
Y-38544D01*
Y-38591D01*
X245762Y-38683D01*
X245716Y-38706D01*
X245670Y-38729D01*
X245600Y-38752D01*
X245577D01*
X245531Y-38776D01*
X245461D01*
X245346Y-38799D01*
X245322D01*
X245230Y-38822D01*
X245114Y-38845D01*
X244813D01*
X244675Y-38822D01*
X244536Y-38799D01*
X244513D01*
X244443Y-38776D01*
X244258Y-38752D01*
X244235D01*
X244212Y-38729D01*
X244119Y-38683D01*
Y-38660D01*
Y-38637D01*
X244096Y-38544D01*
Y-27298D01*
X240394D01*
X240301Y-27275D01*
X240255Y-27252D01*
X240186Y-27160D01*
Y-27136D01*
X240163Y-27090D01*
Y-27021D01*
X240139Y-26928D01*
Y-26905D01*
Y-26836D01*
X240116Y-26720D01*
Y-26581D01*
Y-26558D01*
Y-26465D01*
Y-26373D01*
X240139Y-26257D01*
Y-26234D01*
X240163Y-26165D01*
X240186Y-26026D01*
Y-26003D01*
X240209Y-25979D01*
X240301Y-25887D01*
X240324D01*
X240348Y-25864D01*
X240440Y-25841D01*
X249488D01*
X249580Y-25887D01*
D02*
G37*
G36*
X304559Y-29103D02*
X304814Y-29127D01*
X305092Y-29173D01*
X305392Y-29219D01*
X305693Y-29312D01*
X305994Y-29427D01*
X306017Y-29450D01*
X306133Y-29497D01*
X306272Y-29566D01*
X306434Y-29682D01*
X306619Y-29797D01*
X306827Y-29959D01*
X307035Y-30145D01*
X307220Y-30353D01*
X307244Y-30376D01*
X307290Y-30445D01*
X307382Y-30584D01*
X307498Y-30746D01*
X307614Y-30931D01*
X307729Y-31163D01*
X307845Y-31417D01*
X307938Y-31695D01*
Y-31718D01*
X307984Y-31834D01*
X308007Y-31973D01*
X308053Y-32181D01*
X308100Y-32435D01*
X308123Y-32713D01*
X308169Y-33014D01*
Y-33338D01*
Y-33639D01*
Y-33662D01*
Y-33708D01*
X308146Y-33847D01*
X308077Y-34032D01*
X307961Y-34194D01*
X307938Y-34217D01*
X307845Y-34263D01*
X307706Y-34333D01*
X307521Y-34356D01*
X301598D01*
Y-34379D01*
Y-34495D01*
Y-34634D01*
X301621Y-34819D01*
Y-35027D01*
X301667Y-35258D01*
X301736Y-35721D01*
Y-35744D01*
X301759Y-35814D01*
X301806Y-35929D01*
X301852Y-36068D01*
X302014Y-36415D01*
X302246Y-36762D01*
X302269Y-36786D01*
X302315Y-36832D01*
X302384Y-36901D01*
X302500Y-36994D01*
X302616Y-37110D01*
X302778Y-37202D01*
X303148Y-37410D01*
X303171D01*
X303241Y-37434D01*
X303379Y-37480D01*
X303541Y-37503D01*
X303750Y-37549D01*
X303981Y-37596D01*
X304235Y-37619D01*
X304768D01*
X304930Y-37596D01*
X305300Y-37572D01*
X305670Y-37526D01*
X305693D01*
X305763Y-37503D01*
X305855Y-37480D01*
X305971Y-37457D01*
X306249Y-37387D01*
X306549Y-37295D01*
X306572D01*
X306619Y-37271D01*
X306758Y-37202D01*
X306966Y-37133D01*
X307151Y-37063D01*
X307174D01*
X307197Y-37040D01*
X307290Y-36994D01*
X307406Y-36971D01*
X307521Y-36948D01*
X307568D01*
X307637Y-36994D01*
X307660D01*
X307683Y-37017D01*
X307729Y-37110D01*
Y-37133D01*
X307753Y-37156D01*
X307776Y-37295D01*
Y-37318D01*
X307799Y-37364D01*
Y-37480D01*
Y-37596D01*
Y-37619D01*
Y-37665D01*
X307776Y-37827D01*
Y-37850D01*
Y-37873D01*
X307753Y-38012D01*
X307729Y-38058D01*
X307683Y-38151D01*
X307660Y-38174D01*
X307614Y-38243D01*
X307568Y-38290D01*
X307452Y-38336D01*
X307290Y-38428D01*
X307267D01*
X307244Y-38452D01*
X307174Y-38475D01*
X307105Y-38498D01*
X306873Y-38567D01*
X306572Y-38660D01*
X306549D01*
X306503Y-38683D01*
X306411Y-38706D01*
X306295Y-38729D01*
X306156Y-38752D01*
X305971Y-38799D01*
X305578Y-38868D01*
X305554D01*
X305485Y-38891D01*
X305369D01*
X305231Y-38914D01*
X305045Y-38938D01*
X304837D01*
X304374Y-38961D01*
X304189D01*
X303981Y-38938D01*
X303726Y-38914D01*
X303402Y-38891D01*
X303078Y-38822D01*
X302754Y-38752D01*
X302431Y-38660D01*
X302384Y-38637D01*
X302292Y-38614D01*
X302130Y-38521D01*
X301945Y-38428D01*
X301713Y-38313D01*
X301482Y-38151D01*
X301250Y-37966D01*
X301019Y-37757D01*
X300996Y-37734D01*
X300926Y-37642D01*
X300834Y-37503D01*
X300695Y-37341D01*
X300556Y-37110D01*
X300417Y-36855D01*
X300279Y-36554D01*
X300163Y-36230D01*
Y-36184D01*
X300117Y-36068D01*
X300070Y-35883D01*
X300024Y-35605D01*
X299978Y-35305D01*
X299932Y-34934D01*
X299908Y-34518D01*
X299885Y-34078D01*
Y-34055D01*
Y-34032D01*
Y-33893D01*
X299908Y-33662D01*
X299932Y-33384D01*
X299955Y-33060D01*
X300001Y-32713D01*
X300070Y-32343D01*
X300163Y-31996D01*
X300186Y-31950D01*
X300209Y-31834D01*
X300279Y-31672D01*
X300394Y-31440D01*
X300510Y-31209D01*
X300649Y-30931D01*
X300834Y-30677D01*
X301019Y-30422D01*
X301042Y-30399D01*
X301112Y-30307D01*
X301250Y-30191D01*
X301413Y-30052D01*
X301598Y-29890D01*
X301829Y-29728D01*
X302107Y-29566D01*
X302384Y-29427D01*
X302431Y-29404D01*
X302523Y-29381D01*
X302685Y-29312D01*
X302917Y-29242D01*
X303171Y-29196D01*
X303495Y-29127D01*
X303819Y-29103D01*
X304189Y-29080D01*
X304374D01*
X304559Y-29103D01*
D02*
G37*
G36*
X283549Y-25679D02*
X283896Y-25702D01*
X284289Y-25771D01*
X284706Y-25841D01*
X285122Y-25956D01*
X285539Y-26095D01*
X285562D01*
X285585Y-26118D01*
X285724Y-26165D01*
X285909Y-26280D01*
X286164Y-26419D01*
X286441Y-26604D01*
X286742Y-26813D01*
X287020Y-27067D01*
X287297Y-27368D01*
X287321Y-27414D01*
X287413Y-27507D01*
X287552Y-27692D01*
X287691Y-27923D01*
X287876Y-28224D01*
X288061Y-28571D01*
X288223Y-28965D01*
X288362Y-29404D01*
Y-29427D01*
X288385Y-29450D01*
Y-29520D01*
X288408Y-29612D01*
X288454Y-29728D01*
X288477Y-29867D01*
X288547Y-30191D01*
X288593Y-30607D01*
X288663Y-31093D01*
X288686Y-31602D01*
X288709Y-32181D01*
Y-32204D01*
Y-32250D01*
Y-32343D01*
Y-32435D01*
Y-32574D01*
X288686Y-32736D01*
X288663Y-33106D01*
X288616Y-33546D01*
X288547Y-34032D01*
X288454Y-34518D01*
X288339Y-35004D01*
Y-35027D01*
X288316Y-35050D01*
X288292Y-35120D01*
X288269Y-35212D01*
X288177Y-35443D01*
X288061Y-35744D01*
X287899Y-36068D01*
X287714Y-36439D01*
X287482Y-36786D01*
X287228Y-37133D01*
X287205Y-37179D01*
X287089Y-37271D01*
X286927Y-37434D01*
X286719Y-37642D01*
X286441Y-37850D01*
X286140Y-38081D01*
X285770Y-38290D01*
X285377Y-38498D01*
X285354D01*
X285331Y-38521D01*
X285261Y-38544D01*
X285192Y-38567D01*
X284937Y-38637D01*
X284636Y-38729D01*
X284266Y-38822D01*
X283827Y-38891D01*
X283317Y-38938D01*
X282785Y-38961D01*
X282531D01*
X282415Y-38938D01*
X282276D01*
X281929Y-38914D01*
X281536Y-38868D01*
X281096Y-38776D01*
X280680Y-38683D01*
X280263Y-38544D01*
X280217Y-38521D01*
X280078Y-38452D01*
X279893Y-38359D01*
X279638Y-38220D01*
X279361Y-38035D01*
X279083Y-37827D01*
X278782Y-37572D01*
X278504Y-37271D01*
X278481Y-37225D01*
X278389Y-37133D01*
X278273Y-36948D01*
X278111Y-36693D01*
X277949Y-36392D01*
X277764Y-36045D01*
X277602Y-35652D01*
X277463Y-35212D01*
Y-35189D01*
X277440Y-35166D01*
Y-35096D01*
X277417Y-35004D01*
X277394Y-34888D01*
X277371Y-34749D01*
X277301Y-34402D01*
X277232Y-33986D01*
X277185Y-33500D01*
X277162Y-32968D01*
X277139Y-32389D01*
Y-32366D01*
Y-32320D01*
Y-32250D01*
Y-32135D01*
Y-31996D01*
X277162Y-31834D01*
X277185Y-31463D01*
X277232Y-31047D01*
X277278Y-30561D01*
X277371Y-30098D01*
X277486Y-29612D01*
Y-29589D01*
X277509Y-29566D01*
X277533Y-29497D01*
X277556Y-29404D01*
X277648Y-29173D01*
X277764Y-28872D01*
X277926Y-28548D01*
X278111Y-28201D01*
X278342Y-27854D01*
X278597Y-27507D01*
X278643Y-27460D01*
X278736Y-27368D01*
X278898Y-27206D01*
X279106Y-26998D01*
X279384Y-26789D01*
X279685Y-26558D01*
X280055Y-26350D01*
X280448Y-26142D01*
X280471D01*
X280494Y-26118D01*
X280564Y-26095D01*
X280656Y-26072D01*
X280888Y-25979D01*
X281189Y-25887D01*
X281559Y-25817D01*
X282022Y-25725D01*
X282508Y-25679D01*
X283040Y-25656D01*
X283271D01*
X283549Y-25679D01*
D02*
G37*
G36*
X255828Y-29103D02*
X256082Y-29127D01*
X256383Y-29173D01*
X256707Y-29219D01*
X257031Y-29312D01*
X257355Y-29427D01*
X257401Y-29450D01*
X257494Y-29497D01*
X257656Y-29566D01*
X257841Y-29659D01*
X258072Y-29797D01*
X258304Y-29959D01*
X258535Y-30145D01*
X258743Y-30376D01*
X258766Y-30399D01*
X258836Y-30492D01*
X258929Y-30631D01*
X259067Y-30793D01*
X259183Y-31024D01*
X259322Y-31278D01*
X259461Y-31579D01*
X259576Y-31903D01*
X259600Y-31950D01*
X259623Y-32065D01*
X259669Y-32250D01*
X259715Y-32505D01*
X259762Y-32806D01*
X259808Y-33153D01*
X259854Y-33523D01*
Y-33939D01*
Y-33963D01*
Y-33986D01*
Y-34125D01*
X259831Y-34333D01*
X259808Y-34587D01*
X259785Y-34911D01*
X259738Y-35235D01*
X259646Y-35605D01*
X259553Y-35953D01*
X259530Y-35999D01*
X259507Y-36115D01*
X259438Y-36277D01*
X259322Y-36508D01*
X259206Y-36739D01*
X259067Y-37017D01*
X258882Y-37295D01*
X258674Y-37549D01*
X258651Y-37572D01*
X258581Y-37665D01*
X258443Y-37781D01*
X258281Y-37919D01*
X258072Y-38105D01*
X257841Y-38266D01*
X257563Y-38428D01*
X257239Y-38591D01*
X257193Y-38614D01*
X257077Y-38637D01*
X256915Y-38706D01*
X256661Y-38776D01*
X256383Y-38845D01*
X256036Y-38891D01*
X255666Y-38938D01*
X255249Y-38961D01*
X255064D01*
X254856Y-38938D01*
X254601Y-38914D01*
X254277Y-38891D01*
X253953Y-38822D01*
X253630Y-38752D01*
X253306Y-38637D01*
X253259Y-38614D01*
X253167Y-38567D01*
X253005Y-38498D01*
X252820Y-38405D01*
X252612Y-38266D01*
X252380Y-38105D01*
X252149Y-37896D01*
X251917Y-37688D01*
X251894Y-37665D01*
X251825Y-37572D01*
X251732Y-37434D01*
X251616Y-37271D01*
X251478Y-37040D01*
X251362Y-36786D01*
X251223Y-36485D01*
X251107Y-36161D01*
Y-36115D01*
X251061Y-35999D01*
X251038Y-35814D01*
X250992Y-35559D01*
X250945Y-35258D01*
X250899Y-34911D01*
X250876Y-34541D01*
X250853Y-34125D01*
Y-34101D01*
Y-34078D01*
Y-33939D01*
X250876Y-33731D01*
X250899Y-33454D01*
X250922Y-33130D01*
X250969Y-32806D01*
X251038Y-32435D01*
X251131Y-32088D01*
X251154Y-32042D01*
X251177Y-31926D01*
X251246Y-31764D01*
X251339Y-31533D01*
X251455Y-31302D01*
X251616Y-31024D01*
X251778Y-30746D01*
X251987Y-30492D01*
X252010Y-30468D01*
X252102Y-30376D01*
X252218Y-30260D01*
X252380Y-30098D01*
X252588Y-29936D01*
X252843Y-29774D01*
X253120Y-29589D01*
X253421Y-29450D01*
X253468Y-29427D01*
X253583Y-29381D01*
X253745Y-29335D01*
X254000Y-29265D01*
X254301Y-29196D01*
X254625Y-29127D01*
X255018Y-29103D01*
X255434Y-29080D01*
X255620D01*
X255828Y-29103D01*
D02*
G37*
%LPC*%
G36*
X0Y170928D02*
Y170505D01*
X-7379Y168811D01*
X-15633Y164046D01*
X-19967Y161544D01*
X-132460Y96596D01*
X-142505Y90796D01*
X-148028Y85464D01*
X-147662Y85253D01*
X-149885Y78015D01*
Y68485D01*
Y63480D01*
X-149885Y-66416D01*
X-149885Y-78015D01*
X-148028Y-85464D01*
X-147662Y-85253D01*
X-142505Y-90796D01*
X-134252Y-95561D01*
X-129917Y-98064D01*
X-17424Y-163012D01*
X-7379Y-168811D01*
X0Y-170928D01*
Y-170505D01*
X7379Y-168811D01*
X15633Y-164046D01*
X19967Y-161544D01*
X132460Y-96596D01*
X142505Y-90796D01*
X148028Y-85464D01*
X147662Y-85253D01*
X149885Y-78015D01*
Y-68485D01*
Y-63480D01*
X149885Y66416D01*
X149885Y78015D01*
X148028Y85464D01*
X147662Y85253D01*
X142505Y90796D01*
X134252Y95561D01*
X129917Y98064D01*
X17424Y163012D01*
X7379Y168811D01*
X0Y170928D01*
D02*
G37*
G36*
X266611Y-30492D02*
X266565D01*
X266402Y-30515D01*
X266194Y-30538D01*
X265963Y-30607D01*
X265940D01*
X265917Y-30631D01*
X265778Y-30677D01*
X265569Y-30769D01*
X265338Y-30908D01*
X265315D01*
X265292Y-30954D01*
X265222Y-31001D01*
X265130Y-31047D01*
X264898Y-31232D01*
X264644Y-31463D01*
X264621Y-31487D01*
X264575Y-31510D01*
X264505Y-31602D01*
X264436Y-31695D01*
X264204Y-31950D01*
X263927Y-32273D01*
Y-35837D01*
X263950Y-35883D01*
X264042Y-35976D01*
X264181Y-36115D01*
X264343Y-36300D01*
X264528Y-36508D01*
X264736Y-36716D01*
X264968Y-36924D01*
X265199Y-37110D01*
X265222Y-37133D01*
X265315Y-37179D01*
X265431Y-37248D01*
X265593Y-37318D01*
X265801Y-37410D01*
X266009Y-37480D01*
X266241Y-37526D01*
X266495Y-37549D01*
X266611D01*
X266726Y-37526D01*
X266865Y-37503D01*
X267212Y-37434D01*
X267397Y-37364D01*
X267560Y-37271D01*
X267583Y-37248D01*
X267629Y-37225D01*
X267722Y-37156D01*
X267837Y-37063D01*
X267953Y-36948D01*
X268069Y-36809D01*
X268300Y-36462D01*
X268323Y-36439D01*
X268346Y-36369D01*
X268393Y-36277D01*
X268462Y-36138D01*
X268531Y-35976D01*
X268601Y-35768D01*
X268717Y-35351D01*
Y-35328D01*
X268740Y-35235D01*
X268763Y-35120D01*
X268786Y-34958D01*
X268809Y-34773D01*
X268832Y-34541D01*
X268855Y-34078D01*
Y-34055D01*
Y-33963D01*
Y-33824D01*
X268832Y-33662D01*
Y-33454D01*
X268809Y-33245D01*
X268740Y-32759D01*
Y-32736D01*
X268717Y-32644D01*
X268693Y-32528D01*
X268647Y-32366D01*
X268601Y-32181D01*
X268531Y-31996D01*
X268369Y-31602D01*
Y-31579D01*
X268323Y-31510D01*
X268277Y-31417D01*
X268184Y-31302D01*
X267976Y-31047D01*
X267675Y-30793D01*
X267652Y-30769D01*
X267606Y-30746D01*
X267513Y-30700D01*
X267397Y-30631D01*
X267236Y-30584D01*
X267050Y-30538D01*
X266842Y-30515D01*
X266611Y-30492D01*
D02*
G37*
G36*
X327653Y-34425D02*
X325987D01*
X325825Y-34448D01*
X325639D01*
X325431Y-34472D01*
X325038Y-34541D01*
X325015D01*
X324968Y-34564D01*
X324876Y-34587D01*
X324760Y-34634D01*
X324482Y-34726D01*
X324228Y-34888D01*
X324205D01*
X324182Y-34934D01*
X324043Y-35050D01*
X323881Y-35212D01*
X323742Y-35443D01*
Y-35467D01*
X323719Y-35490D01*
X323696Y-35559D01*
X323673Y-35652D01*
X323626Y-35883D01*
X323603Y-36161D01*
Y-36184D01*
Y-36277D01*
X323626Y-36392D01*
X323649Y-36554D01*
X323719Y-36739D01*
X323788Y-36924D01*
X323904Y-37109D01*
X324043Y-37271D01*
X324066Y-37295D01*
X324135Y-37341D01*
X324228Y-37387D01*
X324367Y-37457D01*
X324529Y-37549D01*
X324737Y-37596D01*
X324991Y-37642D01*
X325269Y-37665D01*
X325385D01*
X325501Y-37642D01*
X325662Y-37619D01*
X325848Y-37596D01*
X326056Y-37526D01*
X326264Y-37457D01*
X326472Y-37341D01*
X326496Y-37318D01*
X326565Y-37271D01*
X326681Y-37202D01*
X326819Y-37086D01*
X327005Y-36948D01*
X327213Y-36786D01*
X327421Y-36577D01*
X327653Y-36346D01*
Y-34425D01*
D02*
G37*
G36*
X304120Y-30376D02*
X303888D01*
X303750Y-30399D01*
X303402Y-30468D01*
X303032Y-30607D01*
X303009D01*
X302963Y-30654D01*
X302870Y-30700D01*
X302754Y-30769D01*
X302500Y-30978D01*
X302246Y-31232D01*
X302222Y-31255D01*
X302199Y-31302D01*
X302130Y-31371D01*
X302083Y-31487D01*
X301991Y-31602D01*
X301922Y-31764D01*
X301759Y-32111D01*
Y-32135D01*
X301736Y-32204D01*
X301713Y-32297D01*
X301690Y-32435D01*
X301644Y-32597D01*
X301621Y-32759D01*
X301598Y-33153D01*
X306503D01*
Y-33130D01*
Y-33083D01*
Y-33037D01*
Y-32945D01*
X306480Y-32713D01*
X306434Y-32412D01*
X306364Y-32088D01*
X306249Y-31741D01*
X306110Y-31417D01*
X305902Y-31116D01*
X305878Y-31093D01*
X305786Y-31001D01*
X305647Y-30885D01*
X305462Y-30746D01*
X305207Y-30607D01*
X304907Y-30492D01*
X304536Y-30399D01*
X304120Y-30376D01*
D02*
G37*
G36*
X282947Y-27136D02*
X282762D01*
X282554Y-27160D01*
X282299Y-27183D01*
X281999Y-27252D01*
X281698Y-27322D01*
X281374Y-27437D01*
X281073Y-27576D01*
X281050Y-27599D01*
X280957Y-27645D01*
X280795Y-27738D01*
X280633Y-27877D01*
X280425Y-28039D01*
X280217Y-28224D01*
X280009Y-28432D01*
X279823Y-28687D01*
X279800Y-28710D01*
X279754Y-28802D01*
X279661Y-28965D01*
X279569Y-29150D01*
X279453Y-29381D01*
X279338Y-29682D01*
X279245Y-29983D01*
X279152Y-30330D01*
Y-30376D01*
X279129Y-30492D01*
X279106Y-30677D01*
X279060Y-30908D01*
X279037Y-31209D01*
X278990Y-31533D01*
X278967Y-31903D01*
Y-32273D01*
Y-32297D01*
Y-32320D01*
Y-32459D01*
Y-32690D01*
X278990Y-32968D01*
X279014Y-33292D01*
X279037Y-33639D01*
X279152Y-34379D01*
Y-34425D01*
X279199Y-34541D01*
X279245Y-34726D01*
X279291Y-34934D01*
X279384Y-35189D01*
X279499Y-35467D01*
X279615Y-35744D01*
X279777Y-36022D01*
X279800Y-36045D01*
X279870Y-36138D01*
X279962Y-36253D01*
X280101Y-36415D01*
X280286Y-36600D01*
X280471Y-36762D01*
X280726Y-36948D01*
X280980Y-37110D01*
X281027Y-37133D01*
X281119Y-37156D01*
X281281Y-37225D01*
X281513Y-37295D01*
X281790Y-37364D01*
X282114Y-37410D01*
X282461Y-37457D01*
X282878Y-37480D01*
X283063D01*
X283271Y-37457D01*
X283526Y-37434D01*
X283827Y-37387D01*
X284127Y-37295D01*
X284451Y-37202D01*
X284752Y-37063D01*
X284798Y-37040D01*
X284891Y-36994D01*
X285030Y-36901D01*
X285215Y-36762D01*
X285400Y-36600D01*
X285608Y-36415D01*
X285816Y-36207D01*
X286002Y-35953D01*
X286025Y-35929D01*
X286071Y-35814D01*
X286164Y-35675D01*
X286256Y-35467D01*
X286372Y-35235D01*
X286488Y-34958D01*
X286580Y-34634D01*
X286673Y-34286D01*
Y-34240D01*
X286696Y-34125D01*
X286742Y-33939D01*
X286788Y-33685D01*
X286812Y-33384D01*
X286858Y-33037D01*
X286881Y-32690D01*
Y-32297D01*
Y-32273D01*
Y-32250D01*
Y-32111D01*
Y-31903D01*
X286858Y-31625D01*
X286835Y-31325D01*
X286788Y-30978D01*
X286673Y-30260D01*
Y-30214D01*
X286626Y-30098D01*
X286580Y-29913D01*
X286534Y-29705D01*
X286441Y-29450D01*
X286326Y-29173D01*
X286187Y-28895D01*
X286025Y-28617D01*
X286002Y-28594D01*
X285955Y-28502D01*
X285840Y-28386D01*
X285701Y-28224D01*
X285539Y-28039D01*
X285331Y-27854D01*
X285099Y-27692D01*
X284821Y-27530D01*
X284798Y-27507D01*
X284683Y-27460D01*
X284521Y-27414D01*
X284312Y-27322D01*
X284035Y-27252D01*
X283711Y-27206D01*
X283341Y-27160D01*
X282947Y-27136D01*
D02*
G37*
G36*
X255365Y-30468D02*
X255249D01*
X255110Y-30492D01*
X254925D01*
X254740Y-30538D01*
X254509Y-30584D01*
X254301Y-30654D01*
X254092Y-30746D01*
X254069D01*
X254000Y-30793D01*
X253907Y-30862D01*
X253792Y-30931D01*
X253514Y-31163D01*
X253236Y-31487D01*
X253213Y-31510D01*
X253190Y-31579D01*
X253120Y-31672D01*
X253051Y-31788D01*
X252959Y-31950D01*
X252866Y-32158D01*
X252797Y-32366D01*
X252727Y-32597D01*
Y-32620D01*
X252704Y-32713D01*
X252681Y-32852D01*
X252658Y-33014D01*
X252612Y-33222D01*
X252588Y-33477D01*
X252565Y-33731D01*
Y-34009D01*
Y-34032D01*
Y-34125D01*
Y-34286D01*
X252588Y-34448D01*
Y-34680D01*
X252612Y-34911D01*
X252681Y-35397D01*
Y-35420D01*
X252704Y-35513D01*
X252750Y-35629D01*
X252797Y-35791D01*
X252935Y-36138D01*
X253144Y-36531D01*
X253167Y-36554D01*
X253213Y-36600D01*
X253283Y-36693D01*
X253375Y-36809D01*
X253491Y-36924D01*
X253653Y-37063D01*
X254000Y-37295D01*
X254023D01*
X254092Y-37341D01*
X254208Y-37387D01*
X254370Y-37434D01*
X254555Y-37480D01*
X254787Y-37526D01*
X255041Y-37549D01*
X255319Y-37572D01*
X255434D01*
X255573Y-37549D01*
X255758D01*
X255967Y-37503D01*
X256175Y-37457D01*
X256383Y-37410D01*
X256591Y-37318D01*
X256615Y-37295D01*
X256684Y-37271D01*
X256777Y-37202D01*
X256892Y-37133D01*
X257193Y-36901D01*
X257471Y-36600D01*
X257494Y-36577D01*
X257517Y-36508D01*
X257586Y-36415D01*
X257656Y-36277D01*
X257748Y-36115D01*
X257841Y-35929D01*
X257910Y-35721D01*
X257980Y-35490D01*
Y-35467D01*
X258003Y-35374D01*
X258026Y-35235D01*
X258072Y-35050D01*
X258095Y-34842D01*
X258119Y-34611D01*
X258142Y-34055D01*
Y-34032D01*
Y-33939D01*
Y-33777D01*
X258119Y-33592D01*
Y-33384D01*
X258095Y-33153D01*
X258003Y-32667D01*
Y-32644D01*
X257980Y-32551D01*
X257934Y-32435D01*
X257887Y-32273D01*
X257748Y-31903D01*
X257540Y-31533D01*
X257517Y-31510D01*
X257494Y-31440D01*
X257425Y-31371D01*
X257332Y-31255D01*
X257216Y-31140D01*
X257054Y-31001D01*
X256892Y-30885D01*
X256707Y-30769D01*
X256684Y-30746D01*
X256615Y-30723D01*
X256499Y-30677D01*
X256337Y-30607D01*
X256152Y-30561D01*
X255920Y-30515D01*
X255666Y-30492D01*
X255365Y-30468D01*
D02*
G37*
%LPD*%
D10*
X3839Y109933D02*
G03*
X1920Y109984I-3839J-109933D01*
G01*
X11498Y109398D02*
G03*
X9587Y109582I-11498J-109397D01*
G01*
X19101Y108329D02*
G03*
X17208Y108646I-19101J-108329D01*
G01*
X26611Y106733D02*
G03*
X24745Y107181I-26611J-106733D01*
G01*
X33992Y104616D02*
G03*
X32161Y105194I-33992J-104616D01*
G01*
X41207Y101990D02*
G03*
X39421Y102694I-41207J-101990D01*
G01*
X48221Y98868D02*
G03*
X46488Y99694I-48221J-98867D01*
G01*
X55000Y95263D02*
G03*
X53329Y96208I-55000J-95263D01*
G01*
X61511Y91194D02*
G03*
X59910Y92254I-61511J-91194D01*
G01*
X67723Y86681D02*
G03*
X66200Y87850I-67723J-86681D01*
G01*
X73605Y81746D02*
G03*
X72167Y83018I-73604J-81746D01*
G01*
X79128Y76413D02*
G03*
X77782Y77782I-79127J-76412D01*
G01*
X84265Y70707D02*
G03*
X83018Y72167I-84265J-70707D01*
G01*
X88992Y64657D02*
G03*
X87850Y66200I-88992J-64656D01*
G01*
X93286Y58291D02*
G03*
X92254Y59910I-93285J-58291D01*
G01*
X97125Y51642D02*
G03*
X96208Y53329I-97124J-51642D01*
G01*
X100490Y44741D02*
G03*
X99694Y46488I-100490J-44741D01*
G01*
X103366Y37622D02*
G03*
X102694Y39421I-103366J-37622D01*
G01*
X105739Y30320D02*
G03*
X105194Y32161I-105739J-30320D01*
G01*
X107597Y22870D02*
G03*
X107181Y24745I-107596J-22870D01*
G01*
X108930Y15309D02*
G03*
X108646Y17208I-108930J-15309D01*
G01*
X109732Y7673D02*
G03*
X109582Y9587I-109732J-7673D01*
G01*
X110000Y0D02*
G03*
X109984Y1920I-110000J0D01*
G01*
X109732Y-7673D02*
G03*
X109850Y-5757I-109732J7673D01*
G01*
X108930Y-15309D02*
G03*
X109180Y-13406I-108930J15309D01*
G01*
X107597Y-22870D02*
G03*
X107979Y-20989I-107596J22870D01*
G01*
X105739Y-30320D02*
G03*
X106252Y-28470I-105739J30320D01*
G01*
X103366Y-37622D02*
G03*
X104007Y-35813I-103366J37622D01*
G01*
X100490Y-44741D02*
G03*
X101256Y-42981I-100490J44741D01*
G01*
X97125Y-51642D02*
G03*
X98011Y-49939I-97124J51642D01*
G01*
X93286Y-58291D02*
G03*
X94289Y-56654I-93285J58291D01*
G01*
X88992Y-64657D02*
G03*
X90107Y-63094I-88992J64656D01*
G01*
X84265Y-70707D02*
G03*
X85486Y-69225I-84265J70707D01*
G01*
X79128Y-76413D02*
G03*
X80449Y-75020I-79127J76412D01*
G01*
X73605Y-81746D02*
G03*
X75020Y-80449I-73604J81746D01*
G01*
X67723Y-86681D02*
G03*
X69225Y-85486I-67723J86681D01*
G01*
X61511Y-91194D02*
G03*
X63094Y-90107I-61511J91194D01*
G01*
X55000Y-95263D02*
G03*
X56654Y-94289I-55000J95263D01*
G01*
X48221Y-98868D02*
G03*
X49939Y-98011I-48221J98867D01*
G01*
X41207Y-101990D02*
G03*
X42980Y-101256I-41207J101990D01*
G01*
X33992Y-104616D02*
G03*
X35813Y-104007I-33992J104616D01*
G01*
X26611Y-106733D02*
G03*
X28470Y-106252I-26611J106733D01*
G01*
X19101Y-108329D02*
G03*
X20989Y-107979I-19101J108329D01*
G01*
X11498Y-109398D02*
G03*
X13406Y-109180I-11498J109397D01*
G01*
X3839Y-109933D02*
G03*
X5757Y-109850I-3839J109933D01*
G01*
X-3839Y-109933D02*
G03*
X-1920Y-109984I3839J109933D01*
G01*
X-11498Y-109398D02*
G03*
X-9587Y-109582I11498J109397D01*
G01*
X-19101Y-108329D02*
G03*
X-17208Y-108646I19101J108329D01*
G01*
X-26611Y-106733D02*
G03*
X-24745Y-107181I26611J106733D01*
G01*
X-33992Y-104616D02*
G03*
X-32161Y-105194I33992J104616D01*
G01*
X-41207Y-101990D02*
G03*
X-39421Y-102694I41207J101990D01*
G01*
X-48221Y-98868D02*
G03*
X-46488Y-99694I48221J98867D01*
G01*
X-55000Y-95263D02*
G03*
X-53329Y-96208I55000J95263D01*
G01*
X-61511Y-91194D02*
G03*
X-59910Y-92254I61511J91194D01*
G01*
X-67723Y-86681D02*
G03*
X-66200Y-87850I67723J86681D01*
G01*
X-73605Y-81746D02*
G03*
X-72167Y-83018I73604J81746D01*
G01*
X-79128Y-76413D02*
G03*
X-77782Y-77782I79127J76412D01*
G01*
X-84265Y-70707D02*
G03*
X-83018Y-72167I84265J70707D01*
G01*
X-88992Y-64657D02*
G03*
X-87850Y-66200I88992J64656D01*
G01*
X-93286Y-58291D02*
G03*
X-92254Y-59910I93285J58291D01*
G01*
X-97125Y-51642D02*
G03*
X-96208Y-53329I97124J51642D01*
G01*
X-100490Y-44741D02*
G03*
X-99694Y-46488I100490J44741D01*
G01*
X-103366Y-37622D02*
G03*
X-102694Y-39421I103366J37622D01*
G01*
X-105739Y-30320D02*
G03*
X-105194Y-32161I105739J30320D01*
G01*
X-107597Y-22870D02*
G03*
X-107181Y-24745I107596J22870D01*
G01*
X-108930Y-15309D02*
G03*
X-108646Y-17208I108930J15309D01*
G01*
X-109732Y-7673D02*
G03*
X-109582Y-9587I109732J7673D01*
G01*
X-110000Y0D02*
G03*
X-109984Y-1920I110000J0D01*
G01*
X-109732Y7673D02*
G03*
X-109850Y5757I109732J-7673D01*
G01*
X-108930Y15309D02*
G03*
X-109180Y13406I108930J-15309D01*
G01*
X-107597Y22870D02*
G03*
X-107979Y20989I107596J-22870D01*
G01*
X-105739Y30320D02*
G03*
X-106252Y28470I105739J-30320D01*
G01*
X-103366Y37622D02*
G03*
X-104007Y35813I103366J-37622D01*
G01*
X-100490Y44741D02*
G03*
X-101256Y42981I100490J-44741D01*
G01*
X-97125Y51642D02*
G03*
X-98011Y49939I97124J-51642D01*
G01*
X-93286Y58291D02*
G03*
X-94289Y56654I93285J-58291D01*
G01*
X-88992Y64657D02*
G03*
X-90107Y63094I88992J-64656D01*
G01*
X-84265Y70707D02*
G03*
X-85486Y69225I84265J-70707D01*
G01*
X-79128Y76413D02*
G03*
X-80449Y75020I79127J-76412D01*
G01*
X-73605Y81746D02*
G03*
X-75020Y80449I73604J-81746D01*
G01*
X-67723Y86681D02*
G03*
X-69225Y85486I67723J-86681D01*
G01*
X-61511Y91194D02*
G03*
X-63094Y90107I61511J-91194D01*
G01*
X-55000Y95263D02*
G03*
X-56654Y94289I55000J-95263D01*
G01*
X-48221Y98868D02*
G03*
X-49939Y98011I48221J-98867D01*
G01*
X-41207Y101990D02*
G03*
X-42980Y101256I41207J-101990D01*
G01*
X-33992Y104616D02*
G03*
X-35813Y104007I33992J-104616D01*
G01*
X-26611Y106733D02*
G03*
X-28470Y106252I26611J-106733D01*
G01*
X-19101Y108329D02*
G03*
X-20989Y107979I19101J-108329D01*
G01*
X-11498Y109398D02*
G03*
X-13406Y109180I11498J-109397D01*
G01*
X-3839Y109933D02*
G03*
X-5757Y109850I3839J-109933D01*
G01*
D11*
X115000Y0D02*
G03*
X115000Y0I-115000J0D01*
G01*
X-70894Y-24218D02*
G03*
X-23720Y-71063I70894J24218D01*
G01*
X-24218Y70894D02*
G03*
X-71063Y23720I24218J-70894D01*
G01*
X70894Y24218D02*
G03*
X23720Y71063I-70894J-24218D01*
G01*
X98755Y0D02*
G03*
X98755Y0I-24005J0D01*
G01*
X24005Y-74750D02*
G03*
X24005Y-74750I-24005J0D01*
G01*
X-50745Y0D02*
G03*
X-50745Y0I-24005J0D01*
G01*
X24005Y74750D02*
G03*
X24005Y74750I-24005J0D01*
G01*
X24218Y-70894D02*
G03*
X71063Y-23720I-24218J70894D01*
G01*
X31393Y18125D02*
X126656Y73125D01*
X31393Y-18125D02*
X126656Y-73125D01*
X-126656D02*
X-31393Y-18125D01*
X-126656Y73125D02*
X-31393Y18125D01*
X-527Y-99199D02*
X-527Y-146352D01*
X0Y99097D02*
Y146250D01*
X24594Y-148782D02*
X116392Y-95782D01*
X-116552Y-95690D02*
X-24754Y-148690D01*
X-141146Y-52908D02*
Y53092D01*
X-116392Y95782D02*
X-24594Y148782D01*
D12*
X38000Y0D02*
G03*
X38000Y0I-38000J0D01*
G01*
D13*
X-102867Y73250D02*
G03*
X-102867Y73250I-24005J0D01*
G01*
Y-73250D02*
G03*
X-102867Y-73250I-24005J0D01*
G01*
X24005Y-146500D02*
G03*
X24005Y-146500I-24005J0D01*
G01*
X150878Y-73250D02*
G03*
X150878Y-73250I-24005J0D01*
G01*
Y73250D02*
G03*
X150878Y73250I-24005J0D01*
G01*
X24005Y146500D02*
G03*
X24005Y146500I-24005J0D01*
G01*
X-527Y-50352D02*
Y-35949D01*
X0Y35847D02*
Y50250D01*
X24754Y148690D02*
X116552Y95690D01*
D14*
X74750Y3500D02*
X78000Y3500D01*
X71500Y3500D02*
X74750Y3500D01*
Y-3500D02*
X78000D01*
X71500Y-3500D02*
X74750Y-3500D01*
X71500Y-3500D02*
X74750Y3500D01*
X78000Y-3500D01*
X3500Y-78250D02*
X3500Y-75000D01*
X3500Y-71750D01*
X-3500Y-78250D02*
Y-75000D01*
X-3500Y-71750D01*
X3500Y-75000D01*
X-3500Y-78250D02*
X3500Y-75000D01*
X-78000Y-3500D02*
X-74750D01*
X-71500Y-3500D01*
X-78000Y3500D02*
X-74750D01*
X-71500Y3500D01*
X-74750Y-3500D02*
X-71500Y3500D01*
X-78000Y3500D02*
X-74750Y-3500D01*
X-3500Y74750D02*
X-3500Y78000D01*
X-3500Y71500D02*
X-3500Y74750D01*
X3500Y74750D02*
Y78000D01*
Y71500D02*
Y74750D01*
X-3500Y74750D02*
X3500Y71500D01*
X-3500Y74750D02*
X3500Y78000D01*
X125123Y76281D02*
X127937Y77906D01*
X122308Y74656D02*
X125123Y76281D01*
X128623Y70219D02*
X131437Y71844D01*
X125808Y68594D02*
X128623Y70219D01*
X125123Y76281D02*
X125808Y68594D01*
X125123Y76281D02*
X131437Y71844D01*
X128623Y-70219D02*
X131437Y-71844D01*
X125808Y-68594D02*
X128623Y-70219D01*
X125123Y-76281D02*
X127937Y-77906D01*
X122308Y-74656D02*
X125123Y-76281D01*
X122308Y-74656D02*
X128623Y-70219D01*
X127937Y-77906D02*
X128623Y-70219D01*
X2973Y-149602D02*
X2973Y-146352D01*
X2973Y-143102D01*
X-4027Y-149602D02*
Y-146352D01*
Y-143102D01*
X2973Y-146352D01*
X-4027Y-149602D02*
X2973Y-146352D01*
X-127937Y-77906D02*
X-125123Y-76281D01*
X-122308Y-74656D01*
X-131437Y-71844D02*
X-128623Y-70219D01*
X-125808Y-68594D01*
X-125123Y-76281D01*
X-131437Y-71844D02*
X-125123Y-76281D01*
X-131437Y71844D02*
X-128623Y70219D01*
X-125808Y68594D01*
X-127937Y77906D02*
X-125123Y76281D01*
X-122308Y74656D01*
X-128623Y70219D02*
X-122308Y74656D01*
X-128623Y70219D02*
X-127937Y77906D01*
X-3500Y146250D02*
X-3500Y149500D01*
X-3500Y143000D02*
X-3500Y146250D01*
X3500D02*
Y149500D01*
X3500Y143000D02*
X3500Y146250D01*
X-3500D02*
X3500Y143000D01*
X-3500Y146250D02*
X3500Y149500D01*
D15*
X141146Y-53092D02*
Y52908D01*
M02*
