G04*
G04 #@! TF.GenerationSoftware,Altium Limited,Altium Designer,20.1.14 (287)*
G04*
G04 Layer_Physical_Order=1*
G04 Layer_Color=255*
%FSLAX44Y44*%
%MOMM*%
G71*
G04*
G04 #@! TF.SameCoordinates,555A517A-9F76-4A69-B8FD-E90865B7C856*
G04*
G04*
G04 #@! TF.FilePolarity,Positive*
G04*
G01*
G75*
%ADD16O,0.7500X0.5000*%
%ADD17O,0.5000X0.7500*%
G04:AMPARAMS|DCode=18|XSize=0.5mm|YSize=0.75mm|CornerRadius=0mm|HoleSize=0mm|Usage=FLASHONLY|Rotation=120.000|XOffset=0mm|YOffset=0mm|HoleType=Round|Shape=Round|*
%AMOVALD18*
21,1,0.2500,0.5000,0.0000,0.0000,210.0*
1,1,0.5000,0.1082,0.0625*
1,1,0.5000,-0.1082,-0.0625*
%
%ADD18OVALD18*%

G04:AMPARAMS|DCode=19|XSize=0.5mm|YSize=0.75mm|CornerRadius=0mm|HoleSize=0mm|Usage=FLASHONLY|Rotation=60.000|XOffset=0mm|YOffset=0mm|HoleType=Round|Shape=Round|*
%AMOVALD19*
21,1,0.2500,0.5000,0.0000,0.0000,150.0*
1,1,0.5000,0.1082,-0.0625*
1,1,0.5000,-0.1082,0.0625*
%
%ADD19OVALD19*%

%ADD24C,0.5000*%
%ADD25C,0.6000*%
%ADD26C,0.9000*%
G36*
X153846Y88823D02*
Y-88823D01*
X0Y-177645D01*
X-153846Y-88823D01*
Y88823D01*
X0Y177645D01*
X153846Y88823D01*
D02*
G37*
G36*
X267259Y40897D02*
X267490Y40873D01*
X267768Y40827D01*
X268045Y40758D01*
X268323Y40665D01*
X268601Y40526D01*
X268624Y40503D01*
X268717Y40457D01*
X268832Y40364D01*
X268994Y40249D01*
X269179Y40110D01*
X269364Y39925D01*
X269550Y39716D01*
X269711Y39485D01*
X269735Y39462D01*
X269781Y39369D01*
X269874Y39231D01*
X269966Y39046D01*
X270059Y38837D01*
X270174Y38560D01*
X270267Y38282D01*
X270359Y37958D01*
Y37912D01*
X270382Y37796D01*
X270429Y37634D01*
X270475Y37403D01*
X270498Y37125D01*
X270544Y36801D01*
X270568Y36477D01*
Y36107D01*
Y36084D01*
Y36061D01*
Y35991D01*
Y35898D01*
X270544Y35690D01*
Y35389D01*
X270498Y35066D01*
X270452Y34718D01*
X270382Y34348D01*
X270290Y33978D01*
Y33932D01*
X270244Y33816D01*
X270174Y33654D01*
X270105Y33423D01*
X269989Y33191D01*
X269874Y32913D01*
X269711Y32636D01*
X269550Y32381D01*
X269526Y32358D01*
X269457Y32266D01*
X269364Y32150D01*
X269226Y32011D01*
X269040Y31849D01*
X268832Y31687D01*
X268578Y31525D01*
X268323Y31386D01*
X268300Y31363D01*
X268184Y31340D01*
X268045Y31271D01*
X267837Y31224D01*
X267583Y31155D01*
X267305Y31086D01*
X267004Y31062D01*
X266657Y31039D01*
X266518D01*
X266402Y31062D01*
X266171Y31086D01*
X265893Y31132D01*
X265870D01*
X265847Y31155D01*
X265685Y31178D01*
X265477Y31271D01*
X265246Y31363D01*
X265222D01*
X265199Y31386D01*
X265037Y31479D01*
X264829Y31618D01*
X264598Y31780D01*
X264575Y31803D01*
X264551Y31826D01*
X264482Y31895D01*
X264389Y31965D01*
X264181Y32150D01*
X263927Y32404D01*
Y27915D01*
Y27869D01*
X263880Y27800D01*
X263857Y27754D01*
X263741Y27684D01*
X263718D01*
X263672Y27661D01*
X263603Y27638D01*
X263487Y27615D01*
X263394D01*
X263256Y27592D01*
X262816D01*
X262677Y27615D01*
X262654D01*
X262608Y27638D01*
X262446Y27684D01*
X262423D01*
X262399Y27707D01*
X262307Y27800D01*
Y27823D01*
X262284Y27915D01*
Y40457D01*
Y40480D01*
Y40503D01*
X262307Y40596D01*
Y40619D01*
X262330Y40642D01*
X262376Y40665D01*
X262423Y40688D01*
X262446D01*
X262492Y40711D01*
X262561Y40735D01*
X262654Y40758D01*
X262677D01*
X262747Y40781D01*
X263232D01*
X263325Y40758D01*
X263348D01*
X263418Y40735D01*
X263556Y40688D01*
X263580D01*
X263603Y40665D01*
X263649Y40642D01*
X263672Y40596D01*
X263695Y40573D01*
X263718Y40457D01*
Y39254D01*
X263741Y39277D01*
X263788Y39323D01*
X263880Y39393D01*
X263973Y39508D01*
X264227Y39740D01*
X264505Y39971D01*
X264528Y39994D01*
X264575Y40017D01*
X264644Y40087D01*
X264760Y40156D01*
X264991Y40318D01*
X265269Y40480D01*
X265292D01*
X265338Y40526D01*
X265408Y40550D01*
X265523Y40596D01*
X265778Y40711D01*
X266055Y40804D01*
X266079D01*
X266125Y40827D01*
X266217Y40850D01*
X266310Y40873D01*
X266588Y40897D01*
X266912Y40920D01*
X267074D01*
X267259Y40897D01*
D02*
G37*
G36*
X319785Y40897D02*
X319808D01*
X319878Y40873D01*
X319993Y40850D01*
X320109Y40827D01*
X320132D01*
X320225Y40804D01*
X320317Y40781D01*
X320433Y40735D01*
X320456D01*
X320526Y40712D01*
X320595Y40688D01*
X320641Y40642D01*
X320664D01*
X320688Y40619D01*
X320734Y40550D01*
X320757Y40526D01*
Y40434D01*
Y40411D01*
X320780Y40388D01*
Y40318D01*
Y40226D01*
Y40202D01*
X320803Y40133D01*
Y40040D01*
Y39878D01*
Y39832D01*
Y39740D01*
Y39624D01*
X320780Y39508D01*
Y39485D01*
Y39439D01*
X320734Y39277D01*
Y39254D01*
X320711Y39231D01*
X320664Y39138D01*
X320641Y39115D01*
X320549Y39092D01*
X320479D01*
X320340Y39138D01*
X320317D01*
X320271Y39161D01*
X320178Y39207D01*
X320086Y39231D01*
X320063D01*
X319993Y39254D01*
X319901Y39300D01*
X319762Y39323D01*
X319739D01*
X319646Y39346D01*
X319508Y39369D01*
X319322D01*
X319207Y39346D01*
X319068Y39323D01*
X318883Y39254D01*
X318836Y39231D01*
X318744Y39184D01*
X318582Y39069D01*
X318374Y38930D01*
X318327Y38884D01*
X318212Y38768D01*
X318027Y38560D01*
X317818Y38305D01*
X317795Y38282D01*
X317772Y38236D01*
X317703Y38166D01*
X317633Y38050D01*
X317541Y37912D01*
X317448Y37750D01*
X317194Y37380D01*
Y31456D01*
Y31433D01*
Y31409D01*
X317147Y31317D01*
X317124Y31294D01*
X317008Y31224D01*
X316985D01*
X316939Y31201D01*
X316870D01*
X316754Y31178D01*
X316661D01*
X316523Y31155D01*
X316083D01*
X315944Y31178D01*
X315921D01*
X315875Y31201D01*
X315713Y31224D01*
X315690D01*
X315666Y31247D01*
X315574Y31317D01*
Y31363D01*
X315551Y31456D01*
Y40457D01*
Y40480D01*
Y40503D01*
X315574Y40596D01*
X315597Y40619D01*
X315643Y40665D01*
X315690Y40688D01*
X315713D01*
X315759Y40712D01*
X315828Y40735D01*
X315921Y40758D01*
X315944D01*
X316013Y40781D01*
X316523D01*
X316638Y40758D01*
X316661D01*
X316731Y40735D01*
X316800Y40712D01*
X316870Y40688D01*
X316893D01*
X316916Y40665D01*
X316962Y40642D01*
X316985Y40596D01*
X317008Y40573D01*
X317031Y40457D01*
Y39138D01*
X317055Y39161D01*
X317101Y39231D01*
X317170Y39323D01*
X317263Y39462D01*
X317471Y39740D01*
X317726Y40017D01*
X317749Y40040D01*
X317772Y40087D01*
X317934Y40226D01*
X318119Y40388D01*
X318327Y40550D01*
X318351D01*
X318374Y40573D01*
X318512Y40665D01*
X318698Y40758D01*
X318906Y40827D01*
X318929D01*
X318952Y40850D01*
X319091Y40873D01*
X319276Y40897D01*
X319484Y40920D01*
X319669D01*
X319785Y40897D01*
D02*
G37*
G36*
X302986Y40758D02*
X303125Y40735D01*
X303148D01*
X303217Y40711D01*
X303310Y40688D01*
X303379Y40642D01*
X303402Y40619D01*
X303426Y40596D01*
X303449Y40526D01*
X303472Y40457D01*
Y40434D01*
Y40388D01*
X303449Y40272D01*
X303402Y40156D01*
X300186Y31224D01*
X298983Y27939D01*
X298960Y27915D01*
X298913Y27846D01*
X298821Y27754D01*
X298659Y27684D01*
X298613Y27661D01*
X298474Y27638D01*
X298381Y27615D01*
X298265D01*
X298104Y27592D01*
X297780D01*
X297641Y27615D01*
X297502Y27638D01*
X297479D01*
X297432Y27661D01*
X297271Y27730D01*
X297247D01*
X297224Y27777D01*
X297178Y27800D01*
X297155Y27869D01*
Y27892D01*
Y27939D01*
X297178Y28008D01*
X297224Y28101D01*
X298451Y31224D01*
X298404Y31247D01*
X298358Y31294D01*
X298289Y31340D01*
Y31363D01*
X298242Y31409D01*
X298173Y31525D01*
X294980Y40133D01*
X294957Y40179D01*
X294933Y40249D01*
X294910Y40364D01*
X294887Y40457D01*
Y40480D01*
Y40526D01*
X294910Y40596D01*
X294957Y40642D01*
X294980Y40665D01*
X295026Y40688D01*
X295119Y40711D01*
X295234Y40735D01*
X295257D01*
X295373Y40758D01*
X295512Y40781D01*
X296044D01*
X296183Y40758D01*
X296206D01*
X296276Y40735D01*
X296368Y40711D01*
X296437Y40688D01*
X296461D01*
X296507Y40665D01*
X296553Y40642D01*
X296600Y40573D01*
Y40550D01*
X296623Y40526D01*
X296692Y40388D01*
X299261Y33168D01*
X299284D01*
X301783Y40411D01*
Y40434D01*
X301806Y40526D01*
X301852Y40596D01*
X301898Y40665D01*
X301922D01*
X301968Y40688D01*
X302037Y40711D01*
X302153Y40735D01*
X302199D01*
X302292Y40758D01*
X302454Y40781D01*
X302824D01*
X302986Y40758D01*
D02*
G37*
G36*
X278967Y44206D02*
X279106Y44182D01*
X279129D01*
X279199Y44159D01*
X279291Y44136D01*
X279361Y44113D01*
X279384D01*
X279430Y44090D01*
X279476Y44067D01*
X279523Y44021D01*
X279546Y43997D01*
X279569Y43905D01*
Y32705D01*
X284243D01*
X284359Y32659D01*
X284382D01*
X284405Y32636D01*
X284474Y32520D01*
Y32497D01*
X284498Y32451D01*
X284521Y32381D01*
X284544Y32289D01*
Y32266D01*
X284567Y32196D01*
Y32104D01*
Y31965D01*
Y31942D01*
Y31849D01*
Y31733D01*
X284544Y31618D01*
Y31595D01*
X284521Y31548D01*
X284474Y31386D01*
Y31363D01*
X284451Y31340D01*
X284359Y31247D01*
X284312D01*
X284197Y31224D01*
X278435D01*
X278342Y31247D01*
X278204Y31294D01*
X278042Y31363D01*
X278018Y31386D01*
X277949Y31502D01*
X277880Y31664D01*
X277857Y31919D01*
Y43905D01*
Y43928D01*
Y43951D01*
X277880Y44021D01*
Y44044D01*
X277926Y44067D01*
X278018Y44113D01*
X278042D01*
X278088Y44136D01*
X278181Y44159D01*
X278296Y44182D01*
X278319D01*
X278412Y44206D01*
X278551Y44229D01*
X278852D01*
X278967Y44206D01*
D02*
G37*
G36*
X290074Y40897D02*
X290329Y40873D01*
X290606Y40827D01*
X290884Y40758D01*
X291139Y40688D01*
X291162D01*
X291254Y40642D01*
X291370Y40596D01*
X291532Y40526D01*
X291902Y40318D01*
X292087Y40179D01*
X292249Y40040D01*
X292272Y40017D01*
X292319Y39971D01*
X292388Y39878D01*
X292481Y39763D01*
X292573Y39601D01*
X292689Y39416D01*
X292782Y39207D01*
X292851Y38976D01*
Y38953D01*
X292874Y38860D01*
X292920Y38745D01*
X292967Y38560D01*
X292990Y38351D01*
X293036Y38097D01*
X293059Y37819D01*
Y37518D01*
Y31433D01*
Y31409D01*
Y31363D01*
X293013Y31317D01*
X292967Y31271D01*
X292943D01*
X292920Y31247D01*
X292851Y31224D01*
X292735Y31201D01*
X292712D01*
X292643Y31178D01*
X292504Y31155D01*
X292203D01*
X292064Y31178D01*
X291925Y31201D01*
X291902D01*
X291833Y31224D01*
X291763Y31247D01*
X291694Y31271D01*
X291671Y31317D01*
X291648Y31363D01*
X291625Y31433D01*
Y32335D01*
X291601Y32312D01*
X291532Y32243D01*
X291393Y32127D01*
X291254Y31988D01*
X291046Y31826D01*
X290815Y31664D01*
X290583Y31502D01*
X290306Y31363D01*
X290282Y31340D01*
X290190Y31317D01*
X290028Y31271D01*
X289843Y31201D01*
X289611Y31132D01*
X289357Y31086D01*
X289079Y31062D01*
X288778Y31039D01*
X288524D01*
X288339Y31062D01*
X288154Y31086D01*
X287922Y31109D01*
X287482Y31224D01*
X287459D01*
X287390Y31247D01*
X287274Y31294D01*
X287159Y31340D01*
X286835Y31502D01*
X286511Y31733D01*
X286488Y31757D01*
X286441Y31803D01*
X286372Y31872D01*
X286279Y31988D01*
X286187Y32104D01*
X286071Y32266D01*
X285886Y32613D01*
Y32636D01*
X285863Y32705D01*
X285816Y32798D01*
X285793Y32960D01*
X285747Y33122D01*
X285701Y33307D01*
X285678Y33770D01*
Y33793D01*
Y33885D01*
X285701Y34024D01*
X285724Y34209D01*
X285747Y34418D01*
X285816Y34626D01*
X285886Y34857D01*
X285979Y35066D01*
X286002Y35089D01*
X286025Y35158D01*
X286094Y35274D01*
X286210Y35413D01*
X286326Y35551D01*
X286488Y35713D01*
X286649Y35875D01*
X286858Y36014D01*
X286881Y36037D01*
X286973Y36084D01*
X287089Y36153D01*
X287251Y36223D01*
X287459Y36315D01*
X287691Y36408D01*
X287969Y36500D01*
X288269Y36570D01*
X288316D01*
X288431Y36593D01*
X288593Y36639D01*
X288825Y36662D01*
X289102Y36708D01*
X289426Y36732D01*
X289797Y36755D01*
X291416D01*
Y37449D01*
Y37472D01*
Y37541D01*
Y37634D01*
X291393Y37750D01*
X291370Y38050D01*
X291301Y38351D01*
Y38374D01*
X291277Y38421D01*
X291254Y38490D01*
X291208Y38583D01*
X291092Y38814D01*
X290930Y39022D01*
Y39046D01*
X290884Y39069D01*
X290768Y39184D01*
X290560Y39323D01*
X290306Y39439D01*
X290282D01*
X290236Y39462D01*
X290144Y39485D01*
X290051Y39508D01*
X289912Y39531D01*
X289750Y39555D01*
X289357Y39578D01*
X289125D01*
X288987Y39555D01*
X288616Y39508D01*
X288246Y39416D01*
X288223D01*
X288177Y39393D01*
X288084Y39369D01*
X287969Y39323D01*
X287691Y39231D01*
X287413Y39092D01*
X287390D01*
X287344Y39069D01*
X287274Y39046D01*
X287205Y38999D01*
X286997Y38907D01*
X286788Y38791D01*
X286742Y38768D01*
X286649Y38721D01*
X286534Y38675D01*
X286441Y38652D01*
X286395D01*
X286279Y38675D01*
X286256Y38698D01*
X286187Y38791D01*
Y38814D01*
X286164Y38860D01*
X286117Y38999D01*
Y39022D01*
Y39092D01*
Y39184D01*
Y39277D01*
Y39300D01*
Y39323D01*
Y39416D01*
Y39555D01*
X286140Y39670D01*
Y39693D01*
X286187Y39763D01*
X286233Y39855D01*
X286302Y39948D01*
X286326Y39971D01*
X286418Y40040D01*
X286557Y40133D01*
X286765Y40249D01*
X286788D01*
X286835Y40272D01*
X286904Y40318D01*
X286997Y40364D01*
X287228Y40457D01*
X287529Y40573D01*
X287552D01*
X287598Y40596D01*
X287691Y40619D01*
X287806Y40665D01*
X287945Y40688D01*
X288107Y40735D01*
X288477Y40804D01*
X288501D01*
X288570Y40827D01*
X288663Y40850D01*
X288801Y40873D01*
X288940D01*
X289125Y40897D01*
X289496Y40920D01*
X289843D01*
X290074Y40897D01*
D02*
G37*
G36*
X249580Y44113D02*
X249603D01*
X249627Y44090D01*
X249696Y43974D01*
Y43951D01*
X249719Y43905D01*
X249742Y43835D01*
X249765Y43743D01*
Y43720D01*
X249788Y43650D01*
Y43558D01*
Y43419D01*
Y43396D01*
Y43303D01*
Y43187D01*
X249765Y43072D01*
Y43049D01*
X249742Y43002D01*
X249696Y42840D01*
X249673Y42794D01*
X249580Y42725D01*
X249534D01*
X249441Y42702D01*
X245809D01*
Y31456D01*
Y31409D01*
X245762Y31317D01*
X245716Y31294D01*
X245670Y31271D01*
X245600Y31247D01*
X245577D01*
X245531Y31224D01*
X245461D01*
X245346Y31201D01*
X245322D01*
X245230Y31178D01*
X245114Y31155D01*
X244813D01*
X244675Y31178D01*
X244536Y31201D01*
X244513D01*
X244443Y31224D01*
X244258Y31247D01*
X244235D01*
X244212Y31271D01*
X244119Y31317D01*
Y31340D01*
Y31363D01*
X244096Y31456D01*
Y42702D01*
X240394D01*
X240301Y42725D01*
X240255Y42748D01*
X240186Y42840D01*
Y42863D01*
X240163Y42910D01*
Y42979D01*
X240139Y43072D01*
Y43095D01*
Y43164D01*
X240116Y43280D01*
Y43419D01*
Y43442D01*
Y43534D01*
Y43627D01*
X240139Y43743D01*
Y43766D01*
X240163Y43835D01*
X240186Y43974D01*
Y43997D01*
X240209Y44021D01*
X240301Y44113D01*
X240324D01*
X240348Y44136D01*
X240440Y44159D01*
X249488D01*
X249580Y44113D01*
D02*
G37*
G36*
X309442Y40897D02*
X309696Y40873D01*
X309974Y40827D01*
X310275Y40781D01*
X310576Y40688D01*
X310877Y40573D01*
X310900Y40550D01*
X311015Y40503D01*
X311154Y40434D01*
X311316Y40318D01*
X311501Y40202D01*
X311709Y40040D01*
X311918Y39855D01*
X312103Y39647D01*
X312126Y39624D01*
X312172Y39555D01*
X312265Y39416D01*
X312381Y39254D01*
X312496Y39069D01*
X312612Y38837D01*
X312728Y38583D01*
X312820Y38305D01*
Y38282D01*
X312866Y38166D01*
X312890Y38027D01*
X312936Y37819D01*
X312982Y37565D01*
X313005Y37287D01*
X313052Y36986D01*
Y36662D01*
Y36361D01*
Y36338D01*
Y36292D01*
X313028Y36153D01*
X312959Y35968D01*
X312843Y35806D01*
X312820Y35783D01*
X312728Y35737D01*
X312589Y35667D01*
X312404Y35644D01*
X306480D01*
Y35621D01*
Y35505D01*
Y35366D01*
X306503Y35181D01*
Y34973D01*
X306549Y34742D01*
X306619Y34279D01*
Y34256D01*
X306642Y34186D01*
X306688Y34070D01*
X306735Y33932D01*
X306896Y33585D01*
X307128Y33238D01*
X307151Y33214D01*
X307197Y33168D01*
X307267Y33099D01*
X307382Y33006D01*
X307498Y32890D01*
X307660Y32798D01*
X308030Y32590D01*
X308053D01*
X308123Y32566D01*
X308262Y32520D01*
X308424Y32497D01*
X308632Y32451D01*
X308863Y32404D01*
X309118Y32381D01*
X309650D01*
X309812Y32404D01*
X310182Y32428D01*
X310553Y32474D01*
X310576D01*
X310645Y32497D01*
X310738Y32520D01*
X310853Y32543D01*
X311131Y32613D01*
X311432Y32705D01*
X311455D01*
X311501Y32728D01*
X311640Y32798D01*
X311848Y32867D01*
X312033Y32937D01*
X312057D01*
X312080Y32960D01*
X312172Y33006D01*
X312288Y33029D01*
X312404Y33052D01*
X312450D01*
X312519Y33006D01*
X312542D01*
X312566Y32983D01*
X312612Y32890D01*
Y32867D01*
X312635Y32844D01*
X312658Y32705D01*
Y32682D01*
X312681Y32636D01*
Y32520D01*
Y32404D01*
Y32381D01*
Y32335D01*
X312658Y32173D01*
Y32150D01*
Y32127D01*
X312635Y31988D01*
X312612Y31942D01*
X312566Y31849D01*
X312542Y31826D01*
X312496Y31757D01*
X312450Y31710D01*
X312334Y31664D01*
X312172Y31572D01*
X312149D01*
X312126Y31548D01*
X312057Y31525D01*
X311987Y31502D01*
X311756Y31433D01*
X311455Y31340D01*
X311432D01*
X311385Y31317D01*
X311293Y31294D01*
X311177Y31271D01*
X311038Y31247D01*
X310853Y31201D01*
X310460Y31132D01*
X310437D01*
X310367Y31109D01*
X310252D01*
X310113Y31086D01*
X309928Y31062D01*
X309720D01*
X309257Y31039D01*
X309072D01*
X308863Y31062D01*
X308609Y31086D01*
X308285Y31109D01*
X307961Y31178D01*
X307637Y31247D01*
X307313Y31340D01*
X307267Y31363D01*
X307174Y31386D01*
X307012Y31479D01*
X306827Y31572D01*
X306596Y31687D01*
X306364Y31849D01*
X306133Y32034D01*
X305902Y32243D01*
X305878Y32266D01*
X305809Y32358D01*
X305716Y32497D01*
X305578Y32659D01*
X305439Y32890D01*
X305300Y33145D01*
X305161Y33446D01*
X305045Y33770D01*
Y33816D01*
X304999Y33932D01*
X304953Y34117D01*
X304907Y34395D01*
X304860Y34695D01*
X304814Y35066D01*
X304791Y35482D01*
X304768Y35922D01*
Y35945D01*
Y35968D01*
Y36107D01*
X304791Y36338D01*
X304814Y36616D01*
X304837Y36940D01*
X304883Y37287D01*
X304953Y37657D01*
X305045Y38004D01*
X305068Y38050D01*
X305092Y38166D01*
X305161Y38328D01*
X305277Y38560D01*
X305392Y38791D01*
X305531Y39069D01*
X305716Y39323D01*
X305902Y39578D01*
X305925Y39601D01*
X305994Y39693D01*
X306133Y39809D01*
X306295Y39948D01*
X306480Y40110D01*
X306711Y40272D01*
X306989Y40434D01*
X307267Y40573D01*
X307313Y40596D01*
X307406Y40619D01*
X307568Y40688D01*
X307799Y40758D01*
X308053Y40804D01*
X308377Y40873D01*
X308701Y40897D01*
X309072Y40920D01*
X309257D01*
X309442Y40897D01*
D02*
G37*
G36*
X255828D02*
X256082Y40873D01*
X256383Y40827D01*
X256707Y40781D01*
X257031Y40688D01*
X257355Y40573D01*
X257401Y40550D01*
X257494Y40503D01*
X257656Y40434D01*
X257841Y40341D01*
X258072Y40202D01*
X258304Y40040D01*
X258535Y39855D01*
X258743Y39624D01*
X258766Y39601D01*
X258836Y39508D01*
X258929Y39369D01*
X259067Y39207D01*
X259183Y38976D01*
X259322Y38721D01*
X259461Y38421D01*
X259576Y38097D01*
X259600Y38050D01*
X259623Y37935D01*
X259669Y37750D01*
X259715Y37495D01*
X259762Y37194D01*
X259808Y36847D01*
X259854Y36477D01*
Y36061D01*
Y36037D01*
Y36014D01*
Y35875D01*
X259831Y35667D01*
X259808Y35413D01*
X259785Y35089D01*
X259738Y34765D01*
X259646Y34395D01*
X259553Y34047D01*
X259530Y34001D01*
X259507Y33885D01*
X259438Y33723D01*
X259322Y33492D01*
X259206Y33261D01*
X259067Y32983D01*
X258882Y32705D01*
X258674Y32451D01*
X258651Y32428D01*
X258581Y32335D01*
X258443Y32219D01*
X258281Y32081D01*
X258072Y31895D01*
X257841Y31733D01*
X257563Y31572D01*
X257239Y31409D01*
X257193Y31386D01*
X257077Y31363D01*
X256915Y31294D01*
X256661Y31224D01*
X256383Y31155D01*
X256036Y31109D01*
X255666Y31062D01*
X255249Y31039D01*
X255064D01*
X254856Y31062D01*
X254601Y31086D01*
X254277Y31109D01*
X253953Y31178D01*
X253630Y31247D01*
X253306Y31363D01*
X253259Y31386D01*
X253167Y31433D01*
X253005Y31502D01*
X252820Y31595D01*
X252612Y31733D01*
X252380Y31895D01*
X252149Y32104D01*
X251917Y32312D01*
X251894Y32335D01*
X251825Y32428D01*
X251732Y32566D01*
X251616Y32728D01*
X251478Y32960D01*
X251362Y33214D01*
X251223Y33515D01*
X251107Y33839D01*
Y33885D01*
X251061Y34001D01*
X251038Y34186D01*
X250992Y34441D01*
X250945Y34742D01*
X250899Y35089D01*
X250876Y35459D01*
X250853Y35875D01*
Y35898D01*
Y35922D01*
Y36061D01*
X250876Y36269D01*
X250899Y36546D01*
X250922Y36870D01*
X250969Y37194D01*
X251038Y37565D01*
X251131Y37912D01*
X251154Y37958D01*
X251177Y38074D01*
X251246Y38236D01*
X251339Y38467D01*
X251455Y38698D01*
X251616Y38976D01*
X251778Y39254D01*
X251987Y39508D01*
X252010Y39531D01*
X252102Y39624D01*
X252218Y39740D01*
X252380Y39902D01*
X252588Y40064D01*
X252843Y40226D01*
X253120Y40411D01*
X253421Y40550D01*
X253468Y40573D01*
X253583Y40619D01*
X253745Y40665D01*
X254000Y40735D01*
X254301Y40804D01*
X254625Y40873D01*
X255018Y40897D01*
X255434Y40920D01*
X255620D01*
X255828Y40897D01*
D02*
G37*
%LPC*%
G36*
X-10160Y155828D02*
X-11721Y155518D01*
X-13044Y154634D01*
X-13928Y153311D01*
X-14238Y151750D01*
Y149250D01*
X-13928Y147689D01*
X-13044Y146366D01*
Y145634D01*
X-13928Y144311D01*
X-14238Y142750D01*
Y140250D01*
X-13928Y138689D01*
X-13044Y137366D01*
X-11721Y136482D01*
X-10160Y136172D01*
X-8599Y136482D01*
X-7276Y137366D01*
X-6392Y138689D01*
X-6175Y139779D01*
X-6045Y139866D01*
X-2786Y143126D01*
X-2786Y143126D01*
X-1375Y144536D01*
X-244Y144761D01*
X1244Y145756D01*
X2239Y147244D01*
X2588Y149000D01*
X2239Y150756D01*
X1244Y152244D01*
X-244Y153239D01*
X-2000Y153588D01*
X-3756Y153239D01*
X-4940Y152448D01*
X-5982Y152714D01*
X-6316Y152927D01*
X-6392Y153311D01*
X-7276Y154634D01*
X-8599Y155518D01*
X-10160Y155828D01*
D02*
G37*
G36*
X71275Y105871D02*
X68934Y105406D01*
X66949Y104080D01*
X65623Y102095D01*
X65157Y99754D01*
X65623Y97413D01*
X66949Y95428D01*
X68934Y94102D01*
X71275Y93637D01*
X73616Y94102D01*
X75601Y95428D01*
X76927Y97413D01*
X77392Y99754D01*
X76927Y102095D01*
X75601Y104080D01*
X73616Y105406D01*
X71275Y105871D01*
D02*
G37*
G36*
X132000Y90588D02*
X130244Y90239D01*
X130004Y90078D01*
X127675D01*
X126114Y89768D01*
X124791Y88884D01*
X124361Y88241D01*
X122352Y87081D01*
X114557Y82581D01*
X113361Y81531D01*
X112657Y80104D01*
X112553Y78517D01*
X113065Y77010D01*
X114114Y75813D01*
X115541Y75109D01*
X117129Y75005D01*
X118636Y75517D01*
X128595Y81267D01*
X129342Y81922D01*
X130004D01*
X130244Y81761D01*
X132000Y81412D01*
X133756Y81761D01*
X135244Y82756D01*
X136239Y84244D01*
X136588Y86000D01*
X136239Y87756D01*
X135244Y89244D01*
X133756Y90239D01*
X132000Y90588D01*
D02*
G37*
G36*
X97255Y90871D02*
X94914Y90406D01*
X92930Y89080D01*
X91604Y87095D01*
X91138Y84754D01*
X91604Y82413D01*
X92930Y80428D01*
X94914Y79102D01*
X97255Y78636D01*
X99597Y79102D01*
X101581Y80428D01*
X102907Y82413D01*
X103373Y84754D01*
X102907Y87095D01*
X101581Y89080D01*
X99597Y90406D01*
X97255Y90871D01*
D02*
G37*
G36*
X-130000Y72588D02*
X-131756Y72239D01*
X-132759Y71568D01*
X-135206Y70913D01*
X-136184Y71245D01*
X-137771Y71141D01*
X-139199Y70437D01*
X-140248Y69240D01*
X-140759Y67733D01*
X-140655Y66146D01*
X-139951Y64718D01*
X-138755Y63669D01*
X-137673Y63044D01*
X-137673Y63044D01*
X-137672Y63044D01*
X-136590Y62419D01*
X-135083Y61908D01*
X-133495Y62012D01*
X-132861Y61646D01*
X-132157Y60218D01*
X-130961Y59169D01*
X-129878Y58544D01*
X-129878Y58544D01*
X-129878Y58544D01*
X-128796Y57919D01*
X-127289Y57408D01*
X-125701Y57512D01*
X-124274Y58216D01*
X-123225Y59412D01*
X-122713Y60919D01*
X-122817Y62507D01*
X-123521Y63934D01*
X-124297Y64615D01*
X-125382Y68664D01*
X-125653Y69214D01*
X-125761Y69756D01*
X-126756Y71244D01*
X-128244Y72239D01*
X-130000Y72588D01*
D02*
G37*
G36*
X-10160Y84328D02*
X-11721Y84018D01*
X-13044Y83134D01*
X-13928Y81811D01*
X-14238Y80250D01*
Y77750D01*
X-13928Y76189D01*
X-13044Y74866D01*
X-13411Y73584D01*
X-13928Y72811D01*
X-14238Y71250D01*
Y70000D01*
X-14238Y70000D01*
X-14238Y70000D01*
Y68750D01*
X-13928Y67189D01*
X-13044Y65866D01*
X-11721Y64982D01*
X-10160Y64672D01*
X-8599Y64982D01*
X-7276Y65866D01*
X-6392Y67189D01*
X-6191Y68202D01*
X-3116Y71276D01*
X-2828Y71707D01*
X-2756Y71756D01*
X-1761Y73244D01*
X-1412Y75000D01*
X-1761Y76756D01*
X-2756Y78244D01*
X-4244Y79239D01*
X-5408Y79470D01*
X-6082Y80144D01*
Y80250D01*
X-6392Y81811D01*
X-7276Y83134D01*
X-8599Y84018D01*
X-10160Y84328D01*
D02*
G37*
G36*
X80250Y14238D02*
X77750D01*
X76189Y13928D01*
X74866Y13044D01*
X74134D01*
X72811Y13928D01*
X71250Y14238D01*
X68750D01*
X67189Y13928D01*
X65866Y13044D01*
X64982Y11721D01*
X64672Y10160D01*
X64982Y8599D01*
X65866Y7276D01*
X67189Y6392D01*
X68264Y6178D01*
X68366Y6026D01*
X71616Y2776D01*
X71616Y2776D01*
X72939Y1892D01*
X73094Y1861D01*
X73244Y1761D01*
X75000Y1412D01*
X76756Y1761D01*
X78244Y2756D01*
X79239Y4244D01*
X79335Y4727D01*
X80798Y6191D01*
X81811Y6392D01*
X83134Y7276D01*
X84018Y8599D01*
X84328Y10160D01*
X84018Y11721D01*
X83134Y13044D01*
X81811Y13928D01*
X80250Y14238D01*
D02*
G37*
G36*
X-75000Y-2412D02*
X-76756Y-2761D01*
X-78244Y-3756D01*
X-78293Y-3828D01*
X-78724Y-4116D01*
X-80798Y-6191D01*
X-81811Y-6392D01*
X-83134Y-7276D01*
X-84018Y-8599D01*
X-84328Y-10160D01*
X-84018Y-11721D01*
X-83134Y-13044D01*
X-81811Y-13928D01*
X-80250Y-14238D01*
X-79000D01*
X-79000Y-14238D01*
X-79000Y-14238D01*
X-77750D01*
X-76189Y-13928D01*
X-74866Y-13044D01*
X-74134D01*
X-72811Y-13928D01*
X-71250Y-14238D01*
X-70000D01*
X-70000Y-14238D01*
X-70000Y-14238D01*
X-68750D01*
X-67189Y-13928D01*
X-65866Y-13044D01*
X-64982Y-11721D01*
X-64672Y-10160D01*
X-64982Y-8599D01*
X-65866Y-7276D01*
X-67189Y-6392D01*
X-68202Y-6191D01*
X-70276Y-4116D01*
X-71599Y-3232D01*
X-72938Y-2966D01*
X-73244Y-2761D01*
X-75000Y-2412D01*
D02*
G37*
G36*
X127289Y-57408D02*
X125701Y-57512D01*
X124274Y-58216D01*
X123225Y-59412D01*
X122713Y-60919D01*
X122817Y-62507D01*
X123521Y-63934D01*
X124717Y-64983D01*
X125050Y-65175D01*
X125761Y-66244D01*
X125412Y-68000D01*
X125761Y-69756D01*
X126756Y-71244D01*
X128244Y-72239D01*
X130000Y-72588D01*
X131756Y-72239D01*
X133244Y-71244D01*
X133508Y-70850D01*
X134044D01*
X134044Y-70850D01*
X134665Y-70726D01*
X134677Y-70733D01*
X136184Y-71245D01*
X137771Y-71141D01*
X139199Y-70437D01*
X140248Y-69240D01*
X140759Y-67733D01*
X140655Y-66146D01*
X139951Y-64718D01*
X138755Y-63669D01*
X138137Y-63313D01*
X138049Y-63224D01*
X136726Y-62340D01*
X135834Y-62162D01*
X135083Y-61908D01*
X133495Y-62012D01*
X133366Y-62075D01*
X132884Y-61353D01*
X132884Y-61353D01*
X132554Y-61024D01*
X132157Y-60218D01*
X130961Y-59169D01*
X128796Y-57919D01*
X127289Y-57408D01*
D02*
G37*
G36*
X-124000Y-73412D02*
X-125756Y-73761D01*
X-127244Y-74756D01*
X-128239Y-76244D01*
X-128588Y-78000D01*
X-128355Y-79171D01*
X-129015Y-81636D01*
X-129791Y-82316D01*
X-130495Y-83743D01*
X-130599Y-85331D01*
X-130088Y-86838D01*
X-129039Y-88034D01*
X-127611Y-88738D01*
X-126024Y-88842D01*
X-124517Y-88331D01*
X-123434Y-87706D01*
X-123434Y-87706D01*
X-123434Y-87706D01*
X-122352Y-87081D01*
X-121155Y-86032D01*
X-120451Y-84604D01*
X-119817Y-84238D01*
X-118229Y-84342D01*
X-116722Y-83831D01*
X-114557Y-82581D01*
X-113361Y-81531D01*
X-112657Y-80104D01*
X-112553Y-78517D01*
X-113065Y-77010D01*
X-114114Y-75813D01*
X-115541Y-75109D01*
X-117129Y-75005D01*
X-118106Y-75337D01*
X-121077Y-74541D01*
X-122244Y-73761D01*
X-124000Y-73412D01*
D02*
G37*
G36*
X10160Y-64922D02*
X8599Y-65232D01*
X7276Y-66116D01*
X6392Y-67439D01*
X6082Y-69000D01*
Y-69594D01*
X5244Y-69761D01*
X3756Y-70756D01*
X2761Y-72244D01*
X2412Y-74000D01*
X2761Y-75756D01*
X3756Y-77244D01*
X5244Y-78239D01*
X5727Y-78335D01*
X6082Y-78689D01*
Y-79250D01*
X6082Y-79250D01*
Y-80500D01*
X6392Y-82061D01*
X7276Y-83384D01*
X8599Y-84268D01*
X10160Y-84578D01*
X11721Y-84268D01*
X13044Y-83384D01*
X13928Y-82061D01*
X14238Y-80500D01*
Y-78000D01*
X14238Y-78000D01*
Y-77000D01*
X13928Y-75439D01*
X13467Y-74750D01*
X13928Y-74061D01*
X14238Y-72500D01*
X14238Y-72500D01*
Y-69000D01*
X13928Y-67439D01*
X13044Y-66116D01*
X11721Y-65232D01*
X10160Y-64922D01*
D02*
G37*
G36*
X9633Y-136273D02*
X8072Y-136584D01*
X6749Y-137468D01*
X5865Y-138791D01*
X5651Y-139866D01*
X5499Y-139968D01*
X5499Y-139968D01*
X3821Y-141646D01*
X3244Y-141761D01*
X1756Y-142756D01*
X761Y-144244D01*
X412Y-146000D01*
X761Y-147756D01*
X1756Y-149244D01*
X3244Y-150239D01*
X3990Y-150387D01*
X5579Y-151977D01*
X5865Y-153413D01*
X6749Y-154736D01*
X8072Y-155620D01*
X9633Y-155930D01*
X11194Y-155620D01*
X12517Y-154736D01*
X13401Y-153413D01*
X13711Y-151852D01*
Y-149352D01*
X13401Y-147791D01*
X12517Y-146468D01*
X12884Y-145186D01*
X13401Y-144412D01*
X13711Y-142852D01*
Y-140352D01*
X13401Y-138791D01*
X12517Y-137468D01*
X11194Y-136584D01*
X9633Y-136273D01*
D02*
G37*
G36*
X266611Y39508D02*
X266565D01*
X266402Y39485D01*
X266194Y39462D01*
X265963Y39393D01*
X265940D01*
X265917Y39369D01*
X265778Y39323D01*
X265569Y39231D01*
X265338Y39092D01*
X265315D01*
X265292Y39046D01*
X265222Y38999D01*
X265130Y38953D01*
X264898Y38768D01*
X264644Y38536D01*
X264621Y38513D01*
X264575Y38490D01*
X264505Y38398D01*
X264436Y38305D01*
X264204Y38050D01*
X263927Y37727D01*
Y34163D01*
X263950Y34117D01*
X264042Y34024D01*
X264181Y33885D01*
X264343Y33700D01*
X264528Y33492D01*
X264736Y33284D01*
X264968Y33075D01*
X265199Y32890D01*
X265222Y32867D01*
X265315Y32821D01*
X265431Y32752D01*
X265593Y32682D01*
X265801Y32590D01*
X266009Y32520D01*
X266241Y32474D01*
X266495Y32451D01*
X266611D01*
X266726Y32474D01*
X266865Y32497D01*
X267212Y32566D01*
X267397Y32636D01*
X267560Y32728D01*
X267583Y32752D01*
X267629Y32775D01*
X267722Y32844D01*
X267837Y32937D01*
X267953Y33052D01*
X268069Y33191D01*
X268300Y33538D01*
X268323Y33561D01*
X268346Y33631D01*
X268393Y33723D01*
X268462Y33862D01*
X268531Y34024D01*
X268601Y34232D01*
X268717Y34649D01*
Y34672D01*
X268740Y34765D01*
X268763Y34880D01*
X268786Y35042D01*
X268809Y35227D01*
X268832Y35459D01*
X268855Y35922D01*
Y35945D01*
Y36037D01*
Y36176D01*
X268832Y36338D01*
Y36546D01*
X268809Y36755D01*
X268740Y37241D01*
Y37264D01*
X268717Y37356D01*
X268693Y37472D01*
X268647Y37634D01*
X268601Y37819D01*
X268531Y38004D01*
X268369Y38398D01*
Y38421D01*
X268323Y38490D01*
X268277Y38583D01*
X268184Y38698D01*
X267976Y38953D01*
X267675Y39207D01*
X267652Y39231D01*
X267606Y39254D01*
X267513Y39300D01*
X267397Y39369D01*
X267236Y39416D01*
X267050Y39462D01*
X266842Y39485D01*
X266611Y39508D01*
D02*
G37*
G36*
X291416Y35575D02*
X289750D01*
X289588Y35551D01*
X289403D01*
X289195Y35528D01*
X288801Y35459D01*
X288778D01*
X288732Y35436D01*
X288640Y35413D01*
X288524Y35366D01*
X288246Y35274D01*
X287992Y35112D01*
X287969D01*
X287945Y35066D01*
X287806Y34950D01*
X287645Y34788D01*
X287506Y34556D01*
Y34533D01*
X287482Y34510D01*
X287459Y34441D01*
X287436Y34348D01*
X287390Y34117D01*
X287367Y33839D01*
Y33816D01*
Y33723D01*
X287390Y33608D01*
X287413Y33446D01*
X287482Y33261D01*
X287552Y33075D01*
X287668Y32890D01*
X287806Y32728D01*
X287830Y32705D01*
X287899Y32659D01*
X287992Y32613D01*
X288130Y32543D01*
X288292Y32451D01*
X288501Y32404D01*
X288755Y32358D01*
X289033Y32335D01*
X289149D01*
X289264Y32358D01*
X289426Y32381D01*
X289611Y32404D01*
X289820Y32474D01*
X290028Y32543D01*
X290236Y32659D01*
X290259Y32682D01*
X290329Y32728D01*
X290444Y32798D01*
X290583Y32913D01*
X290768Y33052D01*
X290977Y33214D01*
X291185Y33423D01*
X291416Y33654D01*
Y35575D01*
D02*
G37*
G36*
X309002Y39624D02*
X308771D01*
X308632Y39601D01*
X308285Y39531D01*
X307915Y39393D01*
X307892D01*
X307845Y39346D01*
X307753Y39300D01*
X307637Y39231D01*
X307382Y39022D01*
X307128Y38768D01*
X307105Y38745D01*
X307082Y38698D01*
X307012Y38629D01*
X306966Y38513D01*
X306873Y38398D01*
X306804Y38236D01*
X306642Y37889D01*
Y37865D01*
X306619Y37796D01*
X306596Y37703D01*
X306572Y37565D01*
X306526Y37403D01*
X306503Y37241D01*
X306480Y36847D01*
X311385D01*
Y36870D01*
Y36917D01*
Y36963D01*
Y37055D01*
X311362Y37287D01*
X311316Y37588D01*
X311247Y37912D01*
X311131Y38259D01*
X310992Y38583D01*
X310784Y38884D01*
X310761Y38907D01*
X310668Y38999D01*
X310529Y39115D01*
X310344Y39254D01*
X310090Y39393D01*
X309789Y39508D01*
X309419Y39601D01*
X309002Y39624D01*
D02*
G37*
G36*
X255365Y39531D02*
X255249D01*
X255110Y39508D01*
X254925D01*
X254740Y39462D01*
X254509Y39416D01*
X254301Y39346D01*
X254092Y39254D01*
X254069D01*
X254000Y39207D01*
X253907Y39138D01*
X253792Y39069D01*
X253514Y38837D01*
X253236Y38513D01*
X253213Y38490D01*
X253190Y38421D01*
X253120Y38328D01*
X253051Y38212D01*
X252959Y38050D01*
X252866Y37842D01*
X252797Y37634D01*
X252727Y37403D01*
Y37380D01*
X252704Y37287D01*
X252681Y37148D01*
X252658Y36986D01*
X252612Y36778D01*
X252588Y36523D01*
X252565Y36269D01*
Y35991D01*
Y35968D01*
Y35875D01*
Y35713D01*
X252588Y35551D01*
Y35320D01*
X252612Y35089D01*
X252681Y34603D01*
Y34580D01*
X252704Y34487D01*
X252750Y34371D01*
X252797Y34209D01*
X252935Y33862D01*
X253144Y33469D01*
X253167Y33446D01*
X253213Y33400D01*
X253283Y33307D01*
X253375Y33191D01*
X253491Y33075D01*
X253653Y32937D01*
X254000Y32705D01*
X254023D01*
X254092Y32659D01*
X254208Y32613D01*
X254370Y32566D01*
X254555Y32520D01*
X254787Y32474D01*
X255041Y32451D01*
X255319Y32428D01*
X255434D01*
X255573Y32451D01*
X255758D01*
X255967Y32497D01*
X256175Y32543D01*
X256383Y32590D01*
X256591Y32682D01*
X256615Y32705D01*
X256684Y32728D01*
X256777Y32798D01*
X256892Y32867D01*
X257193Y33099D01*
X257471Y33400D01*
X257494Y33423D01*
X257517Y33492D01*
X257586Y33585D01*
X257656Y33723D01*
X257748Y33885D01*
X257841Y34070D01*
X257910Y34279D01*
X257980Y34510D01*
Y34533D01*
X258003Y34626D01*
X258026Y34765D01*
X258072Y34950D01*
X258095Y35158D01*
X258119Y35389D01*
X258142Y35945D01*
Y35968D01*
Y36061D01*
Y36223D01*
X258119Y36408D01*
Y36616D01*
X258095Y36847D01*
X258003Y37333D01*
Y37356D01*
X257980Y37449D01*
X257934Y37565D01*
X257887Y37727D01*
X257748Y38097D01*
X257540Y38467D01*
X257517Y38490D01*
X257494Y38560D01*
X257425Y38629D01*
X257332Y38745D01*
X257216Y38860D01*
X257054Y38999D01*
X256892Y39115D01*
X256707Y39231D01*
X256684Y39254D01*
X256615Y39277D01*
X256499Y39323D01*
X256337Y39393D01*
X256152Y39439D01*
X255920Y39485D01*
X255666Y39508D01*
X255365Y39531D01*
D02*
G37*
%LPD*%
D16*
X79000Y10160D02*
D03*
Y-10160D02*
D03*
X70000Y10160D02*
D03*
Y-10160D02*
D03*
X-79000D02*
D03*
Y10160D02*
D03*
X-70000Y-10160D02*
D03*
Y10160D02*
D03*
D17*
X10160Y-79250D02*
D03*
X-10160D02*
D03*
X10160Y-70250D02*
D03*
X-10160D02*
D03*
X-10160Y79000D02*
D03*
X10160D02*
D03*
X-10160Y70000D02*
D03*
X10160D02*
D03*
X9633Y-150602D02*
D03*
X-10687D02*
D03*
X9633Y-141602D02*
D03*
X-10687D02*
D03*
X-10160Y150500D02*
D03*
X10160D02*
D03*
X-10160Y141500D02*
D03*
X10160D02*
D03*
D18*
X125473Y84174D02*
D03*
X135633Y66576D02*
D03*
X117679Y79674D02*
D03*
X127839Y62076D02*
D03*
X-125473Y-84174D02*
D03*
X-135633Y-66576D02*
D03*
X-117679Y-79674D02*
D03*
X-127839Y-62076D02*
D03*
D19*
X135633Y-66576D02*
D03*
X125473Y-84174D02*
D03*
X127839Y-62076D02*
D03*
X117679Y-79674D02*
D03*
X-135633Y66576D02*
D03*
X-125473Y84174D02*
D03*
X-127839Y62076D02*
D03*
X-117679Y79674D02*
D03*
D24*
X-5670Y146010D02*
X-2679Y149000D01*
X-8929Y142750D02*
X-5670Y146010D01*
X-10160Y149250D02*
X-8910D01*
X-6000Y146340D01*
X-10160Y149250D02*
Y150500D01*
X-2679Y149000D02*
X-2000D01*
X-75840Y-7000D02*
X-75000D01*
X-79000Y-10160D02*
X-75840Y-7000D01*
X-75000D02*
X-73160D01*
X-70000Y-10160D01*
X127675Y86000D02*
X132000D01*
X-6705Y75000D02*
X-6000D01*
X-10160Y77750D02*
Y79000D01*
Y77750D02*
X-9455D01*
X-6705Y75000D01*
X71250Y8910D02*
Y10160D01*
X74500Y5660D02*
X79000Y10160D01*
X130000Y-68000D02*
Y-64237D01*
X8383Y-142852D02*
X9633D01*
X5793Y-146423D02*
Y-145442D01*
X8722Y-149352D02*
X9633D01*
X-10160Y142750D02*
X-8929D01*
X-125473Y-84174D02*
X-123831Y-78045D01*
X-6000Y74160D02*
Y75000D01*
X-123831Y-78045D02*
X-123826Y-78027D01*
X-123831Y-78045D02*
Y-78045D01*
X-123831Y-78045D02*
X-123831Y-78045D01*
X-10160Y70000D02*
X-6000Y74160D01*
X70000Y10160D02*
X71250D01*
Y8910D02*
X74500Y5660D01*
X135165Y-66108D02*
X135633Y-66576D01*
X134707Y-66108D02*
X135165D01*
X134044Y-66771D02*
X134707Y-66108D01*
X131229Y-66771D02*
X134044D01*
X130000Y-68000D02*
X131229Y-66771D01*
X127839Y-62076D02*
X130000Y-64237D01*
X9633Y-150602D02*
Y-149352D01*
X5793Y-146423D02*
X8722Y-149352D01*
X9633Y-142852D02*
Y-141602D01*
X5793Y-145442D02*
X8383Y-142852D01*
X-130000Y68000D02*
X-129321Y67608D01*
X-130101Y68059D02*
X-130000Y68000D01*
X10160Y-72500D02*
Y-70250D01*
X7910Y-74750D02*
X10160Y-72500D01*
X10160Y-79250D02*
Y-77000D01*
X7910Y-74750D02*
X10160Y-77000D01*
X-123826Y-78027D02*
X-117679Y-79674D01*
X-135633Y66576D02*
X-130101Y68059D01*
X-129321Y67608D02*
X-127839Y62076D01*
X-10160Y141500D02*
Y142750D01*
X117679Y79674D02*
X125473Y84174D01*
X117679Y79674D02*
X121862Y82089D01*
D25*
X-2000Y149000D02*
D03*
X-75000Y-7000D02*
D03*
X132000Y86000D02*
D03*
X4000Y75000D02*
D03*
X-6000D02*
D03*
X75000Y6000D02*
D03*
X130000Y-68000D02*
D03*
X5000Y-146000D02*
D03*
X7000Y-74000D02*
D03*
X-124000Y-78000D02*
D03*
X-130000Y68000D02*
D03*
D26*
X71275Y99754D02*
D03*
X97255Y84754D02*
D03*
M02*
