G04*
G04 #@! TF.GenerationSoftware,Altium Limited,Altium Designer,20.1.14 (287)*
G04*
G04 Layer_Physical_Order=2*
G04 Layer_Color=16711680*
%FSLAX44Y44*%
%MOMM*%
G71*
G04*
G04 #@! TF.SameCoordinates,555A517A-9F76-4A69-B8FD-E90865B7C856*
G04*
G04*
G04 #@! TF.FilePolarity,Positive*
G04*
G01*
G75*
%ADD24C,0.5000*%
%ADD25C,0.6000*%
%ADD26C,0.9000*%
G04:AMPARAMS|DCode=27|XSize=0.8mm|YSize=1mm|CornerRadius=0.2mm|HoleSize=0mm|Usage=FLASHONLY|Rotation=240.000|XOffset=0mm|YOffset=0mm|HoleType=Round|Shape=RoundedRectangle|*
%AMROUNDEDRECTD27*
21,1,0.8000,0.6000,0,0,240.0*
21,1,0.4000,1.0000,0,0,240.0*
1,1,0.4000,-0.3598,-0.0232*
1,1,0.4000,-0.1598,0.3232*
1,1,0.4000,0.3598,0.0232*
1,1,0.4000,0.1598,-0.3232*
%
%ADD27ROUNDEDRECTD27*%
G04:AMPARAMS|DCode=28|XSize=0.7mm|YSize=1.5mm|CornerRadius=0.175mm|HoleSize=0mm|Usage=FLASHONLY|Rotation=330.000|XOffset=0mm|YOffset=0mm|HoleType=Round|Shape=RoundedRectangle|*
%AMROUNDEDRECTD28*
21,1,0.7000,1.1500,0,0,330.0*
21,1,0.3500,1.5000,0,0,330.0*
1,1,0.3500,-0.1360,-0.5855*
1,1,0.3500,-0.4391,-0.4105*
1,1,0.3500,0.1360,0.5855*
1,1,0.3500,0.4391,0.4105*
%
%ADD28ROUNDEDRECTD28*%
G04:AMPARAMS|DCode=29|XSize=2.5mm|YSize=5.1mm|CornerRadius=0.625mm|HoleSize=0mm|Usage=FLASHONLY|Rotation=0.000|XOffset=0mm|YOffset=0mm|HoleType=Round|Shape=RoundedRectangle|*
%AMROUNDEDRECTD29*
21,1,2.5000,3.8500,0,0,0.0*
21,1,1.2500,5.1000,0,0,0.0*
1,1,1.2500,0.6250,-1.9250*
1,1,1.2500,-0.6250,-1.9250*
1,1,1.2500,-0.6250,1.9250*
1,1,1.2500,0.6250,1.9250*
%
%ADD29ROUNDEDRECTD29*%
%ADD30C,17.8000*%
%ADD31C,0.2000*%
G36*
X153846Y88823D02*
Y-88823D01*
X0Y-177645D01*
X-153846Y-88823D01*
Y88823D01*
X0Y177645D01*
X153846Y88823D01*
D02*
G37*
G36*
X349473Y15897D02*
X349496D01*
X349566Y15874D01*
X349681Y15850D01*
X349797Y15827D01*
X349820D01*
X349913Y15804D01*
X350005Y15781D01*
X350121Y15735D01*
X350144D01*
X350213Y15712D01*
X350283Y15688D01*
X350329Y15642D01*
X350352D01*
X350375Y15619D01*
X350422Y15550D01*
X350445Y15526D01*
Y15434D01*
Y15411D01*
X350468Y15388D01*
Y15318D01*
Y15226D01*
Y15202D01*
X350491Y15133D01*
Y15041D01*
Y14879D01*
Y14832D01*
Y14740D01*
Y14624D01*
X350468Y14508D01*
Y14485D01*
Y14439D01*
X350422Y14277D01*
Y14254D01*
X350399Y14231D01*
X350352Y14138D01*
X350329Y14115D01*
X350237Y14092D01*
X350167D01*
X350028Y14138D01*
X350005D01*
X349959Y14161D01*
X349866Y14208D01*
X349774Y14231D01*
X349751D01*
X349681Y14254D01*
X349589Y14300D01*
X349450Y14323D01*
X349427D01*
X349334Y14346D01*
X349195Y14369D01*
X349010D01*
X348895Y14346D01*
X348756Y14323D01*
X348571Y14254D01*
X348524Y14231D01*
X348432Y14184D01*
X348270Y14069D01*
X348061Y13930D01*
X348015Y13884D01*
X347900Y13768D01*
X347714Y13560D01*
X347506Y13305D01*
X347483Y13282D01*
X347460Y13236D01*
X347390Y13166D01*
X347321Y13051D01*
X347229Y12912D01*
X347136Y12750D01*
X346881Y12379D01*
Y6456D01*
Y6433D01*
Y6410D01*
X346835Y6317D01*
X346812Y6294D01*
X346696Y6224D01*
X346673D01*
X346627Y6201D01*
X346557D01*
X346442Y6178D01*
X346349D01*
X346210Y6155D01*
X345771D01*
X345632Y6178D01*
X345609D01*
X345562Y6201D01*
X345401Y6224D01*
X345377D01*
X345354Y6248D01*
X345262Y6317D01*
Y6363D01*
X345238Y6456D01*
Y15457D01*
Y15480D01*
Y15503D01*
X345262Y15596D01*
X345285Y15619D01*
X345331Y15665D01*
X345377Y15688D01*
X345401D01*
X345447Y15712D01*
X345516Y15735D01*
X345609Y15758D01*
X345632D01*
X345701Y15781D01*
X346210D01*
X346326Y15758D01*
X346349D01*
X346419Y15735D01*
X346488Y15712D01*
X346557Y15688D01*
X346581D01*
X346604Y15665D01*
X346650Y15642D01*
X346673Y15596D01*
X346696Y15573D01*
X346719Y15457D01*
Y14138D01*
X346743Y14161D01*
X346789Y14231D01*
X346858Y14323D01*
X346951Y14462D01*
X347159Y14740D01*
X347414Y15017D01*
X347437Y15041D01*
X347460Y15087D01*
X347622Y15226D01*
X347807Y15388D01*
X348015Y15550D01*
X348038D01*
X348061Y15573D01*
X348200Y15665D01*
X348385Y15758D01*
X348594Y15827D01*
X348617D01*
X348640Y15850D01*
X348779Y15874D01*
X348964Y15897D01*
X349172Y15920D01*
X349357D01*
X349473Y15897D01*
D02*
G37*
G36*
X296923Y15897D02*
X297132Y15874D01*
X297363Y15850D01*
X297618Y15781D01*
X297849Y15712D01*
X298080Y15596D01*
X298104Y15573D01*
X298173Y15550D01*
X298289Y15480D01*
X298428Y15388D01*
X298566Y15272D01*
X298728Y15133D01*
X298890Y14971D01*
X299029Y14786D01*
X299052Y14763D01*
X299098Y14693D01*
X299145Y14578D01*
X299237Y14439D01*
X299330Y14277D01*
X299399Y14069D01*
X299492Y13837D01*
X299561Y13583D01*
Y13560D01*
X299584Y13467D01*
X299608Y13328D01*
X299654Y13143D01*
X299677Y12935D01*
X299700Y12703D01*
X299723Y12148D01*
Y6456D01*
Y6433D01*
Y6410D01*
X299677Y6317D01*
X299654Y6294D01*
X299538Y6224D01*
X299515D01*
X299469Y6201D01*
X299399D01*
X299284Y6178D01*
X299168D01*
X299052Y6155D01*
X298613D01*
X298474Y6178D01*
X298451D01*
X298381Y6201D01*
X298289D01*
X298219Y6224D01*
X298196D01*
X298173Y6248D01*
X298080Y6317D01*
Y6363D01*
X298057Y6456D01*
Y11917D01*
Y11940D01*
Y12009D01*
Y12125D01*
X298034Y12264D01*
X298011Y12611D01*
X297941Y12958D01*
Y12981D01*
X297918Y13051D01*
X297895Y13120D01*
X297872Y13236D01*
X297756Y13513D01*
X297618Y13768D01*
Y13791D01*
X297571Y13837D01*
X297479Y13976D01*
X297294Y14138D01*
X297062Y14300D01*
X297039D01*
X296993Y14323D01*
X296923Y14369D01*
X296831Y14393D01*
X296576Y14462D01*
X296276Y14485D01*
X296183D01*
X296067Y14462D01*
X295905Y14439D01*
X295743Y14369D01*
X295535Y14300D01*
X295327Y14184D01*
X295119Y14022D01*
X295095Y13999D01*
X295026Y13953D01*
X294910Y13837D01*
X294748Y13698D01*
X294563Y13513D01*
X294355Y13305D01*
X294123Y13051D01*
X293869Y12750D01*
Y6456D01*
Y6433D01*
Y6410D01*
X293823Y6317D01*
X293800Y6294D01*
X293684Y6224D01*
X293661D01*
X293615Y6201D01*
X293545D01*
X293429Y6178D01*
X293314D01*
X293198Y6155D01*
X292782D01*
X292643Y6178D01*
X292619D01*
X292550Y6201D01*
X292458D01*
X292388Y6224D01*
X292365D01*
X292342Y6248D01*
X292249Y6317D01*
Y6363D01*
X292226Y6456D01*
Y11917D01*
Y11940D01*
Y12009D01*
Y12125D01*
X292203Y12264D01*
X292180Y12611D01*
X292110Y12958D01*
Y12981D01*
X292087Y13051D01*
X292064Y13120D01*
X292018Y13236D01*
X291925Y13513D01*
X291763Y13768D01*
Y13791D01*
X291717Y13837D01*
X291625Y13976D01*
X291439Y14138D01*
X291208Y14300D01*
X291185D01*
X291162Y14323D01*
X291092Y14369D01*
X291000Y14393D01*
X290745Y14462D01*
X290421Y14485D01*
X290329D01*
X290213Y14462D01*
X290051Y14439D01*
X289889Y14369D01*
X289681Y14300D01*
X289473Y14184D01*
X289264Y14022D01*
X289241Y13999D01*
X289172Y13953D01*
X289056Y13837D01*
X288894Y13698D01*
X288709Y13513D01*
X288501Y13305D01*
X288269Y13051D01*
X288015Y12750D01*
Y6456D01*
Y6433D01*
Y6410D01*
X287969Y6317D01*
X287945Y6294D01*
X287830Y6224D01*
X287806D01*
X287760Y6201D01*
X287691D01*
X287575Y6178D01*
X287482D01*
X287344Y6155D01*
X286904D01*
X286765Y6178D01*
X286742D01*
X286696Y6201D01*
X286534Y6224D01*
X286511D01*
X286488Y6248D01*
X286395Y6317D01*
Y6363D01*
X286372Y6456D01*
Y15457D01*
Y15480D01*
Y15503D01*
X286395Y15596D01*
X286418Y15619D01*
X286464Y15665D01*
X286511Y15688D01*
X286534D01*
X286580Y15712D01*
X286649Y15735D01*
X286742Y15758D01*
X286765D01*
X286835Y15781D01*
X287344D01*
X287459Y15758D01*
X287482D01*
X287552Y15735D01*
X287621Y15712D01*
X287691Y15688D01*
X287714D01*
X287737Y15665D01*
X287783Y15642D01*
X287806Y15596D01*
X287830Y15573D01*
X287853Y15457D01*
Y14277D01*
X287876Y14323D01*
X287992Y14416D01*
X288130Y14555D01*
X288316Y14740D01*
X288524Y14948D01*
X288778Y15156D01*
X289033Y15341D01*
X289310Y15503D01*
X289334Y15526D01*
X289426Y15573D01*
X289588Y15642D01*
X289773Y15712D01*
X289982Y15781D01*
X290236Y15850D01*
X290491Y15897D01*
X290768Y15920D01*
X290977D01*
X291092Y15897D01*
X291416Y15874D01*
X291763Y15781D01*
X291786D01*
X291833Y15758D01*
X291925Y15735D01*
X292041Y15688D01*
X292295Y15573D01*
X292550Y15411D01*
X292573D01*
X292619Y15365D01*
X292758Y15249D01*
X292943Y15087D01*
X293129Y14855D01*
X293152Y14832D01*
X293175Y14809D01*
X293221Y14740D01*
X293267Y14647D01*
X293406Y14416D01*
X293545Y14138D01*
X293568Y14161D01*
X293615Y14231D01*
X293707Y14300D01*
X293823Y14416D01*
X294077Y14693D01*
X294378Y14948D01*
X294401Y14971D01*
X294447Y15017D01*
X294540Y15064D01*
X294633Y15156D01*
X294887Y15318D01*
X295165Y15503D01*
X295188D01*
X295234Y15550D01*
X295304Y15573D01*
X295396Y15619D01*
X295651Y15712D01*
X295905Y15804D01*
X295928D01*
X295975Y15827D01*
X296044Y15850D01*
X296137Y15874D01*
X296345Y15897D01*
X296623Y15920D01*
X296761D01*
X296923Y15897D01*
D02*
G37*
G36*
X332674Y15758D02*
X332813Y15735D01*
X332836D01*
X332905Y15712D01*
X332998Y15688D01*
X333067Y15642D01*
X333090Y15619D01*
X333113Y15596D01*
X333137Y15526D01*
X333160Y15457D01*
Y15434D01*
Y15388D01*
X333137Y15272D01*
X333090Y15156D01*
X329874Y6224D01*
X328671Y2939D01*
X328647Y2916D01*
X328601Y2846D01*
X328509Y2754D01*
X328347Y2684D01*
X328300Y2661D01*
X328162Y2638D01*
X328069Y2615D01*
X327953D01*
X327791Y2591D01*
X327467D01*
X327329Y2615D01*
X327190Y2638D01*
X327167D01*
X327120Y2661D01*
X326958Y2730D01*
X326935D01*
X326912Y2777D01*
X326866Y2800D01*
X326843Y2869D01*
Y2892D01*
Y2939D01*
X326866Y3008D01*
X326912Y3101D01*
X328139Y6224D01*
X328092Y6248D01*
X328046Y6294D01*
X327976Y6340D01*
Y6363D01*
X327930Y6410D01*
X327861Y6525D01*
X324668Y15133D01*
X324644Y15179D01*
X324621Y15249D01*
X324598Y15365D01*
X324575Y15457D01*
Y15480D01*
Y15526D01*
X324598Y15596D01*
X324644Y15642D01*
X324668Y15665D01*
X324714Y15688D01*
X324806Y15712D01*
X324922Y15735D01*
X324945D01*
X325061Y15758D01*
X325200Y15781D01*
X325732D01*
X325871Y15758D01*
X325894D01*
X325963Y15735D01*
X326056Y15712D01*
X326125Y15688D01*
X326148D01*
X326195Y15665D01*
X326241Y15642D01*
X326287Y15573D01*
Y15550D01*
X326310Y15526D01*
X326380Y15388D01*
X328948Y8168D01*
X328971D01*
X331470Y15411D01*
Y15434D01*
X331494Y15526D01*
X331540Y15596D01*
X331586Y15665D01*
X331609D01*
X331656Y15688D01*
X331725Y15712D01*
X331841Y15735D01*
X331887D01*
X331980Y15758D01*
X332142Y15781D01*
X332512D01*
X332674Y15758D01*
D02*
G37*
G36*
X308655Y19206D02*
X308794Y19182D01*
X308817D01*
X308887Y19159D01*
X308979Y19136D01*
X309049Y19113D01*
X309072D01*
X309118Y19090D01*
X309164Y19067D01*
X309210Y19021D01*
X309234Y18997D01*
X309257Y18905D01*
Y7705D01*
X313931Y7705D01*
X314047Y7659D01*
X314070D01*
X314093Y7636D01*
X314162Y7520D01*
Y7497D01*
X314185Y7451D01*
X314209Y7381D01*
X314232Y7289D01*
Y7266D01*
X314255Y7196D01*
Y7104D01*
Y6965D01*
Y6942D01*
Y6849D01*
Y6733D01*
X314232Y6618D01*
Y6595D01*
X314209Y6548D01*
X314162Y6386D01*
Y6363D01*
X314139Y6340D01*
X314047Y6248D01*
X314000D01*
X313885Y6224D01*
X308123Y6224D01*
X308030Y6248D01*
X307892Y6294D01*
X307729Y6363D01*
X307706Y6386D01*
X307637Y6502D01*
X307568Y6664D01*
X307544Y6919D01*
Y18905D01*
Y18928D01*
Y18951D01*
X307568Y19021D01*
Y19044D01*
X307614Y19067D01*
X307706Y19113D01*
X307729D01*
X307776Y19136D01*
X307868Y19159D01*
X307984Y19182D01*
X308007D01*
X308100Y19206D01*
X308239Y19229D01*
X308539D01*
X308655Y19206D01*
D02*
G37*
G36*
X244374Y19136D02*
X244675Y19113D01*
X244999Y19067D01*
X245299Y18997D01*
X245600Y18928D01*
X245623D01*
X245716Y18882D01*
X245855Y18835D01*
X246040Y18766D01*
X246433Y18558D01*
X246642Y18419D01*
X246827Y18280D01*
X246850Y18257D01*
X246919Y18211D01*
X247012Y18118D01*
X247104Y18002D01*
X247243Y17840D01*
X247359Y17655D01*
X247474Y17470D01*
X247590Y17239D01*
X247613Y17216D01*
X247637Y17123D01*
X247683Y17007D01*
X247729Y16845D01*
X247775Y16637D01*
X247799Y16406D01*
X247845Y16151D01*
Y15874D01*
Y15850D01*
Y15804D01*
Y15712D01*
X247822Y15596D01*
X247799Y15318D01*
X247729Y14994D01*
Y14971D01*
X247706Y14925D01*
X247683Y14832D01*
X247637Y14740D01*
X247544Y14485D01*
X247382Y14208D01*
Y14184D01*
X247336Y14161D01*
X247243Y13999D01*
X247081Y13791D01*
X246850Y13583D01*
X246827D01*
X246803Y13536D01*
X246734Y13490D01*
X246642Y13421D01*
X246410Y13282D01*
X246109Y13120D01*
X246132D01*
X246202Y13097D01*
X246294Y13074D01*
X246433Y13051D01*
X246757Y12935D01*
X247104Y12750D01*
X247127D01*
X247174Y12703D01*
X247266Y12657D01*
X247382Y12565D01*
X247637Y12356D01*
X247891Y12079D01*
X247914Y12055D01*
X247960Y12009D01*
X248007Y11917D01*
X248099Y11801D01*
X248169Y11662D01*
X248261Y11500D01*
X248446Y11107D01*
Y11084D01*
X248470Y11014D01*
X248516Y10899D01*
X248562Y10760D01*
X248585Y10575D01*
X248631Y10389D01*
X248655Y9927D01*
Y9904D01*
Y9811D01*
Y9695D01*
X248631Y9556D01*
X248608Y9371D01*
X248585Y9186D01*
X248493Y8793D01*
Y8770D01*
X248470Y8700D01*
X248423Y8608D01*
X248377Y8492D01*
X248238Y8191D01*
X248053Y7867D01*
X248030Y7844D01*
X248007Y7798D01*
X247937Y7728D01*
X247868Y7613D01*
X247660Y7381D01*
X247382Y7150D01*
X247359Y7127D01*
X247313Y7104D01*
X247220Y7034D01*
X247127Y6965D01*
X246989Y6895D01*
X246827Y6803D01*
X246479Y6641D01*
X246456D01*
X246387Y6618D01*
X246294Y6571D01*
X246156Y6525D01*
X246017Y6479D01*
X245832Y6410D01*
X245415Y6317D01*
X245392D01*
X245322Y6294D01*
X245207D01*
X245045Y6271D01*
X244860Y6248D01*
X244628D01*
X244397Y6224D01*
X240695D01*
X240602Y6248D01*
X240463Y6294D01*
X240301Y6363D01*
X240278Y6386D01*
X240209Y6502D01*
X240139Y6664D01*
X240116Y6919D01*
Y18442D01*
Y18465D01*
Y18511D01*
X240139Y18650D01*
X240186Y18835D01*
X240301Y18997D01*
X240348Y19021D01*
X240440Y19090D01*
X240579Y19136D01*
X240741Y19159D01*
X244119D01*
X244374Y19136D01*
D02*
G37*
G36*
X319762Y15897D02*
X320017Y15874D01*
X320294Y15827D01*
X320572Y15758D01*
X320826Y15688D01*
X320849D01*
X320942Y15642D01*
X321058Y15596D01*
X321220Y15526D01*
X321590Y15318D01*
X321775Y15179D01*
X321937Y15041D01*
X321960Y15017D01*
X322006Y14971D01*
X322076Y14879D01*
X322169Y14763D01*
X322261Y14601D01*
X322377Y14416D01*
X322469Y14208D01*
X322539Y13976D01*
Y13953D01*
X322562Y13860D01*
X322608Y13745D01*
X322654Y13560D01*
X322678Y13351D01*
X322724Y13097D01*
X322747Y12819D01*
Y12518D01*
Y6433D01*
Y6410D01*
Y6363D01*
X322701Y6317D01*
X322654Y6271D01*
X322631D01*
X322608Y6248D01*
X322539Y6224D01*
X322423Y6201D01*
X322400D01*
X322331Y6178D01*
X322192Y6155D01*
X321891D01*
X321752Y6178D01*
X321613Y6201D01*
X321590D01*
X321521Y6224D01*
X321451Y6248D01*
X321382Y6271D01*
X321359Y6317D01*
X321335Y6363D01*
X321312Y6433D01*
Y7335D01*
X321289Y7312D01*
X321220Y7243D01*
X321081Y7127D01*
X320942Y6988D01*
X320734Y6826D01*
X320503Y6664D01*
X320271Y6502D01*
X319993Y6363D01*
X319970Y6340D01*
X319878Y6317D01*
X319716Y6271D01*
X319531Y6201D01*
X319299Y6132D01*
X319045Y6086D01*
X318767Y6062D01*
X318466Y6039D01*
X318212D01*
X318027Y6062D01*
X317841Y6086D01*
X317610Y6109D01*
X317170Y6224D01*
X317147D01*
X317078Y6248D01*
X316962Y6294D01*
X316846Y6340D01*
X316523Y6502D01*
X316199Y6733D01*
X316175Y6757D01*
X316129Y6803D01*
X316060Y6872D01*
X315967Y6988D01*
X315875Y7104D01*
X315759Y7266D01*
X315574Y7613D01*
Y7636D01*
X315551Y7705D01*
X315504Y7798D01*
X315481Y7960D01*
X315435Y8122D01*
X315389Y8307D01*
X315366Y8770D01*
Y8793D01*
Y8885D01*
X315389Y9024D01*
X315412Y9209D01*
X315435Y9418D01*
X315504Y9626D01*
X315574Y9857D01*
X315666Y10066D01*
X315690Y10089D01*
X315713Y10158D01*
X315782Y10274D01*
X315898Y10413D01*
X316013Y10552D01*
X316175Y10713D01*
X316337Y10875D01*
X316546Y11014D01*
X316569Y11037D01*
X316661Y11084D01*
X316777Y11153D01*
X316939Y11222D01*
X317147Y11315D01*
X317379Y11408D01*
X317656Y11500D01*
X317957Y11570D01*
X318003D01*
X318119Y11593D01*
X318281Y11639D01*
X318512Y11662D01*
X318790Y11709D01*
X319114Y11732D01*
X319484Y11755D01*
X321104D01*
Y12449D01*
Y12472D01*
Y12542D01*
Y12634D01*
X321081Y12750D01*
X321058Y13051D01*
X320988Y13351D01*
Y13375D01*
X320965Y13421D01*
X320942Y13490D01*
X320896Y13583D01*
X320780Y13814D01*
X320618Y14022D01*
Y14045D01*
X320572Y14069D01*
X320456Y14184D01*
X320248Y14323D01*
X319993Y14439D01*
X319970D01*
X319924Y14462D01*
X319831Y14485D01*
X319739Y14508D01*
X319600Y14532D01*
X319438Y14555D01*
X319045Y14578D01*
X318813D01*
X318674Y14555D01*
X318304Y14508D01*
X317934Y14416D01*
X317911D01*
X317865Y14393D01*
X317772Y14369D01*
X317656Y14323D01*
X317379Y14231D01*
X317101Y14092D01*
X317078D01*
X317031Y14069D01*
X316962Y14045D01*
X316893Y13999D01*
X316684Y13907D01*
X316476Y13791D01*
X316430Y13768D01*
X316337Y13722D01*
X316222Y13675D01*
X316129Y13652D01*
X316083D01*
X315967Y13675D01*
X315944Y13698D01*
X315875Y13791D01*
Y13814D01*
X315851Y13860D01*
X315805Y13999D01*
Y14022D01*
Y14092D01*
Y14184D01*
Y14277D01*
Y14300D01*
Y14323D01*
Y14416D01*
Y14555D01*
X315828Y14670D01*
Y14693D01*
X315875Y14763D01*
X315921Y14855D01*
X315990Y14948D01*
X316013Y14971D01*
X316106Y15041D01*
X316245Y15133D01*
X316453Y15249D01*
X316476D01*
X316523Y15272D01*
X316592Y15318D01*
X316684Y15365D01*
X316916Y15457D01*
X317217Y15573D01*
X317240D01*
X317286Y15596D01*
X317379Y15619D01*
X317494Y15665D01*
X317633Y15688D01*
X317795Y15735D01*
X318165Y15804D01*
X318188D01*
X318258Y15827D01*
X318351Y15850D01*
X318489Y15874D01*
X318628D01*
X318813Y15897D01*
X319184Y15920D01*
X319531D01*
X319762Y15897D01*
D02*
G37*
G36*
X270313Y18164D02*
X270336D01*
X270406Y18141D01*
X270498Y18118D01*
X270568Y18095D01*
X270591D01*
X270614Y18072D01*
X270707Y17979D01*
X270730Y17956D01*
X270753Y17864D01*
Y15735D01*
X273090D01*
X273182Y15688D01*
X273206D01*
X273229Y15665D01*
X273298Y15550D01*
Y15526D01*
X273321Y15503D01*
X273344Y15434D01*
X273368Y15341D01*
Y15318D01*
X273391Y15272D01*
Y15156D01*
Y15041D01*
Y15017D01*
Y14971D01*
Y14832D01*
X273344Y14670D01*
X273298Y14508D01*
X273275Y14485D01*
X273229Y14439D01*
X273159Y14393D01*
X273043Y14369D01*
X270753D01*
Y9348D01*
Y9302D01*
Y9186D01*
X270776Y9024D01*
Y8816D01*
X270868Y8353D01*
X270915Y8145D01*
X271007Y7937D01*
X271030Y7914D01*
X271054Y7867D01*
X271123Y7798D01*
X271239Y7705D01*
X271378Y7613D01*
X271539Y7543D01*
X271748Y7497D01*
X272002Y7474D01*
X272257D01*
X272396Y7497D01*
X272419D01*
X272511Y7520D01*
X272604Y7566D01*
X272720Y7590D01*
X272743Y7613D01*
X272812Y7636D01*
X272951Y7705D01*
X272974D01*
X273020Y7728D01*
X273159Y7752D01*
X273182D01*
X273252Y7705D01*
X273275Y7682D01*
X273321Y7613D01*
Y7590D01*
X273344Y7566D01*
X273368Y7428D01*
Y7405D01*
X273391Y7358D01*
Y7243D01*
Y7127D01*
Y7081D01*
Y6965D01*
X273368Y6826D01*
X273344Y6664D01*
Y6641D01*
X273321Y6571D01*
X273275Y6479D01*
X273206Y6410D01*
X273182D01*
X273159Y6363D01*
X273090Y6317D01*
X272974Y6271D01*
X272951D01*
X272858Y6248D01*
X272743Y6224D01*
X272604Y6178D01*
X272581D01*
X272488Y6155D01*
X272349Y6132D01*
X272187Y6109D01*
X272141D01*
X272049Y6086D01*
X271887Y6062D01*
X271470D01*
X271308Y6086D01*
X271123Y6109D01*
X270915Y6132D01*
X270521Y6224D01*
X270498D01*
X270452Y6271D01*
X270359Y6294D01*
X270244Y6363D01*
X269966Y6548D01*
X269711Y6780D01*
X269688Y6803D01*
X269665Y6849D01*
X269596Y6942D01*
X269526Y7057D01*
X269457Y7196D01*
X269387Y7358D01*
X269249Y7752D01*
Y7775D01*
X269226Y7844D01*
X269202Y7983D01*
X269179Y8145D01*
X269156Y8330D01*
X269133Y8561D01*
X269110Y8816D01*
Y9094D01*
Y14369D01*
X267814D01*
X267745Y14393D01*
X267652Y14439D01*
X267583Y14508D01*
Y14531D01*
X267560Y14647D01*
X267536Y14809D01*
X267513Y15041D01*
Y15064D01*
Y15156D01*
Y15249D01*
X267536Y15341D01*
Y15365D01*
X267560Y15411D01*
Y15480D01*
X267583Y15550D01*
Y15573D01*
X267606Y15596D01*
X267698Y15688D01*
X267722D01*
X267745Y15712D01*
X267837Y15735D01*
X269110D01*
Y17864D01*
Y17887D01*
Y17910D01*
X269133Y17979D01*
Y18002D01*
X269179Y18025D01*
X269272Y18095D01*
X269295D01*
X269341Y18118D01*
X269411Y18141D01*
X269503Y18164D01*
X269526D01*
X269619Y18188D01*
X270197D01*
X270313Y18164D01*
D02*
G37*
G36*
X263464D02*
X263487D01*
X263556Y18141D01*
X263649Y18118D01*
X263718Y18095D01*
X263741D01*
X263765Y18072D01*
X263857Y17979D01*
X263880Y17956D01*
X263904Y17864D01*
Y15735D01*
X266241D01*
X266333Y15688D01*
X266356D01*
X266379Y15665D01*
X266449Y15550D01*
Y15526D01*
X266472Y15503D01*
X266495Y15434D01*
X266518Y15341D01*
Y15318D01*
X266541Y15272D01*
Y15156D01*
Y15041D01*
Y15017D01*
Y14971D01*
Y14832D01*
X266495Y14670D01*
X266449Y14508D01*
X266426Y14485D01*
X266379Y14439D01*
X266310Y14393D01*
X266194Y14369D01*
X263904D01*
Y9348D01*
Y9302D01*
Y9186D01*
X263927Y9024D01*
Y8816D01*
X264019Y8353D01*
X264065Y8145D01*
X264158Y7937D01*
X264181Y7914D01*
X264204Y7867D01*
X264274Y7798D01*
X264389Y7705D01*
X264528Y7613D01*
X264690Y7543D01*
X264898Y7497D01*
X265153Y7474D01*
X265408D01*
X265546Y7497D01*
X265569D01*
X265662Y7520D01*
X265755Y7566D01*
X265870Y7590D01*
X265893Y7613D01*
X265963Y7636D01*
X266102Y7705D01*
X266125D01*
X266171Y7728D01*
X266310Y7752D01*
X266333D01*
X266402Y7705D01*
X266426Y7682D01*
X266472Y7613D01*
Y7590D01*
X266495Y7566D01*
X266518Y7428D01*
Y7405D01*
X266541Y7358D01*
Y7243D01*
Y7127D01*
Y7081D01*
Y6965D01*
X266518Y6826D01*
X266495Y6664D01*
Y6641D01*
X266472Y6571D01*
X266426Y6479D01*
X266356Y6410D01*
X266333D01*
X266310Y6363D01*
X266241Y6317D01*
X266125Y6271D01*
X266102D01*
X266009Y6248D01*
X265893Y6224D01*
X265755Y6178D01*
X265732D01*
X265639Y6155D01*
X265500Y6132D01*
X265338Y6109D01*
X265292D01*
X265199Y6086D01*
X265037Y6062D01*
X264621D01*
X264459Y6086D01*
X264274Y6109D01*
X264065Y6132D01*
X263672Y6224D01*
X263649D01*
X263603Y6271D01*
X263510Y6294D01*
X263394Y6363D01*
X263117Y6548D01*
X262862Y6780D01*
X262839Y6803D01*
X262816Y6849D01*
X262747Y6942D01*
X262677Y7057D01*
X262608Y7196D01*
X262538Y7358D01*
X262399Y7752D01*
Y7775D01*
X262376Y7844D01*
X262353Y7983D01*
X262330Y8145D01*
X262307Y8330D01*
X262284Y8561D01*
X262261Y8816D01*
Y9094D01*
Y14369D01*
X260965D01*
X260895Y14393D01*
X260803Y14439D01*
X260733Y14508D01*
Y14531D01*
X260710Y14647D01*
X260687Y14809D01*
X260664Y15041D01*
Y15064D01*
Y15156D01*
Y15249D01*
X260687Y15341D01*
Y15365D01*
X260710Y15411D01*
Y15480D01*
X260733Y15550D01*
Y15573D01*
X260756Y15596D01*
X260849Y15688D01*
X260872D01*
X260895Y15712D01*
X260988Y15735D01*
X262261D01*
Y17864D01*
Y17887D01*
Y17910D01*
X262284Y17979D01*
Y18002D01*
X262330Y18025D01*
X262423Y18095D01*
X262446D01*
X262492Y18118D01*
X262561Y18141D01*
X262654Y18164D01*
X262677D01*
X262770Y18188D01*
X263348D01*
X263464Y18164D01*
D02*
G37*
G36*
X339130Y15897D02*
X339384Y15874D01*
X339662Y15827D01*
X339963Y15781D01*
X340263Y15688D01*
X340564Y15573D01*
X340588Y15550D01*
X340703Y15503D01*
X340842Y15434D01*
X341004Y15318D01*
X341189Y15202D01*
X341397Y15041D01*
X341606Y14855D01*
X341791Y14647D01*
X341814Y14624D01*
X341860Y14555D01*
X341953Y14416D01*
X342068Y14254D01*
X342184Y14069D01*
X342300Y13837D01*
X342416Y13583D01*
X342508Y13305D01*
Y13282D01*
X342554Y13166D01*
X342577Y13027D01*
X342624Y12819D01*
X342670Y12565D01*
X342693Y12287D01*
X342739Y11986D01*
Y11662D01*
Y11361D01*
Y11338D01*
Y11292D01*
X342716Y11153D01*
X342647Y10968D01*
X342531Y10806D01*
X342508Y10783D01*
X342416Y10737D01*
X342277Y10667D01*
X342091Y10644D01*
X336168D01*
Y10621D01*
Y10505D01*
Y10366D01*
X336191Y10181D01*
Y9973D01*
X336237Y9742D01*
X336307Y9279D01*
Y9256D01*
X336330Y9186D01*
X336376Y9071D01*
X336422Y8932D01*
X336584Y8585D01*
X336816Y8238D01*
X336839Y8214D01*
X336885Y8168D01*
X336955Y8099D01*
X337070Y8006D01*
X337186Y7890D01*
X337348Y7798D01*
X337718Y7590D01*
X337741D01*
X337811Y7566D01*
X337950Y7520D01*
X338111Y7497D01*
X338320Y7451D01*
X338551Y7405D01*
X338806Y7381D01*
X339338D01*
X339500Y7405D01*
X339870Y7428D01*
X340240Y7474D01*
X340263D01*
X340333Y7497D01*
X340425Y7520D01*
X340541Y7543D01*
X340819Y7613D01*
X341120Y7705D01*
X341143D01*
X341189Y7728D01*
X341328Y7798D01*
X341536Y7867D01*
X341721Y7937D01*
X341744D01*
X341768Y7960D01*
X341860Y8006D01*
X341976Y8029D01*
X342091Y8052D01*
X342138D01*
X342207Y8006D01*
X342230D01*
X342253Y7983D01*
X342300Y7890D01*
Y7867D01*
X342323Y7844D01*
X342346Y7705D01*
Y7682D01*
X342369Y7636D01*
Y7520D01*
Y7405D01*
Y7381D01*
Y7335D01*
X342346Y7173D01*
Y7150D01*
Y7127D01*
X342323Y6988D01*
X342300Y6942D01*
X342253Y6849D01*
X342230Y6826D01*
X342184Y6757D01*
X342138Y6710D01*
X342022Y6664D01*
X341860Y6571D01*
X341837D01*
X341814Y6548D01*
X341744Y6525D01*
X341675Y6502D01*
X341444Y6433D01*
X341143Y6340D01*
X341120D01*
X341073Y6317D01*
X340981Y6294D01*
X340865Y6271D01*
X340726Y6248D01*
X340541Y6201D01*
X340148Y6132D01*
X340125D01*
X340055Y6109D01*
X339940D01*
X339801Y6086D01*
X339616Y6062D01*
X339407D01*
X338945Y6039D01*
X338759D01*
X338551Y6062D01*
X338297Y6086D01*
X337973Y6109D01*
X337649Y6178D01*
X337325Y6248D01*
X337001Y6340D01*
X336955Y6363D01*
X336862Y6386D01*
X336700Y6479D01*
X336515Y6571D01*
X336283Y6687D01*
X336052Y6849D01*
X335821Y7034D01*
X335589Y7243D01*
X335566Y7266D01*
X335497Y7358D01*
X335404Y7497D01*
X335265Y7659D01*
X335127Y7890D01*
X334988Y8145D01*
X334849Y8446D01*
X334733Y8770D01*
Y8816D01*
X334687Y8932D01*
X334641Y9117D01*
X334594Y9395D01*
X334548Y9695D01*
X334502Y10066D01*
X334479Y10482D01*
X334455Y10922D01*
Y10945D01*
Y10968D01*
Y11107D01*
X334479Y11338D01*
X334502Y11616D01*
X334525Y11940D01*
X334571Y12287D01*
X334641Y12657D01*
X334733Y13004D01*
X334756Y13051D01*
X334780Y13166D01*
X334849Y13328D01*
X334965Y13560D01*
X335080Y13791D01*
X335219Y14069D01*
X335404Y14323D01*
X335589Y14578D01*
X335612Y14601D01*
X335682Y14693D01*
X335821Y14809D01*
X335983Y14948D01*
X336168Y15110D01*
X336399Y15272D01*
X336677Y15434D01*
X336955Y15573D01*
X337001Y15596D01*
X337093Y15619D01*
X337255Y15688D01*
X337487Y15758D01*
X337741Y15804D01*
X338065Y15874D01*
X338389Y15897D01*
X338759Y15920D01*
X338945D01*
X339130Y15897D01*
D02*
G37*
G36*
X279916Y15897D02*
X280170Y15874D01*
X280471Y15827D01*
X280795Y15781D01*
X281119Y15688D01*
X281443Y15573D01*
X281489Y15550D01*
X281582Y15503D01*
X281744Y15434D01*
X281929Y15341D01*
X282160Y15202D01*
X282392Y15041D01*
X282623Y14855D01*
X282831Y14624D01*
X282855Y14601D01*
X282924Y14508D01*
X283017Y14369D01*
X283155Y14208D01*
X283271Y13976D01*
X283410Y13722D01*
X283549Y13421D01*
X283664Y13097D01*
X283688Y13051D01*
X283711Y12935D01*
X283757Y12750D01*
X283803Y12495D01*
X283850Y12194D01*
X283896Y11847D01*
X283942Y11477D01*
Y11061D01*
Y11037D01*
Y11014D01*
Y10875D01*
X283919Y10667D01*
X283896Y10413D01*
X283873Y10089D01*
X283827Y9765D01*
X283734Y9395D01*
X283641Y9047D01*
X283618Y9001D01*
X283595Y8885D01*
X283526Y8723D01*
X283410Y8492D01*
X283294Y8261D01*
X283155Y7983D01*
X282970Y7705D01*
X282762Y7451D01*
X282739Y7428D01*
X282670Y7335D01*
X282531Y7219D01*
X282369Y7081D01*
X282160Y6895D01*
X281929Y6733D01*
X281651Y6571D01*
X281327Y6410D01*
X281281Y6386D01*
X281166Y6363D01*
X281003Y6294D01*
X280749Y6224D01*
X280471Y6155D01*
X280124Y6109D01*
X279754Y6062D01*
X279338Y6039D01*
X279152D01*
X278944Y6062D01*
X278690Y6086D01*
X278366Y6109D01*
X278042Y6178D01*
X277718Y6248D01*
X277394Y6363D01*
X277348Y6386D01*
X277255Y6433D01*
X277093Y6502D01*
X276908Y6595D01*
X276700Y6733D01*
X276468Y6895D01*
X276237Y7104D01*
X276005Y7312D01*
X275982Y7335D01*
X275913Y7428D01*
X275820Y7566D01*
X275705Y7728D01*
X275566Y7960D01*
X275450Y8214D01*
X275311Y8515D01*
X275196Y8839D01*
Y8885D01*
X275149Y9001D01*
X275126Y9186D01*
X275080Y9441D01*
X275033Y9742D01*
X274987Y10089D01*
X274964Y10459D01*
X274941Y10875D01*
Y10899D01*
Y10922D01*
Y11061D01*
X274964Y11269D01*
X274987Y11546D01*
X275010Y11870D01*
X275057Y12194D01*
X275126Y12565D01*
X275219Y12912D01*
X275242Y12958D01*
X275265Y13074D01*
X275334Y13236D01*
X275427Y13467D01*
X275543Y13698D01*
X275705Y13976D01*
X275867Y14254D01*
X276075Y14508D01*
X276098Y14531D01*
X276190Y14624D01*
X276306Y14740D01*
X276468Y14902D01*
X276676Y15064D01*
X276931Y15226D01*
X277209Y15411D01*
X277509Y15550D01*
X277556Y15573D01*
X277671Y15619D01*
X277833Y15665D01*
X278088Y15735D01*
X278389Y15804D01*
X278713Y15874D01*
X279106Y15897D01*
X279523Y15920D01*
X279708D01*
X279916Y15897D01*
D02*
G37*
G36*
X255411D02*
X255666Y15874D01*
X255967Y15827D01*
X256291Y15781D01*
X256615Y15688D01*
X256938Y15573D01*
X256985Y15550D01*
X257077Y15503D01*
X257239Y15434D01*
X257425Y15341D01*
X257656Y15202D01*
X257887Y15041D01*
X258119Y14855D01*
X258327Y14624D01*
X258350Y14601D01*
X258419Y14508D01*
X258512Y14369D01*
X258651Y14208D01*
X258766Y13976D01*
X258905Y13722D01*
X259044Y13421D01*
X259160Y13097D01*
X259183Y13051D01*
X259206Y12935D01*
X259252Y12750D01*
X259299Y12495D01*
X259345Y12194D01*
X259391Y11847D01*
X259438Y11477D01*
Y11061D01*
Y11037D01*
Y11014D01*
Y10875D01*
X259414Y10667D01*
X259391Y10413D01*
X259368Y10089D01*
X259322Y9765D01*
X259229Y9395D01*
X259137Y9047D01*
X259114Y9001D01*
X259090Y8885D01*
X259021Y8723D01*
X258905Y8492D01*
X258790Y8261D01*
X258651Y7983D01*
X258466Y7705D01*
X258258Y7451D01*
X258234Y7428D01*
X258165Y7335D01*
X258026Y7219D01*
X257864Y7081D01*
X257656Y6895D01*
X257425Y6733D01*
X257147Y6571D01*
X256823Y6410D01*
X256777Y6386D01*
X256661Y6363D01*
X256499Y6294D01*
X256244Y6224D01*
X255967Y6155D01*
X255620Y6109D01*
X255249Y6062D01*
X254833Y6039D01*
X254648D01*
X254440Y6062D01*
X254185Y6086D01*
X253861Y6109D01*
X253537Y6178D01*
X253213Y6248D01*
X252889Y6363D01*
X252843Y6386D01*
X252750Y6433D01*
X252588Y6502D01*
X252403Y6595D01*
X252195Y6733D01*
X251964Y6895D01*
X251732Y7104D01*
X251501Y7312D01*
X251478Y7335D01*
X251408Y7428D01*
X251316Y7566D01*
X251200Y7728D01*
X251061Y7960D01*
X250945Y8214D01*
X250807Y8515D01*
X250691Y8839D01*
Y8885D01*
X250645Y9001D01*
X250621Y9186D01*
X250575Y9441D01*
X250529Y9742D01*
X250483Y10089D01*
X250459Y10459D01*
X250436Y10875D01*
Y10899D01*
Y10922D01*
Y11061D01*
X250459Y11269D01*
X250483Y11546D01*
X250506Y11870D01*
X250552Y12194D01*
X250621Y12565D01*
X250714Y12912D01*
X250737Y12958D01*
X250760Y13074D01*
X250830Y13236D01*
X250922Y13467D01*
X251038Y13698D01*
X251200Y13976D01*
X251362Y14254D01*
X251570Y14508D01*
X251593Y14531D01*
X251686Y14624D01*
X251802Y14740D01*
X251964Y14902D01*
X252172Y15064D01*
X252426Y15226D01*
X252704Y15411D01*
X253005Y15550D01*
X253051Y15573D01*
X253167Y15619D01*
X253329Y15665D01*
X253583Y15735D01*
X253884Y15804D01*
X254208Y15874D01*
X254601Y15897D01*
X255018Y15920D01*
X255203D01*
X255411Y15897D01*
D02*
G37*
%LPC*%
G36*
X3466Y144489D02*
X-466D01*
X-570Y144446D01*
X-678Y144475D01*
X-4577Y143962D01*
X-4674Y143906D01*
X-4785Y143921D01*
X-8584Y142903D01*
X-8673Y142835D01*
X-8785D01*
X-12418Y141330D01*
X-12498Y141250D01*
X-12609Y141236D01*
X-16015Y139269D01*
X-16083Y139180D01*
X-16191Y139151D01*
X-19311Y136757D01*
X-19367Y136660D01*
X-19471Y136617D01*
X-22252Y133836D01*
X-22294Y133733D01*
X-22392Y133677D01*
X-24786Y130557D01*
X-24815Y130449D01*
X-24904Y130380D01*
X-26870Y126974D01*
X-26885Y126863D01*
X-26964Y126784D01*
X-28469Y123151D01*
Y123039D01*
X-28537Y122950D01*
X-29555Y119151D01*
X-29540Y119040D01*
X-29596Y118943D01*
X-30110Y115044D01*
X-30081Y114936D01*
X-30124Y114832D01*
Y110899D01*
X-30081Y110796D01*
X-30110Y110687D01*
X-29596Y106789D01*
X-29540Y106691D01*
X-29555Y106580D01*
X-28537Y102782D01*
X-28469Y102693D01*
Y102580D01*
X-26964Y98947D01*
X-26885Y98868D01*
X-26870Y98757D01*
X-24904Y95351D01*
X-24815Y95283D01*
X-24786Y95174D01*
X-22392Y92055D01*
X-22294Y91998D01*
X-22252Y91895D01*
X-19471Y89114D01*
X-19367Y89071D01*
X-19311Y88974D01*
X-16191Y86580D01*
X-16083Y86551D01*
X-16015Y86462D01*
X-12609Y84496D01*
X-12498Y84481D01*
X-12418Y84402D01*
X-8785Y82897D01*
X-8673D01*
X-8584Y82829D01*
X-4785Y81811D01*
X-4674Y81825D01*
X-4577Y81769D01*
X-678Y81256D01*
X-570Y81285D01*
X-466Y81242D01*
X3466D01*
X3570Y81285D01*
X3678Y81256D01*
X7577Y81769D01*
X7674Y81825D01*
X7786Y81811D01*
X11584Y82829D01*
X11673Y82897D01*
X11785D01*
X15418Y84402D01*
X15498Y84481D01*
X15609Y84496D01*
X19015Y86462D01*
X19083Y86551D01*
X19191Y86580D01*
X22311Y88974D01*
X22367Y89071D01*
X22471Y89114D01*
X25252Y91895D01*
X25294Y91998D01*
X25392Y92055D01*
X27786Y95174D01*
X27815Y95283D01*
X27904Y95351D01*
X29870Y98757D01*
X29885Y98868D01*
X29964Y98947D01*
X31469Y102580D01*
Y102693D01*
X31537Y102782D01*
X32555Y106580D01*
X32540Y106691D01*
X32596Y106789D01*
X33110Y110687D01*
X33081Y110796D01*
X33124Y110899D01*
Y114832D01*
X33081Y114936D01*
X33110Y115044D01*
X32596Y118943D01*
X32540Y119040D01*
X32555Y119151D01*
X31537Y122950D01*
X31469Y123039D01*
Y123151D01*
X29964Y126784D01*
X29885Y126863D01*
X29870Y126975D01*
X27904Y130380D01*
X27815Y130449D01*
X27786Y130557D01*
X25392Y133677D01*
X25294Y133733D01*
X25252Y133836D01*
X22471Y136617D01*
X22367Y136660D01*
X22311Y136757D01*
X19191Y139151D01*
X19083Y139180D01*
X19015Y139269D01*
X15609Y141236D01*
X15498Y141250D01*
X15418Y141330D01*
X11785Y142835D01*
X11673D01*
X11584Y142903D01*
X7786Y143921D01*
X7674Y143906D01*
X7577Y143962D01*
X3678Y144475D01*
X3570Y144446D01*
X3466Y144489D01*
D02*
G37*
G36*
X57023Y126800D02*
X55634Y126709D01*
X54385Y126093D01*
X53467Y125047D01*
X51467Y121582D01*
X51019Y120264D01*
X51110Y118875D01*
X51726Y117626D01*
X52773Y116708D01*
X57969Y113708D01*
X59288Y113260D01*
X60677Y113351D01*
X61926Y113967D01*
X62844Y115014D01*
X64844Y118478D01*
X65291Y119796D01*
X65200Y121186D01*
X64584Y122435D01*
X63538Y123353D01*
X58341Y126353D01*
X57023Y126800D01*
D02*
G37*
G36*
X46023Y107748D02*
X44633Y107657D01*
X43385Y107041D01*
X42467Y105994D01*
X40467Y102530D01*
X40019Y101212D01*
X40110Y99822D01*
X40726Y98573D01*
X41773Y97655D01*
X46969Y94655D01*
X48288Y94208D01*
X49677Y94299D01*
X50926Y94915D01*
X51844Y95961D01*
X53844Y99425D01*
X54291Y100744D01*
X54200Y102133D01*
X53584Y103382D01*
X52538Y104300D01*
X47341Y107300D01*
X46023Y107748D01*
D02*
G37*
G36*
X71275Y105871D02*
X68934Y105406D01*
X66949Y104080D01*
X65623Y102095D01*
X65157Y99754D01*
X65623Y97413D01*
X66949Y95428D01*
X68934Y94102D01*
X71275Y93637D01*
X73616Y94102D01*
X75601Y95428D01*
X76927Y97413D01*
X77392Y99754D01*
X76927Y102095D01*
X75601Y104080D01*
X73616Y105406D01*
X71275Y105871D01*
D02*
G37*
G36*
X57821Y97488D02*
X56531Y97404D01*
X55372Y96832D01*
X54519Y95860D01*
X48769Y85901D01*
X48354Y84676D01*
X48438Y83386D01*
X49010Y82227D01*
X49982Y81374D01*
X51759Y80348D01*
X51419Y79078D01*
X5996D01*
X5756Y79239D01*
X4000Y79588D01*
X2244Y79239D01*
X756Y78244D01*
X-239Y76756D01*
X-588Y75000D01*
X-239Y73244D01*
X756Y71756D01*
X2244Y70761D01*
X4000Y70412D01*
X5756Y70761D01*
X5996Y70922D01*
X73416D01*
X74335Y69676D01*
X74419Y68386D01*
X74991Y67227D01*
X75963Y66374D01*
X78994Y64624D01*
X80218Y64209D01*
X81509Y64293D01*
X82668Y64865D01*
X83521Y65837D01*
X89271Y75796D01*
X89686Y77021D01*
X89602Y78311D01*
X89030Y79470D01*
X88058Y80323D01*
X85027Y82073D01*
X83802Y82488D01*
X83097Y82442D01*
X83083Y82445D01*
X83055Y82439D01*
X82512Y82404D01*
X82266Y82283D01*
X82107Y82251D01*
X81840Y82073D01*
X81353Y81832D01*
X80500Y80860D01*
X79417Y78985D01*
X78180Y78696D01*
X78073Y78768D01*
X76512Y79078D01*
X76512Y79078D01*
X57687D01*
X57111Y80348D01*
X57540Y80837D01*
X63290Y90796D01*
X63705Y92021D01*
X63621Y93311D01*
X63049Y94470D01*
X62077Y95323D01*
X59046Y97073D01*
X57821Y97488D01*
D02*
G37*
G36*
X97255Y90871D02*
X94914Y90406D01*
X92930Y89080D01*
X91604Y87095D01*
X91138Y84754D01*
X91604Y82413D01*
X92930Y80428D01*
X94914Y79102D01*
X97255Y78636D01*
X99597Y79102D01*
X101581Y80428D01*
X102907Y82413D01*
X103373Y84754D01*
X102907Y87095D01*
X101581Y89080D01*
X99597Y90406D01*
X97255Y90871D01*
D02*
G37*
G36*
X120243Y90300D02*
X118853Y90209D01*
X117605Y89593D01*
X116686Y88547D01*
X114686Y85083D01*
X114239Y83764D01*
X114330Y82375D01*
X114946Y81126D01*
X115993Y80208D01*
X121189Y77208D01*
X122507Y76760D01*
X123897Y76851D01*
X125146Y77467D01*
X126064Y78514D01*
X128064Y81978D01*
X128511Y83296D01*
X128420Y84686D01*
X127804Y85935D01*
X126757Y86853D01*
X121561Y89853D01*
X120243Y90300D01*
D02*
G37*
G36*
X109243Y71248D02*
X107853Y71157D01*
X106605Y70541D01*
X105687Y69494D01*
X103687Y66030D01*
X103239Y64711D01*
X103330Y63322D01*
X103946Y62073D01*
X104993Y61155D01*
X110189Y58155D01*
X111507Y57708D01*
X112897Y57799D01*
X114145Y58415D01*
X115064Y59461D01*
X117064Y62926D01*
X117511Y64244D01*
X117420Y65633D01*
X116804Y66882D01*
X115757Y67800D01*
X110561Y70800D01*
X109243Y71248D01*
D02*
G37*
G36*
X96793Y74988D02*
X95503Y74904D01*
X94343Y74332D01*
X93490Y73360D01*
X87740Y63401D01*
X87325Y62176D01*
X87339Y61968D01*
X86070Y60699D01*
X85185Y59376D01*
X84875Y57815D01*
X84875Y57815D01*
Y40064D01*
X84875Y40064D01*
X85185Y38503D01*
X86070Y37180D01*
X109422Y13828D01*
Y-2933D01*
X107250D01*
X105227Y-3200D01*
X103342Y-3980D01*
X101723Y-5223D01*
X100480Y-6841D01*
X99699Y-8727D01*
X99433Y-10750D01*
Y-49250D01*
X99699Y-51273D01*
X100480Y-53158D01*
X101723Y-54777D01*
X103342Y-56020D01*
X105227Y-56800D01*
X107250Y-57067D01*
X119750D01*
X121773Y-56800D01*
X123659Y-56020D01*
X125277Y-54777D01*
X126520Y-53158D01*
X127301Y-51273D01*
X127567Y-49250D01*
Y-10750D01*
X127301Y-8727D01*
X126520Y-6841D01*
X125277Y-5223D01*
X123659Y-3980D01*
X121773Y-3200D01*
X119750Y-2933D01*
X117578D01*
Y15517D01*
X117578Y15517D01*
X117268Y17078D01*
X116384Y18401D01*
X116384Y18401D01*
X93032Y41753D01*
Y56126D01*
X93643Y56737D01*
X94499Y56793D01*
X95659Y57365D01*
X96511Y58337D01*
X102261Y68296D01*
X102677Y69521D01*
X102592Y70811D01*
X102020Y71970D01*
X101048Y72823D01*
X98017Y74573D01*
X96793Y74988D01*
D02*
G37*
G36*
X-107250Y-2933D02*
X-119750D01*
X-121773Y-3200D01*
X-123659Y-3980D01*
X-125277Y-5223D01*
X-126520Y-6841D01*
X-127301Y-8727D01*
X-127567Y-10750D01*
Y-49250D01*
X-127301Y-51273D01*
X-126520Y-53158D01*
X-125277Y-54777D01*
X-123659Y-56020D01*
X-121773Y-56800D01*
X-119750Y-57067D01*
X-107250D01*
X-105227Y-56800D01*
X-103342Y-56020D01*
X-101723Y-54777D01*
X-100480Y-53158D01*
X-99699Y-51273D01*
X-99433Y-49250D01*
Y-10750D01*
X-99699Y-8727D01*
X-100480Y-6841D01*
X-101723Y-5223D01*
X-103342Y-3980D01*
X-105227Y-3200D01*
X-107250Y-2933D01*
D02*
G37*
%LPD*%
G36*
X7365Y142352D02*
X11164Y141334D01*
X14797Y139830D01*
X18203Y137863D01*
X21323Y135469D01*
X24104Y132689D01*
X26498Y129569D01*
X28464Y126163D01*
X29969Y122529D01*
X30987Y118731D01*
X31500Y114832D01*
Y112866D01*
Y110899D01*
X30987Y107000D01*
X29969Y103202D01*
X28464Y99569D01*
X26498Y96163D01*
X24104Y93043D01*
X21323Y90262D01*
X18203Y87868D01*
X14797Y85902D01*
X11164Y84397D01*
X7365Y83379D01*
X3466Y82866D01*
X-466D01*
X-4365Y83379D01*
X-8164Y84397D01*
X-11797Y85902D01*
X-15203Y87868D01*
X-18323Y90262D01*
X-21104Y93043D01*
X-23498Y96163D01*
X-25464Y99569D01*
X-26969Y103202D01*
X-27987Y107000D01*
X-28500Y110899D01*
Y112866D01*
Y114832D01*
X-27987Y118731D01*
X-26969Y122529D01*
X-25464Y126163D01*
X-23498Y129569D01*
X-21104Y132689D01*
X-18323Y135469D01*
X-15203Y137863D01*
X-11797Y139830D01*
X-8164Y141334D01*
X-4365Y142352D01*
X-466Y142866D01*
X3466D01*
X7365Y142352D01*
D02*
G37*
%LPC*%
G36*
X243865Y17748D02*
X241828D01*
Y13560D01*
X244027D01*
X244189Y13583D01*
X244536Y13629D01*
X244698Y13675D01*
X244860Y13722D01*
X244883D01*
X244929Y13745D01*
X244999Y13791D01*
X245114Y13860D01*
X245322Y13999D01*
X245554Y14184D01*
X245577Y14208D01*
X245600Y14231D01*
X245646Y14300D01*
X245716Y14393D01*
X245832Y14601D01*
X245947Y14878D01*
Y14902D01*
X245970Y14948D01*
X245994Y15017D01*
X246017Y15133D01*
X246063Y15388D01*
X246086Y15688D01*
Y15712D01*
Y15781D01*
Y15874D01*
X246063Y15989D01*
X246040Y16267D01*
X245947Y16545D01*
Y16568D01*
X245924Y16614D01*
X245901Y16683D01*
X245855Y16776D01*
X245716Y16984D01*
X245531Y17192D01*
X245508Y17216D01*
X245485Y17239D01*
X245415Y17285D01*
X245346Y17331D01*
X245091Y17470D01*
X244790Y17586D01*
X244767D01*
X244721Y17609D01*
X244605Y17632D01*
X244489Y17678D01*
X244304Y17701D01*
X244119Y17725D01*
X243865Y17748D01*
D02*
G37*
G36*
X244189Y12194D02*
X241828D01*
Y7636D01*
X244536D01*
X244675Y7659D01*
X244999Y7705D01*
X245346Y7775D01*
X245369D01*
X245415Y7798D01*
X245508Y7844D01*
X245600Y7867D01*
X245855Y8006D01*
X246109Y8168D01*
X246132Y8191D01*
X246179Y8214D01*
X246318Y8353D01*
X246479Y8585D01*
X246642Y8862D01*
Y8885D01*
X246665Y8932D01*
X246711Y9024D01*
X246757Y9140D01*
X246780Y9279D01*
X246827Y9441D01*
X246850Y9811D01*
Y9834D01*
Y9904D01*
Y10019D01*
X246827Y10158D01*
X246780Y10482D01*
X246665Y10829D01*
Y10852D01*
X246642Y10899D01*
X246595Y10991D01*
X246526Y11084D01*
X246364Y11338D01*
X246109Y11570D01*
X246086Y11593D01*
X246040Y11616D01*
X245970Y11685D01*
X245878Y11732D01*
X245739Y11824D01*
X245600Y11894D01*
X245230Y12032D01*
X245207D01*
X245137Y12055D01*
X245022Y12079D01*
X244860Y12125D01*
X244675Y12148D01*
X244443Y12171D01*
X244189Y12194D01*
D02*
G37*
G36*
X321104Y10575D02*
X319438D01*
X319276Y10552D01*
X319091D01*
X318883Y10528D01*
X318489Y10459D01*
X318466D01*
X318420Y10436D01*
X318327Y10413D01*
X318212Y10366D01*
X317934Y10274D01*
X317680Y10112D01*
X317656D01*
X317633Y10066D01*
X317494Y9950D01*
X317332Y9788D01*
X317194Y9556D01*
Y9533D01*
X317170Y9510D01*
X317147Y9441D01*
X317124Y9348D01*
X317078Y9117D01*
X317055Y8839D01*
Y8816D01*
Y8723D01*
X317078Y8608D01*
X317101Y8446D01*
X317170Y8261D01*
X317240Y8076D01*
X317355Y7890D01*
X317494Y7728D01*
X317518Y7705D01*
X317587Y7659D01*
X317680Y7613D01*
X317818Y7543D01*
X317980Y7451D01*
X318188Y7405D01*
X318443Y7358D01*
X318721Y7335D01*
X318836D01*
X318952Y7358D01*
X319114Y7381D01*
X319299Y7405D01*
X319508Y7474D01*
X319716Y7543D01*
X319924Y7659D01*
X319947Y7682D01*
X320017Y7728D01*
X320132Y7798D01*
X320271Y7914D01*
X320456Y8052D01*
X320664Y8214D01*
X320873Y8423D01*
X321104Y8654D01*
Y10575D01*
D02*
G37*
G36*
X338690Y14624D02*
X338459D01*
X338320Y14601D01*
X337973Y14532D01*
X337603Y14393D01*
X337579D01*
X337533Y14346D01*
X337440Y14300D01*
X337325Y14231D01*
X337070Y14022D01*
X336816Y13768D01*
X336793Y13745D01*
X336769Y13698D01*
X336700Y13629D01*
X336654Y13513D01*
X336561Y13398D01*
X336492Y13236D01*
X336330Y12889D01*
Y12865D01*
X336307Y12796D01*
X336283Y12703D01*
X336260Y12565D01*
X336214Y12403D01*
X336191Y12241D01*
X336168Y11847D01*
X341073D01*
Y11870D01*
Y11917D01*
Y11963D01*
Y12056D01*
X341050Y12287D01*
X341004Y12588D01*
X340934Y12912D01*
X340819Y13259D01*
X340680Y13583D01*
X340472Y13884D01*
X340449Y13907D01*
X340356Y13999D01*
X340217Y14115D01*
X340032Y14254D01*
X339778Y14393D01*
X339477Y14508D01*
X339106Y14601D01*
X338690Y14624D01*
D02*
G37*
G36*
X279453Y14531D02*
X279338D01*
X279199Y14508D01*
X279014D01*
X278828Y14462D01*
X278597Y14416D01*
X278389Y14346D01*
X278181Y14254D01*
X278157D01*
X278088Y14208D01*
X277995Y14138D01*
X277880Y14069D01*
X277602Y13837D01*
X277324Y13513D01*
X277301Y13490D01*
X277278Y13421D01*
X277209Y13328D01*
X277139Y13212D01*
X277047Y13051D01*
X276954Y12842D01*
X276885Y12634D01*
X276815Y12403D01*
Y12379D01*
X276792Y12287D01*
X276769Y12148D01*
X276746Y11986D01*
X276700Y11778D01*
X276676Y11523D01*
X276653Y11269D01*
Y10991D01*
Y10968D01*
Y10875D01*
Y10713D01*
X276676Y10552D01*
Y10320D01*
X276700Y10089D01*
X276769Y9603D01*
Y9580D01*
X276792Y9487D01*
X276838Y9371D01*
X276885Y9209D01*
X277024Y8862D01*
X277232Y8469D01*
X277255Y8446D01*
X277301Y8400D01*
X277371Y8307D01*
X277463Y8191D01*
X277579Y8076D01*
X277741Y7937D01*
X278088Y7705D01*
X278111D01*
X278181Y7659D01*
X278296Y7613D01*
X278458Y7566D01*
X278643Y7520D01*
X278875Y7474D01*
X279129Y7451D01*
X279407Y7428D01*
X279523D01*
X279661Y7451D01*
X279846D01*
X280055Y7497D01*
X280263Y7543D01*
X280471Y7590D01*
X280680Y7682D01*
X280703Y7705D01*
X280772Y7728D01*
X280865Y7798D01*
X280980Y7867D01*
X281281Y8099D01*
X281559Y8400D01*
X281582Y8423D01*
X281605Y8492D01*
X281674Y8585D01*
X281744Y8723D01*
X281836Y8885D01*
X281929Y9071D01*
X281999Y9279D01*
X282068Y9510D01*
Y9533D01*
X282091Y9626D01*
X282114Y9765D01*
X282160Y9950D01*
X282184Y10158D01*
X282207Y10389D01*
X282230Y10945D01*
Y10968D01*
Y11061D01*
Y11222D01*
X282207Y11408D01*
Y11616D01*
X282184Y11847D01*
X282091Y12333D01*
Y12356D01*
X282068Y12449D01*
X282022Y12565D01*
X281975Y12727D01*
X281836Y13097D01*
X281628Y13467D01*
X281605Y13490D01*
X281582Y13560D01*
X281513Y13629D01*
X281420Y13745D01*
X281304Y13860D01*
X281142Y13999D01*
X280980Y14115D01*
X280795Y14231D01*
X280772Y14254D01*
X280703Y14277D01*
X280587Y14323D01*
X280425Y14393D01*
X280240Y14439D01*
X280009Y14485D01*
X279754Y14508D01*
X279453Y14531D01*
D02*
G37*
G36*
X254949D02*
X254833D01*
X254694Y14508D01*
X254509D01*
X254324Y14462D01*
X254092Y14416D01*
X253884Y14346D01*
X253676Y14254D01*
X253653D01*
X253583Y14208D01*
X253491Y14138D01*
X253375Y14069D01*
X253097Y13837D01*
X252820Y13513D01*
X252797Y13490D01*
X252773Y13421D01*
X252704Y13328D01*
X252635Y13212D01*
X252542Y13051D01*
X252449Y12842D01*
X252380Y12634D01*
X252311Y12403D01*
Y12379D01*
X252288Y12287D01*
X252264Y12148D01*
X252241Y11986D01*
X252195Y11778D01*
X252172Y11523D01*
X252149Y11269D01*
Y10991D01*
Y10968D01*
Y10875D01*
Y10713D01*
X252172Y10552D01*
Y10320D01*
X252195Y10089D01*
X252264Y9603D01*
Y9580D01*
X252288Y9487D01*
X252334Y9371D01*
X252380Y9209D01*
X252519Y8862D01*
X252727Y8469D01*
X252750Y8446D01*
X252797Y8400D01*
X252866Y8307D01*
X252959Y8191D01*
X253074Y8076D01*
X253236Y7937D01*
X253583Y7705D01*
X253606D01*
X253676Y7659D01*
X253792Y7613D01*
X253953Y7566D01*
X254139Y7520D01*
X254370Y7474D01*
X254625Y7451D01*
X254902Y7428D01*
X255018D01*
X255157Y7451D01*
X255342D01*
X255550Y7497D01*
X255758Y7543D01*
X255967Y7590D01*
X256175Y7682D01*
X256198Y7705D01*
X256268Y7728D01*
X256360Y7798D01*
X256476Y7867D01*
X256777Y8099D01*
X257054Y8400D01*
X257077Y8423D01*
X257101Y8492D01*
X257170Y8585D01*
X257239Y8723D01*
X257332Y8885D01*
X257425Y9071D01*
X257494Y9279D01*
X257563Y9510D01*
Y9533D01*
X257586Y9626D01*
X257610Y9765D01*
X257656Y9950D01*
X257679Y10158D01*
X257702Y10389D01*
X257725Y10945D01*
Y10968D01*
Y11061D01*
Y11222D01*
X257702Y11408D01*
Y11616D01*
X257679Y11847D01*
X257586Y12333D01*
Y12356D01*
X257563Y12449D01*
X257517Y12565D01*
X257471Y12727D01*
X257332Y13097D01*
X257124Y13467D01*
X257101Y13490D01*
X257077Y13560D01*
X257008Y13629D01*
X256915Y13745D01*
X256800Y13860D01*
X256638Y13999D01*
X256476Y14115D01*
X256291Y14231D01*
X256268Y14254D01*
X256198Y14277D01*
X256082Y14323D01*
X255920Y14393D01*
X255735Y14439D01*
X255504Y14485D01*
X255249Y14508D01*
X254949Y14531D01*
D02*
G37*
%LPD*%
D24*
X81804Y73143D02*
X82010Y73348D01*
X78370Y73143D02*
X81804D01*
X76512Y75000D02*
X78370Y73143D01*
X4000Y75000D02*
X76512D01*
X95001Y63862D02*
Y65848D01*
X88953Y57815D02*
X95001Y63862D01*
X88953Y40064D02*
Y57815D01*
Y40064D02*
X113500Y15517D01*
Y-30000D02*
Y15517D01*
D25*
X-2000Y149000D02*
D03*
X-75000Y-7000D02*
D03*
X132000Y86000D02*
D03*
X4000Y75000D02*
D03*
X-6000D02*
D03*
X75000Y6000D02*
D03*
X130000Y-68000D02*
D03*
X5000Y-146000D02*
D03*
X7000Y-74000D02*
D03*
X-124000Y-78000D02*
D03*
X-130000Y68000D02*
D03*
D26*
X71275Y99754D02*
D03*
X97255Y84754D02*
D03*
D27*
X121375Y83530D02*
D03*
X110375Y64478D02*
D03*
X58155Y120030D02*
D03*
X47155Y100978D02*
D03*
D28*
X95001Y65848D02*
D03*
X82010Y73348D02*
D03*
X56030Y88349D02*
D03*
D29*
X-113500Y-30000D02*
D03*
X113500D02*
D03*
D30*
X0D02*
D03*
D31*
X83083Y74421D02*
Y79896D01*
X82010Y73348D02*
X83083Y74421D01*
M02*
