G04*
G04 #@! TF.GenerationSoftware,Altium Limited,Altium Designer,20.1.14 (287)*
G04*
G04 Layer_Color=16711935*
%FSLAX44Y44*%
%MOMM*%
G71*
G04*
G04 #@! TF.SameCoordinates,555A517A-9F76-4A69-B8FD-E90865B7C856*
G04*
G04*
G04 #@! TF.FilePolarity,Negative*
G04*
G01*
G75*
G04:AMPARAMS|DCode=32|XSize=0.9mm|YSize=1.1mm|CornerRadius=0.25mm|HoleSize=0mm|Usage=FLASHONLY|Rotation=240.000|XOffset=0mm|YOffset=0mm|HoleType=Round|Shape=RoundedRectangle|*
%AMROUNDEDRECTD32*
21,1,0.9000,0.6000,0,0,240.0*
21,1,0.4000,1.1000,0,0,240.0*
1,1,0.5000,-0.3598,-0.0232*
1,1,0.5000,-0.1598,0.3232*
1,1,0.5000,0.3598,0.0232*
1,1,0.5000,0.1598,-0.3232*
%
%ADD32ROUNDEDRECTD32*%
G04:AMPARAMS|DCode=33|XSize=0.8mm|YSize=1.6mm|CornerRadius=0.225mm|HoleSize=0mm|Usage=FLASHONLY|Rotation=330.000|XOffset=0mm|YOffset=0mm|HoleType=Round|Shape=RoundedRectangle|*
%AMROUNDEDRECTD33*
21,1,0.8000,1.1500,0,0,330.0*
21,1,0.3500,1.6000,0,0,330.0*
1,1,0.4500,-0.1360,-0.5855*
1,1,0.4500,-0.4391,-0.4105*
1,1,0.4500,0.1360,0.5855*
1,1,0.4500,0.4391,0.4105*
%
%ADD33ROUNDEDRECTD33*%
G04:AMPARAMS|DCode=34|XSize=2.6mm|YSize=5.2mm|CornerRadius=0.675mm|HoleSize=0mm|Usage=FLASHONLY|Rotation=0.000|XOffset=0mm|YOffset=0mm|HoleType=Round|Shape=RoundedRectangle|*
%AMROUNDEDRECTD34*
21,1,2.6000,3.8500,0,0,0.0*
21,1,1.2500,5.2000,0,0,0.0*
1,1,1.3500,0.6250,-1.9250*
1,1,1.3500,-0.6250,-1.9250*
1,1,1.3500,-0.6250,1.9250*
1,1,1.3500,0.6250,1.9250*
%
%ADD34ROUNDEDRECTD34*%
%ADD35C,17.9000*%
G36*
X3475Y143867D02*
X3597Y143859D01*
X7496Y143346D01*
X7522Y143341D01*
X7625Y143320D01*
X11423Y142303D01*
X11494Y142278D01*
X11547Y142260D01*
X15181Y140755D01*
X15298Y140697D01*
X18704Y138731D01*
X18748Y138702D01*
X18813Y138658D01*
X21933Y136264D01*
X22031Y136178D01*
X24812Y133397D01*
X24899Y133299D01*
X27293Y130179D01*
X27366Y130070D01*
X29332Y126664D01*
X29390Y126546D01*
X30895Y122913D01*
X30909Y122872D01*
X30937Y122789D01*
X31955Y118990D01*
X31980Y118862D01*
X32494Y114963D01*
X32502Y114832D01*
Y112866D01*
Y110899D01*
X32502Y110891D01*
X32494Y110769D01*
X31980Y106870D01*
X31975Y106844D01*
X31955Y106741D01*
X30937Y102942D01*
X30913Y102871D01*
X30895Y102818D01*
X29390Y99185D01*
X29332Y99067D01*
X27366Y95662D01*
X27336Y95618D01*
X27293Y95553D01*
X24899Y92433D01*
X24812Y92334D01*
X22031Y89553D01*
X21933Y89467D01*
X18813Y87073D01*
X18704Y87000D01*
X15298Y85034D01*
X15181Y84976D01*
X11547Y83471D01*
X11506Y83457D01*
X11423Y83429D01*
X7625Y82411D01*
X7548Y82396D01*
X7496Y82385D01*
X3597Y81872D01*
X3466Y81863D01*
X-466D01*
X-597Y81872D01*
X-4496Y82385D01*
X-4517Y82390D01*
X-4625Y82411D01*
X-8423Y83429D01*
X-8494Y83453D01*
X-8547Y83471D01*
X-12181Y84976D01*
X-12298Y85034D01*
X-15704Y87000D01*
X-15748Y87029D01*
X-15813Y87073D01*
X-18933Y89467D01*
X-19031Y89553D01*
X-21812Y92334D01*
X-21899Y92433D01*
X-24293Y95553D01*
X-24365Y95662D01*
X-26332Y99067D01*
X-26390Y99185D01*
X-27895Y102818D01*
X-27909Y102859D01*
X-27937Y102942D01*
X-28955Y106741D01*
X-28970Y106818D01*
X-28980Y106870D01*
X-29494Y110768D01*
X-29502Y110899D01*
Y112866D01*
Y114832D01*
X-29494Y114963D01*
X-28980Y118862D01*
X-28976Y118883D01*
X-28955Y118990D01*
X-27937Y122789D01*
X-27913Y122860D01*
X-27895Y122913D01*
X-26390Y126546D01*
X-26332Y126664D01*
X-24365Y130070D01*
X-24336Y130113D01*
X-24293Y130179D01*
X-21899Y133299D01*
X-21812Y133397D01*
X-19031Y136178D01*
X-18933Y136264D01*
X-15813Y138658D01*
X-15704Y138731D01*
X-12298Y140697D01*
X-12181Y140755D01*
X-8547Y142260D01*
X-8506Y142274D01*
X-8423Y142303D01*
X-4625Y143320D01*
X-4496Y143346D01*
X-597Y143859D01*
X-466Y143868D01*
X3466D01*
X3475Y143867D01*
D02*
G37*
G36*
X587339Y-75702D02*
X587640Y-75748D01*
X587663D01*
X587710Y-75771D01*
X587802D01*
X587918Y-75794D01*
X588172Y-75864D01*
X588450Y-75956D01*
X588473D01*
X588519Y-75979D01*
X588589Y-76003D01*
X588681Y-76026D01*
X588913Y-76118D01*
X589144Y-76234D01*
X589167D01*
X589190Y-76257D01*
X589306Y-76303D01*
X589445Y-76396D01*
X589538Y-76465D01*
X589561Y-76488D01*
X589584Y-76512D01*
X589630Y-76581D01*
X589653Y-76627D01*
X589676Y-76651D01*
X589723Y-76766D01*
Y-76789D01*
X589746Y-76836D01*
Y-76975D01*
Y-76998D01*
X589769Y-77044D01*
Y-77160D01*
Y-77275D01*
Y-77298D01*
Y-77391D01*
Y-77484D01*
X589746Y-77599D01*
Y-77622D01*
X589723Y-77692D01*
X589700Y-77854D01*
Y-77877D01*
X589676Y-77900D01*
X589607Y-77993D01*
X589584D01*
X589491Y-78016D01*
X589468D01*
X589399Y-77993D01*
X589306Y-77946D01*
X589144Y-77877D01*
X589098Y-77854D01*
X588982Y-77784D01*
X588797Y-77692D01*
X588566Y-77576D01*
X588543D01*
X588519Y-77553D01*
X588450Y-77507D01*
X588357Y-77460D01*
X588103Y-77368D01*
X587779Y-77252D01*
X587756D01*
X587710Y-77229D01*
X587594Y-77206D01*
X587478Y-77160D01*
X587316Y-77137D01*
X587154Y-77113D01*
X586738Y-77090D01*
X586553D01*
X586414Y-77113D01*
X586113Y-77160D01*
X585789Y-77252D01*
X585766D01*
X585720Y-77275D01*
X585650Y-77298D01*
X585558Y-77345D01*
X585349Y-77484D01*
X585141Y-77646D01*
X585095Y-77692D01*
X585002Y-77807D01*
X584863Y-77969D01*
X584748Y-78201D01*
Y-78224D01*
X584725Y-78247D01*
X584701Y-78317D01*
Y-78409D01*
X584655Y-78640D01*
X584632Y-78895D01*
Y-78918D01*
Y-78988D01*
X584655Y-79080D01*
Y-79219D01*
X584725Y-79520D01*
X584863Y-79821D01*
X584887Y-79844D01*
X584910Y-79890D01*
X584956Y-79960D01*
X585048Y-80052D01*
X585257Y-80283D01*
X585534Y-80515D01*
X585558Y-80538D01*
X585604Y-80561D01*
X585696Y-80631D01*
X585812Y-80700D01*
X585951Y-80793D01*
X586113Y-80885D01*
X586483Y-81070D01*
X586506D01*
X586576Y-81116D01*
X586691Y-81163D01*
X586807Y-81209D01*
X586969Y-81278D01*
X587154Y-81371D01*
X587548Y-81556D01*
X587571D01*
X587640Y-81602D01*
X587756Y-81649D01*
X587895Y-81718D01*
X588057Y-81811D01*
X588242Y-81903D01*
X588635Y-82135D01*
X588658Y-82158D01*
X588728Y-82181D01*
X588820Y-82250D01*
X588959Y-82343D01*
X589260Y-82574D01*
X589584Y-82852D01*
X589607Y-82875D01*
X589653Y-82921D01*
X589723Y-83014D01*
X589815Y-83130D01*
X589931Y-83268D01*
X590047Y-83430D01*
X590255Y-83824D01*
X590278Y-83847D01*
X590301Y-83916D01*
X590347Y-84032D01*
X590394Y-84194D01*
X590440Y-84402D01*
X590463Y-84634D01*
X590509Y-84888D01*
Y-85166D01*
Y-85212D01*
Y-85328D01*
X590486Y-85490D01*
X590463Y-85698D01*
X590417Y-85953D01*
X590371Y-86230D01*
X590278Y-86508D01*
X590162Y-86786D01*
X590139Y-86809D01*
X590093Y-86901D01*
X590023Y-87040D01*
X589931Y-87202D01*
X589792Y-87387D01*
X589630Y-87596D01*
X589445Y-87781D01*
X589237Y-87989D01*
X589214Y-88012D01*
X589121Y-88058D01*
X589005Y-88151D01*
X588843Y-88266D01*
X588635Y-88382D01*
X588381Y-88498D01*
X588126Y-88614D01*
X587825Y-88729D01*
X587779D01*
X587686Y-88776D01*
X587524Y-88799D01*
X587316Y-88845D01*
X587062Y-88891D01*
X586761Y-88914D01*
X586437Y-88961D01*
X585858D01*
X585696Y-88938D01*
X585511D01*
X585303Y-88914D01*
X584887Y-88845D01*
X584863D01*
X584794Y-88822D01*
X584678Y-88799D01*
X584563Y-88776D01*
X584239Y-88706D01*
X583891Y-88590D01*
X583868D01*
X583822Y-88567D01*
X583753Y-88521D01*
X583637Y-88498D01*
X583406Y-88382D01*
X583174Y-88266D01*
X583151D01*
X583128Y-88243D01*
X583012Y-88151D01*
X582873Y-88058D01*
X582758Y-87966D01*
X582735Y-87943D01*
X582688Y-87873D01*
X582642Y-87781D01*
X582596Y-87665D01*
Y-87619D01*
X582573Y-87526D01*
X582550Y-87364D01*
Y-87156D01*
Y-87110D01*
Y-87040D01*
Y-86924D01*
Y-86809D01*
Y-86786D01*
X582573Y-86716D01*
X582596Y-86647D01*
X582619Y-86577D01*
Y-86554D01*
X582642Y-86531D01*
X582711Y-86439D01*
X582735D01*
X582758Y-86415D01*
X582850Y-86392D01*
X582873D01*
X582943Y-86415D01*
X583082Y-86462D01*
X583244Y-86577D01*
X583267D01*
X583290Y-86601D01*
X583429Y-86693D01*
X583614Y-86809D01*
X583891Y-86948D01*
X583915D01*
X583961Y-86971D01*
X584053Y-87017D01*
X584169Y-87063D01*
X584308Y-87110D01*
X584470Y-87179D01*
X584863Y-87318D01*
X584887D01*
X584956Y-87341D01*
X585095Y-87364D01*
X585257Y-87387D01*
X585442Y-87434D01*
X585673Y-87457D01*
X585905Y-87480D01*
X586391D01*
X586529Y-87457D01*
X586853Y-87410D01*
X587201Y-87341D01*
X587224D01*
X587270Y-87318D01*
X587363Y-87271D01*
X587478Y-87225D01*
X587733Y-87110D01*
X587987Y-86924D01*
X588010Y-86901D01*
X588057Y-86878D01*
X588195Y-86739D01*
X588357Y-86531D01*
X588519Y-86253D01*
Y-86230D01*
X588543Y-86184D01*
X588589Y-86091D01*
X588612Y-85999D01*
X588658Y-85860D01*
X588681Y-85698D01*
X588704Y-85351D01*
Y-85328D01*
Y-85258D01*
X588681Y-85143D01*
Y-85027D01*
X588589Y-84726D01*
X588543Y-84564D01*
X588450Y-84402D01*
Y-84379D01*
X588404Y-84333D01*
X588357Y-84263D01*
X588265Y-84171D01*
X588057Y-83963D01*
X587779Y-83731D01*
X587756Y-83708D01*
X587710Y-83685D01*
X587617Y-83616D01*
X587524Y-83546D01*
X587386Y-83477D01*
X587224Y-83384D01*
X586853Y-83199D01*
X586830Y-83176D01*
X586761Y-83153D01*
X586645Y-83106D01*
X586529Y-83037D01*
X586344Y-82968D01*
X586182Y-82875D01*
X585766Y-82690D01*
X585743Y-82667D01*
X585673Y-82644D01*
X585581Y-82597D01*
X585442Y-82528D01*
X585280Y-82435D01*
X585095Y-82343D01*
X584701Y-82135D01*
X584678Y-82111D01*
X584609Y-82065D01*
X584516Y-82019D01*
X584401Y-81926D01*
X584100Y-81695D01*
X583776Y-81394D01*
X583753Y-81371D01*
X583706Y-81325D01*
X583637Y-81232D01*
X583545Y-81116D01*
X583452Y-80978D01*
X583336Y-80816D01*
X583128Y-80422D01*
Y-80399D01*
X583082Y-80330D01*
X583059Y-80191D01*
X583012Y-80029D01*
X582966Y-79844D01*
X582920Y-79612D01*
X582896Y-79335D01*
X582873Y-79057D01*
Y-79011D01*
Y-78918D01*
X582896Y-78756D01*
X582920Y-78571D01*
X582943Y-78340D01*
X582989Y-78108D01*
X583059Y-77854D01*
X583151Y-77622D01*
X583174Y-77599D01*
X583197Y-77507D01*
X583267Y-77391D01*
X583359Y-77252D01*
X583475Y-77067D01*
X583614Y-76905D01*
X583961Y-76558D01*
X583984Y-76535D01*
X584053Y-76489D01*
X584169Y-76396D01*
X584308Y-76304D01*
X584493Y-76211D01*
X584725Y-76095D01*
X584956Y-75979D01*
X585210Y-75887D01*
X585234D01*
X585349Y-75841D01*
X585488Y-75817D01*
X585696Y-75771D01*
X585928Y-75725D01*
X586182Y-75702D01*
X586483Y-75656D01*
X587062D01*
X587339Y-75702D01*
D02*
G37*
G36*
X615407Y-74915D02*
X615546Y-74938D01*
X615569D01*
X615639Y-74961D01*
X615731Y-74984D01*
X615801Y-75008D01*
X615824D01*
X615847Y-75031D01*
X615940Y-75100D01*
X615963Y-75123D01*
X615986Y-75216D01*
Y-88544D01*
Y-88567D01*
Y-88590D01*
X615940Y-88706D01*
X615916Y-88729D01*
X615801Y-88776D01*
X615778D01*
X615755Y-88799D01*
X615685D01*
X615592Y-88822D01*
X615500D01*
X615384Y-88845D01*
X615014D01*
X614898Y-88822D01*
X614875D01*
X614829Y-88799D01*
X614667Y-88776D01*
X614644D01*
X614621Y-88752D01*
X614528Y-88683D01*
Y-88660D01*
Y-88637D01*
X614505Y-88544D01*
Y-87341D01*
X614482Y-87364D01*
X614389Y-87457D01*
X614227Y-87596D01*
X614042Y-87781D01*
X613834Y-87966D01*
X613579Y-88174D01*
X613302Y-88359D01*
X613024Y-88544D01*
X613001Y-88567D01*
X612885Y-88614D01*
X612746Y-88683D01*
X612538Y-88752D01*
X612284Y-88822D01*
X612006Y-88891D01*
X611682Y-88938D01*
X611358Y-88961D01*
X611196D01*
X611011Y-88938D01*
X610779Y-88914D01*
X610502Y-88868D01*
X610224Y-88799D01*
X609923Y-88706D01*
X609646Y-88590D01*
X609623Y-88567D01*
X609530Y-88521D01*
X609414Y-88428D01*
X609252Y-88313D01*
X609067Y-88174D01*
X608882Y-87989D01*
X608697Y-87781D01*
X608512Y-87549D01*
X608489Y-87526D01*
X608442Y-87434D01*
X608373Y-87295D01*
X608280Y-87109D01*
X608188Y-86901D01*
X608072Y-86624D01*
X607980Y-86346D01*
X607887Y-86022D01*
Y-85976D01*
X607864Y-85860D01*
X607841Y-85675D01*
X607794Y-85443D01*
X607771Y-85166D01*
X607725Y-84842D01*
X607702Y-84518D01*
Y-84148D01*
Y-84124D01*
Y-84101D01*
Y-83963D01*
X607725Y-83731D01*
Y-83454D01*
X607748Y-83130D01*
X607794Y-82782D01*
X607933Y-82065D01*
X607957Y-82019D01*
X607980Y-81903D01*
X608049Y-81741D01*
X608119Y-81510D01*
X608234Y-81255D01*
X608350Y-81001D01*
X608512Y-80723D01*
X608674Y-80469D01*
X608697Y-80445D01*
X608766Y-80353D01*
X608859Y-80237D01*
X608998Y-80098D01*
X609183Y-79913D01*
X609391Y-79751D01*
X609623Y-79589D01*
X609877Y-79450D01*
X609900Y-79427D01*
X610016Y-79381D01*
X610155Y-79335D01*
X610363Y-79265D01*
X610617Y-79196D01*
X610895Y-79126D01*
X611219Y-79103D01*
X611566Y-79080D01*
X611705D01*
X611844Y-79103D01*
X612052Y-79126D01*
X612260Y-79173D01*
X612515Y-79219D01*
X612746Y-79312D01*
X613001Y-79427D01*
X613024Y-79450D01*
X613117Y-79497D01*
X613255Y-79566D01*
X613417Y-79682D01*
X613626Y-79821D01*
X613834Y-80006D01*
X614089Y-80214D01*
X614320Y-80445D01*
Y-75216D01*
Y-75193D01*
Y-75170D01*
X614343Y-75100D01*
Y-75077D01*
X614389Y-75054D01*
X614482Y-75008D01*
X614505D01*
X614551Y-74984D01*
X614621Y-74961D01*
X614736Y-74938D01*
X614759D01*
X614852Y-74915D01*
X614968Y-74892D01*
X615269D01*
X615407Y-74915D01*
D02*
G37*
G36*
X633456Y-79103D02*
X633479D01*
X633549Y-79126D01*
X633664Y-79150D01*
X633780Y-79173D01*
X633803D01*
X633896Y-79196D01*
X633988Y-79219D01*
X634104Y-79265D01*
X634127D01*
X634197Y-79288D01*
X634266Y-79312D01*
X634312Y-79358D01*
X634335D01*
X634359Y-79381D01*
X634405Y-79450D01*
X634428Y-79474D01*
Y-79566D01*
Y-79589D01*
X634451Y-79612D01*
Y-79682D01*
Y-79774D01*
Y-79798D01*
X634474Y-79867D01*
Y-79960D01*
Y-80121D01*
Y-80168D01*
Y-80260D01*
Y-80376D01*
X634451Y-80492D01*
Y-80515D01*
Y-80561D01*
X634405Y-80723D01*
Y-80746D01*
X634382Y-80769D01*
X634335Y-80862D01*
X634312Y-80885D01*
X634220Y-80908D01*
X634150D01*
X634011Y-80862D01*
X633988D01*
X633942Y-80839D01*
X633849Y-80793D01*
X633757Y-80769D01*
X633734D01*
X633664Y-80746D01*
X633572Y-80700D01*
X633433Y-80677D01*
X633410D01*
X633317Y-80654D01*
X633178Y-80631D01*
X632993D01*
X632878Y-80654D01*
X632739Y-80677D01*
X632554Y-80746D01*
X632507Y-80769D01*
X632415Y-80816D01*
X632253Y-80931D01*
X632045Y-81070D01*
X631998Y-81116D01*
X631883Y-81232D01*
X631698Y-81440D01*
X631489Y-81695D01*
X631466Y-81718D01*
X631443Y-81764D01*
X631374Y-81834D01*
X631304Y-81949D01*
X631212Y-82088D01*
X631119Y-82250D01*
X630864Y-82620D01*
Y-88544D01*
Y-88567D01*
Y-88590D01*
X630818Y-88683D01*
X630795Y-88706D01*
X630679Y-88776D01*
X630656D01*
X630610Y-88799D01*
X630541D01*
X630425Y-88822D01*
X630332D01*
X630193Y-88845D01*
X629754D01*
X629615Y-88822D01*
X629592D01*
X629546Y-88799D01*
X629384Y-88776D01*
X629361D01*
X629337Y-88752D01*
X629245Y-88683D01*
Y-88637D01*
X629222Y-88544D01*
Y-79543D01*
Y-79520D01*
Y-79497D01*
X629245Y-79404D01*
X629268Y-79381D01*
X629314Y-79335D01*
X629361Y-79312D01*
X629384D01*
X629430Y-79288D01*
X629499Y-79265D01*
X629592Y-79242D01*
X629615D01*
X629684Y-79219D01*
X630193D01*
X630309Y-79242D01*
X630332D01*
X630402Y-79265D01*
X630471Y-79288D01*
X630541Y-79312D01*
X630564D01*
X630587Y-79335D01*
X630633Y-79358D01*
X630656Y-79404D01*
X630679Y-79427D01*
X630703Y-79543D01*
Y-80862D01*
X630726Y-80839D01*
X630772Y-80769D01*
X630841Y-80677D01*
X630934Y-80538D01*
X631142Y-80260D01*
X631397Y-79983D01*
X631420Y-79960D01*
X631443Y-79913D01*
X631605Y-79774D01*
X631790Y-79612D01*
X631998Y-79450D01*
X632021D01*
X632045Y-79427D01*
X632183Y-79335D01*
X632369Y-79242D01*
X632577Y-79173D01*
X632600D01*
X632623Y-79150D01*
X632762Y-79126D01*
X632947Y-79103D01*
X633155Y-79080D01*
X633340D01*
X633456Y-79103D01*
D02*
G37*
G36*
X572924Y-79103D02*
X573132Y-79127D01*
X573363Y-79150D01*
X573618Y-79219D01*
X573849Y-79288D01*
X574080Y-79404D01*
X574104Y-79427D01*
X574173Y-79450D01*
X574289Y-79520D01*
X574427Y-79612D01*
X574566Y-79728D01*
X574728Y-79867D01*
X574890Y-80029D01*
X575029Y-80214D01*
X575052Y-80237D01*
X575099Y-80307D01*
X575145Y-80422D01*
X575237Y-80561D01*
X575330Y-80723D01*
X575399Y-80931D01*
X575492Y-81163D01*
X575561Y-81417D01*
Y-81440D01*
X575584Y-81533D01*
X575608Y-81672D01*
X575654Y-81857D01*
X575677Y-82065D01*
X575700Y-82297D01*
X575723Y-82852D01*
Y-88544D01*
Y-88567D01*
Y-88590D01*
X575677Y-88683D01*
X575654Y-88706D01*
X575538Y-88776D01*
X575515D01*
X575469Y-88799D01*
X575399D01*
X575284Y-88822D01*
X575168D01*
X575052Y-88845D01*
X574613D01*
X574474Y-88822D01*
X574451D01*
X574381Y-88799D01*
X574289D01*
X574219Y-88776D01*
X574196D01*
X574173Y-88752D01*
X574080Y-88683D01*
Y-88637D01*
X574057Y-88544D01*
Y-83083D01*
Y-83060D01*
Y-82991D01*
Y-82875D01*
X574034Y-82736D01*
X574011Y-82389D01*
X573942Y-82042D01*
Y-82019D01*
X573918Y-81950D01*
X573895Y-81880D01*
X573872Y-81764D01*
X573756Y-81487D01*
X573618Y-81232D01*
Y-81209D01*
X573571Y-81163D01*
X573479Y-81024D01*
X573294Y-80862D01*
X573062Y-80700D01*
X573039D01*
X572993Y-80677D01*
X572924Y-80631D01*
X572831Y-80607D01*
X572576Y-80538D01*
X572276Y-80515D01*
X572183D01*
X572067Y-80538D01*
X571905Y-80561D01*
X571743Y-80631D01*
X571535Y-80700D01*
X571327Y-80816D01*
X571119Y-80978D01*
X571096Y-81001D01*
X571026Y-81047D01*
X570910Y-81163D01*
X570748Y-81302D01*
X570563Y-81487D01*
X570355Y-81695D01*
X570124Y-81950D01*
X569869Y-82250D01*
Y-88544D01*
Y-88567D01*
Y-88590D01*
X569823Y-88683D01*
X569800Y-88706D01*
X569684Y-88776D01*
X569661D01*
X569614Y-88799D01*
X569545D01*
X569429Y-88822D01*
X569314D01*
X569198Y-88845D01*
X568782D01*
X568643Y-88822D01*
X568619D01*
X568550Y-88799D01*
X568458D01*
X568388Y-88776D01*
X568365D01*
X568342Y-88752D01*
X568249Y-88683D01*
Y-88637D01*
X568226Y-88544D01*
Y-83083D01*
Y-83060D01*
Y-82991D01*
Y-82875D01*
X568203Y-82736D01*
X568180Y-82389D01*
X568111Y-82042D01*
Y-82019D01*
X568087Y-81950D01*
X568064Y-81880D01*
X568018Y-81764D01*
X567925Y-81487D01*
X567763Y-81232D01*
Y-81209D01*
X567717Y-81163D01*
X567625Y-81024D01*
X567439Y-80862D01*
X567208Y-80700D01*
X567185D01*
X567162Y-80677D01*
X567092Y-80631D01*
X567000Y-80607D01*
X566745Y-80538D01*
X566421Y-80515D01*
X566329D01*
X566213Y-80538D01*
X566051Y-80561D01*
X565889Y-80631D01*
X565681Y-80700D01*
X565473Y-80816D01*
X565264Y-80978D01*
X565241Y-81001D01*
X565172Y-81047D01*
X565056Y-81163D01*
X564894Y-81302D01*
X564709Y-81487D01*
X564501Y-81695D01*
X564269Y-81950D01*
X564015Y-82250D01*
Y-88544D01*
Y-88567D01*
Y-88590D01*
X563969Y-88683D01*
X563945Y-88706D01*
X563830Y-88776D01*
X563806D01*
X563760Y-88799D01*
X563691D01*
X563575Y-88822D01*
X563483D01*
X563344Y-88845D01*
X562904D01*
X562765Y-88822D01*
X562742D01*
X562696Y-88799D01*
X562534Y-88776D01*
X562511D01*
X562488Y-88752D01*
X562395Y-88683D01*
Y-88637D01*
X562372Y-88544D01*
Y-79543D01*
Y-79520D01*
Y-79497D01*
X562395Y-79404D01*
X562418Y-79381D01*
X562464Y-79335D01*
X562511Y-79312D01*
X562534D01*
X562580Y-79288D01*
X562650Y-79265D01*
X562742Y-79242D01*
X562765D01*
X562835Y-79219D01*
X563344D01*
X563460Y-79242D01*
X563483D01*
X563552Y-79265D01*
X563621Y-79288D01*
X563691Y-79312D01*
X563714D01*
X563737Y-79335D01*
X563783Y-79358D01*
X563806Y-79404D01*
X563830Y-79427D01*
X563853Y-79543D01*
Y-80723D01*
X563876Y-80677D01*
X563992Y-80584D01*
X564131Y-80445D01*
X564316Y-80260D01*
X564524Y-80052D01*
X564778Y-79844D01*
X565033Y-79659D01*
X565311Y-79497D01*
X565334Y-79474D01*
X565426Y-79427D01*
X565588Y-79358D01*
X565773Y-79288D01*
X565982Y-79219D01*
X566236Y-79150D01*
X566491Y-79103D01*
X566768Y-79080D01*
X566977D01*
X567092Y-79103D01*
X567416Y-79127D01*
X567763Y-79219D01*
X567786D01*
X567833Y-79242D01*
X567925Y-79265D01*
X568041Y-79312D01*
X568296Y-79427D01*
X568550Y-79589D01*
X568573D01*
X568619Y-79636D01*
X568758Y-79751D01*
X568943Y-79913D01*
X569129Y-80145D01*
X569152Y-80168D01*
X569175Y-80191D01*
X569221Y-80260D01*
X569267Y-80353D01*
X569406Y-80584D01*
X569545Y-80862D01*
X569568Y-80839D01*
X569614Y-80769D01*
X569707Y-80700D01*
X569823Y-80584D01*
X570077Y-80307D01*
X570378Y-80052D01*
X570401Y-80029D01*
X570448Y-79983D01*
X570540Y-79936D01*
X570633Y-79844D01*
X570887Y-79682D01*
X571165Y-79497D01*
X571188D01*
X571234Y-79450D01*
X571304Y-79427D01*
X571396Y-79381D01*
X571651Y-79288D01*
X571905Y-79196D01*
X571928D01*
X571975Y-79173D01*
X572044Y-79150D01*
X572137Y-79127D01*
X572345Y-79103D01*
X572623Y-79080D01*
X572761D01*
X572924Y-79103D01*
D02*
G37*
G36*
X520374Y-75864D02*
X520675Y-75887D01*
X520999Y-75933D01*
X521300Y-76003D01*
X521600Y-76072D01*
X521623D01*
X521716Y-76118D01*
X521855Y-76165D01*
X522040Y-76234D01*
X522433Y-76442D01*
X522642Y-76581D01*
X522827Y-76720D01*
X522850Y-76743D01*
X522919Y-76789D01*
X523012Y-76882D01*
X523104Y-76998D01*
X523243Y-77160D01*
X523359Y-77345D01*
X523475Y-77530D01*
X523590Y-77761D01*
X523613Y-77784D01*
X523637Y-77877D01*
X523683Y-77993D01*
X523729Y-78155D01*
X523775Y-78363D01*
X523798Y-78594D01*
X523845Y-78849D01*
Y-79127D01*
Y-79150D01*
Y-79196D01*
Y-79288D01*
X523822Y-79404D01*
X523798Y-79682D01*
X523729Y-80006D01*
Y-80029D01*
X523706Y-80075D01*
X523683Y-80168D01*
X523637Y-80260D01*
X523544Y-80515D01*
X523382Y-80793D01*
Y-80816D01*
X523336Y-80839D01*
X523243Y-81001D01*
X523081Y-81209D01*
X522850Y-81417D01*
X522827D01*
X522803Y-81463D01*
X522734Y-81510D01*
X522642Y-81579D01*
X522410Y-81718D01*
X522109Y-81880D01*
X522132D01*
X522202Y-81903D01*
X522295Y-81926D01*
X522433Y-81950D01*
X522757Y-82065D01*
X523104Y-82250D01*
X523128D01*
X523174Y-82297D01*
X523266Y-82343D01*
X523382Y-82435D01*
X523637Y-82644D01*
X523891Y-82921D01*
X523914Y-82944D01*
X523960Y-82991D01*
X524007Y-83083D01*
X524099Y-83199D01*
X524169Y-83338D01*
X524261Y-83500D01*
X524446Y-83893D01*
Y-83916D01*
X524470Y-83986D01*
X524516Y-84101D01*
X524562Y-84240D01*
X524585Y-84425D01*
X524632Y-84611D01*
X524655Y-85073D01*
Y-85096D01*
Y-85189D01*
Y-85305D01*
X524632Y-85443D01*
X524608Y-85629D01*
X524585Y-85814D01*
X524493Y-86207D01*
Y-86230D01*
X524470Y-86300D01*
X524423Y-86392D01*
X524377Y-86508D01*
X524238Y-86809D01*
X524053Y-87133D01*
X524030Y-87156D01*
X524007Y-87202D01*
X523937Y-87271D01*
X523868Y-87387D01*
X523660Y-87619D01*
X523382Y-87850D01*
X523359Y-87873D01*
X523313Y-87896D01*
X523220Y-87966D01*
X523128Y-88035D01*
X522989Y-88104D01*
X522827Y-88197D01*
X522480Y-88359D01*
X522456D01*
X522387Y-88382D01*
X522295Y-88428D01*
X522156Y-88475D01*
X522017Y-88521D01*
X521832Y-88590D01*
X521415Y-88683D01*
X521392D01*
X521323Y-88706D01*
X521207D01*
X521045Y-88729D01*
X520860Y-88752D01*
X520628D01*
X520397Y-88776D01*
X516695D01*
X516602Y-88752D01*
X516463Y-88706D01*
X516301Y-88637D01*
X516278Y-88614D01*
X516209Y-88498D01*
X516139Y-88336D01*
X516116Y-88081D01*
Y-76558D01*
Y-76535D01*
Y-76489D01*
X516139Y-76350D01*
X516186Y-76165D01*
X516301Y-76003D01*
X516348Y-75979D01*
X516440Y-75910D01*
X516579Y-75864D01*
X516741Y-75841D01*
X520119D01*
X520374Y-75864D01*
D02*
G37*
G36*
X604786Y-74869D02*
X604810D01*
X604879Y-74892D01*
X604972Y-74915D01*
X605041Y-74938D01*
X605064D01*
X605087Y-74961D01*
X605180Y-75054D01*
X605203Y-75077D01*
X605226Y-75170D01*
Y-88544D01*
Y-88567D01*
Y-88590D01*
X605180Y-88683D01*
X605157Y-88706D01*
X605041Y-88776D01*
X605018D01*
X604972Y-88799D01*
X604902D01*
X604786Y-88822D01*
X604694D01*
X604555Y-88845D01*
X604115D01*
X603977Y-88822D01*
X603953D01*
X603907Y-88799D01*
X603745Y-88776D01*
X603722D01*
X603699Y-88752D01*
X603606Y-88683D01*
Y-88637D01*
X603583Y-88544D01*
Y-75170D01*
Y-75146D01*
Y-75123D01*
X603606Y-75054D01*
Y-75031D01*
X603653Y-75008D01*
X603745Y-74938D01*
X603768D01*
X603815Y-74915D01*
X603884Y-74892D01*
X603977Y-74869D01*
X604000D01*
X604092Y-74846D01*
X604671D01*
X604786Y-74869D01*
D02*
G37*
G36*
X546313Y-76836D02*
X546336D01*
X546406Y-76859D01*
X546498Y-76882D01*
X546568Y-76905D01*
X546591D01*
X546614Y-76928D01*
X546707Y-77021D01*
X546730Y-77044D01*
X546753Y-77137D01*
Y-79265D01*
X549090D01*
X549182Y-79312D01*
X549206D01*
X549229Y-79335D01*
X549298Y-79450D01*
Y-79474D01*
X549321Y-79497D01*
X549344Y-79566D01*
X549368Y-79659D01*
Y-79682D01*
X549391Y-79728D01*
Y-79844D01*
Y-79960D01*
Y-79983D01*
Y-80029D01*
Y-80168D01*
X549344Y-80330D01*
X549298Y-80492D01*
X549275Y-80515D01*
X549229Y-80561D01*
X549159Y-80607D01*
X549044Y-80631D01*
X546753D01*
Y-85652D01*
Y-85698D01*
Y-85814D01*
X546776Y-85976D01*
Y-86184D01*
X546869Y-86647D01*
X546915Y-86855D01*
X547007Y-87063D01*
X547030Y-87086D01*
X547054Y-87133D01*
X547123Y-87202D01*
X547239Y-87295D01*
X547378Y-87387D01*
X547539Y-87457D01*
X547748Y-87503D01*
X548002Y-87526D01*
X548257D01*
X548396Y-87503D01*
X548419D01*
X548511Y-87480D01*
X548604Y-87434D01*
X548720Y-87410D01*
X548743Y-87387D01*
X548812Y-87364D01*
X548951Y-87295D01*
X548974D01*
X549021Y-87271D01*
X549159Y-87248D01*
X549182D01*
X549252Y-87295D01*
X549275Y-87318D01*
X549321Y-87387D01*
Y-87410D01*
X549344Y-87434D01*
X549368Y-87572D01*
Y-87596D01*
X549391Y-87642D01*
Y-87758D01*
Y-87873D01*
Y-87919D01*
Y-88035D01*
X549368Y-88174D01*
X549344Y-88336D01*
Y-88359D01*
X549321Y-88428D01*
X549275Y-88521D01*
X549206Y-88590D01*
X549182D01*
X549159Y-88637D01*
X549090Y-88683D01*
X548974Y-88729D01*
X548951D01*
X548858Y-88752D01*
X548743Y-88776D01*
X548604Y-88822D01*
X548581D01*
X548488Y-88845D01*
X548349Y-88868D01*
X548187Y-88891D01*
X548141D01*
X548049Y-88914D01*
X547887Y-88938D01*
X547470D01*
X547308Y-88914D01*
X547123Y-88891D01*
X546915Y-88868D01*
X546521Y-88776D01*
X546498D01*
X546452Y-88729D01*
X546359Y-88706D01*
X546244Y-88637D01*
X545966Y-88452D01*
X545712Y-88220D01*
X545688Y-88197D01*
X545665Y-88151D01*
X545596Y-88058D01*
X545526Y-87943D01*
X545457Y-87804D01*
X545388Y-87642D01*
X545249Y-87248D01*
Y-87225D01*
X545226Y-87156D01*
X545202Y-87017D01*
X545179Y-86855D01*
X545156Y-86670D01*
X545133Y-86439D01*
X545110Y-86184D01*
Y-85906D01*
Y-80631D01*
X543814D01*
X543745Y-80607D01*
X543652Y-80561D01*
X543583Y-80492D01*
Y-80469D01*
X543560Y-80353D01*
X543536Y-80191D01*
X543513Y-79960D01*
Y-79936D01*
Y-79844D01*
Y-79751D01*
X543536Y-79659D01*
Y-79636D01*
X543560Y-79589D01*
Y-79520D01*
X543583Y-79450D01*
Y-79427D01*
X543606Y-79404D01*
X543698Y-79312D01*
X543722D01*
X543745Y-79288D01*
X543837Y-79265D01*
X545110D01*
Y-77137D01*
Y-77113D01*
Y-77090D01*
X545133Y-77021D01*
Y-76998D01*
X545179Y-76975D01*
X545272Y-76905D01*
X545295D01*
X545341Y-76882D01*
X545411Y-76859D01*
X545503Y-76836D01*
X545526D01*
X545619Y-76813D01*
X546198D01*
X546313Y-76836D01*
D02*
G37*
G36*
X539464D02*
X539487D01*
X539557Y-76859D01*
X539649Y-76882D01*
X539718Y-76905D01*
X539742D01*
X539765Y-76928D01*
X539857Y-77021D01*
X539880Y-77044D01*
X539903Y-77137D01*
Y-79265D01*
X542241D01*
X542333Y-79312D01*
X542356D01*
X542379Y-79335D01*
X542449Y-79450D01*
Y-79474D01*
X542472Y-79497D01*
X542495Y-79566D01*
X542518Y-79659D01*
Y-79682D01*
X542541Y-79728D01*
Y-79844D01*
Y-79960D01*
Y-79983D01*
Y-80029D01*
Y-80168D01*
X542495Y-80330D01*
X542449Y-80492D01*
X542426Y-80515D01*
X542379Y-80561D01*
X542310Y-80607D01*
X542194Y-80631D01*
X539903D01*
Y-85652D01*
Y-85698D01*
Y-85814D01*
X539927Y-85976D01*
Y-86184D01*
X540019Y-86647D01*
X540065Y-86855D01*
X540158Y-87063D01*
X540181Y-87086D01*
X540204Y-87133D01*
X540274Y-87202D01*
X540390Y-87295D01*
X540528Y-87387D01*
X540690Y-87457D01*
X540899Y-87503D01*
X541153Y-87526D01*
X541408D01*
X541546Y-87503D01*
X541570D01*
X541662Y-87480D01*
X541755Y-87434D01*
X541870Y-87410D01*
X541894Y-87387D01*
X541963Y-87364D01*
X542102Y-87295D01*
X542125D01*
X542171Y-87271D01*
X542310Y-87248D01*
X542333D01*
X542403Y-87295D01*
X542426Y-87318D01*
X542472Y-87387D01*
Y-87410D01*
X542495Y-87434D01*
X542518Y-87572D01*
Y-87596D01*
X542541Y-87642D01*
Y-87758D01*
Y-87873D01*
Y-87919D01*
Y-88035D01*
X542518Y-88174D01*
X542495Y-88336D01*
Y-88359D01*
X542472Y-88428D01*
X542426Y-88521D01*
X542356Y-88590D01*
X542333D01*
X542310Y-88637D01*
X542241Y-88683D01*
X542125Y-88729D01*
X542102D01*
X542009Y-88752D01*
X541894Y-88776D01*
X541755Y-88822D01*
X541732D01*
X541639Y-88845D01*
X541500Y-88868D01*
X541338Y-88891D01*
X541292D01*
X541199Y-88914D01*
X541037Y-88938D01*
X540621D01*
X540459Y-88914D01*
X540274Y-88891D01*
X540065Y-88868D01*
X539672Y-88776D01*
X539649D01*
X539603Y-88729D01*
X539510Y-88706D01*
X539394Y-88637D01*
X539117Y-88452D01*
X538862Y-88220D01*
X538839Y-88197D01*
X538816Y-88151D01*
X538747Y-88058D01*
X538677Y-87943D01*
X538608Y-87804D01*
X538538Y-87642D01*
X538400Y-87248D01*
Y-87225D01*
X538376Y-87156D01*
X538353Y-87017D01*
X538330Y-86855D01*
X538307Y-86670D01*
X538284Y-86439D01*
X538261Y-86184D01*
Y-85906D01*
Y-80631D01*
X536965D01*
X536895Y-80607D01*
X536803Y-80561D01*
X536733Y-80492D01*
Y-80469D01*
X536710Y-80353D01*
X536687Y-80191D01*
X536664Y-79960D01*
Y-79936D01*
Y-79844D01*
Y-79751D01*
X536687Y-79659D01*
Y-79636D01*
X536710Y-79589D01*
Y-79520D01*
X536733Y-79450D01*
Y-79427D01*
X536757Y-79404D01*
X536849Y-79312D01*
X536872D01*
X536895Y-79288D01*
X536988Y-79265D01*
X538261D01*
Y-77137D01*
Y-77113D01*
Y-77090D01*
X538284Y-77021D01*
Y-76998D01*
X538330Y-76975D01*
X538423Y-76905D01*
X538446D01*
X538492Y-76882D01*
X538562Y-76859D01*
X538654Y-76836D01*
X538677D01*
X538770Y-76813D01*
X539348D01*
X539464Y-76836D01*
D02*
G37*
G36*
X623113Y-79103D02*
X623367Y-79126D01*
X623645Y-79173D01*
X623946Y-79219D01*
X624247Y-79312D01*
X624548Y-79427D01*
X624571Y-79450D01*
X624686Y-79497D01*
X624825Y-79566D01*
X624987Y-79682D01*
X625172Y-79798D01*
X625381Y-79960D01*
X625589Y-80145D01*
X625774Y-80353D01*
X625797Y-80376D01*
X625843Y-80445D01*
X625936Y-80584D01*
X626051Y-80746D01*
X626167Y-80931D01*
X626283Y-81163D01*
X626399Y-81417D01*
X626491Y-81695D01*
Y-81718D01*
X626538Y-81834D01*
X626561Y-81973D01*
X626607Y-82181D01*
X626653Y-82435D01*
X626676Y-82713D01*
X626723Y-83014D01*
Y-83338D01*
Y-83639D01*
Y-83662D01*
Y-83708D01*
X626699Y-83847D01*
X626630Y-84032D01*
X626514Y-84194D01*
X626491Y-84217D01*
X626399Y-84263D01*
X626260Y-84333D01*
X626075Y-84356D01*
X620151D01*
Y-84379D01*
Y-84495D01*
Y-84634D01*
X620174Y-84819D01*
Y-85027D01*
X620220Y-85258D01*
X620290Y-85721D01*
Y-85744D01*
X620313Y-85814D01*
X620359Y-85929D01*
X620406Y-86068D01*
X620568Y-86415D01*
X620799Y-86762D01*
X620822Y-86786D01*
X620868Y-86832D01*
X620938Y-86901D01*
X621053Y-86994D01*
X621169Y-87109D01*
X621331Y-87202D01*
X621701Y-87410D01*
X621725D01*
X621794Y-87434D01*
X621933Y-87480D01*
X622095Y-87503D01*
X622303Y-87549D01*
X622534Y-87596D01*
X622789Y-87619D01*
X623321D01*
X623483Y-87596D01*
X623853Y-87572D01*
X624224Y-87526D01*
X624247D01*
X624316Y-87503D01*
X624409Y-87480D01*
X624524Y-87457D01*
X624802Y-87387D01*
X625103Y-87295D01*
X625126D01*
X625172Y-87271D01*
X625311Y-87202D01*
X625519Y-87133D01*
X625704Y-87063D01*
X625728D01*
X625751Y-87040D01*
X625843Y-86994D01*
X625959Y-86971D01*
X626075Y-86948D01*
X626121D01*
X626190Y-86994D01*
X626213D01*
X626237Y-87017D01*
X626283Y-87109D01*
Y-87133D01*
X626306Y-87156D01*
X626329Y-87295D01*
Y-87318D01*
X626352Y-87364D01*
Y-87480D01*
Y-87596D01*
Y-87619D01*
Y-87665D01*
X626329Y-87827D01*
Y-87850D01*
Y-87873D01*
X626306Y-88012D01*
X626283Y-88058D01*
X626237Y-88151D01*
X626213Y-88174D01*
X626167Y-88243D01*
X626121Y-88290D01*
X626005Y-88336D01*
X625843Y-88428D01*
X625820D01*
X625797Y-88452D01*
X625728Y-88475D01*
X625658Y-88498D01*
X625427Y-88567D01*
X625126Y-88660D01*
X625103D01*
X625056Y-88683D01*
X624964Y-88706D01*
X624848Y-88729D01*
X624709Y-88752D01*
X624524Y-88799D01*
X624131Y-88868D01*
X624108D01*
X624038Y-88891D01*
X623923D01*
X623784Y-88914D01*
X623599Y-88938D01*
X623391D01*
X622928Y-88961D01*
X622743D01*
X622534Y-88938D01*
X622280Y-88914D01*
X621956Y-88891D01*
X621632Y-88822D01*
X621308Y-88752D01*
X620984Y-88660D01*
X620938Y-88637D01*
X620845Y-88614D01*
X620683Y-88521D01*
X620498Y-88428D01*
X620267Y-88313D01*
X620035Y-88151D01*
X619804Y-87966D01*
X619572Y-87757D01*
X619549Y-87734D01*
X619480Y-87642D01*
X619387Y-87503D01*
X619249Y-87341D01*
X619110Y-87109D01*
X618971Y-86855D01*
X618832Y-86554D01*
X618716Y-86230D01*
Y-86184D01*
X618670Y-86068D01*
X618624Y-85883D01*
X618577Y-85605D01*
X618531Y-85305D01*
X618485Y-84934D01*
X618462Y-84518D01*
X618439Y-84078D01*
Y-84055D01*
Y-84032D01*
Y-83893D01*
X618462Y-83662D01*
X618485Y-83384D01*
X618508Y-83060D01*
X618554Y-82713D01*
X618624Y-82343D01*
X618716Y-81996D01*
X618740Y-81949D01*
X618763Y-81834D01*
X618832Y-81672D01*
X618948Y-81440D01*
X619063Y-81209D01*
X619202Y-80931D01*
X619387Y-80677D01*
X619572Y-80422D01*
X619596Y-80399D01*
X619665Y-80307D01*
X619804Y-80191D01*
X619966Y-80052D01*
X620151Y-79890D01*
X620382Y-79728D01*
X620660Y-79566D01*
X620938Y-79427D01*
X620984Y-79404D01*
X621077Y-79381D01*
X621239Y-79312D01*
X621470Y-79242D01*
X621725Y-79196D01*
X622048Y-79126D01*
X622372Y-79103D01*
X622743Y-79080D01*
X622928D01*
X623113Y-79103D01*
D02*
G37*
G36*
X597127D02*
X597382Y-79126D01*
X597683Y-79173D01*
X598007Y-79219D01*
X598330Y-79312D01*
X598655Y-79427D01*
X598701Y-79450D01*
X598793Y-79497D01*
X598955Y-79566D01*
X599140Y-79659D01*
X599372Y-79798D01*
X599603Y-79960D01*
X599835Y-80145D01*
X600043Y-80376D01*
X600066Y-80399D01*
X600135Y-80492D01*
X600228Y-80631D01*
X600367Y-80793D01*
X600482Y-81024D01*
X600621Y-81278D01*
X600760Y-81579D01*
X600876Y-81903D01*
X600899Y-81949D01*
X600922Y-82065D01*
X600968Y-82250D01*
X601015Y-82505D01*
X601061Y-82806D01*
X601107Y-83153D01*
X601153Y-83523D01*
Y-83939D01*
Y-83963D01*
Y-83986D01*
Y-84124D01*
X601130Y-84333D01*
X601107Y-84587D01*
X601084Y-84911D01*
X601038Y-85235D01*
X600945Y-85605D01*
X600853Y-85953D01*
X600830Y-85999D01*
X600806Y-86115D01*
X600737Y-86277D01*
X600621Y-86508D01*
X600506Y-86739D01*
X600367Y-87017D01*
X600182Y-87295D01*
X599973Y-87549D01*
X599950Y-87572D01*
X599881Y-87665D01*
X599742Y-87781D01*
X599580Y-87919D01*
X599372Y-88104D01*
X599140Y-88266D01*
X598863Y-88428D01*
X598539Y-88590D01*
X598493Y-88614D01*
X598377Y-88637D01*
X598215Y-88706D01*
X597960Y-88776D01*
X597683Y-88845D01*
X597336Y-88891D01*
X596965Y-88938D01*
X596549Y-88961D01*
X596364D01*
X596155Y-88938D01*
X595901Y-88914D01*
X595577Y-88891D01*
X595253Y-88822D01*
X594929Y-88752D01*
X594605Y-88637D01*
X594559Y-88614D01*
X594466Y-88567D01*
X594304Y-88498D01*
X594119Y-88405D01*
X593911Y-88266D01*
X593680Y-88104D01*
X593448Y-87896D01*
X593217Y-87688D01*
X593194Y-87665D01*
X593124Y-87572D01*
X593032Y-87434D01*
X592916Y-87271D01*
X592777Y-87040D01*
X592661Y-86786D01*
X592523Y-86485D01*
X592407Y-86161D01*
Y-86115D01*
X592361Y-85999D01*
X592337Y-85814D01*
X592291Y-85559D01*
X592245Y-85258D01*
X592199Y-84911D01*
X592175Y-84541D01*
X592152Y-84124D01*
Y-84101D01*
Y-84078D01*
Y-83939D01*
X592175Y-83731D01*
X592199Y-83454D01*
X592222Y-83130D01*
X592268Y-82806D01*
X592337Y-82435D01*
X592430Y-82088D01*
X592453Y-82042D01*
X592476Y-81926D01*
X592546Y-81764D01*
X592638Y-81533D01*
X592754Y-81301D01*
X592916Y-81024D01*
X593078Y-80746D01*
X593286Y-80492D01*
X593309Y-80469D01*
X593402Y-80376D01*
X593517Y-80260D01*
X593680Y-80098D01*
X593888Y-79936D01*
X594142Y-79774D01*
X594420Y-79589D01*
X594721Y-79450D01*
X594767Y-79427D01*
X594883Y-79381D01*
X595045Y-79335D01*
X595299Y-79265D01*
X595600Y-79196D01*
X595924Y-79126D01*
X596317Y-79103D01*
X596734Y-79080D01*
X596919D01*
X597127Y-79103D01*
D02*
G37*
G36*
X555916Y-79103D02*
X556171Y-79127D01*
X556471Y-79173D01*
X556795Y-79219D01*
X557119Y-79312D01*
X557443Y-79427D01*
X557490Y-79450D01*
X557582Y-79497D01*
X557744Y-79566D01*
X557929Y-79659D01*
X558161Y-79798D01*
X558392Y-79960D01*
X558623Y-80145D01*
X558832Y-80376D01*
X558855Y-80399D01*
X558924Y-80492D01*
X559017Y-80631D01*
X559156Y-80793D01*
X559271Y-81024D01*
X559410Y-81278D01*
X559549Y-81579D01*
X559665Y-81903D01*
X559688Y-81950D01*
X559711Y-82065D01*
X559757Y-82250D01*
X559803Y-82505D01*
X559850Y-82806D01*
X559896Y-83153D01*
X559942Y-83523D01*
Y-83940D01*
Y-83963D01*
Y-83986D01*
Y-84125D01*
X559919Y-84333D01*
X559896Y-84587D01*
X559873Y-84911D01*
X559827Y-85235D01*
X559734Y-85605D01*
X559641Y-85953D01*
X559618Y-85999D01*
X559595Y-86115D01*
X559526Y-86277D01*
X559410Y-86508D01*
X559294Y-86739D01*
X559156Y-87017D01*
X558970Y-87295D01*
X558762Y-87549D01*
X558739Y-87572D01*
X558670Y-87665D01*
X558531Y-87781D01*
X558369Y-87919D01*
X558161Y-88104D01*
X557929Y-88266D01*
X557651Y-88428D01*
X557327Y-88590D01*
X557281Y-88614D01*
X557165Y-88637D01*
X557004Y-88706D01*
X556749Y-88776D01*
X556471Y-88845D01*
X556124Y-88891D01*
X555754Y-88938D01*
X555337Y-88961D01*
X555152D01*
X554944Y-88938D01*
X554690Y-88914D01*
X554366Y-88891D01*
X554042Y-88822D01*
X553718Y-88752D01*
X553394Y-88637D01*
X553348Y-88614D01*
X553255Y-88567D01*
X553093Y-88498D01*
X552908Y-88405D01*
X552700Y-88266D01*
X552468Y-88104D01*
X552237Y-87896D01*
X552005Y-87688D01*
X551982Y-87665D01*
X551913Y-87572D01*
X551820Y-87434D01*
X551705Y-87271D01*
X551566Y-87040D01*
X551450Y-86786D01*
X551311Y-86485D01*
X551196Y-86161D01*
Y-86115D01*
X551149Y-85999D01*
X551126Y-85814D01*
X551080Y-85559D01*
X551034Y-85258D01*
X550987Y-84911D01*
X550964Y-84541D01*
X550941Y-84125D01*
Y-84101D01*
Y-84078D01*
Y-83940D01*
X550964Y-83731D01*
X550987Y-83454D01*
X551011Y-83130D01*
X551057Y-82806D01*
X551126Y-82435D01*
X551219Y-82088D01*
X551242Y-82042D01*
X551265Y-81926D01*
X551334Y-81764D01*
X551427Y-81533D01*
X551543Y-81302D01*
X551705Y-81024D01*
X551867Y-80746D01*
X552075Y-80492D01*
X552098Y-80469D01*
X552191Y-80376D01*
X552306Y-80260D01*
X552468Y-80098D01*
X552677Y-79936D01*
X552931Y-79774D01*
X553209Y-79589D01*
X553509Y-79450D01*
X553556Y-79427D01*
X553671Y-79381D01*
X553834Y-79335D01*
X554088Y-79265D01*
X554389Y-79196D01*
X554713Y-79127D01*
X555106Y-79103D01*
X555523Y-79080D01*
X555708D01*
X555916Y-79103D01*
D02*
G37*
G36*
X531411D02*
X531666Y-79127D01*
X531967Y-79173D01*
X532291Y-79219D01*
X532615Y-79312D01*
X532939Y-79427D01*
X532985Y-79450D01*
X533077Y-79497D01*
X533239Y-79566D01*
X533424Y-79659D01*
X533656Y-79798D01*
X533887Y-79960D01*
X534119Y-80145D01*
X534327Y-80376D01*
X534350Y-80399D01*
X534420Y-80492D01*
X534512Y-80631D01*
X534651Y-80793D01*
X534767Y-81024D01*
X534905Y-81278D01*
X535044Y-81579D01*
X535160Y-81903D01*
X535183Y-81950D01*
X535206Y-82065D01*
X535252Y-82250D01*
X535299Y-82505D01*
X535345Y-82806D01*
X535391Y-83153D01*
X535438Y-83523D01*
Y-83940D01*
Y-83963D01*
Y-83986D01*
Y-84125D01*
X535415Y-84333D01*
X535391Y-84587D01*
X535368Y-84911D01*
X535322Y-85235D01*
X535229Y-85605D01*
X535137Y-85953D01*
X535114Y-85999D01*
X535090Y-86115D01*
X535021Y-86277D01*
X534905Y-86508D01*
X534790Y-86739D01*
X534651Y-87017D01*
X534466Y-87295D01*
X534258Y-87549D01*
X534234Y-87572D01*
X534165Y-87665D01*
X534026Y-87781D01*
X533864Y-87919D01*
X533656Y-88104D01*
X533424Y-88266D01*
X533147Y-88428D01*
X532823Y-88590D01*
X532777Y-88614D01*
X532661Y-88637D01*
X532499Y-88706D01*
X532244Y-88776D01*
X531967Y-88845D01*
X531620Y-88891D01*
X531249Y-88938D01*
X530833Y-88961D01*
X530648D01*
X530439Y-88938D01*
X530185Y-88914D01*
X529861Y-88891D01*
X529537Y-88822D01*
X529213Y-88752D01*
X528889Y-88637D01*
X528843Y-88614D01*
X528750Y-88567D01*
X528588Y-88498D01*
X528403Y-88405D01*
X528195Y-88266D01*
X527964Y-88104D01*
X527732Y-87896D01*
X527501Y-87688D01*
X527478Y-87665D01*
X527408Y-87572D01*
X527316Y-87434D01*
X527200Y-87271D01*
X527061Y-87040D01*
X526945Y-86786D01*
X526807Y-86485D01*
X526691Y-86161D01*
Y-86115D01*
X526645Y-85999D01*
X526622Y-85814D01*
X526575Y-85559D01*
X526529Y-85258D01*
X526483Y-84911D01*
X526460Y-84541D01*
X526436Y-84125D01*
Y-84101D01*
Y-84078D01*
Y-83940D01*
X526460Y-83731D01*
X526483Y-83454D01*
X526506Y-83130D01*
X526552Y-82806D01*
X526622Y-82435D01*
X526714Y-82088D01*
X526737Y-82042D01*
X526760Y-81926D01*
X526830Y-81764D01*
X526922Y-81533D01*
X527038Y-81302D01*
X527200Y-81024D01*
X527362Y-80746D01*
X527570Y-80492D01*
X527593Y-80469D01*
X527686Y-80376D01*
X527802Y-80260D01*
X527964Y-80098D01*
X528172Y-79936D01*
X528426Y-79774D01*
X528704Y-79589D01*
X529005Y-79450D01*
X529051Y-79427D01*
X529167Y-79381D01*
X529329Y-79335D01*
X529583Y-79265D01*
X529884Y-79196D01*
X530208Y-79127D01*
X530602Y-79103D01*
X531018Y-79080D01*
X531203D01*
X531411Y-79103D01*
D02*
G37*
%LPC*%
G36*
X611705Y-80492D02*
X611613D01*
X611474Y-80515D01*
X611335Y-80538D01*
X610988Y-80607D01*
X610803Y-80700D01*
X610641Y-80793D01*
X610617Y-80816D01*
X610571Y-80839D01*
X610479Y-80908D01*
X610386Y-81001D01*
X610271Y-81116D01*
X610155Y-81255D01*
X609923Y-81602D01*
Y-81625D01*
X609877Y-81695D01*
X609831Y-81788D01*
X609761Y-81926D01*
X609715Y-82088D01*
X609646Y-82273D01*
X609530Y-82713D01*
Y-82736D01*
X609507Y-82806D01*
X609484Y-82944D01*
Y-83083D01*
X609461Y-83292D01*
X609437Y-83500D01*
X609414Y-83963D01*
Y-83986D01*
Y-84078D01*
Y-84217D01*
X609437Y-84379D01*
Y-84587D01*
X609461Y-84819D01*
X609507Y-85305D01*
Y-85328D01*
X609530Y-85420D01*
X609553Y-85536D01*
X609599Y-85698D01*
X609646Y-85860D01*
X609715Y-86068D01*
X609877Y-86462D01*
X609900Y-86485D01*
X609923Y-86531D01*
X609970Y-86624D01*
X610062Y-86739D01*
X610271Y-86994D01*
X610548Y-87248D01*
X610571Y-87271D01*
X610617Y-87295D01*
X610733Y-87341D01*
X610849Y-87387D01*
X611011Y-87457D01*
X611196Y-87503D01*
X611404Y-87526D01*
X611636Y-87549D01*
X611844D01*
X612029Y-87526D01*
X612260Y-87480D01*
X612284D01*
X612307Y-87457D01*
X612469Y-87410D01*
X612654Y-87318D01*
X612885Y-87179D01*
X612908D01*
X612932Y-87133D01*
X613001Y-87086D01*
X613093Y-87040D01*
X613302Y-86855D01*
X613556Y-86647D01*
X613579Y-86624D01*
X613626Y-86577D01*
X613695Y-86508D01*
X613788Y-86415D01*
X614042Y-86138D01*
X614320Y-85814D01*
Y-82204D01*
X614297Y-82158D01*
X614204Y-82065D01*
X614065Y-81926D01*
X613903Y-81741D01*
X613718Y-81533D01*
X613487Y-81325D01*
X613255Y-81116D01*
X613024Y-80931D01*
X613001Y-80908D01*
X612908Y-80862D01*
X612793Y-80793D01*
X612631Y-80700D01*
X612422Y-80631D01*
X612214Y-80561D01*
X611960Y-80515D01*
X611705Y-80492D01*
D02*
G37*
G36*
X519865Y-77252D02*
X517829D01*
Y-81440D01*
X520027D01*
X520189Y-81417D01*
X520536Y-81371D01*
X520698Y-81325D01*
X520860Y-81278D01*
X520883D01*
X520929Y-81255D01*
X520999Y-81209D01*
X521114Y-81140D01*
X521323Y-81001D01*
X521554Y-80816D01*
X521577Y-80793D01*
X521600Y-80769D01*
X521647Y-80700D01*
X521716Y-80607D01*
X521832Y-80399D01*
X521947Y-80121D01*
Y-80098D01*
X521970Y-80052D01*
X521994Y-79983D01*
X522017Y-79867D01*
X522063Y-79612D01*
X522086Y-79312D01*
Y-79288D01*
Y-79219D01*
Y-79127D01*
X522063Y-79011D01*
X522040Y-78733D01*
X521947Y-78455D01*
Y-78432D01*
X521924Y-78386D01*
X521901Y-78317D01*
X521855Y-78224D01*
X521716Y-78016D01*
X521531Y-77807D01*
X521508Y-77784D01*
X521485Y-77761D01*
X521415Y-77715D01*
X521346Y-77669D01*
X521091Y-77530D01*
X520790Y-77414D01*
X520767D01*
X520721Y-77391D01*
X520605Y-77368D01*
X520490Y-77322D01*
X520304Y-77298D01*
X520119Y-77275D01*
X519865Y-77252D01*
D02*
G37*
G36*
X520189Y-82806D02*
X517829D01*
Y-87364D01*
X520536D01*
X520675Y-87341D01*
X520999Y-87295D01*
X521346Y-87225D01*
X521369D01*
X521415Y-87202D01*
X521508Y-87156D01*
X521600Y-87133D01*
X521855Y-86994D01*
X522109Y-86832D01*
X522132Y-86809D01*
X522179Y-86786D01*
X522318Y-86647D01*
X522480Y-86415D01*
X522642Y-86138D01*
Y-86115D01*
X522665Y-86068D01*
X522711Y-85976D01*
X522757Y-85860D01*
X522780Y-85721D01*
X522827Y-85559D01*
X522850Y-85189D01*
Y-85166D01*
Y-85096D01*
Y-84981D01*
X522827Y-84842D01*
X522780Y-84518D01*
X522665Y-84171D01*
Y-84148D01*
X522642Y-84101D01*
X522595Y-84009D01*
X522526Y-83916D01*
X522364Y-83662D01*
X522109Y-83430D01*
X522086Y-83407D01*
X522040Y-83384D01*
X521970Y-83315D01*
X521878Y-83268D01*
X521739Y-83176D01*
X521600Y-83106D01*
X521230Y-82968D01*
X521207D01*
X521138Y-82944D01*
X521022Y-82921D01*
X520860Y-82875D01*
X520675Y-82852D01*
X520443Y-82829D01*
X520189Y-82806D01*
D02*
G37*
G36*
X622673Y-80376D02*
X622442D01*
X622303Y-80399D01*
X621956Y-80469D01*
X621586Y-80607D01*
X621562D01*
X621516Y-80654D01*
X621424Y-80700D01*
X621308Y-80769D01*
X621053Y-80978D01*
X620799Y-81232D01*
X620776Y-81255D01*
X620753Y-81301D01*
X620683Y-81371D01*
X620637Y-81487D01*
X620544Y-81602D01*
X620475Y-81764D01*
X620313Y-82111D01*
Y-82135D01*
X620290Y-82204D01*
X620267Y-82296D01*
X620243Y-82435D01*
X620197Y-82597D01*
X620174Y-82759D01*
X620151Y-83153D01*
X625056D01*
Y-83130D01*
Y-83083D01*
Y-83037D01*
Y-82944D01*
X625033Y-82713D01*
X624987Y-82412D01*
X624918Y-82088D01*
X624802Y-81741D01*
X624663Y-81417D01*
X624455Y-81116D01*
X624432Y-81093D01*
X624339Y-81001D01*
X624200Y-80885D01*
X624015Y-80746D01*
X623761Y-80607D01*
X623460Y-80492D01*
X623090Y-80399D01*
X622673Y-80376D01*
D02*
G37*
G36*
X596665Y-80469D02*
X596549D01*
X596410Y-80492D01*
X596225D01*
X596040Y-80538D01*
X595808Y-80584D01*
X595600Y-80654D01*
X595392Y-80746D01*
X595369D01*
X595299Y-80793D01*
X595207Y-80862D01*
X595091Y-80931D01*
X594813Y-81163D01*
X594536Y-81487D01*
X594512Y-81510D01*
X594489Y-81579D01*
X594420Y-81672D01*
X594351Y-81788D01*
X594258Y-81949D01*
X594165Y-82158D01*
X594096Y-82366D01*
X594027Y-82597D01*
Y-82620D01*
X594003Y-82713D01*
X593980Y-82852D01*
X593957Y-83014D01*
X593911Y-83222D01*
X593888Y-83477D01*
X593865Y-83731D01*
Y-84009D01*
Y-84032D01*
Y-84124D01*
Y-84286D01*
X593888Y-84448D01*
Y-84680D01*
X593911Y-84911D01*
X593980Y-85397D01*
Y-85420D01*
X594003Y-85513D01*
X594050Y-85629D01*
X594096Y-85791D01*
X594235Y-86138D01*
X594443Y-86531D01*
X594466Y-86554D01*
X594512Y-86601D01*
X594582Y-86693D01*
X594674Y-86809D01*
X594790Y-86924D01*
X594952Y-87063D01*
X595299Y-87295D01*
X595322D01*
X595392Y-87341D01*
X595508Y-87387D01*
X595670Y-87434D01*
X595855Y-87480D01*
X596086Y-87526D01*
X596340Y-87549D01*
X596618Y-87572D01*
X596734D01*
X596873Y-87549D01*
X597058D01*
X597266Y-87503D01*
X597474Y-87457D01*
X597683Y-87410D01*
X597891Y-87318D01*
X597914Y-87295D01*
X597983Y-87271D01*
X598076Y-87202D01*
X598192Y-87133D01*
X598493Y-86901D01*
X598770Y-86601D01*
X598793Y-86577D01*
X598816Y-86508D01*
X598886Y-86415D01*
X598955Y-86277D01*
X599048Y-86115D01*
X599140Y-85929D01*
X599210Y-85721D01*
X599279Y-85490D01*
Y-85467D01*
X599302Y-85374D01*
X599325Y-85235D01*
X599372Y-85050D01*
X599395Y-84842D01*
X599418Y-84611D01*
X599441Y-84055D01*
Y-84032D01*
Y-83939D01*
Y-83778D01*
X599418Y-83592D01*
Y-83384D01*
X599395Y-83153D01*
X599302Y-82667D01*
Y-82644D01*
X599279Y-82551D01*
X599233Y-82435D01*
X599187Y-82273D01*
X599048Y-81903D01*
X598840Y-81533D01*
X598816Y-81510D01*
X598793Y-81440D01*
X598724Y-81371D01*
X598631Y-81255D01*
X598516Y-81140D01*
X598354Y-81001D01*
X598192Y-80885D01*
X598007Y-80769D01*
X597983Y-80746D01*
X597914Y-80723D01*
X597798Y-80677D01*
X597636Y-80607D01*
X597451Y-80561D01*
X597220Y-80515D01*
X596965Y-80492D01*
X596665Y-80469D01*
D02*
G37*
G36*
X555453Y-80469D02*
X555337D01*
X555199Y-80492D01*
X555014D01*
X554828Y-80538D01*
X554597Y-80584D01*
X554389Y-80654D01*
X554181Y-80746D01*
X554157D01*
X554088Y-80793D01*
X553995Y-80862D01*
X553880Y-80931D01*
X553602Y-81163D01*
X553324Y-81487D01*
X553301Y-81510D01*
X553278Y-81579D01*
X553209Y-81672D01*
X553139Y-81788D01*
X553047Y-81950D01*
X552954Y-82158D01*
X552885Y-82366D01*
X552815Y-82597D01*
Y-82620D01*
X552792Y-82713D01*
X552769Y-82852D01*
X552746Y-83014D01*
X552700Y-83222D01*
X552677Y-83477D01*
X552653Y-83731D01*
Y-84009D01*
Y-84032D01*
Y-84125D01*
Y-84286D01*
X552677Y-84448D01*
Y-84680D01*
X552700Y-84911D01*
X552769Y-85397D01*
Y-85420D01*
X552792Y-85513D01*
X552839Y-85629D01*
X552885Y-85791D01*
X553024Y-86138D01*
X553232Y-86531D01*
X553255Y-86554D01*
X553301Y-86601D01*
X553371Y-86693D01*
X553463Y-86809D01*
X553579Y-86924D01*
X553741Y-87063D01*
X554088Y-87295D01*
X554111D01*
X554181Y-87341D01*
X554296Y-87387D01*
X554458Y-87434D01*
X554643Y-87480D01*
X554875Y-87526D01*
X555129Y-87549D01*
X555407Y-87572D01*
X555523D01*
X555662Y-87549D01*
X555847D01*
X556055Y-87503D01*
X556263Y-87457D01*
X556471Y-87410D01*
X556680Y-87318D01*
X556703Y-87295D01*
X556772Y-87271D01*
X556865Y-87202D01*
X556980Y-87133D01*
X557281Y-86901D01*
X557559Y-86601D01*
X557582Y-86577D01*
X557605Y-86508D01*
X557675Y-86415D01*
X557744Y-86277D01*
X557837Y-86115D01*
X557929Y-85929D01*
X557999Y-85721D01*
X558068Y-85490D01*
Y-85467D01*
X558091Y-85374D01*
X558114Y-85235D01*
X558161Y-85050D01*
X558184Y-84842D01*
X558207Y-84611D01*
X558230Y-84055D01*
Y-84032D01*
Y-83940D01*
Y-83778D01*
X558207Y-83592D01*
Y-83384D01*
X558184Y-83153D01*
X558091Y-82667D01*
Y-82644D01*
X558068Y-82551D01*
X558022Y-82435D01*
X557975Y-82273D01*
X557837Y-81903D01*
X557628Y-81533D01*
X557605Y-81510D01*
X557582Y-81440D01*
X557513Y-81371D01*
X557420Y-81255D01*
X557304Y-81140D01*
X557142Y-81001D01*
X556980Y-80885D01*
X556795Y-80769D01*
X556772Y-80746D01*
X556703Y-80723D01*
X556587Y-80677D01*
X556425Y-80607D01*
X556240Y-80561D01*
X556009Y-80515D01*
X555754Y-80492D01*
X555453Y-80469D01*
D02*
G37*
G36*
X530949D02*
X530833D01*
X530694Y-80492D01*
X530509D01*
X530324Y-80538D01*
X530092Y-80584D01*
X529884Y-80654D01*
X529676Y-80746D01*
X529653D01*
X529583Y-80793D01*
X529491Y-80862D01*
X529375Y-80931D01*
X529097Y-81163D01*
X528820Y-81487D01*
X528797Y-81510D01*
X528773Y-81579D01*
X528704Y-81672D01*
X528635Y-81788D01*
X528542Y-81950D01*
X528450Y-82158D01*
X528380Y-82366D01*
X528311Y-82597D01*
Y-82620D01*
X528288Y-82713D01*
X528264Y-82852D01*
X528241Y-83014D01*
X528195Y-83222D01*
X528172Y-83477D01*
X528149Y-83731D01*
Y-84009D01*
Y-84032D01*
Y-84125D01*
Y-84286D01*
X528172Y-84448D01*
Y-84680D01*
X528195Y-84911D01*
X528264Y-85397D01*
Y-85420D01*
X528288Y-85513D01*
X528334Y-85629D01*
X528380Y-85791D01*
X528519Y-86138D01*
X528727Y-86531D01*
X528750Y-86554D01*
X528797Y-86601D01*
X528866Y-86693D01*
X528959Y-86809D01*
X529074Y-86924D01*
X529236Y-87063D01*
X529583Y-87295D01*
X529607D01*
X529676Y-87341D01*
X529792Y-87387D01*
X529954Y-87434D01*
X530139Y-87480D01*
X530370Y-87526D01*
X530625Y-87549D01*
X530902Y-87572D01*
X531018D01*
X531157Y-87549D01*
X531342D01*
X531550Y-87503D01*
X531758Y-87457D01*
X531967Y-87410D01*
X532175Y-87318D01*
X532198Y-87295D01*
X532267Y-87271D01*
X532360Y-87202D01*
X532476Y-87133D01*
X532777Y-86901D01*
X533054Y-86601D01*
X533077Y-86577D01*
X533101Y-86508D01*
X533170Y-86415D01*
X533239Y-86277D01*
X533332Y-86115D01*
X533424Y-85929D01*
X533494Y-85721D01*
X533563Y-85490D01*
Y-85467D01*
X533587Y-85374D01*
X533610Y-85235D01*
X533656Y-85050D01*
X533679Y-84842D01*
X533702Y-84611D01*
X533725Y-84055D01*
Y-84032D01*
Y-83940D01*
Y-83778D01*
X533702Y-83592D01*
Y-83384D01*
X533679Y-83153D01*
X533587Y-82667D01*
Y-82644D01*
X533563Y-82551D01*
X533517Y-82435D01*
X533471Y-82273D01*
X533332Y-81903D01*
X533124Y-81533D01*
X533101Y-81510D01*
X533077Y-81440D01*
X533008Y-81371D01*
X532915Y-81255D01*
X532800Y-81140D01*
X532638Y-81001D01*
X532476Y-80885D01*
X532291Y-80769D01*
X532267Y-80746D01*
X532198Y-80723D01*
X532082Y-80677D01*
X531920Y-80607D01*
X531735Y-80561D01*
X531504Y-80515D01*
X531249Y-80492D01*
X530949Y-80469D01*
D02*
G37*
%LPD*%
D32*
X121375Y83530D02*
D03*
X110375Y64478D02*
D03*
X58155Y120030D02*
D03*
X47155Y100978D02*
D03*
D33*
X95001Y65848D02*
D03*
X82010Y73348D02*
D03*
X56030Y88349D02*
D03*
D34*
X-113500Y-30000D02*
D03*
X113500D02*
D03*
D35*
X0D02*
D03*
M02*
