G04*
G04 #@! TF.GenerationSoftware,Altium Limited,Altium Designer,20.1.14 (287)*
G04*
G04 Layer_Color=128*
%FSLAX44Y44*%
%MOMM*%
G71*
G04*
G04 #@! TF.SameCoordinates,555A517A-9F76-4A69-B8FD-E90865B7C856*
G04*
G04*
G04 #@! TF.FilePolarity,Positive*
G04*
G01*
G75*
G04:AMPARAMS|DCode=27|XSize=0.8mm|YSize=1mm|CornerRadius=0.2mm|HoleSize=0mm|Usage=FLASHONLY|Rotation=240.000|XOffset=0mm|YOffset=0mm|HoleType=Round|Shape=RoundedRectangle|*
%AMROUNDEDRECTD27*
21,1,0.8000,0.6000,0,0,240.0*
21,1,0.4000,1.0000,0,0,240.0*
1,1,0.4000,-0.3598,-0.0232*
1,1,0.4000,-0.1598,0.3232*
1,1,0.4000,0.3598,0.0232*
1,1,0.4000,0.1598,-0.3232*
%
%ADD27ROUNDEDRECTD27*%
G04:AMPARAMS|DCode=28|XSize=0.7mm|YSize=1.5mm|CornerRadius=0.175mm|HoleSize=0mm|Usage=FLASHONLY|Rotation=330.000|XOffset=0mm|YOffset=0mm|HoleType=Round|Shape=RoundedRectangle|*
%AMROUNDEDRECTD28*
21,1,0.7000,1.1500,0,0,330.0*
21,1,0.3500,1.5000,0,0,330.0*
1,1,0.3500,-0.1360,-0.5855*
1,1,0.3500,-0.4391,-0.4105*
1,1,0.3500,0.1360,0.5855*
1,1,0.3500,0.4391,0.4105*
%
%ADD28ROUNDEDRECTD28*%
G04:AMPARAMS|DCode=29|XSize=2.5mm|YSize=5.1mm|CornerRadius=0.625mm|HoleSize=0mm|Usage=FLASHONLY|Rotation=0.000|XOffset=0mm|YOffset=0mm|HoleType=Round|Shape=RoundedRectangle|*
%AMROUNDEDRECTD29*
21,1,2.5000,3.8500,0,0,0.0*
21,1,1.2500,5.1000,0,0,0.0*
1,1,1.2500,0.6250,-1.9250*
1,1,1.2500,-0.6250,-1.9250*
1,1,1.2500,-0.6250,1.9250*
1,1,1.2500,0.6250,1.9250*
%
%ADD29ROUNDEDRECTD29*%
%ADD30C,17.8000*%
G36*
X572924Y-54103D02*
X573132Y-54127D01*
X573363Y-54150D01*
X573618Y-54219D01*
X573849Y-54288D01*
X574080Y-54404D01*
X574104Y-54427D01*
X574173Y-54450D01*
X574289Y-54520D01*
X574427Y-54612D01*
X574566Y-54728D01*
X574728Y-54867D01*
X574890Y-55029D01*
X575029Y-55214D01*
X575052Y-55237D01*
X575099Y-55307D01*
X575145Y-55422D01*
X575237Y-55561D01*
X575330Y-55723D01*
X575399Y-55931D01*
X575492Y-56163D01*
X575561Y-56417D01*
Y-56440D01*
X575584Y-56533D01*
X575608Y-56672D01*
X575654Y-56857D01*
X575677Y-57065D01*
X575700Y-57297D01*
X575723Y-57852D01*
Y-63544D01*
Y-63567D01*
Y-63590D01*
X575677Y-63683D01*
X575654Y-63706D01*
X575538Y-63776D01*
X575515D01*
X575469Y-63799D01*
X575399D01*
X575284Y-63822D01*
X575168D01*
X575052Y-63845D01*
X574613D01*
X574474Y-63822D01*
X574451D01*
X574381Y-63799D01*
X574289D01*
X574219Y-63776D01*
X574196D01*
X574173Y-63752D01*
X574080Y-63683D01*
Y-63637D01*
X574057Y-63544D01*
Y-58083D01*
Y-58060D01*
Y-57991D01*
Y-57875D01*
X574034Y-57736D01*
X574011Y-57389D01*
X573942Y-57042D01*
Y-57019D01*
X573918Y-56950D01*
X573895Y-56880D01*
X573872Y-56764D01*
X573756Y-56487D01*
X573618Y-56232D01*
Y-56209D01*
X573571Y-56163D01*
X573479Y-56024D01*
X573294Y-55862D01*
X573062Y-55700D01*
X573039D01*
X572993Y-55677D01*
X572924Y-55630D01*
X572831Y-55607D01*
X572576Y-55538D01*
X572276Y-55515D01*
X572183D01*
X572067Y-55538D01*
X571905Y-55561D01*
X571743Y-55630D01*
X571535Y-55700D01*
X571327Y-55816D01*
X571119Y-55978D01*
X571096Y-56001D01*
X571026Y-56047D01*
X570910Y-56163D01*
X570748Y-56302D01*
X570563Y-56487D01*
X570355Y-56695D01*
X570124Y-56950D01*
X569869Y-57250D01*
Y-63544D01*
Y-63567D01*
Y-63590D01*
X569823Y-63683D01*
X569800Y-63706D01*
X569684Y-63776D01*
X569661D01*
X569614Y-63799D01*
X569545D01*
X569429Y-63822D01*
X569314D01*
X569198Y-63845D01*
X568782D01*
X568643Y-63822D01*
X568619D01*
X568550Y-63799D01*
X568458D01*
X568388Y-63776D01*
X568365D01*
X568342Y-63752D01*
X568249Y-63683D01*
Y-63637D01*
X568226Y-63544D01*
Y-58083D01*
Y-58060D01*
Y-57991D01*
Y-57875D01*
X568203Y-57736D01*
X568180Y-57389D01*
X568111Y-57042D01*
Y-57019D01*
X568087Y-56950D01*
X568064Y-56880D01*
X568018Y-56764D01*
X567925Y-56487D01*
X567763Y-56232D01*
Y-56209D01*
X567717Y-56163D01*
X567625Y-56024D01*
X567439Y-55862D01*
X567208Y-55700D01*
X567185D01*
X567162Y-55677D01*
X567092Y-55630D01*
X567000Y-55607D01*
X566745Y-55538D01*
X566421Y-55515D01*
X566329D01*
X566213Y-55538D01*
X566051Y-55561D01*
X565889Y-55630D01*
X565681Y-55700D01*
X565473Y-55816D01*
X565264Y-55978D01*
X565241Y-56001D01*
X565172Y-56047D01*
X565056Y-56163D01*
X564894Y-56302D01*
X564709Y-56487D01*
X564501Y-56695D01*
X564269Y-56950D01*
X564015Y-57250D01*
Y-63544D01*
Y-63567D01*
Y-63590D01*
X563969Y-63683D01*
X563945Y-63706D01*
X563830Y-63776D01*
X563806D01*
X563760Y-63799D01*
X563691D01*
X563575Y-63822D01*
X563483D01*
X563344Y-63845D01*
X562904D01*
X562765Y-63822D01*
X562742D01*
X562696Y-63799D01*
X562534Y-63776D01*
X562511D01*
X562488Y-63752D01*
X562395Y-63683D01*
Y-63637D01*
X562372Y-63544D01*
Y-54543D01*
Y-54520D01*
Y-54497D01*
X562395Y-54404D01*
X562418Y-54381D01*
X562464Y-54335D01*
X562511Y-54312D01*
X562534D01*
X562580Y-54288D01*
X562650Y-54265D01*
X562742Y-54242D01*
X562765D01*
X562835Y-54219D01*
X563344D01*
X563460Y-54242D01*
X563483D01*
X563552Y-54265D01*
X563621Y-54288D01*
X563691Y-54312D01*
X563714D01*
X563737Y-54335D01*
X563783Y-54358D01*
X563806Y-54404D01*
X563830Y-54427D01*
X563853Y-54543D01*
Y-55723D01*
X563876Y-55677D01*
X563992Y-55584D01*
X564131Y-55445D01*
X564316Y-55260D01*
X564524Y-55052D01*
X564778Y-54844D01*
X565033Y-54659D01*
X565311Y-54497D01*
X565334Y-54474D01*
X565426Y-54427D01*
X565588Y-54358D01*
X565773Y-54288D01*
X565982Y-54219D01*
X566236Y-54150D01*
X566491Y-54103D01*
X566768Y-54080D01*
X566977D01*
X567092Y-54103D01*
X567416Y-54127D01*
X567763Y-54219D01*
X567786D01*
X567833Y-54242D01*
X567925Y-54265D01*
X568041Y-54312D01*
X568296Y-54427D01*
X568550Y-54589D01*
X568573D01*
X568619Y-54636D01*
X568758Y-54751D01*
X568943Y-54913D01*
X569129Y-55145D01*
X569152Y-55168D01*
X569175Y-55191D01*
X569221Y-55260D01*
X569267Y-55353D01*
X569406Y-55584D01*
X569545Y-55862D01*
X569568Y-55839D01*
X569614Y-55769D01*
X569707Y-55700D01*
X569823Y-55584D01*
X570077Y-55307D01*
X570378Y-55052D01*
X570401Y-55029D01*
X570448Y-54983D01*
X570540Y-54936D01*
X570633Y-54844D01*
X570887Y-54682D01*
X571165Y-54497D01*
X571188D01*
X571234Y-54450D01*
X571304Y-54427D01*
X571396Y-54381D01*
X571651Y-54288D01*
X571905Y-54196D01*
X571928D01*
X571975Y-54173D01*
X572044Y-54150D01*
X572137Y-54127D01*
X572345Y-54103D01*
X572623Y-54080D01*
X572761D01*
X572924Y-54103D01*
D02*
G37*
G36*
X606962Y-54103D02*
X607216Y-54150D01*
X607285D01*
X607355Y-54173D01*
X607448Y-54196D01*
X607656Y-54242D01*
X607864Y-54311D01*
X607887D01*
X607910Y-54335D01*
X608049Y-54358D01*
X608211Y-54427D01*
X608373Y-54497D01*
X608419Y-54520D01*
X608489Y-54566D01*
X608581Y-54612D01*
X608674Y-54682D01*
X608697D01*
X608743Y-54728D01*
X608789Y-54774D01*
X608813Y-54821D01*
X608836Y-54867D01*
X608859Y-54960D01*
Y-54983D01*
X608882Y-55006D01*
X608905Y-55145D01*
Y-55168D01*
X608928Y-55214D01*
Y-55307D01*
Y-55399D01*
Y-55422D01*
Y-55515D01*
Y-55607D01*
X608905Y-55723D01*
Y-55746D01*
X608882Y-55792D01*
X608836Y-55908D01*
X608813Y-55954D01*
X608766Y-56024D01*
X608743D01*
X608651Y-56047D01*
X608628D01*
X608581Y-56024D01*
X608512Y-56001D01*
X608396Y-55954D01*
X608373Y-55931D01*
X608280Y-55885D01*
X608142Y-55816D01*
X607957Y-55723D01*
X607910Y-55700D01*
X607794Y-55630D01*
X607586Y-55561D01*
X607332Y-55469D01*
X607309D01*
X607262Y-55445D01*
X607193Y-55422D01*
X607100Y-55399D01*
X606823Y-55376D01*
X606499Y-55353D01*
X606360D01*
X606244Y-55376D01*
X606013Y-55399D01*
X605758Y-55469D01*
X605735D01*
X605712Y-55492D01*
X605573Y-55538D01*
X605388Y-55630D01*
X605226Y-55746D01*
X605203Y-55769D01*
X605110Y-55862D01*
X605018Y-56001D01*
X604925Y-56163D01*
X604902Y-56209D01*
X604879Y-56301D01*
X604856Y-56463D01*
X604833Y-56672D01*
Y-56695D01*
Y-56741D01*
Y-56811D01*
X604856Y-56903D01*
X604902Y-57111D01*
X605018Y-57343D01*
X605064Y-57389D01*
X605157Y-57505D01*
X605319Y-57644D01*
X605527Y-57806D01*
X605550D01*
X605596Y-57829D01*
X605643Y-57875D01*
X605735Y-57921D01*
X605966Y-58037D01*
X606267Y-58153D01*
X606291D01*
X606337Y-58176D01*
X606429Y-58222D01*
X606522Y-58245D01*
X606800Y-58361D01*
X607100Y-58477D01*
X607123D01*
X607170Y-58500D01*
X607262Y-58546D01*
X607355Y-58592D01*
X607633Y-58708D01*
X607933Y-58870D01*
X607957D01*
X608003Y-58916D01*
X608072Y-58963D01*
X608188Y-59009D01*
X608419Y-59171D01*
X608674Y-59379D01*
X608697Y-59402D01*
X608720Y-59425D01*
X608789Y-59495D01*
X608859Y-59564D01*
X609021Y-59796D01*
X609183Y-60096D01*
Y-60120D01*
X609206Y-60166D01*
X609252Y-60258D01*
X609299Y-60374D01*
X609322Y-60513D01*
X609368Y-60698D01*
X609391Y-61091D01*
Y-61115D01*
Y-61207D01*
X609368Y-61346D01*
Y-61508D01*
X609322Y-61693D01*
X609276Y-61901D01*
X609206Y-62109D01*
X609114Y-62318D01*
Y-62341D01*
X609067Y-62410D01*
X608998Y-62503D01*
X608928Y-62619D01*
X608697Y-62919D01*
X608396Y-63220D01*
X608373Y-63243D01*
X608304Y-63290D01*
X608211Y-63336D01*
X608095Y-63429D01*
X607933Y-63521D01*
X607725Y-63614D01*
X607517Y-63706D01*
X607285Y-63776D01*
X607262D01*
X607170Y-63799D01*
X607031Y-63822D01*
X606869Y-63868D01*
X606661Y-63891D01*
X606406Y-63938D01*
X606129Y-63961D01*
X605666D01*
X605550Y-63938D01*
X605249Y-63914D01*
X604925Y-63868D01*
X604902D01*
X604856Y-63845D01*
X604786D01*
X604671Y-63822D01*
X604439Y-63776D01*
X604162Y-63706D01*
X604138D01*
X604115Y-63683D01*
X603953Y-63637D01*
X603768Y-63567D01*
X603560Y-63475D01*
X603514Y-63452D01*
X603421Y-63382D01*
X603306Y-63313D01*
X603213Y-63243D01*
X603190Y-63220D01*
X603167Y-63174D01*
X603120Y-63081D01*
X603074Y-62966D01*
Y-62943D01*
X603051Y-62827D01*
X603028Y-62688D01*
Y-62480D01*
Y-62457D01*
Y-62364D01*
Y-62271D01*
Y-62156D01*
Y-62133D01*
X603051Y-62086D01*
Y-62017D01*
X603074Y-61948D01*
Y-61924D01*
X603097Y-61901D01*
X603144Y-61855D01*
X603167Y-61832D01*
X603190D01*
X603213Y-61809D01*
X603306Y-61786D01*
X603329D01*
X603375Y-61809D01*
X603467Y-61832D01*
X603606Y-61924D01*
X603653Y-61948D01*
X603768Y-62017D01*
X603930Y-62109D01*
X604138Y-62225D01*
X604162D01*
X604208Y-62248D01*
X604254Y-62271D01*
X604347Y-62318D01*
X604578Y-62410D01*
X604879Y-62526D01*
X604902D01*
X604948Y-62549D01*
X605041Y-62572D01*
X605180D01*
X605319Y-62596D01*
X605504Y-62619D01*
X605897Y-62642D01*
X606152D01*
X606383Y-62619D01*
X606638Y-62572D01*
X606661D01*
X606707Y-62549D01*
X606846Y-62503D01*
X607031Y-62434D01*
X607239Y-62318D01*
X607262D01*
X607285Y-62295D01*
X607378Y-62179D01*
X607517Y-62040D01*
X607633Y-61855D01*
Y-61832D01*
X607656Y-61809D01*
X607702Y-61670D01*
X607748Y-61462D01*
X607771Y-61207D01*
Y-61184D01*
Y-61138D01*
Y-61068D01*
X607748Y-60999D01*
X607679Y-60791D01*
X607563Y-60582D01*
Y-60559D01*
X607540Y-60536D01*
X607424Y-60420D01*
X607262Y-60258D01*
X607054Y-60120D01*
X607031D01*
X607008Y-60073D01*
X606938Y-60050D01*
X606846Y-60004D01*
X606614Y-59888D01*
X606337Y-59772D01*
X606314D01*
X606267Y-59749D01*
X606198Y-59703D01*
X606082Y-59680D01*
X605828Y-59564D01*
X605504Y-59448D01*
X605481D01*
X605434Y-59425D01*
X605342Y-59379D01*
X605249Y-59333D01*
X604972Y-59194D01*
X604671Y-59055D01*
X604648D01*
X604601Y-59009D01*
X604532Y-58963D01*
X604439Y-58916D01*
X604208Y-58754D01*
X603953Y-58546D01*
X603930Y-58523D01*
X603907Y-58477D01*
X603838Y-58430D01*
X603768Y-58338D01*
X603606Y-58106D01*
X603444Y-57806D01*
Y-57783D01*
X603421Y-57736D01*
X603398Y-57644D01*
X603352Y-57505D01*
X603329Y-57366D01*
X603282Y-57181D01*
X603259Y-56764D01*
Y-56741D01*
Y-56672D01*
Y-56579D01*
X603282Y-56440D01*
X603329Y-56116D01*
X603444Y-55746D01*
Y-55723D01*
X603491Y-55654D01*
X603537Y-55561D01*
X603606Y-55445D01*
X603791Y-55168D01*
X604046Y-54890D01*
X604069Y-54867D01*
X604115Y-54821D01*
X604208Y-54751D01*
X604324Y-54682D01*
X604486Y-54589D01*
X604648Y-54497D01*
X605064Y-54311D01*
X605087D01*
X605180Y-54265D01*
X605295Y-54242D01*
X605481Y-54196D01*
X605689Y-54150D01*
X605943Y-54126D01*
X606221Y-54080D01*
X606730D01*
X606962Y-54103D01*
D02*
G37*
G36*
X520374Y-50864D02*
X520675Y-50887D01*
X520999Y-50933D01*
X521300Y-51003D01*
X521600Y-51072D01*
X521623D01*
X521716Y-51118D01*
X521855Y-51165D01*
X522040Y-51234D01*
X522433Y-51442D01*
X522642Y-51581D01*
X522827Y-51720D01*
X522850Y-51743D01*
X522919Y-51789D01*
X523012Y-51882D01*
X523104Y-51998D01*
X523243Y-52160D01*
X523359Y-52345D01*
X523475Y-52530D01*
X523590Y-52761D01*
X523613Y-52784D01*
X523637Y-52877D01*
X523683Y-52993D01*
X523729Y-53155D01*
X523775Y-53363D01*
X523798Y-53594D01*
X523845Y-53849D01*
Y-54127D01*
Y-54150D01*
Y-54196D01*
Y-54288D01*
X523822Y-54404D01*
X523798Y-54682D01*
X523729Y-55006D01*
Y-55029D01*
X523706Y-55075D01*
X523683Y-55168D01*
X523637Y-55260D01*
X523544Y-55515D01*
X523382Y-55792D01*
Y-55816D01*
X523336Y-55839D01*
X523243Y-56001D01*
X523081Y-56209D01*
X522850Y-56417D01*
X522827D01*
X522803Y-56463D01*
X522734Y-56510D01*
X522642Y-56579D01*
X522410Y-56718D01*
X522109Y-56880D01*
X522132D01*
X522202Y-56903D01*
X522295Y-56926D01*
X522433Y-56950D01*
X522757Y-57065D01*
X523104Y-57250D01*
X523128D01*
X523174Y-57297D01*
X523266Y-57343D01*
X523382Y-57435D01*
X523637Y-57644D01*
X523891Y-57921D01*
X523914Y-57944D01*
X523960Y-57991D01*
X524007Y-58083D01*
X524099Y-58199D01*
X524169Y-58338D01*
X524261Y-58500D01*
X524446Y-58893D01*
Y-58916D01*
X524470Y-58986D01*
X524516Y-59101D01*
X524562Y-59240D01*
X524585Y-59425D01*
X524632Y-59611D01*
X524655Y-60073D01*
Y-60096D01*
Y-60189D01*
Y-60305D01*
X524632Y-60444D01*
X524608Y-60629D01*
X524585Y-60814D01*
X524493Y-61207D01*
Y-61230D01*
X524470Y-61300D01*
X524423Y-61392D01*
X524377Y-61508D01*
X524238Y-61809D01*
X524053Y-62133D01*
X524030Y-62156D01*
X524007Y-62202D01*
X523937Y-62271D01*
X523868Y-62387D01*
X523660Y-62619D01*
X523382Y-62850D01*
X523359Y-62873D01*
X523313Y-62896D01*
X523220Y-62966D01*
X523128Y-63035D01*
X522989Y-63105D01*
X522827Y-63197D01*
X522480Y-63359D01*
X522456D01*
X522387Y-63382D01*
X522295Y-63429D01*
X522156Y-63475D01*
X522017Y-63521D01*
X521832Y-63590D01*
X521415Y-63683D01*
X521392D01*
X521323Y-63706D01*
X521207D01*
X521045Y-63729D01*
X520860Y-63752D01*
X520628D01*
X520397Y-63776D01*
X516695D01*
X516602Y-63752D01*
X516463Y-63706D01*
X516301Y-63637D01*
X516278Y-63614D01*
X516209Y-63498D01*
X516139Y-63336D01*
X516116Y-63081D01*
Y-51558D01*
Y-51535D01*
Y-51489D01*
X516139Y-51350D01*
X516186Y-51165D01*
X516301Y-51003D01*
X516348Y-50979D01*
X516440Y-50910D01*
X516579Y-50864D01*
X516741Y-50841D01*
X520119D01*
X520374Y-50864D01*
D02*
G37*
G36*
X597729Y-54103D02*
X597983Y-54126D01*
X598261Y-54173D01*
X598539Y-54242D01*
X598793Y-54311D01*
X598816D01*
X598909Y-54358D01*
X599025Y-54404D01*
X599187Y-54474D01*
X599557Y-54682D01*
X599742Y-54821D01*
X599904Y-54960D01*
X599927Y-54983D01*
X599973Y-55029D01*
X600043Y-55121D01*
X600135Y-55237D01*
X600228Y-55399D01*
X600344Y-55584D01*
X600436Y-55792D01*
X600506Y-56024D01*
Y-56047D01*
X600529Y-56140D01*
X600575Y-56255D01*
X600621Y-56440D01*
X600644Y-56649D01*
X600691Y-56903D01*
X600714Y-57181D01*
Y-57482D01*
Y-63567D01*
Y-63590D01*
Y-63637D01*
X600668Y-63683D01*
X600621Y-63729D01*
X600598D01*
X600575Y-63752D01*
X600506Y-63776D01*
X600390Y-63799D01*
X600367D01*
X600297Y-63822D01*
X600159Y-63845D01*
X599858D01*
X599719Y-63822D01*
X599580Y-63799D01*
X599557D01*
X599487Y-63776D01*
X599418Y-63752D01*
X599349Y-63729D01*
X599325Y-63683D01*
X599302Y-63637D01*
X599279Y-63567D01*
Y-62665D01*
X599256Y-62688D01*
X599187Y-62757D01*
X599048Y-62873D01*
X598909Y-63012D01*
X598701Y-63174D01*
X598469Y-63336D01*
X598238Y-63498D01*
X597960Y-63637D01*
X597937Y-63660D01*
X597845Y-63683D01*
X597683Y-63729D01*
X597497Y-63799D01*
X597266Y-63868D01*
X597012Y-63914D01*
X596734Y-63938D01*
X596433Y-63961D01*
X596179D01*
X595993Y-63938D01*
X595808Y-63914D01*
X595577Y-63891D01*
X595137Y-63776D01*
X595114D01*
X595045Y-63752D01*
X594929Y-63706D01*
X594813Y-63660D01*
X594489Y-63498D01*
X594165Y-63267D01*
X594142Y-63243D01*
X594096Y-63197D01*
X594027Y-63128D01*
X593934Y-63012D01*
X593842Y-62896D01*
X593726Y-62734D01*
X593541Y-62387D01*
Y-62364D01*
X593517Y-62295D01*
X593471Y-62202D01*
X593448Y-62040D01*
X593402Y-61878D01*
X593356Y-61693D01*
X593332Y-61230D01*
Y-61207D01*
Y-61115D01*
X593356Y-60976D01*
X593379Y-60791D01*
X593402Y-60582D01*
X593471Y-60374D01*
X593541Y-60143D01*
X593633Y-59934D01*
X593656Y-59911D01*
X593680Y-59842D01*
X593749Y-59726D01*
X593865Y-59587D01*
X593980Y-59448D01*
X594142Y-59286D01*
X594304Y-59124D01*
X594512Y-58986D01*
X594536Y-58963D01*
X594628Y-58916D01*
X594744Y-58847D01*
X594906Y-58777D01*
X595114Y-58685D01*
X595345Y-58592D01*
X595623Y-58500D01*
X595924Y-58430D01*
X595970D01*
X596086Y-58407D01*
X596248Y-58361D01*
X596479Y-58338D01*
X596757Y-58292D01*
X597081Y-58268D01*
X597451Y-58245D01*
X599071D01*
Y-57551D01*
Y-57528D01*
Y-57459D01*
Y-57366D01*
X599048Y-57250D01*
X599025Y-56949D01*
X598955Y-56649D01*
Y-56625D01*
X598932Y-56579D01*
X598909Y-56510D01*
X598863Y-56417D01*
X598747Y-56186D01*
X598585Y-55978D01*
Y-55954D01*
X598539Y-55931D01*
X598423Y-55816D01*
X598215Y-55677D01*
X597960Y-55561D01*
X597937D01*
X597891Y-55538D01*
X597798Y-55515D01*
X597706Y-55492D01*
X597567Y-55469D01*
X597405Y-55445D01*
X597012Y-55422D01*
X596780D01*
X596641Y-55445D01*
X596271Y-55492D01*
X595901Y-55584D01*
X595878D01*
X595831Y-55607D01*
X595739Y-55630D01*
X595623Y-55677D01*
X595345Y-55769D01*
X595068Y-55908D01*
X595045D01*
X594999Y-55931D01*
X594929Y-55954D01*
X594860Y-56001D01*
X594651Y-56093D01*
X594443Y-56209D01*
X594397Y-56232D01*
X594304Y-56278D01*
X594189Y-56325D01*
X594096Y-56348D01*
X594050D01*
X593934Y-56325D01*
X593911Y-56301D01*
X593842Y-56209D01*
Y-56186D01*
X593818Y-56140D01*
X593772Y-56001D01*
Y-55978D01*
Y-55908D01*
Y-55816D01*
Y-55723D01*
Y-55700D01*
Y-55677D01*
Y-55584D01*
Y-55445D01*
X593795Y-55330D01*
Y-55307D01*
X593842Y-55237D01*
X593888Y-55145D01*
X593957Y-55052D01*
X593980Y-55029D01*
X594073Y-54960D01*
X594212Y-54867D01*
X594420Y-54751D01*
X594443D01*
X594489Y-54728D01*
X594559Y-54682D01*
X594651Y-54636D01*
X594883Y-54543D01*
X595184Y-54427D01*
X595207D01*
X595253Y-54404D01*
X595345Y-54381D01*
X595461Y-54335D01*
X595600Y-54311D01*
X595762Y-54265D01*
X596132Y-54196D01*
X596155D01*
X596225Y-54173D01*
X596317Y-54150D01*
X596456Y-54126D01*
X596595D01*
X596780Y-54103D01*
X597150Y-54080D01*
X597497D01*
X597729Y-54103D01*
D02*
G37*
G36*
X587501Y-50864D02*
X587779Y-50887D01*
X587848D01*
X587941Y-50910D01*
X588033Y-50933D01*
X588172Y-50956D01*
X588334Y-50979D01*
X588704Y-51049D01*
X588728D01*
X588797Y-51072D01*
X588913Y-51095D01*
X589029Y-51142D01*
X589190Y-51188D01*
X589376Y-51257D01*
X589769Y-51465D01*
X589792Y-51488D01*
X589861Y-51512D01*
X589954Y-51581D01*
X590093Y-51674D01*
X590394Y-51928D01*
X590695Y-52252D01*
X590718Y-52275D01*
X590764Y-52322D01*
X590833Y-52437D01*
X590926Y-52553D01*
X591018Y-52715D01*
X591111Y-52900D01*
X591296Y-53317D01*
Y-53340D01*
X591319Y-53432D01*
X591366Y-53548D01*
X591412Y-53710D01*
X591435Y-53895D01*
X591481Y-54126D01*
X591504Y-54636D01*
Y-54682D01*
Y-54798D01*
X591481Y-54983D01*
X591458Y-55214D01*
X591435Y-55492D01*
X591366Y-55792D01*
X591296Y-56093D01*
X591180Y-56394D01*
X591157Y-56417D01*
X591111Y-56533D01*
X591042Y-56672D01*
X590949Y-56857D01*
X590810Y-57065D01*
X590648Y-57297D01*
X590463Y-57528D01*
X590255Y-57736D01*
X590232Y-57759D01*
X590139Y-57829D01*
X590023Y-57921D01*
X589838Y-58060D01*
X589630Y-58199D01*
X589376Y-58338D01*
X589098Y-58477D01*
X588774Y-58592D01*
X588728Y-58592D01*
X588612Y-58639D01*
X588450Y-58685D01*
X588195Y-58731D01*
X587895Y-58777D01*
X587548Y-58824D01*
X587154Y-58847D01*
X586715Y-58870D01*
X585257D01*
Y-63544D01*
Y-63590D01*
X585210Y-63683D01*
X585164Y-63706D01*
X585118Y-63729D01*
X585048Y-63752D01*
X585025D01*
X584979Y-63776D01*
X584910D01*
X584794Y-63799D01*
X584771D01*
X584678Y-63822D01*
X584563Y-63845D01*
X584262D01*
X584123Y-63822D01*
X583984Y-63799D01*
X583961D01*
X583891Y-63776D01*
X583706Y-63752D01*
X583683D01*
X583660Y-63729D01*
X583568Y-63683D01*
Y-63660D01*
Y-63637D01*
X583545Y-63544D01*
Y-51581D01*
Y-51558D01*
Y-51512D01*
X583568Y-51373D01*
X583637Y-51188D01*
X583753Y-51026D01*
X583799Y-51003D01*
X583891Y-50933D01*
X584030Y-50864D01*
X584216Y-50841D01*
X587247D01*
X587501Y-50864D01*
D02*
G37*
G36*
X613348Y-51836D02*
X613371D01*
X613441Y-51859D01*
X613533Y-51882D01*
X613602Y-51905D01*
X613626D01*
X613649Y-51928D01*
X613741Y-52021D01*
X613764Y-52044D01*
X613788Y-52136D01*
Y-54265D01*
X616125D01*
X616217Y-54311D01*
X616240D01*
X616264Y-54335D01*
X616333Y-54450D01*
Y-54474D01*
X616356Y-54497D01*
X616379Y-54566D01*
X616402Y-54659D01*
Y-54682D01*
X616426Y-54728D01*
Y-54844D01*
Y-54960D01*
Y-54983D01*
Y-55029D01*
Y-55168D01*
X616379Y-55330D01*
X616333Y-55492D01*
X616310Y-55515D01*
X616264Y-55561D01*
X616194Y-55607D01*
X616078Y-55630D01*
X613788D01*
Y-60652D01*
Y-60698D01*
Y-60814D01*
X613811Y-60976D01*
Y-61184D01*
X613903Y-61647D01*
X613950Y-61855D01*
X614042Y-62063D01*
X614065Y-62086D01*
X614089Y-62133D01*
X614158Y-62202D01*
X614274Y-62295D01*
X614412Y-62387D01*
X614574Y-62457D01*
X614783Y-62503D01*
X615037Y-62526D01*
X615292D01*
X615430Y-62503D01*
X615454D01*
X615546Y-62480D01*
X615639Y-62434D01*
X615755Y-62410D01*
X615778Y-62387D01*
X615847Y-62364D01*
X615986Y-62295D01*
X616009D01*
X616055Y-62271D01*
X616194Y-62248D01*
X616217D01*
X616287Y-62295D01*
X616310Y-62318D01*
X616356Y-62387D01*
Y-62410D01*
X616379Y-62434D01*
X616402Y-62572D01*
Y-62596D01*
X616426Y-62642D01*
Y-62757D01*
Y-62873D01*
Y-62919D01*
Y-63035D01*
X616402Y-63174D01*
X616379Y-63336D01*
Y-63359D01*
X616356Y-63429D01*
X616310Y-63521D01*
X616240Y-63590D01*
X616217D01*
X616194Y-63637D01*
X616125Y-63683D01*
X616009Y-63729D01*
X615986D01*
X615893Y-63752D01*
X615778Y-63776D01*
X615639Y-63822D01*
X615616D01*
X615523Y-63845D01*
X615384Y-63868D01*
X615222Y-63891D01*
X615176D01*
X615084Y-63914D01*
X614921Y-63938D01*
X614505D01*
X614343Y-63914D01*
X614158Y-63891D01*
X613950Y-63868D01*
X613556Y-63776D01*
X613533D01*
X613487Y-63729D01*
X613394Y-63706D01*
X613279Y-63637D01*
X613001Y-63452D01*
X612746Y-63220D01*
X612723Y-63197D01*
X612700Y-63151D01*
X612631Y-63058D01*
X612561Y-62943D01*
X612492Y-62804D01*
X612422Y-62642D01*
X612284Y-62248D01*
Y-62225D01*
X612260Y-62156D01*
X612237Y-62017D01*
X612214Y-61855D01*
X612191Y-61670D01*
X612168Y-61438D01*
X612145Y-61184D01*
Y-60906D01*
Y-55630D01*
X610849D01*
X610779Y-55607D01*
X610687Y-55561D01*
X610617Y-55492D01*
Y-55469D01*
X610594Y-55353D01*
X610571Y-55191D01*
X610548Y-54960D01*
Y-54936D01*
Y-54844D01*
Y-54751D01*
X610571Y-54659D01*
Y-54636D01*
X610594Y-54589D01*
Y-54520D01*
X610617Y-54450D01*
Y-54427D01*
X610641Y-54404D01*
X610733Y-54311D01*
X610756D01*
X610779Y-54288D01*
X610872Y-54265D01*
X612145D01*
Y-52136D01*
Y-52113D01*
Y-52090D01*
X612168Y-52021D01*
Y-51998D01*
X612214Y-51975D01*
X612307Y-51905D01*
X612330D01*
X612376Y-51882D01*
X612446Y-51859D01*
X612538Y-51836D01*
X612561D01*
X612654Y-51813D01*
X613232D01*
X613348Y-51836D01*
D02*
G37*
G36*
X546313Y-51836D02*
X546336D01*
X546406Y-51859D01*
X546498Y-51882D01*
X546568Y-51905D01*
X546591D01*
X546614Y-51928D01*
X546707Y-52021D01*
X546730Y-52044D01*
X546753Y-52137D01*
Y-54265D01*
X549090D01*
X549182Y-54312D01*
X549206D01*
X549229Y-54335D01*
X549298Y-54450D01*
Y-54474D01*
X549321Y-54497D01*
X549344Y-54566D01*
X549368Y-54659D01*
Y-54682D01*
X549391Y-54728D01*
Y-54844D01*
Y-54960D01*
Y-54983D01*
Y-55029D01*
Y-55168D01*
X549344Y-55330D01*
X549298Y-55492D01*
X549275Y-55515D01*
X549229Y-55561D01*
X549159Y-55607D01*
X549044Y-55630D01*
X546753D01*
Y-60652D01*
Y-60698D01*
Y-60814D01*
X546776Y-60976D01*
Y-61184D01*
X546869Y-61647D01*
X546915Y-61855D01*
X547007Y-62063D01*
X547030Y-62086D01*
X547054Y-62133D01*
X547123Y-62202D01*
X547239Y-62295D01*
X547378Y-62387D01*
X547539Y-62457D01*
X547748Y-62503D01*
X548002Y-62526D01*
X548257D01*
X548396Y-62503D01*
X548419D01*
X548511Y-62480D01*
X548604Y-62434D01*
X548720Y-62410D01*
X548743Y-62387D01*
X548812Y-62364D01*
X548951Y-62295D01*
X548974D01*
X549021Y-62271D01*
X549159Y-62248D01*
X549182D01*
X549252Y-62295D01*
X549275Y-62318D01*
X549321Y-62387D01*
Y-62410D01*
X549344Y-62434D01*
X549368Y-62572D01*
Y-62596D01*
X549391Y-62642D01*
Y-62758D01*
Y-62873D01*
Y-62919D01*
Y-63035D01*
X549368Y-63174D01*
X549344Y-63336D01*
Y-63359D01*
X549321Y-63429D01*
X549275Y-63521D01*
X549206Y-63590D01*
X549182D01*
X549159Y-63637D01*
X549090Y-63683D01*
X548974Y-63729D01*
X548951D01*
X548858Y-63752D01*
X548743Y-63776D01*
X548604Y-63822D01*
X548581D01*
X548488Y-63845D01*
X548349Y-63868D01*
X548187Y-63891D01*
X548141D01*
X548049Y-63914D01*
X547887Y-63938D01*
X547470D01*
X547308Y-63914D01*
X547123Y-63891D01*
X546915Y-63868D01*
X546521Y-63776D01*
X546498D01*
X546452Y-63729D01*
X546359Y-63706D01*
X546244Y-63637D01*
X545966Y-63452D01*
X545712Y-63220D01*
X545688Y-63197D01*
X545665Y-63151D01*
X545596Y-63058D01*
X545526Y-62943D01*
X545457Y-62804D01*
X545388Y-62642D01*
X545249Y-62248D01*
Y-62225D01*
X545226Y-62156D01*
X545202Y-62017D01*
X545179Y-61855D01*
X545156Y-61670D01*
X545133Y-61438D01*
X545110Y-61184D01*
Y-60906D01*
Y-55630D01*
X543814D01*
X543745Y-55607D01*
X543652Y-55561D01*
X543583Y-55492D01*
Y-55469D01*
X543560Y-55353D01*
X543536Y-55191D01*
X543513Y-54960D01*
Y-54936D01*
Y-54844D01*
Y-54751D01*
X543536Y-54659D01*
Y-54636D01*
X543560Y-54589D01*
Y-54520D01*
X543583Y-54450D01*
Y-54427D01*
X543606Y-54404D01*
X543698Y-54312D01*
X543722D01*
X543745Y-54288D01*
X543837Y-54265D01*
X545110D01*
Y-52137D01*
Y-52113D01*
Y-52090D01*
X545133Y-52021D01*
Y-51998D01*
X545179Y-51975D01*
X545272Y-51905D01*
X545295D01*
X545341Y-51882D01*
X545411Y-51859D01*
X545503Y-51836D01*
X545526D01*
X545619Y-51813D01*
X546198D01*
X546313Y-51836D01*
D02*
G37*
G36*
X539464D02*
X539487D01*
X539557Y-51859D01*
X539649Y-51882D01*
X539718Y-51905D01*
X539742D01*
X539765Y-51928D01*
X539857Y-52021D01*
X539880Y-52044D01*
X539903Y-52137D01*
Y-54265D01*
X542241D01*
X542333Y-54312D01*
X542356D01*
X542379Y-54335D01*
X542449Y-54450D01*
Y-54474D01*
X542472Y-54497D01*
X542495Y-54566D01*
X542518Y-54659D01*
Y-54682D01*
X542541Y-54728D01*
Y-54844D01*
Y-54960D01*
Y-54983D01*
Y-55029D01*
Y-55168D01*
X542495Y-55330D01*
X542449Y-55492D01*
X542426Y-55515D01*
X542379Y-55561D01*
X542310Y-55607D01*
X542194Y-55630D01*
X539903D01*
Y-60652D01*
Y-60698D01*
Y-60814D01*
X539927Y-60976D01*
Y-61184D01*
X540019Y-61647D01*
X540065Y-61855D01*
X540158Y-62063D01*
X540181Y-62086D01*
X540204Y-62133D01*
X540274Y-62202D01*
X540390Y-62295D01*
X540528Y-62387D01*
X540690Y-62457D01*
X540899Y-62503D01*
X541153Y-62526D01*
X541408D01*
X541546Y-62503D01*
X541570D01*
X541662Y-62480D01*
X541755Y-62434D01*
X541870Y-62410D01*
X541894Y-62387D01*
X541963Y-62364D01*
X542102Y-62295D01*
X542125D01*
X542171Y-62271D01*
X542310Y-62248D01*
X542333D01*
X542403Y-62295D01*
X542426Y-62318D01*
X542472Y-62387D01*
Y-62410D01*
X542495Y-62434D01*
X542518Y-62572D01*
Y-62596D01*
X542541Y-62642D01*
Y-62758D01*
Y-62873D01*
Y-62919D01*
Y-63035D01*
X542518Y-63174D01*
X542495Y-63336D01*
Y-63359D01*
X542472Y-63429D01*
X542426Y-63521D01*
X542356Y-63590D01*
X542333D01*
X542310Y-63637D01*
X542241Y-63683D01*
X542125Y-63729D01*
X542102D01*
X542009Y-63752D01*
X541894Y-63776D01*
X541755Y-63822D01*
X541732D01*
X541639Y-63845D01*
X541500Y-63868D01*
X541338Y-63891D01*
X541292D01*
X541199Y-63914D01*
X541037Y-63938D01*
X540621D01*
X540459Y-63914D01*
X540274Y-63891D01*
X540065Y-63868D01*
X539672Y-63776D01*
X539649D01*
X539603Y-63729D01*
X539510Y-63706D01*
X539394Y-63637D01*
X539117Y-63452D01*
X538862Y-63220D01*
X538839Y-63197D01*
X538816Y-63151D01*
X538747Y-63058D01*
X538677Y-62943D01*
X538608Y-62804D01*
X538538Y-62642D01*
X538400Y-62248D01*
Y-62225D01*
X538376Y-62156D01*
X538353Y-62017D01*
X538330Y-61855D01*
X538307Y-61670D01*
X538284Y-61438D01*
X538261Y-61184D01*
Y-60906D01*
Y-55630D01*
X536965D01*
X536895Y-55607D01*
X536803Y-55561D01*
X536733Y-55492D01*
Y-55469D01*
X536710Y-55353D01*
X536687Y-55191D01*
X536664Y-54960D01*
Y-54936D01*
Y-54844D01*
Y-54751D01*
X536687Y-54659D01*
Y-54636D01*
X536710Y-54589D01*
Y-54520D01*
X536733Y-54450D01*
Y-54427D01*
X536757Y-54404D01*
X536849Y-54312D01*
X536872D01*
X536895Y-54288D01*
X536988Y-54265D01*
X538261D01*
Y-52137D01*
Y-52113D01*
Y-52090D01*
X538284Y-52021D01*
Y-51998D01*
X538330Y-51975D01*
X538423Y-51905D01*
X538446D01*
X538492Y-51882D01*
X538562Y-51859D01*
X538654Y-51836D01*
X538677D01*
X538770Y-51813D01*
X539348D01*
X539464Y-51836D01*
D02*
G37*
G36*
X622673Y-54103D02*
X622928Y-54126D01*
X623205Y-54173D01*
X623506Y-54219D01*
X623807Y-54311D01*
X624108Y-54427D01*
X624131Y-54450D01*
X624247Y-54497D01*
X624385Y-54566D01*
X624548Y-54682D01*
X624733Y-54798D01*
X624941Y-54960D01*
X625149Y-55145D01*
X625334Y-55353D01*
X625357Y-55376D01*
X625404Y-55445D01*
X625496Y-55584D01*
X625612Y-55746D01*
X625728Y-55931D01*
X625843Y-56163D01*
X625959Y-56417D01*
X626051Y-56695D01*
Y-56718D01*
X626098Y-56834D01*
X626121Y-56973D01*
X626167Y-57181D01*
X626213Y-57435D01*
X626237Y-57713D01*
X626283Y-58014D01*
Y-58338D01*
Y-58639D01*
Y-58662D01*
Y-58708D01*
X626260Y-58847D01*
X626190Y-59032D01*
X626075Y-59194D01*
X626051Y-59217D01*
X625959Y-59263D01*
X625820Y-59333D01*
X625635Y-59356D01*
X619711D01*
Y-59379D01*
Y-59495D01*
Y-59634D01*
X619734Y-59819D01*
Y-60027D01*
X619781Y-60258D01*
X619850Y-60721D01*
Y-60744D01*
X619873Y-60814D01*
X619920Y-60929D01*
X619966Y-61068D01*
X620128Y-61415D01*
X620359Y-61762D01*
X620382Y-61786D01*
X620429Y-61832D01*
X620498Y-61901D01*
X620614Y-61994D01*
X620729Y-62109D01*
X620891Y-62202D01*
X621262Y-62410D01*
X621285D01*
X621354Y-62434D01*
X621493Y-62480D01*
X621655Y-62503D01*
X621863Y-62549D01*
X622095Y-62596D01*
X622349Y-62619D01*
X622881D01*
X623043Y-62596D01*
X623414Y-62572D01*
X623784Y-62526D01*
X623807D01*
X623876Y-62503D01*
X623969Y-62480D01*
X624085Y-62457D01*
X624362Y-62387D01*
X624663Y-62295D01*
X624686D01*
X624733Y-62271D01*
X624871Y-62202D01*
X625080Y-62133D01*
X625265Y-62063D01*
X625288D01*
X625311Y-62040D01*
X625404Y-61994D01*
X625519Y-61971D01*
X625635Y-61948D01*
X625681D01*
X625751Y-61994D01*
X625774D01*
X625797Y-62017D01*
X625843Y-62109D01*
Y-62133D01*
X625866Y-62156D01*
X625890Y-62295D01*
Y-62318D01*
X625913Y-62364D01*
Y-62480D01*
Y-62596D01*
Y-62619D01*
Y-62665D01*
X625890Y-62827D01*
Y-62850D01*
Y-62873D01*
X625866Y-63012D01*
X625843Y-63058D01*
X625797Y-63151D01*
X625774Y-63174D01*
X625728Y-63243D01*
X625681Y-63290D01*
X625566Y-63336D01*
X625404Y-63429D01*
X625381D01*
X625357Y-63452D01*
X625288Y-63475D01*
X625219Y-63498D01*
X624987Y-63567D01*
X624686Y-63660D01*
X624663D01*
X624617Y-63683D01*
X624524Y-63706D01*
X624409Y-63729D01*
X624270Y-63752D01*
X624085Y-63799D01*
X623691Y-63868D01*
X623668D01*
X623599Y-63891D01*
X623483D01*
X623344Y-63914D01*
X623159Y-63938D01*
X622951D01*
X622488Y-63961D01*
X622303D01*
X622095Y-63938D01*
X621840Y-63914D01*
X621516Y-63891D01*
X621192Y-63822D01*
X620868Y-63752D01*
X620544Y-63660D01*
X620498Y-63637D01*
X620406Y-63614D01*
X620243Y-63521D01*
X620058Y-63429D01*
X619827Y-63313D01*
X619596Y-63151D01*
X619364Y-62966D01*
X619133Y-62757D01*
X619110Y-62734D01*
X619040Y-62642D01*
X618948Y-62503D01*
X618809Y-62341D01*
X618670Y-62109D01*
X618531Y-61855D01*
X618392Y-61554D01*
X618277Y-61230D01*
Y-61184D01*
X618230Y-61068D01*
X618184Y-60883D01*
X618138Y-60606D01*
X618092Y-60305D01*
X618045Y-59934D01*
X618022Y-59518D01*
X617999Y-59078D01*
Y-59055D01*
Y-59032D01*
Y-58893D01*
X618022Y-58662D01*
X618045Y-58384D01*
X618068Y-58060D01*
X618115Y-57713D01*
X618184Y-57343D01*
X618277Y-56996D01*
X618300Y-56949D01*
X618323Y-56834D01*
X618392Y-56672D01*
X618508Y-56440D01*
X618624Y-56209D01*
X618763Y-55931D01*
X618948Y-55677D01*
X619133Y-55422D01*
X619156Y-55399D01*
X619225Y-55307D01*
X619364Y-55191D01*
X619526Y-55052D01*
X619711Y-54890D01*
X619943Y-54728D01*
X620220Y-54566D01*
X620498Y-54427D01*
X620544Y-54404D01*
X620637Y-54381D01*
X620799Y-54311D01*
X621030Y-54242D01*
X621285Y-54196D01*
X621609Y-54126D01*
X621933Y-54103D01*
X622303Y-54080D01*
X622488D01*
X622673Y-54103D01*
D02*
G37*
G36*
X555916Y-54103D02*
X556171Y-54127D01*
X556471Y-54173D01*
X556795Y-54219D01*
X557119Y-54312D01*
X557443Y-54427D01*
X557490Y-54450D01*
X557582Y-54497D01*
X557744Y-54566D01*
X557929Y-54659D01*
X558161Y-54798D01*
X558392Y-54960D01*
X558623Y-55145D01*
X558832Y-55376D01*
X558855Y-55399D01*
X558924Y-55492D01*
X559017Y-55630D01*
X559156Y-55792D01*
X559271Y-56024D01*
X559410Y-56278D01*
X559549Y-56579D01*
X559665Y-56903D01*
X559688Y-56950D01*
X559711Y-57065D01*
X559757Y-57250D01*
X559803Y-57505D01*
X559850Y-57806D01*
X559896Y-58153D01*
X559942Y-58523D01*
Y-58939D01*
Y-58963D01*
Y-58986D01*
Y-59125D01*
X559919Y-59333D01*
X559896Y-59587D01*
X559873Y-59911D01*
X559827Y-60235D01*
X559734Y-60606D01*
X559641Y-60953D01*
X559618Y-60999D01*
X559595Y-61115D01*
X559526Y-61276D01*
X559410Y-61508D01*
X559294Y-61739D01*
X559156Y-62017D01*
X558970Y-62295D01*
X558762Y-62549D01*
X558739Y-62572D01*
X558670Y-62665D01*
X558531Y-62781D01*
X558369Y-62919D01*
X558161Y-63105D01*
X557929Y-63267D01*
X557651Y-63429D01*
X557327Y-63590D01*
X557281Y-63614D01*
X557165Y-63637D01*
X557004Y-63706D01*
X556749Y-63776D01*
X556471Y-63845D01*
X556124Y-63891D01*
X555754Y-63938D01*
X555337Y-63961D01*
X555152D01*
X554944Y-63938D01*
X554690Y-63914D01*
X554366Y-63891D01*
X554042Y-63822D01*
X553718Y-63752D01*
X553394Y-63637D01*
X553348Y-63614D01*
X553255Y-63567D01*
X553093Y-63498D01*
X552908Y-63405D01*
X552700Y-63267D01*
X552468Y-63105D01*
X552237Y-62896D01*
X552005Y-62688D01*
X551982Y-62665D01*
X551913Y-62572D01*
X551820Y-62434D01*
X551705Y-62271D01*
X551566Y-62040D01*
X551450Y-61786D01*
X551311Y-61485D01*
X551196Y-61161D01*
Y-61115D01*
X551149Y-60999D01*
X551126Y-60814D01*
X551080Y-60559D01*
X551034Y-60258D01*
X550987Y-59911D01*
X550964Y-59541D01*
X550941Y-59125D01*
Y-59101D01*
Y-59078D01*
Y-58939D01*
X550964Y-58731D01*
X550987Y-58453D01*
X551011Y-58130D01*
X551057Y-57806D01*
X551126Y-57435D01*
X551219Y-57088D01*
X551242Y-57042D01*
X551265Y-56926D01*
X551334Y-56764D01*
X551427Y-56533D01*
X551543Y-56302D01*
X551705Y-56024D01*
X551867Y-55746D01*
X552075Y-55492D01*
X552098Y-55469D01*
X552191Y-55376D01*
X552306Y-55260D01*
X552468Y-55098D01*
X552677Y-54936D01*
X552931Y-54774D01*
X553209Y-54589D01*
X553509Y-54450D01*
X553556Y-54427D01*
X553671Y-54381D01*
X553834Y-54335D01*
X554088Y-54265D01*
X554389Y-54196D01*
X554713Y-54127D01*
X555106Y-54103D01*
X555523Y-54080D01*
X555708D01*
X555916Y-54103D01*
D02*
G37*
G36*
X531411D02*
X531666Y-54127D01*
X531967Y-54173D01*
X532291Y-54219D01*
X532615Y-54312D01*
X532939Y-54427D01*
X532985Y-54450D01*
X533077Y-54497D01*
X533239Y-54566D01*
X533424Y-54659D01*
X533656Y-54798D01*
X533887Y-54960D01*
X534119Y-55145D01*
X534327Y-55376D01*
X534350Y-55399D01*
X534420Y-55492D01*
X534512Y-55630D01*
X534651Y-55792D01*
X534767Y-56024D01*
X534905Y-56278D01*
X535044Y-56579D01*
X535160Y-56903D01*
X535183Y-56950D01*
X535206Y-57065D01*
X535252Y-57250D01*
X535299Y-57505D01*
X535345Y-57806D01*
X535391Y-58153D01*
X535438Y-58523D01*
Y-58939D01*
Y-58963D01*
Y-58986D01*
Y-59125D01*
X535415Y-59333D01*
X535391Y-59587D01*
X535368Y-59911D01*
X535322Y-60235D01*
X535229Y-60606D01*
X535137Y-60953D01*
X535114Y-60999D01*
X535090Y-61115D01*
X535021Y-61276D01*
X534905Y-61508D01*
X534790Y-61739D01*
X534651Y-62017D01*
X534466Y-62295D01*
X534258Y-62549D01*
X534234Y-62572D01*
X534165Y-62665D01*
X534026Y-62781D01*
X533864Y-62919D01*
X533656Y-63105D01*
X533424Y-63267D01*
X533147Y-63429D01*
X532823Y-63590D01*
X532777Y-63614D01*
X532661Y-63637D01*
X532499Y-63706D01*
X532244Y-63776D01*
X531967Y-63845D01*
X531620Y-63891D01*
X531249Y-63938D01*
X530833Y-63961D01*
X530648D01*
X530439Y-63938D01*
X530185Y-63914D01*
X529861Y-63891D01*
X529537Y-63822D01*
X529213Y-63752D01*
X528889Y-63637D01*
X528843Y-63614D01*
X528750Y-63567D01*
X528588Y-63498D01*
X528403Y-63405D01*
X528195Y-63267D01*
X527964Y-63105D01*
X527732Y-62896D01*
X527501Y-62688D01*
X527478Y-62665D01*
X527408Y-62572D01*
X527316Y-62434D01*
X527200Y-62271D01*
X527061Y-62040D01*
X526945Y-61786D01*
X526807Y-61485D01*
X526691Y-61161D01*
Y-61115D01*
X526645Y-60999D01*
X526622Y-60814D01*
X526575Y-60559D01*
X526529Y-60258D01*
X526483Y-59911D01*
X526460Y-59541D01*
X526436Y-59125D01*
Y-59101D01*
Y-59078D01*
Y-58939D01*
X526460Y-58731D01*
X526483Y-58453D01*
X526506Y-58130D01*
X526552Y-57806D01*
X526622Y-57435D01*
X526714Y-57088D01*
X526737Y-57042D01*
X526760Y-56926D01*
X526830Y-56764D01*
X526922Y-56533D01*
X527038Y-56302D01*
X527200Y-56024D01*
X527362Y-55746D01*
X527570Y-55492D01*
X527593Y-55469D01*
X527686Y-55376D01*
X527802Y-55260D01*
X527964Y-55098D01*
X528172Y-54936D01*
X528426Y-54774D01*
X528704Y-54589D01*
X529005Y-54450D01*
X529051Y-54427D01*
X529167Y-54381D01*
X529329Y-54335D01*
X529583Y-54265D01*
X529884Y-54196D01*
X530208Y-54127D01*
X530602Y-54103D01*
X531018Y-54080D01*
X531203D01*
X531411Y-54103D01*
D02*
G37*
%LPC*%
G36*
X519865Y-52252D02*
X517829D01*
Y-56440D01*
X520027D01*
X520189Y-56417D01*
X520536Y-56371D01*
X520698Y-56325D01*
X520860Y-56278D01*
X520883D01*
X520929Y-56255D01*
X520999Y-56209D01*
X521114Y-56140D01*
X521323Y-56001D01*
X521554Y-55816D01*
X521577Y-55792D01*
X521600Y-55769D01*
X521647Y-55700D01*
X521716Y-55607D01*
X521832Y-55399D01*
X521947Y-55121D01*
Y-55098D01*
X521970Y-55052D01*
X521994Y-54983D01*
X522017Y-54867D01*
X522063Y-54612D01*
X522086Y-54312D01*
Y-54288D01*
Y-54219D01*
Y-54127D01*
X522063Y-54011D01*
X522040Y-53733D01*
X521947Y-53455D01*
Y-53432D01*
X521924Y-53386D01*
X521901Y-53317D01*
X521855Y-53224D01*
X521716Y-53016D01*
X521531Y-52807D01*
X521508Y-52784D01*
X521485Y-52761D01*
X521415Y-52715D01*
X521346Y-52669D01*
X521091Y-52530D01*
X520790Y-52414D01*
X520767D01*
X520721Y-52391D01*
X520605Y-52368D01*
X520490Y-52322D01*
X520304Y-52298D01*
X520119Y-52275D01*
X519865Y-52252D01*
D02*
G37*
G36*
X520189Y-57806D02*
X517829D01*
Y-62364D01*
X520536D01*
X520675Y-62341D01*
X520999Y-62295D01*
X521346Y-62225D01*
X521369D01*
X521415Y-62202D01*
X521508Y-62156D01*
X521600Y-62133D01*
X521855Y-61994D01*
X522109Y-61832D01*
X522132Y-61809D01*
X522179Y-61786D01*
X522318Y-61647D01*
X522480Y-61415D01*
X522642Y-61138D01*
Y-61115D01*
X522665Y-61068D01*
X522711Y-60976D01*
X522757Y-60860D01*
X522780Y-60721D01*
X522827Y-60559D01*
X522850Y-60189D01*
Y-60166D01*
Y-60096D01*
Y-59981D01*
X522827Y-59842D01*
X522780Y-59518D01*
X522665Y-59171D01*
Y-59148D01*
X522642Y-59101D01*
X522595Y-59009D01*
X522526Y-58916D01*
X522364Y-58662D01*
X522109Y-58430D01*
X522086Y-58407D01*
X522040Y-58384D01*
X521970Y-58315D01*
X521878Y-58268D01*
X521739Y-58176D01*
X521600Y-58106D01*
X521230Y-57968D01*
X521207D01*
X521138Y-57944D01*
X521022Y-57921D01*
X520860Y-57875D01*
X520675Y-57852D01*
X520443Y-57829D01*
X520189Y-57806D01*
D02*
G37*
G36*
X599071Y-59425D02*
X597405D01*
X597243Y-59448D01*
X597058D01*
X596850Y-59472D01*
X596456Y-59541D01*
X596433D01*
X596387Y-59564D01*
X596294Y-59587D01*
X596179Y-59634D01*
X595901Y-59726D01*
X595646Y-59888D01*
X595623D01*
X595600Y-59934D01*
X595461Y-60050D01*
X595299Y-60212D01*
X595160Y-60444D01*
Y-60467D01*
X595137Y-60490D01*
X595114Y-60559D01*
X595091Y-60652D01*
X595045Y-60883D01*
X595022Y-61161D01*
Y-61184D01*
Y-61276D01*
X595045Y-61392D01*
X595068Y-61554D01*
X595137Y-61739D01*
X595207Y-61924D01*
X595322Y-62109D01*
X595461Y-62271D01*
X595484Y-62295D01*
X595554Y-62341D01*
X595646Y-62387D01*
X595785Y-62457D01*
X595947Y-62549D01*
X596155Y-62596D01*
X596410Y-62642D01*
X596688Y-62665D01*
X596803D01*
X596919Y-62642D01*
X597081Y-62619D01*
X597266Y-62596D01*
X597474Y-62526D01*
X597683Y-62457D01*
X597891Y-62341D01*
X597914Y-62318D01*
X597983Y-62271D01*
X598099Y-62202D01*
X598238Y-62086D01*
X598423Y-61948D01*
X598631Y-61786D01*
X598840Y-61577D01*
X599071Y-61346D01*
Y-59425D01*
D02*
G37*
G36*
X586853Y-52252D02*
X585257D01*
Y-57459D01*
X587085D01*
X587270Y-57435D01*
X587478Y-57412D01*
X587686Y-57389D01*
X587895Y-57343D01*
X588103Y-57273D01*
X588126D01*
X588195Y-57227D01*
X588288Y-57181D01*
X588404Y-57135D01*
X588681Y-56950D01*
X588959Y-56718D01*
X588982Y-56695D01*
X589029Y-56649D01*
X589098Y-56579D01*
X589167Y-56463D01*
X589352Y-56209D01*
X589514Y-55862D01*
Y-55839D01*
X589538Y-55769D01*
X589584Y-55677D01*
X589607Y-55538D01*
X589653Y-55376D01*
X589676Y-55191D01*
X589700Y-54774D01*
Y-54728D01*
Y-54636D01*
X589676Y-54497D01*
X589653Y-54311D01*
X589630Y-54103D01*
X589584Y-53895D01*
X589491Y-53664D01*
X589399Y-53455D01*
X589376Y-53432D01*
X589352Y-53363D01*
X589283Y-53270D01*
X589190Y-53155D01*
X588959Y-52900D01*
X588820Y-52784D01*
X588658Y-52669D01*
X588635Y-52646D01*
X588589Y-52622D01*
X588496Y-52576D01*
X588381Y-52530D01*
X588103Y-52414D01*
X587756Y-52345D01*
X587733D01*
X587686Y-52322D01*
X587594D01*
X587478Y-52298D01*
X587177Y-52275D01*
X586853Y-52252D01*
D02*
G37*
G36*
X622234Y-55376D02*
X622002D01*
X621863Y-55399D01*
X621516Y-55469D01*
X621146Y-55607D01*
X621123D01*
X621077Y-55654D01*
X620984Y-55700D01*
X620868Y-55769D01*
X620614Y-55978D01*
X620359Y-56232D01*
X620336Y-56255D01*
X620313Y-56301D01*
X620243Y-56371D01*
X620197Y-56487D01*
X620105Y-56602D01*
X620035Y-56764D01*
X619873Y-57111D01*
Y-57135D01*
X619850Y-57204D01*
X619827Y-57297D01*
X619804Y-57435D01*
X619758Y-57597D01*
X619734Y-57759D01*
X619711Y-58153D01*
X624617D01*
Y-58130D01*
Y-58083D01*
Y-58037D01*
Y-57944D01*
X624594Y-57713D01*
X624548Y-57412D01*
X624478Y-57088D01*
X624362Y-56741D01*
X624224Y-56417D01*
X624015Y-56116D01*
X623992Y-56093D01*
X623900Y-56001D01*
X623761Y-55885D01*
X623576Y-55746D01*
X623321Y-55607D01*
X623020Y-55492D01*
X622650Y-55399D01*
X622234Y-55376D01*
D02*
G37*
G36*
X555453Y-55469D02*
X555337D01*
X555199Y-55492D01*
X555014D01*
X554828Y-55538D01*
X554597Y-55584D01*
X554389Y-55654D01*
X554181Y-55746D01*
X554157D01*
X554088Y-55792D01*
X553995Y-55862D01*
X553880Y-55931D01*
X553602Y-56163D01*
X553324Y-56487D01*
X553301Y-56510D01*
X553278Y-56579D01*
X553209Y-56672D01*
X553139Y-56788D01*
X553047Y-56950D01*
X552954Y-57158D01*
X552885Y-57366D01*
X552815Y-57597D01*
Y-57621D01*
X552792Y-57713D01*
X552769Y-57852D01*
X552746Y-58014D01*
X552700Y-58222D01*
X552677Y-58477D01*
X552653Y-58731D01*
Y-59009D01*
Y-59032D01*
Y-59125D01*
Y-59286D01*
X552677Y-59448D01*
Y-59680D01*
X552700Y-59911D01*
X552769Y-60397D01*
Y-60420D01*
X552792Y-60513D01*
X552839Y-60629D01*
X552885Y-60791D01*
X553024Y-61138D01*
X553232Y-61531D01*
X553255Y-61554D01*
X553301Y-61600D01*
X553371Y-61693D01*
X553463Y-61809D01*
X553579Y-61924D01*
X553741Y-62063D01*
X554088Y-62295D01*
X554111D01*
X554181Y-62341D01*
X554296Y-62387D01*
X554458Y-62434D01*
X554643Y-62480D01*
X554875Y-62526D01*
X555129Y-62549D01*
X555407Y-62572D01*
X555523D01*
X555662Y-62549D01*
X555847D01*
X556055Y-62503D01*
X556263Y-62457D01*
X556471Y-62410D01*
X556680Y-62318D01*
X556703Y-62295D01*
X556772Y-62271D01*
X556865Y-62202D01*
X556980Y-62133D01*
X557281Y-61901D01*
X557559Y-61600D01*
X557582Y-61577D01*
X557605Y-61508D01*
X557675Y-61415D01*
X557744Y-61276D01*
X557837Y-61115D01*
X557929Y-60929D01*
X557999Y-60721D01*
X558068Y-60490D01*
Y-60467D01*
X558091Y-60374D01*
X558114Y-60235D01*
X558161Y-60050D01*
X558184Y-59842D01*
X558207Y-59611D01*
X558230Y-59055D01*
Y-59032D01*
Y-58939D01*
Y-58777D01*
X558207Y-58592D01*
Y-58384D01*
X558184Y-58153D01*
X558091Y-57667D01*
Y-57644D01*
X558068Y-57551D01*
X558022Y-57435D01*
X557975Y-57273D01*
X557837Y-56903D01*
X557628Y-56533D01*
X557605Y-56510D01*
X557582Y-56440D01*
X557513Y-56371D01*
X557420Y-56255D01*
X557304Y-56140D01*
X557142Y-56001D01*
X556980Y-55885D01*
X556795Y-55769D01*
X556772Y-55746D01*
X556703Y-55723D01*
X556587Y-55677D01*
X556425Y-55607D01*
X556240Y-55561D01*
X556009Y-55515D01*
X555754Y-55492D01*
X555453Y-55469D01*
D02*
G37*
G36*
X530949D02*
X530833D01*
X530694Y-55492D01*
X530509D01*
X530324Y-55538D01*
X530092Y-55584D01*
X529884Y-55654D01*
X529676Y-55746D01*
X529653D01*
X529583Y-55792D01*
X529491Y-55862D01*
X529375Y-55931D01*
X529097Y-56163D01*
X528820Y-56487D01*
X528797Y-56510D01*
X528773Y-56579D01*
X528704Y-56672D01*
X528635Y-56788D01*
X528542Y-56950D01*
X528450Y-57158D01*
X528380Y-57366D01*
X528311Y-57597D01*
Y-57621D01*
X528288Y-57713D01*
X528264Y-57852D01*
X528241Y-58014D01*
X528195Y-58222D01*
X528172Y-58477D01*
X528149Y-58731D01*
Y-59009D01*
Y-59032D01*
Y-59125D01*
Y-59286D01*
X528172Y-59448D01*
Y-59680D01*
X528195Y-59911D01*
X528264Y-60397D01*
Y-60420D01*
X528288Y-60513D01*
X528334Y-60629D01*
X528380Y-60791D01*
X528519Y-61138D01*
X528727Y-61531D01*
X528750Y-61554D01*
X528797Y-61600D01*
X528866Y-61693D01*
X528959Y-61809D01*
X529074Y-61924D01*
X529236Y-62063D01*
X529583Y-62295D01*
X529607D01*
X529676Y-62341D01*
X529792Y-62387D01*
X529954Y-62434D01*
X530139Y-62480D01*
X530370Y-62526D01*
X530625Y-62549D01*
X530902Y-62572D01*
X531018D01*
X531157Y-62549D01*
X531342D01*
X531550Y-62503D01*
X531758Y-62457D01*
X531967Y-62410D01*
X532175Y-62318D01*
X532198Y-62295D01*
X532267Y-62271D01*
X532360Y-62202D01*
X532476Y-62133D01*
X532777Y-61901D01*
X533054Y-61600D01*
X533077Y-61577D01*
X533101Y-61508D01*
X533170Y-61415D01*
X533239Y-61276D01*
X533332Y-61115D01*
X533424Y-60929D01*
X533494Y-60721D01*
X533563Y-60490D01*
Y-60467D01*
X533587Y-60374D01*
X533610Y-60235D01*
X533656Y-60050D01*
X533679Y-59842D01*
X533702Y-59611D01*
X533725Y-59055D01*
Y-59032D01*
Y-58939D01*
Y-58777D01*
X533702Y-58592D01*
Y-58384D01*
X533679Y-58153D01*
X533587Y-57667D01*
Y-57644D01*
X533563Y-57551D01*
X533517Y-57435D01*
X533471Y-57273D01*
X533332Y-56903D01*
X533124Y-56533D01*
X533101Y-56510D01*
X533077Y-56440D01*
X533008Y-56371D01*
X532915Y-56255D01*
X532800Y-56140D01*
X532638Y-56001D01*
X532476Y-55885D01*
X532291Y-55769D01*
X532267Y-55746D01*
X532198Y-55723D01*
X532082Y-55677D01*
X531920Y-55607D01*
X531735Y-55561D01*
X531504Y-55515D01*
X531249Y-55492D01*
X530949Y-55469D01*
D02*
G37*
%LPD*%
D27*
X121375Y83530D02*
D03*
X110375Y64478D02*
D03*
X58155Y120030D02*
D03*
X47155Y100978D02*
D03*
D28*
X95001Y65848D02*
D03*
X82010Y73348D02*
D03*
X56030Y88349D02*
D03*
D29*
X-113500Y-30000D02*
D03*
X113500D02*
D03*
D30*
X0D02*
D03*
M02*
